<svg width="20" height="20" viewBox="0 0 20 20" fill="none" xmlns="http://www.w3.org/2000/svg">
<g clip-path="url(#clip0_5_2399)">
<path d="M4.00134 8.80469C4.1113 8.80535 4.20056 8.89488 4.20056 9.00488V14.0029C4.2004 14.1135 4.10998 14.2034 3.99939 14.2031L3.09216 14.2002H3.09021C1.93012 14.2002 0.818795 13.0946 0.818726 11.5029C0.818726 9.865 1.84754 8.80067 2.96716 8.7998L4.00134 8.80469ZM17.0472 8.80371C18.1697 8.80371 19.1995 9.86532 19.1996 11.501C19.1996 13.0929 18.0903 14.1981 16.9291 14.1982H16.9261L16.0004 14.2012C15.8898 14.2013 15.8002 14.1115 15.8002 14.001V9.00684C15.8002 8.89731 15.8882 8.80808 15.9974 8.80664L17.0472 8.80371Z" stroke="#FFC31D" stroke-width="1.6"/>
<path d="M2.80812 9.23925C2.75894 8.26836 2.90688 7.29756 3.24302 6.38539C3.57917 5.47323 4.09655 4.63857 4.76398 3.93176C5.43141 3.22495 6.23506 2.66062 7.12648 2.27279C8.0179 1.88496 8.97863 1.68166 9.95075 1.67516C10.9229 1.66866 11.8862 1.85908 12.7827 2.23496C13.6793 2.61083 14.4904 3.16436 15.1672 3.86218C15.8441 4.56 16.3726 5.38766 16.7209 6.29525C17.0692 7.20284 17.2301 8.17157 17.1939 9.14303" stroke="#FFC31D" stroke-width="1.6"/>
<path d="M7 8L9.57125 12.2854C9.76545 12.6091 10.2345 12.6091 10.4287 12.2854L13 8" stroke="#FFC31D" stroke-width="1.4" stroke-linecap="round"/>
<path d="M7.99988 18C7.99988 17.4477 8.44759 17 8.99988 17H10.9999C11.5522 17 11.9999 17.4477 11.9999 18C11.9999 18.5523 11.5522 19 10.9999 19H8.99988C8.44759 19 7.99988 18.5523 7.99988 18Z" fill="#FFC31D"/>
<path d="M3.49976 14.5L3.70101 14.9696C4.48891 16.808 6.2966 18 8.29674 18H8.99976" stroke="#FFC31D" stroke-width="1.2" stroke-linecap="round"/>
</g>
<defs>
<clipPath id="clip0_5_2399">
<rect width="20" height="20" fill="white"/>
</clipPath>
</defs>
</svg>
