<svg width="24" height="24" viewBox="0 0 24 24" fill="none" xmlns="http://www.w3.org/2000/svg">
<path d="M16.1944 4.37636C16.5928 4.37636 16.9169 4.68563 16.9261 5.0705L16.9263 5.08729L16.9263 8.00845C18.3779 8.0373 19.5485 9.17796 19.572 10.5895L19.5724 10.6329V12.8751H19.7976C21.2752 12.8751 22.4758 14.0269 22.4996 15.4567L22.5 15.5001V19.875C22.5 21.3248 21.2901 22.5 19.7976 22.5H4.20242C2.7099 22.5 1.5 21.3248 1.5 19.875V15.5001C1.5 14.0503 2.70992 12.8751 4.20242 12.8751H4.42759V10.6329C4.42759 9.25323 5.52338 8.12216 6.91568 8.01604V5.08729C6.91568 4.69464 7.24338 4.37636 7.64759 4.37636C8.04605 4.37636 8.37011 4.68563 8.37929 5.0705L8.37951 5.08729L8.37948 8.00788H11.2399V5.08729C11.2399 4.69464 11.5676 4.37636 11.9719 4.37636C12.3703 4.37636 12.6944 4.68563 12.7035 5.0705L12.7037 5.08729V8.00786H15.4625V5.08729C15.4625 4.69464 15.7902 4.37636 16.1944 4.37636ZM19.7976 14.2969H4.20242C3.51835 14.2969 2.96381 14.8356 2.96381 15.5001V19.875C2.96381 20.5395 3.51835 21.0781 4.20242 21.0781H19.7976C20.4816 21.0781 21.0362 20.5395 21.0362 19.875V18.7081H9.49848C9.09427 18.7081 8.76659 18.3898 8.76659 17.9971C8.76659 17.6101 9.08496 17.2953 9.4812 17.2864L9.49848 17.2862H21.0362V15.5001C21.0362 14.8422 20.4927 14.3077 19.8181 14.2971L19.7976 14.2969ZM7.9738 17.9891C7.9783 18.3761 7.6636 18.6944 7.26749 18.7076L7.25021 18.708L5.56188 18.7265C5.1577 18.731 4.82632 18.4163 4.82174 18.0237C4.81727 17.6367 5.13197 17.3184 5.52808 17.3052L5.54536 17.3048L7.23369 17.2862C7.63787 17.2818 7.96925 17.5965 7.9738 17.9891ZM16.87 9.42977H7.13003C6.45279 9.42977 5.90253 9.9577 5.89157 10.613L5.89142 10.6329L5.8914 12.8751H18.1086V10.6329C18.1086 9.97506 17.5651 9.44054 16.8905 9.42994L16.87 9.42977ZM11.9719 1.5C12.3703 1.5 12.6944 1.80927 12.7035 2.19414L12.7037 2.21093V2.85675C12.7037 3.2494 12.3761 3.56768 11.9719 3.56768C11.5734 3.56768 11.2493 3.25841 11.2402 2.87354L11.2399 2.85675V2.21093C11.2399 1.81828 11.5676 1.5 11.9719 1.5Z" fill="#FFC31D"/>
</svg>
