<svg width="24" height="24" viewBox="0 0 24 24" fill="none" xmlns="http://www.w3.org/2000/svg">
<path d="M12 2.25C6.624 2.25 2.25 6.624 2.25 12C2.25 17.376 6.624 21.75 12 21.75C17.376 21.75 21.75 17.376 21.75 12C21.75 6.624 17.376 2.25 12 2.25ZM11.1562 3.79725C11.1862 3.7935 11.2192 3.7995 11.25 3.79725V4.3C11.25 4.41046 11.3395 4.5 11.45 4.5H12.55C12.6605 4.5 12.75 4.41046 12.75 4.3V3.7965C14.6689 3.96846 16.4664 4.80897 17.8287 6.17127C19.191 7.53357 20.0315 9.3311 20.2035 11.25H19.7C19.5895 11.25 19.5 11.3395 19.5 11.45V12.55C19.5 12.6605 19.5895 12.75 19.7 12.75H20.2035C20.0315 14.6689 19.191 16.4664 17.8287 17.8287C16.4664 19.191 14.6689 20.0315 12.75 20.2035V19.7C12.75 19.5895 12.6605 19.5 12.55 19.5H11.45C11.3395 19.5 11.25 19.5895 11.25 19.7V20.2035C9.3311 20.0315 7.53357 19.191 6.17127 17.8287C4.80897 16.4664 3.96846 14.6689 3.7965 12.75H4.3C4.41046 12.75 4.5 12.6605 4.5 12.55V11.45C4.5 11.3395 4.41046 11.25 4.3 11.25H3.7965C4.1505 7.31775 7.23675 4.19325 11.1562 3.79725ZM16.3695 7.8943C16.4417 7.72788 16.2728 7.55897 16.1064 7.63119L10.2687 10.1641C10.2221 10.1843 10.185 10.2214 10.1648 10.2679L7.63053 16.1057C7.55828 16.2721 7.72715 16.441 7.89359 16.3688L13.7313 13.8359C13.7779 13.8157 13.815 13.7786 13.8352 13.7321L16.3695 7.8943ZM12 10.875C12.6 10.875 13.125 11.4 13.125 12C13.125 12.6 12.6 13.125 12 13.125C11.4 13.125 10.875 12.6 10.875 12C10.875 11.4 11.4 10.875 12 10.875Z" fill="#FFC31D"/>
</svg>
