<svg width="24" height="24" viewBox="0 0 24 24" fill="none" xmlns="http://www.w3.org/2000/svg">
<path d="M9.854 9.854L9.5 9.5M14.504 14.504L14.15 14.15M9.5 14.5L14.5 9.5M7.805 3.469C8.16 3.115 8.451 3 8.937 3H15.063C15.549 3 15.841 3.115 16.195 3.469L20.531 7.805C20.885 8.159 21 8.451 21 8.937V15.063C21 15.563 20.875 15.851 20.531 16.195L16.195 20.531C15.841 20.885 15.549 21 15.063 21H8.937C8.437 21 8.149 20.875 7.805 20.531L3.47 16.195C3.115 15.84 3 15.549 3 15.063V8.937C3 8.437 3.125 8.149 3.469 7.805L7.805 3.469Z" stroke="#FFC31D" stroke-width="1.5" stroke-linecap="round" stroke-linejoin="round"/>
</svg>
