<svg width="24" height="24" viewBox="0 0 24 24" fill="none" xmlns="http://www.w3.org/2000/svg">
<path d="M8.125 12C8.32391 12 8.51468 12.079 8.65533 12.2197C8.79598 12.3603 8.875 12.5511 8.875 12.75C8.875 12.9489 8.79598 13.1397 8.65533 13.2803C8.51468 13.421 8.32391 13.5 8.125 13.5H7.25C7.05109 13.5 6.86032 13.421 6.71967 13.2803C6.57902 13.1397 6.5 12.9489 6.5 12.75C6.5 12.5511 6.57902 12.3603 6.71967 12.2197C6.86032 12.079 7.05109 12 7.25 12H8.125ZM12 8C12.1989 8 12.3897 8.07902 12.5303 8.21967C12.671 8.36032 12.75 8.55109 12.75 8.75C12.75 8.94891 12.671 9.13968 12.5303 9.28033C12.3897 9.42098 12.1989 9.5 12 9.5H7.25C7.05109 9.5 6.86032 9.42098 6.71967 9.28033C6.57902 9.13968 6.5 8.94891 6.5 8.75C6.5 8.55109 6.57902 8.36032 6.71967 8.21967C6.86032 8.07902 7.05109 8 7.25 8H12Z" fill="#FFC31D"/>
<path d="M13.8775 21.4997C13.6786 21.4997 13.4878 21.4207 13.3472 21.2801C13.2065 21.1394 13.1275 20.9486 13.1275 20.7497C13.1275 20.5508 13.2065 20.3601 13.3472 20.2194C13.4878 20.0788 13.6786 19.9997 13.8775 19.9997H14.7125L14.713 18.7312C14.0793 19.211 13.2966 19.4518 12.5028 19.4112C11.709 19.3706 10.955 19.0512 10.3735 18.5092L10.2885 18.4267C9.65572 17.7938 9.30023 16.9355 9.30023 16.0405C9.30023 15.1455 9.65572 14.2872 10.2885 13.6542L13.9125 10.0302C14.1214 9.8213 14.3695 9.65556 14.6425 9.54249C14.9155 9.42941 15.208 9.37122 15.5035 9.37122C15.799 9.37122 16.0916 9.42941 16.3646 9.54249C16.6375 9.65556 16.8856 9.8213 17.0945 10.0302L20.7185 13.6542L20.8005 13.7392C21.3827 14.3637 21.7066 15.1857 21.7069 16.0395C21.7072 16.8933 21.3839 17.7155 20.8021 18.3405C20.2203 18.9654 19.4233 19.3465 18.5716 19.4072C17.72 19.4678 16.877 19.2034 16.2125 18.6672V19.9997H17.1275C17.3264 19.9997 17.5172 20.0788 17.6578 20.2194C17.7985 20.3601 17.8775 20.5508 17.8775 20.7497C17.8775 20.9486 17.7985 21.1394 17.6578 21.2801C17.5172 21.4207 17.3264 21.4997 17.1275 21.4997H13.8775ZM14.973 11.0907L11.349 14.7147C10.9974 15.0664 10.7999 15.5434 10.7999 16.0407C10.8 16.2869 10.8485 16.5307 10.9427 16.7582C11.037 16.9857 11.1751 17.1924 11.3493 17.3665C11.5234 17.5406 11.7301 17.6787 11.9576 17.7729C12.1851 17.8671 12.429 17.9156 12.6752 17.9156C13.1725 17.9155 13.6494 17.7179 14.001 17.3662L14.973 16.3942C15.0427 16.3245 15.1254 16.2693 15.2164 16.2315C15.3074 16.1938 15.405 16.1744 15.5035 16.1744C15.602 16.1744 15.6996 16.1938 15.7906 16.2315C15.8817 16.2693 15.9644 16.3245 16.034 16.3942L17.006 17.3662C17.1794 17.5434 17.3863 17.6844 17.6145 17.7811C17.8428 17.8778 18.088 17.9283 18.3359 17.9296C18.5838 17.9309 18.8295 17.883 19.0588 17.7888C19.2881 17.6945 19.4964 17.5557 19.6717 17.3804C19.847 17.2051 19.9858 16.9968 20.0801 16.7675C20.1743 16.5382 20.2222 16.2925 20.2209 16.0446C20.2195 15.7967 20.1691 15.5515 20.0724 15.3233C19.9757 15.095 19.8347 14.8882 19.6575 14.7147L16.034 11.0907C15.9644 11.021 15.8817 10.9658 15.7906 10.928C15.6996 10.8903 15.602 10.8709 15.5035 10.8709C15.405 10.8709 15.3074 10.8903 15.2164 10.928C15.1254 10.9658 15.0427 11.021 14.973 11.0907Z" fill="#FFC31D"/>
<path d="M8 18.9921C7.98048 18.9974 7.96035 19 7.94014 19H4.5C4.22386 19 4 18.7761 4 18.5V4.5C4 4.22386 4.22386 4 4.5 4H18.5C18.7761 4 19 4.22386 19 4.5V7.75V9.625" stroke="#FFC31D" stroke-width="1.6" stroke-linecap="round"/>
</svg>
