<svg width="6" height="7" viewBox="0 0 6 7" fill="none" xmlns="http://www.w3.org/2000/svg">
<path d="M2.33534 0.251165C2.46905 -0.0851038 2.94501 -0.0851042 3.07872 0.251165L3.70262 1.82017C3.73124 1.89216 3.78015 1.95428 3.84341 1.999L5.24498 2.98978C5.47045 3.14916 5.47045 3.48365 5.24498 3.64304L3.84341 4.63381C3.78015 4.67853 3.73124 4.74066 3.70262 4.81264L3.07872 6.38165C2.94501 6.71792 2.46905 6.71792 2.33534 6.38165L1.71145 4.81264C1.68282 4.74066 1.63391 4.67853 1.57065 4.63381L0.169085 3.64304C-0.0563864 3.48365 -0.0563858 3.14916 0.169085 2.98978L1.57065 1.999C1.63391 1.95428 1.68282 1.89216 1.71145 1.82017L2.33534 0.251165Z" fill="#FFC31D"/>
</svg>
