<svg width="32" height="32" viewBox="0 0 32 32" fill="none" xmlns="http://www.w3.org/2000/svg">
<path d="M6.6665 28.0013H25.3322M10.6663 16.0789C10.2468 16.0791 9.83317 15.9687 9.45902 15.7567C9.08487 15.5446 8.76076 15.2369 8.51303 14.8585C8.2653 14.4801 8.10094 14.0417 8.0333 13.5789C7.96566 13.1161 7.99665 12.642 8.12376 12.1952L4.71994 8.96121C4.4811 8.73654 4.17645 8.61837 3.86444 8.62937C3.55243 8.64037 3.25505 8.77977 3.02936 9.02083C2.86918 9.19165 2.75552 9.40965 2.70149 9.64963C2.64746 9.88961 2.65528 10.1418 2.72404 10.377L6.0572 21.4961C6.23466 22.0886 6.57418 22.6037 7.02778 22.9687C7.48139 23.3338 8.02614 23.5302 8.58507 23.5304H23.4136C23.9726 23.5302 24.5173 23.3338 24.9709 22.9687C25.4245 22.6037 25.764 22.0886 25.9415 21.4961L29.2747 10.377C29.3434 10.1418 29.3512 9.88961 29.2972 9.64963C29.2432 9.40965 29.1295 9.19165 28.9693 9.02083C28.7437 8.77977 28.4463 8.64037 28.1343 8.62937C27.8223 8.61837 27.5176 8.73654 27.2788 8.96121L23.8749 12.1952C23.9558 12.4823 23.9972 12.7833 23.9989 13.0983C23.9989 13.6033 23.884 14.1 23.6652 14.5419C23.4463 14.9837 23.1306 15.3561 22.7477 15.6241C22.3647 15.8922 21.9272 16.047 21.476 16.0742C21.0249 16.1014 20.5749 16.0001 20.1684 15.7796C19.7619 15.5592 19.4122 15.2269 19.1521 14.8139C18.892 14.401 18.73 13.921 18.6814 13.4189C18.6327 12.9168 18.699 12.4091 18.874 11.9435C19.049 11.4779 19.327 11.0696 19.6818 10.757L16.922 3.3547C16.8459 3.15129 16.7177 2.97755 16.5536 2.85536C16.3894 2.73317 16.1966 2.66797 15.9993 2.66797C15.8021 2.66797 15.6093 2.73317 15.4451 2.85536C15.281 2.97755 15.1528 3.15129 15.0767 3.3547L12.3169 10.757C12.7523 11.1404 13.0699 11.666 13.2257 12.2606C13.3815 12.8552 13.3676 13.4892 13.1861 14.0746C13.0045 14.66 12.6643 15.1676 12.2127 15.5268C11.7611 15.886 11.2206 16.079 10.6663 16.0789Z" stroke="#FFC31D" stroke-width="2" stroke-linecap="round" stroke-linejoin="round"/>
</svg>
