<svg width="20" height="20" viewBox="0 0 20 20" fill="none" xmlns="http://www.w3.org/2000/svg">
<rect width="20" height="20" rx="10" fill="#F0F2F5"/>
<mask id="path-2-inside-1_9937_165829" fill="white">
<path d="M14.1675 8.94087C14.5422 8.84565 14.9284 9.07243 14.9704 9.45674C15.0661 10.3318 14.9293 11.2212 14.5681 12.0329C14.1114 13.059 13.3226 13.9015 12.3288 14.4246C11.3349 14.9476 10.1939 15.1209 9.08961 14.9164C7.98529 14.7119 6.98198 14.1416 6.24133 13.2973C5.50069 12.4531 5.06586 11.384 5.0069 10.2625C4.94794 9.14093 5.26829 8.0322 5.91633 7.11493C6.56437 6.19766 7.50236 5.52528 8.57915 5.20613C9.43108 4.95363 10.3306 4.93387 11.1858 5.14264C11.5614 5.23433 11.736 5.64676 11.5928 6.00586C11.4496 6.36496 11.0422 6.53253 10.6622 6.46142C10.1047 6.35711 9.52707 6.38538 8.97699 6.54841C8.2017 6.7782 7.52635 7.26231 7.05976 7.92275C6.59317 8.58318 6.36252 9.38147 6.40497 10.189C6.44742 10.9965 6.7605 11.7662 7.29376 12.3741C7.82702 12.9819 8.54941 13.3926 9.34452 13.5398C10.1396 13.6871 10.9612 13.5623 11.6767 13.1857C12.3923 12.8091 12.9602 12.2025 13.289 11.4637C13.5223 10.9395 13.6255 10.3705 13.5947 9.80418C13.5736 9.41815 13.7928 9.03609 14.1675 8.94087Z"/>
</mask>
<path d="M14.1675 8.94087C14.5422 8.84565 14.9284 9.07243 14.9704 9.45674C15.0661 10.3318 14.9293 11.2212 14.5681 12.0329C14.1114 13.059 13.3226 13.9015 12.3288 14.4246C11.3349 14.9476 10.1939 15.1209 9.08961 14.9164C7.98529 14.7119 6.98198 14.1416 6.24133 13.2973C5.50069 12.4531 5.06586 11.384 5.0069 10.2625C4.94794 9.14093 5.26829 8.0322 5.91633 7.11493C6.56437 6.19766 7.50236 5.52528 8.57915 5.20613C9.43108 4.95363 10.3306 4.93387 11.1858 5.14264C11.5614 5.23433 11.736 5.64676 11.5928 6.00586C11.4496 6.36496 11.0422 6.53253 10.6622 6.46142C10.1047 6.35711 9.52707 6.38538 8.97699 6.54841C8.2017 6.7782 7.52635 7.26231 7.05976 7.92275C6.59317 8.58318 6.36252 9.38147 6.40497 10.189C6.44742 10.9965 6.7605 11.7662 7.29376 12.3741C7.82702 12.9819 8.54941 13.3926 9.34452 13.5398C10.1396 13.6871 10.9612 13.5623 11.6767 13.1857C12.3923 12.8091 12.9602 12.2025 13.289 11.4637C13.5223 10.9395 13.6255 10.3705 13.5947 9.80418C13.5736 9.41815 13.7928 9.03609 14.1675 8.94087Z" fill="#99A4B7"/>
<path d="M14.5681 12.0329L16.0527 12.6937L14.5681 12.0329ZM8.57915 5.20613L9.04093 6.76414L8.57915 5.20613ZM8.97699 6.54841L8.51522 4.99041L8.97699 6.54841ZM13.289 11.4637L11.8044 10.803L13.289 11.4637ZM13.5947 9.80418L11.9721 9.89255L13.5947 9.80418ZM14.1675 8.94087L14.5678 10.5158L14.1675 8.94087ZM11.5928 6.00586L13.1022 6.60778V6.60778L11.5928 6.00586ZM10.6622 6.46142L10.3633 8.0587L10.6622 6.46142ZM11.1858 5.14264L11.5712 3.56401V3.56401L11.1858 5.14264ZM14.9704 9.45674L16.5858 9.28019L14.9704 9.45674ZM14.9704 9.45674L13.355 9.6333C13.4196 10.224 13.3273 10.8243 13.0834 11.3722L14.5681 12.0329L16.0527 12.6937C16.5314 11.618 16.7125 10.4397 16.5858 9.28019L14.9704 9.45674ZM14.5681 12.0329L13.0834 11.3722C12.7752 12.0648 12.2428 12.6335 11.5719 12.9866L12.3288 14.4246L13.0856 15.8625C14.4025 15.1694 15.4476 14.0532 16.0527 12.6937L14.5681 12.0329ZM12.3288 14.4246L11.5719 12.9866C10.9011 13.3397 10.1309 13.4566 9.38549 13.3186L9.08961 14.9164L8.79374 16.5143C10.257 16.7852 11.7688 16.5556 13.0856 15.8625L12.3288 14.4246ZM9.08961 14.9164L9.38549 13.3186C8.64007 13.1805 7.96283 12.7956 7.4629 12.2257L6.24133 13.2973L5.01977 14.369C6.00112 15.4876 7.33051 16.2433 8.79374 16.5143L9.08961 14.9164ZM6.24133 13.2973L7.4629 12.2257C6.96297 11.6558 6.66945 10.9342 6.62966 10.1772L5.0069 10.2625L3.38414 10.3478C3.46226 11.8338 4.03841 13.2503 5.01977 14.369L6.24133 13.2973ZM5.0069 10.2625L6.62966 10.1772C6.58986 9.42013 6.8061 8.67173 7.24352 8.05258L5.91633 7.11493L4.58914 6.17728C3.73048 7.39266 3.30602 8.86174 3.38414 10.3478L5.0069 10.2625ZM5.91633 7.11493L7.24352 8.05258C7.68095 7.43342 8.31409 6.97956 9.04093 6.76414L8.57915 5.20613L8.11738 3.64812C6.69063 4.071 5.44779 4.9619 4.58914 6.17728L5.91633 7.11493ZM8.57915 5.20613L9.04093 6.76414C9.61595 6.59371 10.2232 6.58035 10.8004 6.72128L11.1858 5.14264L11.5712 3.56401C10.4381 3.28738 9.24621 3.31355 8.11738 3.64812L8.57915 5.20613ZM10.6622 6.46142L10.9611 4.86415C10.1521 4.71275 9.31363 4.75377 8.51522 4.99041L8.97699 6.54841L9.43877 8.10642C9.74052 8.01698 10.0574 8.00146 10.3633 8.0587L10.6622 6.46142ZM8.97699 6.54841L8.51522 4.99041C7.38997 5.32392 6.40977 6.02655 5.73257 6.9851L7.05976 7.92275L8.38695 8.8604C8.64293 8.49807 9.01343 8.23248 9.43877 8.10642L8.97699 6.54841ZM7.05976 7.92275L5.73257 6.9851C5.05536 7.94365 4.7206 9.10228 4.78221 10.2743L6.40497 10.189L8.02772 10.1037C8.00444 9.66067 8.13097 9.22272 8.38695 8.8604L7.05976 7.92275ZM6.40497 10.189L4.78221 10.2743C4.84382 11.4463 5.29822 12.5634 6.07219 13.4457L7.29376 12.3741L8.51533 11.3024C8.22277 10.969 8.05101 10.5467 8.02772 10.1037L6.40497 10.189ZM7.29376 12.3741L6.07219 13.4457C6.84616 14.328 7.89463 14.924 9.04865 15.1377L9.34452 13.5398L9.6404 11.942C9.20419 11.8612 8.80788 11.6359 8.51533 11.3024L7.29376 12.3741ZM9.34452 13.5398L9.04865 15.1377C10.2027 15.3513 11.395 15.1703 12.4336 14.6237L11.6767 13.1857L10.9199 11.7477C10.5273 11.9543 10.0766 12.0228 9.6404 11.942L9.34452 13.5398ZM11.6767 13.1857L12.4336 14.6237C13.4721 14.077 14.2964 13.1967 14.7736 12.1244L13.289 11.4637L11.8044 10.803C11.624 11.2083 11.3124 11.5411 10.9199 11.7477L11.6767 13.1857ZM13.289 11.4637L14.7736 12.1244C15.1122 11.3636 15.262 10.5377 15.2173 9.71581L13.5947 9.80418L11.9721 9.89255C11.989 10.2033 11.9323 10.5155 11.8044 10.803L13.289 11.4637ZM13.5947 9.80418L15.2173 9.71581C15.2245 9.84891 15.1934 9.99481 15.1039 10.1355C15.0086 10.2853 14.8297 10.4492 14.5678 10.5158L14.1675 8.94087L13.7673 7.36593C12.4648 7.69695 11.9195 8.92735 11.9721 9.89255L13.5947 9.80418ZM11.5928 6.00586L10.0833 5.40395C10.1834 5.15297 10.3693 4.99686 10.5302 4.92191C10.6814 4.8515 10.8301 4.83963 10.9611 4.86415L10.6622 6.46142L10.3633 8.0587C11.3135 8.2365 12.6044 7.8561 13.1022 6.60778L11.5928 6.00586ZM11.1858 5.14264L10.8004 6.72128C10.065 6.54175 9.92095 5.81119 10.0833 5.40395L11.5928 6.00586L13.1022 6.60778C13.551 5.48234 13.0577 3.92691 11.5712 3.56401L11.1858 5.14264ZM14.9704 9.45674L16.5858 9.28019C16.4195 7.75904 14.9416 7.0675 13.7673 7.36593L14.1675 8.94087L14.5678 10.5158C14.1429 10.6238 13.4373 10.3858 13.355 9.6333L14.9704 9.45674Z" fill="#99A4B7" mask="url(#path-2-inside-1_9937_165829)"/>
<mask id="path-4-inside-2_9937_165829" fill="white">
<path d="M14.375 6.875C14.375 7.22018 14.0952 7.5 13.75 7.5C13.4048 7.5 13.125 7.22018 13.125 6.875C13.125 6.52982 13.4048 6.25 13.75 6.25C14.0952 6.25 14.375 6.52982 14.375 6.875Z"/>
</mask>
<path d="M14.375 6.875C14.375 7.22018 14.0952 7.5 13.75 7.5C13.4048 7.5 13.125 7.22018 13.125 6.875C13.125 6.52982 13.4048 6.25 13.75 6.25C14.0952 6.25 14.375 6.52982 14.375 6.875Z" fill="#99A4B7"/>
<path d="M14.375 6.875H13.125C13.125 6.52982 13.4048 6.25 13.75 6.25V7.5V8.75C14.7855 8.75 15.625 7.91053 15.625 6.875H14.375ZM13.75 7.5V6.25C14.0952 6.25 14.375 6.52982 14.375 6.875H13.125H11.875C11.875 7.91053 12.7145 8.75 13.75 8.75V7.5ZM13.125 6.875H14.375C14.375 7.22018 14.0952 7.5 13.75 7.5V6.25V5C12.7145 5 11.875 5.83947 11.875 6.875H13.125ZM13.75 6.25V7.5C13.4048 7.5 13.125 7.22018 13.125 6.875H14.375H15.625C15.625 5.83947 14.7855 5 13.75 5V6.25Z" fill="#99A4B7" mask="url(#path-4-inside-2_9937_165829)"/>
</svg>
