<svg width="16" height="16" viewBox="0 0 16 16" fill="none" xmlns="http://www.w3.org/2000/svg">
<path d="M8.00005 0.668949C8.76138 0.668949 9.50472 0.784282 10.2187 1.00895L9.07538 5.27695C9.33872 5.38095 9.59072 5.52495 9.82072 5.70828L12.9434 2.58428C14.0633 3.60422 14.839 4.94666 15.1634 6.42628L10.8934 7.56895C10.9361 7.85428 10.9361 8.14495 10.8934 8.43095L15.1627 9.57495C15.0669 10.0131 14.9305 10.4414 14.7554 10.8543C14.3446 11.8299 13.7268 12.7048 12.9447 13.4183L9.82138 10.2936C9.59551 10.4733 9.34436 10.6186 9.07605 10.7249L10.2194 14.9936C9.50199 15.2217 8.75349 15.3369 8.00072 15.3349C7.23938 15.3349 6.49672 15.2196 5.78205 14.9949L6.92538 10.7256C6.65688 10.6197 6.40568 10.4743 6.18005 10.2943L3.05472 13.4176C1.93491 12.3979 1.15922 11.0557 0.834717 9.57628L5.10205 8.43295C5.05974 8.14695 5.05974 7.85628 5.10205 7.57028L0.835383 6.42762C1.13964 5.04587 1.83726 3.78168 2.84405 2.78762L6.16272 5.72095C6.39252 5.53574 6.64897 5.38628 6.92338 5.27762L5.78138 1.00895C6.49921 0.782879 7.24746 0.668213 8.00005 0.668949Z" fill="#24DEA1"/>
<path d="M8.42198 5.84151L7.99998 3.78418L7.60932 5.83418C7.07068 5.931 6.58759 6.22539 6.25462 6.65971C5.92166 7.09404 5.76281 7.637 5.80917 8.1823C5.85554 8.7276 6.10378 9.23596 6.50529 9.60783C6.90681 9.9797 7.43267 10.1883 7.97992 10.1928C8.52717 10.1973 9.05638 9.99733 9.46394 9.6321C9.87151 9.26686 10.1281 8.76265 10.1834 8.21819C10.2387 7.67372 10.0887 7.12822 9.76295 6.68849C9.43716 6.24877 8.95896 5.94649 8.42198 5.84085V5.84151Z" fill="white"/>
</svg>
