<svg width="840" height="196" viewBox="0 0 840 196" fill="none" xmlns="http://www.w3.org/2000/svg">
<g filter="url(#filter0_d_19266_200882)">
<path d="M114.232 34.8028C119.276 35.7687 123.378 39.1674 126.541 44.7861C129.723 50.3676 131.314 57.7535 131.314 67.1881C131.314 69.0363 131.314 70.8844 131.314 72.7326C126.781 72.4242 122.248 72.1086 117.715 71.7857C117.715 71.0812 117.715 70.3766 117.715 69.6721C117.715 67.063 117.445 65.0572 116.904 63.6437C116.364 62.2309 115.593 61.4668 114.593 61.3615C113.532 61.25 112.771 61.7512 112.311 62.8739C111.851 63.9429 111.621 65.4126 111.621 67.2756C111.621 69.0855 111.971 70.5781 112.671 71.7418C113.392 72.9048 115.643 75.0329 119.426 77.9797C123.589 81.2572 126.781 85.6413 129.002 91.1439C131.224 96.6027 132.334 104.246 132.334 114.249C132.334 125.543 130.713 134.424 127.471 141.197C124.249 147.953 120.066 151.96 114.923 152.946C109.799 153.927 105.527 152.033 102.104 146.962C98.6821 141.905 96.971 133.601 96.971 122.32C96.971 119.781 96.971 117.242 96.971 114.703C101.594 114.392 106.217 114.088 110.84 113.791C110.84 114.858 110.84 115.925 110.84 116.992C110.82 120.676 111.15 123.37 111.831 125.056C112.511 126.744 113.462 127.512 114.683 127.379C115.743 127.264 116.574 126.518 117.174 125.15C117.795 123.728 118.105 121.825 118.105 119.427C118.105 117.239 117.755 115.494 117.054 114.18C116.354 112.812 114.373 110.849 111.11 108.176C106.447 104.395 102.985 99.5968 100.723 93.8613C98.462 88.0776 97.3312 79.8207 97.3312 69.2817C97.3312 57.1785 98.8923 48.039 102.014 42.145C105.156 36.1857 109.229 33.8441 114.232 34.8028ZM261.69 106.91C261.69 109.81 261.91 111.824 262.351 112.947C262.791 114.036 263.461 114.553 264.362 114.505C265.262 114.456 265.933 113.869 266.373 112.749C266.814 111.595 267.034 109.591 267.034 106.731C267.034 90.3363 267.034 73.9416 267.034 57.5469C272.207 58.0282 277.38 58.4852 282.554 58.9177C282.554 73.3336 282.554 87.7494 282.554 102.165C282.554 111.568 280.973 118.585 277.811 123.382C274.669 128.137 270.276 130.853 264.632 131.405C258.708 131.985 254.155 130.093 250.973 125.503C247.811 120.89 246.23 113.323 246.23 102.982C246.23 87.148 246.23 71.3137 246.23 55.4795C251.383 56.0242 256.537 56.5447 261.69 57.041C261.69 73.6641 261.69 90.2872 261.69 106.91ZM672.122 43.997C677.646 43.12 682.009 45.7056 685.211 52.0964C688.413 58.4705 690.014 68.4008 690.014 81.5827C690.014 89.7684 690.014 97.9541 690.014 106.14C690.014 119.7 688.303 129.711 684.88 135.86C681.458 142.024 677.205 144.531 672.122 143.725C666.538 142.839 662.165 139.016 659.003 132.5C655.861 125.93 654.29 116.8 654.29 104.83C654.29 97.5176 654.29 90.205 654.29 82.8924C654.29 71.5096 655.881 62.5532 659.063 55.727C662.246 48.8713 666.598 44.8745 672.122 43.997ZM761.161 63.4259C760.04 63.5355 758.92 63.6445 757.799 63.753C753.516 64.1731 750.324 67.1957 748.222 72.6678C747.083 75.6381 746.254 80.4336 745.732 87.0511C746.072 85.8141 746.452 84.6661 746.872 83.6072C749.093 78.0553 751.635 75.1037 754.497 74.9276C757.899 74.7168 760.671 77.7481 762.812 84.2272C764.973 90.6954 766.054 100.645 766.054 113.872C766.054 128.846 764.293 140.331 760.771 147.92C757.268 155.471 752.966 158.504 747.862 157.453C742.258 156.296 737.846 151.248 734.623 142.657C731.401 133.992 729.79 121.626 729.79 105.17C729.79 102.282 729.79 99.3952 729.79 96.5079C729.79 77.2222 732.162 61.8912 736.905 49.7108C741.668 37.5644 748.423 30.2008 757.168 28.3355C758.499 28.055 759.83 27.7729 761.161 27.4891C761.161 39.4681 761.161 51.447 761.161 63.4259ZM42.8151 21.3933C47.4982 22.4772 51.1106 28.1796 53.6523 38.1745C56.214 48.1245 57.4948 60.5835 57.4948 75.9049C57.4948 91.1631 56.264 103.414 53.8024 112.992C51.3408 122.487 47.5783 127.674 42.5149 128.237C40.1834 128.49 37.8518 128.746 35.5203 129.005C35.5203 142.01 35.5203 155.014 35.5203 168.019C30.3469 169.229 25.1734 170.464 20 171.722C20 119.815 20 67.9077 20 16.0004C27.605 17.8508 35.2101 19.6484 42.8151 21.3933ZM97.3312 154.725C92.3079 155.711 87.2846 156.72 82.2613 157.752C81.7179 151.954 81.1746 146.126 80.6313 140.267C76.9368 140.818 73.2423 141.378 69.5478 141.947C69.0525 148.179 68.5572 154.44 68.0618 160.731C63.0785 161.797 58.0952 162.887 53.1119 163.999C57.775 116.2 62.4381 70.5019 67.1012 26.7861C72.6949 27.9868 78.2886 29.1591 83.8823 30.3027C88.3653 73.5917 92.8482 115.029 97.3312 154.725ZM167.157 72.1463C161.314 71.7451 155.47 71.3299 149.626 70.9008C149.626 74.4568 149.626 78.0127 149.626 81.5686C154.649 81.7661 159.673 81.958 164.696 82.1445C164.696 89.9108 164.696 97.6771 164.696 105.443C159.673 105.628 154.649 105.818 149.626 106.013C149.626 109.993 149.626 113.972 149.626 117.952C155.65 117.488 161.674 117.04 167.698 116.606C167.698 125.211 167.698 133.815 167.698 142.42C156.751 144.1 145.803 145.889 134.856 147.788C134.856 111.837 134.856 75.8857 134.856 39.9344C145.623 41.8019 156.39 43.5637 167.157 45.2197C167.157 54.1952 167.157 63.1708 167.157 72.1463ZM213.898 86.2247C214.079 87.5401 214.249 88.8339 214.409 90.1065C214.569 91.3792 214.719 92.7461 214.859 94.2074C214.899 94.2074 214.939 94.2074 214.979 94.2073C215.119 92.7463 215.269 91.3831 215.429 90.1179C215.59 88.8527 215.75 87.5701 215.91 86.2702C217.601 74.8832 219.292 63.6676 220.983 52.617C228.278 53.5001 235.573 54.3347 242.868 55.1207C242.868 80.9478 242.868 106.775 242.868 132.602C237.794 133.149 232.721 133.719 227.648 134.312C227.648 120.847 227.648 107.382 227.648 93.9169C227.648 92.3611 227.678 90.9535 227.738 89.695C227.678 89.6943 227.618 89.6936 227.558 89.6929C227.437 91.0253 227.287 92.4514 227.107 93.9726C226.947 95.4567 226.787 96.8501 226.627 98.1525C224.976 110.266 223.325 122.554 221.674 135.022C217.02 135.584 212.367 136.165 207.714 136.765C206.033 124.194 204.352 111.431 202.671 98.469C202.531 97.1145 202.361 95.5794 202.161 93.8613C201.981 92.1033 201.85 90.6022 201.77 89.3611C201.71 89.3602 201.65 89.3594 201.59 89.3586C201.63 90.5999 201.66 92.1007 201.68 93.8613C201.72 95.5819 201.74 97.1218 201.74 98.482C201.74 111.504 201.74 124.526 201.74 137.548C196.797 138.204 191.854 138.883 186.911 139.584C186.911 109.102 186.911 78.6206 186.911 48.1391C194.225 49.1762 201.54 50.1645 208.855 51.104C210.536 62.9881 212.217 74.6929 213.898 86.2247ZM307.2 85.5489C307.4 86.5517 307.62 87.6747 307.861 88.917C308.101 90.1593 308.291 91.2783 308.431 92.2755C308.491 92.2757 308.551 92.2759 308.611 92.2761C308.571 91.2494 308.561 90.1772 308.581 89.0602C308.601 87.9432 308.611 86.8715 308.611 85.8449C308.611 77.5265 308.611 69.2081 308.611 60.8898C312.934 61.1827 317.257 61.4585 321.58 61.7173C321.58 83.1466 321.58 104.576 321.58 126.005C316.656 126.3 311.733 126.617 306.81 126.956C304.629 118.696 302.447 110.326 300.266 101.836C300.046 100.887 299.815 99.8756 299.575 98.801C299.335 97.6956 299.145 96.6342 299.005 95.6178C298.945 95.618 298.885 95.6182 298.825 95.6185C298.885 96.6664 298.915 97.6061 298.915 98.4383C298.915 108.132 298.915 117.825 298.915 127.518C294.582 127.838 290.249 128.174 285.916 128.527C285.916 105.417 285.916 82.306 285.916 59.1954C291.01 59.6108 296.103 60.0026 301.196 60.3706C303.198 68.8726 305.199 77.2626 307.2 85.5489ZM344.005 62.9069C349.849 63.1799 354.362 65.8927 357.544 70.9896C360.726 76.0904 362.317 83.0874 362.317 92.0769C362.317 93.1558 362.317 94.2348 362.317 95.3137C362.317 104.276 360.706 111.327 357.484 116.568C354.261 121.777 349.768 124.546 344.005 124.816C337.67 125.108 331.336 125.438 325.002 125.804C325.002 104.509 325.002 83.2138 325.002 61.9187C331.336 62.2847 337.67 62.6141 344.005 62.9069ZM380.959 123.523C375.706 123.647 370.452 123.797 365.199 123.973C365.199 103.898 365.199 83.8242 365.199 63.75C370.452 63.9252 375.706 64.0751 380.959 64.1999C380.959 83.9742 380.959 103.748 380.959 123.523ZM426.469 123.072C424.313 123.063 422.156 123.059 420 123.059C417.133 123.059 414.266 123.067 411.399 123.082C410.856 120.382 410.313 117.682 409.769 114.981C406.075 114.997 402.38 115.023 398.686 115.057C398.191 117.775 397.695 120.495 397.2 123.217C392.217 123.286 387.233 123.378 382.25 123.493C386.913 103.631 391.576 84.004 396.239 64.4917C401.833 64.5726 407.427 64.6249 413.02 64.6486C415.347 74.7656 417.673 84.8673 420 94.9692C422.156 104.333 424.313 113.696 426.469 123.072ZM443.13 106.969C448.164 107 453.197 107.042 458.23 107.094C458.23 112.564 458.23 118.034 458.23 123.504C448.024 123.266 437.817 123.124 427.61 123.077C427.61 103.6 427.61 84.1228 427.61 64.6458C432.783 64.6219 437.957 64.5735 443.13 64.5007C443.13 78.6567 443.13 92.8127 443.13 106.969ZM507.493 79.7438C502.71 79.8578 497.927 79.9625 493.143 80.0578C493.143 82.5136 493.143 84.9695 493.143 87.4253C497.276 87.3869 501.409 87.3453 505.542 87.3004C505.542 92.5088 505.542 97.7173 505.542 102.926C501.409 102.864 497.276 102.806 493.143 102.753C493.143 110.064 493.143 117.375 493.143 124.686C487.97 124.456 482.797 124.25 477.623 124.069C477.623 103.931 477.623 83.792 477.623 63.6535C487.58 63.3045 497.536 62.8651 507.493 62.3352C507.493 68.1381 507.493 73.941 507.493 79.7438ZM525.415 126.439C520.161 126.102 514.908 125.79 509.654 125.504C509.654 104.409 509.654 83.3138 509.654 62.2187C514.908 61.9322 520.161 61.6206 525.415 61.2837C525.415 83.0021 525.415 104.72 525.415 126.439ZM558.827 78.1615C554.044 78.3424 549.261 78.5139 544.477 78.6761C544.477 81.3778 544.477 84.0794 544.477 86.7811C548.61 86.7157 552.743 86.6471 556.876 86.5753C556.876 92.3593 556.876 98.1434 556.876 103.927C552.743 103.828 548.61 103.733 544.477 103.643C544.477 111.686 544.477 119.729 544.477 127.772C539.304 127.38 534.131 127.013 528.957 126.67C528.957 104.797 528.957 82.9251 528.957 61.0527C538.914 60.3928 548.87 59.6425 558.827 58.8017C558.827 65.2549 558.827 71.7082 558.827 78.1615ZM598.904 132.794C593.88 132.247 588.857 131.723 583.834 131.223C583.29 127.713 582.747 124.219 582.204 120.739C578.509 120.476 574.815 120.221 571.12 119.976C570.625 123.286 570.129 126.584 569.634 129.869C564.651 129.415 559.667 128.985 554.684 128.576C559.347 105.815 564.01 82.3095 568.674 57.9407C574.267 57.4348 579.861 56.9004 585.455 56.3374C589.938 80.9021 594.421 106.351 598.904 132.794ZM634.207 49.5223C640.211 48.712 644.624 50.4337 647.446 54.9163C650.287 59.3437 651.729 65.8579 651.769 74.2835C651.789 80.4546 651.198 85.8662 649.997 90.4399C648.817 95.0147 647.166 99.0647 645.044 102.561C642.983 106.386 640.921 110.138 638.86 113.821C643.503 114.103 648.146 114.393 652.789 114.693C652.789 122.976 652.789 131.258 652.789 139.541C640.501 137.801 628.213 136.199 615.925 134.734C615.925 128.97 615.925 123.206 615.925 117.442C621.709 108.37 627.492 98.8364 633.276 88.7778C634.137 87.1489 634.867 85.3319 635.468 83.3292C636.088 81.3262 636.398 79.0431 636.398 76.497C636.398 73.7519 636.188 71.9148 635.768 70.9914C635.368 70.0263 634.767 69.576 633.967 69.6347C633.126 69.6964 632.496 70.3925 632.075 71.716C631.675 73.0389 631.475 76.0286 631.475 80.6921C631.475 81.8288 631.475 82.9654 631.475 84.102C626.302 84.2537 621.128 84.3999 615.955 84.5405C615.955 81.9764 615.955 79.4123 615.955 76.8481C615.955 70.2241 617.606 64.3127 620.908 58.8815C624.21 53.4567 628.643 50.2724 634.207 49.5223ZM709.857 37.6059C715.861 36.5095 720.274 38.6557 723.096 44.3358C725.938 49.9451 727.379 58.2285 727.419 68.9496C727.439 76.802 726.848 83.6897 725.648 89.5088C724.467 95.3293 722.816 100.48 720.694 104.92C718.633 109.779 716.572 114.541 714.51 119.207C719.153 119.587 723.796 119.975 728.439 120.372C728.439 130.913 728.439 141.453 728.439 151.994C716.151 149.688 703.863 147.521 691.575 145.491C691.575 138.21 691.575 130.929 691.575 123.647C697.359 112.237 703.143 100.18 708.926 87.4128C709.787 85.3454 710.517 83.0384 711.118 80.4953C711.738 77.9517 712.048 75.0526 712.048 71.8208C712.049 68.3363 711.838 66.0056 711.418 64.8359C711.018 63.6134 710.417 63.0456 709.617 63.1251C708.776 63.2086 708.146 64.0956 707.726 65.7766C707.325 67.4568 707.125 71.2488 707.125 77.1623C707.125 78.6035 707.125 80.0448 707.125 81.4861C701.952 81.6921 696.778 81.8926 691.605 82.0875C691.605 78.8485 691.605 75.6096 691.605 72.3706C691.605 64.0037 693.256 56.5243 696.558 49.616C699.86 42.7167 704.293 38.6208 709.857 37.6059ZM748.072 97.5194C747.212 97.5095 746.491 98.4073 745.911 100.197C745.351 101.932 745.07 104.478 745.07 107.847C745.07 108.381 745.07 108.915 745.07 109.448C745.07 118.49 745.341 124.045 745.881 126.131C746.441 128.216 747.142 129.315 747.982 129.412C748.803 129.506 749.453 128.729 749.934 127.068C750.434 125.355 750.684 120.115 750.684 111.363C750.684 106.672 750.474 103.203 750.054 100.968C749.653 98.6747 748.993 97.5297 748.072 97.5194ZM672.122 66.5959C671.261 66.6704 670.621 67.4791 670.201 69.0137C669.78 70.5046 669.57 72.6783 669.57 75.5437C669.57 88.0199 669.57 100.496 669.57 112.972C669.57 115.706 669.78 117.813 670.201 119.305C670.621 120.796 671.261 121.584 672.122 121.66C672.983 121.736 673.623 121.058 674.043 119.616C674.464 118.175 674.674 116.061 674.674 113.283C674.674 100.604 674.674 87.9249 674.674 75.2459C674.674 72.3334 674.464 70.1519 674.043 68.7101C673.623 67.223 672.983 66.5215 672.122 66.5959ZM340.012 110.374C340.743 110.356 341.473 110.337 342.203 110.319C343.664 110.282 344.775 109.375 345.536 107.607C346.316 105.837 346.706 102.952 346.706 98.9434C346.706 95.6118 346.706 92.2802 346.706 88.9486C346.706 84.8268 346.316 82.0126 345.536 80.4979C344.775 78.956 343.664 78.1641 342.203 78.1288C341.473 78.1113 340.743 78.0935 340.012 78.0755C340.012 88.8418 340.012 99.6081 340.012 110.374ZM74.8463 76.3352C74.7863 76.9311 74.6762 78.1532 74.5161 80.0055C74.376 81.7987 74.2159 83.8934 74.0358 86.2919C73.3369 94.8356 72.638 103.437 71.9391 112.096C73.9623 111.978 75.9855 111.86 78.0087 111.744C77.2448 103.366 76.4809 94.9252 75.7169 86.4223C75.4968 83.9672 75.3166 81.8367 75.1766 80.0348C75.0565 78.174 74.9664 76.941 74.9064 76.3386C74.8864 76.3374 74.8664 76.3363 74.8463 76.3352ZM403.984 86.0195C403.924 86.2875 403.814 86.8368 403.654 87.6676C403.514 88.4717 403.354 89.4099 403.174 90.4824C402.475 94.3029 401.776 98.1263 401.077 101.953C403.1 101.946 405.124 101.941 407.147 101.937C406.383 98.135 405.619 94.3311 404.855 90.5245C404.635 89.4254 404.455 88.4735 404.315 87.669C404.194 86.8377 404.104 86.2879 404.044 86.0197C404.024 86.0196 404.004 86.0196 403.984 86.0195ZM576.419 84.0472C576.359 84.3842 576.248 85.0748 576.088 86.1173C575.948 87.1258 575.788 88.3013 575.608 89.6425C574.909 94.4214 574.21 99.1742 573.511 103.902C575.535 103.954 577.558 104.007 579.581 104.061C578.817 99.2368 578.053 94.4414 577.289 89.6745C577.069 88.2982 576.889 87.1086 576.749 86.104C576.629 85.0654 576.539 84.3797 576.479 84.0457C576.459 84.0462 576.439 84.0467 576.419 84.0472ZM787.639 45.2848C785.627 45.5956 783.616 45.9038 781.605 46.2095C781.605 63.1987 781.605 80.1878 781.605 97.177C778.733 97.1466 775.861 97.1166 772.989 97.087C772.989 80.5591 772.989 64.0312 772.989 47.5033C770.977 47.8017 768.966 48.0976 766.955 48.3909C766.955 41.7918 766.955 35.1927 766.955 28.5936C773.849 27.1505 780.744 25.6644 787.639 24.1353C787.639 31.1851 787.639 38.235 787.639 45.2848ZM804.81 57.7634C804.83 57.7611 804.85 57.7588 804.87 57.7566C805.971 45.1204 807.071 32.3534 808.172 19.454C812.115 18.5307 816.057 17.5934 820 16.642C820 43.6295 820 70.6171 820 97.6046C817.228 97.5721 814.456 97.5401 811.685 97.5083C811.704 83.7539 811.724 69.997 811.745 56.2374C811.715 56.241 811.684 56.2445 811.654 56.2481C810.604 70.1255 809.553 83.8663 808.502 97.472C805.981 97.4434 803.459 97.415 800.937 97.3869C799.887 84.0785 798.836 70.9026 797.785 57.8575C797.755 57.8609 797.725 57.8644 797.695 57.8678C797.705 71.0277 797.715 84.1889 797.725 97.3513C795.034 97.3215 792.342 97.2921 789.65 97.263C789.65 72.738 789.65 48.213 789.65 23.688C793.613 22.8043 797.575 21.9064 801.538 20.9943C802.629 33.1232 803.719 45.3791 804.81 57.7634ZM35.5203 95.0837C36.5209 95.0799 37.5216 95.076 38.5223 95.0722C39.8231 95.0659 40.7337 93.2194 41.2541 89.5597C41.7744 85.8984 42.0346 81.4537 42.0346 76.1985C42.0346 70.8102 41.7744 66.3029 41.2541 62.6498C40.7337 58.9317 39.8231 56.9828 38.5223 56.8293C37.5216 56.7123 36.5209 56.5948 35.5203 56.4768C35.5203 69.3458 35.5203 82.2147 35.5203 95.0837Z" fill="url(#paint0_linear_19266_200882)"/>
</g>
<defs>
<filter id="filter0_d_19266_200882" x="0" y="0" width="840" height="195.723" filterUnits="userSpaceOnUse" color-interpolation-filters="sRGB">
<feFlood flood-opacity="0" result="BackgroundImageFix"/>
<feColorMatrix in="SourceAlpha" type="matrix" values="0 0 0 0 0 0 0 0 0 0 0 0 0 0 0 0 0 0 127 0" result="hardAlpha"/>
<feOffset dy="4"/>
<feGaussianBlur stdDeviation="10"/>
<feComposite in2="hardAlpha" operator="out"/>
<feColorMatrix type="matrix" values="0 0 0 0 0 0 0 0 0 0 0 0 0 0 0 0 0 0 1 0"/>
<feBlend mode="normal" in2="BackgroundImageFix" result="effect1_dropShadow_19266_200882"/>
<feBlend mode="normal" in="SourceGraphic" in2="effect1_dropShadow_19266_200882" result="shape"/>
</filter>
<linearGradient id="paint0_linear_19266_200882" x1="420" y1="15.3613" x2="420" y2="155.861" gradientUnits="userSpaceOnUse">
<stop stop-color="#EBFF4C"/>
<stop offset="1" stop-color="#00FFCC"/>
</linearGradient>
</defs>
</svg>
