<svg width="840" height="196" viewBox="0 0 840 196" fill="none" xmlns="http://www.w3.org/2000/svg">
<g filter="url(#filter0_d_19266_200881)">
<path d="M103.676 32.7561C108.154 33.6434 111.797 37.0779 114.605 42.8601C117.431 48.6021 118.844 56.272 118.844 66.0942C118.844 68.0181 118.844 69.9421 118.844 71.866C114.819 71.5804 110.793 71.289 106.768 70.9919C106.768 70.262 106.768 69.5322 106.768 68.8023C106.768 66.0993 106.528 64.024 106.048 62.5663C105.569 61.1092 104.884 60.3275 103.996 60.2309C103.054 60.1283 102.379 60.6562 101.97 61.8223C101.561 62.9329 101.357 64.4545 101.357 66.3803C101.357 68.251 101.668 69.7905 102.29 70.9881C102.93 72.1851 104.929 74.3665 108.288 77.3984C111.984 80.771 114.819 85.3132 116.791 91.0347C118.764 96.7101 119.75 104.676 119.75 115.092C119.75 126.855 118.311 136.088 115.432 143.071C112.571 150.039 108.856 154.103 104.289 155.009C99.7396 155.911 95.9455 153.852 92.9066 148.561C89.8677 143.282 88.3483 134.719 88.3483 123.122C88.3483 120.511 88.3483 117.901 88.3483 115.29C92.4534 115.007 96.5586 114.729 100.664 114.456C100.664 115.559 100.664 116.662 100.664 117.765C100.646 121.571 100.939 124.358 101.543 126.109C102.148 127.861 102.992 128.668 104.076 128.547C105.018 128.441 105.755 127.678 106.288 126.269C106.839 124.803 107.115 122.834 107.115 120.35C107.115 118.083 106.804 116.272 106.182 114.905C105.56 113.484 103.8 111.435 100.904 108.655C96.763 104.722 93.6886 99.7662 91.6804 93.8613C89.6722 87.9059 88.6682 79.4226 88.6681 68.5858C88.6682 56.141 90.0543 46.7228 92.8266 40.5898C95.6167 34.3909 99.2332 31.8753 103.676 32.7561ZM136.784 38.9425C141.262 39.7369 144.905 42.8194 147.713 48.0139C150.539 53.1721 151.952 60.0662 151.952 68.897C151.952 70.6267 151.952 72.3565 151.952 74.0862C147.926 73.832 143.901 73.572 139.876 73.3063C139.876 72.6503 139.876 71.9943 139.876 71.3383C139.876 68.9089 139.636 67.0437 139.156 65.7337C138.676 64.4243 137.992 63.7221 137.104 63.6355C136.162 63.5438 135.487 64.0184 135.078 65.0665C134.669 66.0648 134.465 67.4324 134.465 69.1631C134.465 70.8444 134.776 72.228 135.398 73.3042C136.037 74.3798 138.037 76.3398 141.395 79.0641C145.092 82.0945 147.926 86.1767 149.899 91.3202C151.872 96.4222 152.858 103.584 152.858 112.95C152.858 123.526 151.419 131.825 148.54 138.099C145.678 144.36 141.964 148.008 137.397 148.819C132.848 149.626 129.053 147.775 126.014 143.02C122.976 138.275 121.456 130.581 121.456 120.158C121.456 117.812 121.456 115.466 121.456 113.12C125.561 112.865 129.666 112.615 133.772 112.371C133.772 113.362 133.772 114.353 133.772 115.344C133.754 118.765 134.047 121.27 134.651 122.844C135.256 124.419 136.1 125.144 137.184 125.035C138.126 124.941 138.863 124.256 139.396 122.989C139.947 121.672 140.223 119.902 140.223 117.67C140.223 115.631 139.912 114.004 139.29 112.775C138.668 111.497 136.908 109.656 134.012 107.157C129.871 103.622 126.796 99.1681 124.788 93.8613C122.78 88.5092 121.776 80.8851 121.776 71.1459C121.776 59.9616 123.162 51.4977 125.934 45.9862C128.725 40.4152 132.341 38.1539 136.784 38.9425ZM222.646 51.6898C227.764 52.3261 231.976 55.9702 235.281 62.3857C238.586 68.8146 240.239 78.5206 240.239 91.7706C240.239 93.1644 240.239 94.5582 240.239 95.952C240.239 109.202 238.587 118.908 235.281 125.337C231.976 131.752 227.764 135.396 222.646 136.033C217.545 136.666 213.342 134.01 210.037 127.747C206.732 121.501 205.079 110.883 205.079 96.1781C205.079 94.6336 205.079 93.0891 205.079 91.5445C205.079 76.8399 206.732 66.2216 210.037 59.9756C213.342 53.7129 217.545 51.0563 222.646 51.6898ZM324.235 105.197C324.235 107.717 324.431 109.469 324.822 110.452C325.213 111.406 325.808 111.869 326.608 111.843C327.407 111.817 328.003 111.318 328.394 110.347C328.785 109.347 328.98 107.6 328.98 105.102C328.98 90.7825 328.98 76.4631 328.98 62.1437C333.574 62.3981 338.168 62.6332 342.762 62.849C342.762 75.643 342.762 88.437 342.762 101.231C342.762 109.578 341.358 115.783 338.55 119.931C335.76 124.047 331.859 126.279 326.848 126.573C321.587 126.882 317.544 125.089 314.719 121.062C311.911 117.011 310.507 110.513 310.507 101.666C310.507 88.1166 310.507 74.5669 310.507 61.0171C315.083 61.3219 319.659 61.6076 324.235 61.8742C324.235 76.3152 324.235 90.7563 324.235 105.197ZM688.688 41.3009C693.593 40.4709 697.467 43.2743 700.311 50.0281C703.154 56.7664 704.576 67.1846 704.576 80.9957C704.576 89.5727 704.576 98.1498 704.576 106.727C704.576 120.934 703.056 131.439 700.017 137.945C696.978 144.465 693.202 147.184 688.688 146.422C683.73 145.583 679.847 141.616 677.039 134.758C674.249 127.843 672.854 118.176 672.854 105.488C672.854 97.7367 672.854 89.9858 672.854 82.235C672.854 70.1695 674.267 60.6849 677.092 53.4997C679.918 46.282 683.783 42.1312 688.688 41.3009ZM767.752 62.7752C766.757 62.8744 765.762 62.9731 764.767 63.0715C760.964 63.4521 758.129 66.5125 756.263 72.1119C755.252 75.151 754.515 80.0701 754.052 86.8662C754.354 85.5964 754.691 84.4187 755.064 83.333C757.036 77.6411 759.293 74.6354 761.835 74.4756C764.856 74.2843 767.317 77.4063 769.219 84.0271C771.138 90.6382 772.098 100.779 772.098 114.263C772.098 129.529 770.534 141.259 767.406 149.084C764.296 156.867 760.475 160.086 755.943 159.129C750.968 158.076 747.049 152.988 744.188 144.186C741.327 135.31 739.896 122.548 739.896 105.545C739.896 102.562 739.896 99.5786 739.896 96.5956C739.896 76.6689 742.002 60.8366 746.214 48.3652C750.443 35.9251 756.441 28.5276 764.207 26.8367C765.389 26.5825 766.571 26.3269 767.752 26.0701C767.752 38.3051 767.752 50.5402 767.752 62.7752ZM40.2592 20.8049C44.4177 21.7739 47.6254 27.4382 49.8824 37.5029C52.1571 47.52 53.2945 60.1346 53.2945 75.6631C53.2945 91.1274 52.2015 103.548 50.0157 113.223C47.8298 122.818 44.4888 128.009 39.9927 128.512C37.9223 128.739 35.852 128.967 33.7816 129.198C33.7816 142.274 33.7816 155.351 33.7816 168.427C29.1878 169.506 24.5939 170.605 20 171.722C20 119.815 20 67.9077 20 16.0004C26.7531 17.6435 33.5061 19.245 40.2592 20.8049ZM88.6682 156.448C84.2076 157.347 79.747 158.265 75.2864 159.2C74.8039 153.258 74.3215 147.288 73.839 141.29C70.5584 141.789 67.2778 142.295 63.9972 142.809C63.5574 149.143 63.1175 155.504 62.6777 161.892C58.2526 162.854 53.8276 163.834 49.4026 164.831C53.5433 116.584 57.684 70.2204 61.8247 25.6449C66.7917 26.7271 71.7588 27.7868 76.7259 28.824C80.7066 73.0134 84.6874 115.526 88.6682 156.448ZM186.952 48.145C192.141 48.8884 196.149 53.1578 198.974 60.6983C201.8 68.2526 203.213 78.355 203.213 91.2924C203.213 92.8457 203.213 94.399 203.213 95.9523C203.213 108.85 201.782 119.029 198.921 126.788C196.06 134.492 192.07 138.844 186.952 139.578C181.328 140.375 175.703 141.201 170.078 142.056C170.078 109.926 170.078 77.7963 170.078 45.6663C175.703 46.5214 181.327 47.3476 186.952 48.145ZM281.797 87.5139C281.957 88.6063 282.108 89.6813 282.251 90.7391C282.393 91.7969 282.526 92.9336 282.65 94.1492C282.686 94.1492 282.721 94.1492 282.757 94.1492C282.881 92.9337 283.015 91.7992 283.157 90.7458C283.299 89.6924 283.441 88.6241 283.583 87.5409C285.085 78.051 286.587 68.6628 288.088 59.3711C294.566 59.8909 301.044 60.3724 307.521 60.8156C307.521 82.8461 307.521 104.877 307.521 126.907C303.016 127.215 298.511 127.542 294.006 127.887C294.006 116.561 294.006 105.234 294.006 93.908C294.006 92.5993 294.033 91.4153 294.086 90.3565C294.033 90.3561 293.98 90.3557 293.926 90.3552C293.82 91.4763 293.686 92.6759 293.526 93.9549C293.384 95.2026 293.242 96.3736 293.1 97.4676C291.634 107.643 290.168 117.919 288.701 128.302C284.57 128.632 280.438 128.978 276.306 129.339C274.813 118.894 273.32 108.335 271.828 97.6558C271.703 96.54 271.552 95.2756 271.375 93.8613C271.215 92.4141 271.099 91.1791 271.028 90.1579C270.975 90.1574 270.921 90.1569 270.868 90.1564C270.904 91.1777 270.93 92.4126 270.948 93.8613C270.984 95.2771 271.001 96.5444 271.001 97.6637C271.001 108.38 271.001 119.095 271.001 129.811C266.612 130.209 262.222 130.625 257.833 131.058C257.833 106.26 257.833 81.4625 257.833 56.665C264.328 57.3057 270.824 57.908 277.319 58.4717C278.812 68.2589 280.305 77.9379 281.797 87.5139ZM364.647 86.2875C364.825 87.1995 365.02 88.2215 365.233 89.3531C365.447 90.4846 365.616 91.5049 365.74 92.4145C365.793 92.4146 365.847 92.4147 365.9 92.4148C365.864 91.4779 365.855 90.4996 365.873 89.4802C365.891 88.4608 365.9 87.4827 365.9 86.5459C365.9 78.955 365.9 71.3642 365.9 63.7733C369.738 63.8996 373.577 64.0125 377.416 64.1119C377.416 83.9448 377.416 103.778 377.416 123.611C373.044 123.724 368.672 123.855 364.3 124.003C362.363 116.409 360.426 108.768 358.489 101.073C358.294 100.213 358.089 99.2975 357.876 98.3253C357.663 97.3252 357.494 96.3658 357.37 95.4476C357.316 95.4477 357.263 95.4478 357.21 95.448C357.263 96.3943 357.29 97.243 357.29 97.9945C357.29 106.748 357.29 115.502 357.29 124.255C353.442 124.402 349.595 124.562 345.747 124.736C345.747 104.153 345.747 83.5697 345.747 62.9865C350.27 63.1908 354.793 63.3764 359.316 63.5434C361.093 71.1746 362.87 78.7538 364.647 86.2875ZM397.328 64.5071C402.518 64.5794 406.525 67.0249 409.351 71.8567C412.176 76.6887 413.589 83.4422 413.589 92.136C413.589 93.1792 413.589 94.2224 413.589 95.2656C413.589 103.933 412.158 110.74 409.297 115.706C406.436 120.645 402.446 123.144 397.328 123.215C391.704 123.293 386.079 123.399 380.455 123.535C380.454 103.752 380.454 83.9701 380.454 64.1878C386.079 64.3231 391.704 64.4295 397.328 64.5071ZM430.143 123.09C426.762 123.07 423.381 123.059 420 123.059C418.716 123.059 417.432 123.061 416.148 123.064C416.148 103.595 416.148 84.1272 416.148 64.6589C417.432 64.6619 418.716 64.6634 420 64.6634C423.381 64.6634 426.762 64.653 430.143 64.6321C430.143 84.1182 430.143 103.604 430.143 123.09ZM470.555 123.836C466.094 123.699 461.634 123.58 457.173 123.479C456.691 120.729 456.208 117.982 455.726 115.238C452.445 115.187 449.164 115.142 445.884 115.105C445.444 117.819 445.004 120.532 444.564 123.243C440.139 123.177 435.714 123.128 431.289 123.098C435.43 103.635 439.571 84.1314 443.711 64.4924C448.678 64.4208 453.645 64.3266 458.613 64.21C462.593 83.884 466.574 103.731 470.555 123.836ZM485.349 107.476C489.819 107.555 494.288 107.643 498.758 107.738C498.758 113.474 498.758 119.21 498.758 124.946C489.694 124.511 480.631 124.152 471.568 123.868C471.568 103.864 471.568 83.8591 471.568 63.8546C476.162 63.7105 480.755 63.5472 485.349 63.3646C485.349 78.0683 485.349 92.7721 485.349 107.476ZM542.502 78.7426C538.254 78.8843 534.007 79.0186 529.76 79.1456C529.76 81.7638 529.76 84.3819 529.76 87C533.429 86.9488 537.099 86.8951 540.769 86.8388C540.769 92.4137 540.769 97.9885 540.769 103.563C537.099 103.486 533.429 103.411 529.76 103.341C529.76 111.135 529.76 118.929 529.76 126.723C525.166 126.417 520.572 126.129 515.978 125.861C515.978 104.528 515.978 83.1948 515.978 61.8617C524.819 61.3455 533.661 60.758 542.502 60.0992C542.502 66.3137 542.502 72.5281 542.502 78.7426ZM558.416 128.886C553.751 128.493 549.086 128.121 544.421 127.767C544.421 105.163 544.421 82.5592 544.421 59.9551C549.086 59.602 553.751 59.2291 558.416 58.8363C558.416 82.1863 558.416 105.536 558.416 128.886ZM588.085 76.9385C583.838 77.133 579.59 77.3201 575.343 77.4998C575.343 80.4107 575.343 83.3217 575.343 86.2326C579.013 86.1602 582.683 86.0852 586.352 86.0077C586.352 92.2423 586.352 98.477 586.352 104.712C582.683 104.604 579.013 104.501 575.343 104.401C575.343 113.067 575.343 121.733 575.343 130.399C570.749 129.964 566.155 129.55 561.561 129.154C561.561 105.626 561.561 82.097 561.561 58.5685C570.403 57.8072 579.244 56.9745 588.085 56.0706C588.085 63.0265 588.085 69.9825 588.085 76.9385ZM623.672 135.676C619.211 135.123 614.751 134.589 610.29 134.072C609.808 130.297 609.325 126.538 608.843 122.794C605.562 122.522 602.282 122.257 599.001 121.999C598.561 125.566 598.121 129.12 597.682 132.661C593.256 132.183 588.831 131.723 584.406 131.28C588.547 106.748 592.688 81.404 596.828 55.1533C601.796 54.6191 606.763 54.0623 611.73 53.483C615.71 79.9376 619.691 107.306 623.672 135.676ZM655.021 46.6005C660.352 45.811 664.27 47.7064 666.776 52.4997C669.3 57.236 670.579 64.1578 670.615 73.0947C670.633 79.6406 670.108 85.3775 669.042 90.2303C667.993 95.084 666.528 99.3857 664.644 103.107C662.813 107.178 660.983 111.178 659.152 115.11C663.275 115.383 667.398 115.664 671.521 115.952C671.521 124.734 671.521 133.517 671.521 142.3C660.61 140.631 649.698 139.07 638.786 137.618C638.786 131.447 638.786 125.276 638.786 119.105C643.922 109.362 649.058 99.1574 654.194 88.4415C654.958 86.7061 655.607 84.771 656.14 82.6389C656.691 80.5063 656.966 78.0757 656.966 75.3634C656.966 72.439 656.78 70.4809 656.407 69.4942C656.051 68.4634 655.518 67.9794 654.807 68.0366C654.061 68.0967 653.501 68.8347 653.128 70.2437C652.772 71.6521 652.595 74.8401 652.595 79.8145C652.595 81.0268 652.595 82.2392 652.595 83.4516C648.001 83.5998 643.407 83.7436 638.813 83.883C638.813 81.138 638.813 78.393 638.813 75.648C638.813 68.5567 640.279 62.2348 643.211 56.455C646.144 50.6817 650.08 47.3311 655.021 46.6005ZM722.196 35.323C727.527 34.308 731.446 36.6361 733.952 42.57C736.475 48.4326 737.754 57.0161 737.79 68.1017C737.808 76.2214 737.284 83.3386 736.217 89.3577C735.169 95.3782 733.703 100.713 731.819 105.325C729.989 110.37 728.158 115.325 726.328 120.192C730.451 120.543 734.574 120.9 738.696 121.265C738.696 132.16 738.696 143.055 738.696 153.95C727.785 151.835 716.873 149.828 705.962 147.93C705.962 140.305 705.962 132.68 705.962 125.055C711.098 113.043 716.234 100.425 721.37 87.1489C722.134 84.999 722.782 82.6012 723.315 79.9592C723.866 77.3165 724.142 74.3045 724.142 70.9443C724.142 67.3212 723.955 64.8959 723.582 63.6748C723.227 62.3991 722.693 61.8015 721.983 61.8751C721.236 61.9524 720.676 62.8686 720.303 64.6148C719.948 66.3602 719.77 70.3083 719.77 76.4678C719.77 77.969 719.77 79.4702 719.77 80.9714C715.176 81.1624 710.582 81.3491 705.988 81.5313C705.988 78.1393 705.988 74.7473 705.988 71.3553C705.988 62.593 707.455 54.774 710.387 47.6049C713.319 40.4442 717.255 36.2626 722.196 35.323ZM756.13 97.6156C755.366 97.6065 754.726 98.529 754.211 100.369C753.713 102.152 753.464 104.769 753.464 108.231C753.464 108.779 753.464 109.327 753.464 109.876C753.464 119.165 753.704 124.87 754.184 127.005C754.682 129.14 755.304 130.259 756.05 130.347C756.779 130.433 757.356 129.627 757.783 127.918C758.227 126.154 758.449 120.779 758.449 111.806C758.449 106.997 758.263 103.44 757.889 101.149C757.534 98.7988 756.948 97.6249 756.13 97.6156ZM688.688 65.1217C687.924 65.1921 687.355 66.0389 686.982 67.654C686.609 69.2229 686.422 71.5146 686.422 74.5374C686.422 87.699 686.422 100.861 686.422 114.022C686.422 116.906 686.609 119.128 686.982 120.698C687.355 122.267 687.924 123.091 688.688 123.163C689.452 123.235 690.021 122.514 690.394 120.992C690.767 119.47 690.954 117.242 690.954 114.316C690.954 100.963 690.954 87.6091 690.954 74.2555C690.954 71.1882 690.767 68.8892 690.394 67.3667C690.021 65.7966 689.452 65.0512 688.688 65.1217ZM222.646 71.0278C221.597 70.9574 220.806 71.7517 220.273 73.4232C219.74 75.056 219.474 77.908 219.474 81.9679C219.474 89.9537 219.474 97.9396 219.474 105.925C219.474 110.099 219.74 113.046 220.273 114.754C220.806 116.424 221.597 117.218 222.646 117.146C223.694 117.074 224.485 116.177 225.018 114.466C225.569 112.715 225.845 109.798 225.845 105.703C225.845 97.8643 225.845 90.0259 225.845 82.1875C225.845 78.2036 225.569 75.3801 225.018 73.7049C224.485 71.9943 223.694 71.0982 222.646 71.0278ZM183.407 118.37C184.055 118.32 184.704 118.271 185.353 118.222C186.65 118.123 187.636 116.748 188.312 114.122C189.005 111.493 189.351 107.241 189.351 101.341C189.351 96.4377 189.351 91.5342 189.351 86.6308C189.351 80.5649 189.005 76.4163 188.312 74.1633C187.636 71.8716 186.65 70.6683 185.353 70.5738C184.704 70.5269 184.055 70.4798 183.407 70.4325C183.407 86.4115 183.407 102.391 183.407 118.37ZM393.783 109.453C394.432 109.448 395.08 109.443 395.729 109.438C397.026 109.427 398.013 108.587 398.688 106.917C399.381 105.248 399.727 102.508 399.727 98.6947C399.727 95.5261 399.727 92.3576 399.727 89.189C399.727 85.2686 399.381 82.5956 398.688 81.1678C398.013 79.7134 397.026 78.9808 395.729 78.971C395.08 78.9662 394.432 78.9611 393.783 78.9559C393.783 89.1217 393.783 99.2876 393.783 109.453ZM68.7021 75.9866C68.6488 76.5947 68.5511 77.8419 68.4089 79.7316C68.2845 81.561 68.1423 83.6976 67.9824 86.1437C67.3618 94.8566 66.7412 103.622 66.1206 112.439C67.9171 112.332 69.7137 112.226 71.5103 112.121C70.8319 103.561 70.1536 94.9446 69.4752 86.2719C69.2797 83.7678 69.1198 81.5953 68.9954 79.7581C68.8887 77.8606 68.8088 76.6036 68.7555 75.9896C68.7377 75.9886 68.7199 75.9876 68.7021 75.9866ZM450.589 85.9642C450.535 86.2345 450.438 86.7884 450.296 87.6258C450.171 88.4361 450.029 89.3812 449.869 90.461C449.248 94.3079 448.628 98.1503 448.007 101.989C449.804 101.997 451.6 102.006 453.397 102.016C452.719 98.1717 452.04 94.3325 451.362 90.4983C451.166 89.3912 451.006 88.4331 450.882 87.6235C450.775 86.7868 450.695 86.2337 450.642 85.9639C450.624 85.964 450.607 85.9641 450.589 85.9642ZM603.706 83.2911C603.653 83.654 603.555 84.3977 603.413 85.5205C603.288 86.6066 603.146 87.8726 602.986 89.3172C602.366 94.4643 601.745 99.5843 601.124 104.678C602.921 104.732 604.718 104.788 606.514 104.844C605.836 99.6501 605.157 94.4864 604.479 89.3523C604.283 87.8699 604.124 86.5887 603.999 85.5066C603.893 84.3879 603.813 83.6493 603.759 83.2895C603.742 83.29 603.724 83.2905 603.706 83.2911ZM791.264 44.7219C789.478 45.0006 787.692 45.2773 785.906 45.5519C785.906 62.7755 785.906 79.9991 785.906 97.2227C783.356 97.1955 780.806 97.1685 778.255 97.1417C778.255 80.3332 778.255 63.5247 778.255 46.7162C776.469 46.9851 774.683 47.252 772.897 47.5169C772.897 40.791 772.897 34.0651 772.897 27.3391C779.019 26.0358 785.142 24.6985 791.264 23.3272C791.264 30.4588 791.264 37.5904 791.264 44.7219ZM806.512 57.5693C806.529 57.5672 806.547 57.5652 806.565 57.5632C807.542 44.8736 808.52 32.0673 809.497 19.1432C812.998 18.3205 816.499 17.4868 820 16.642C820 43.6295 820 70.6171 820 97.6046C817.539 97.5758 815.077 97.5473 812.616 97.519C812.634 83.7243 812.651 69.9273 812.669 56.128C812.643 56.1312 812.616 56.1343 812.589 56.1375C811.656 70.0417 810.723 83.8243 809.79 97.4867C807.551 97.4611 805.312 97.4358 803.073 97.4108C802.14 84.0136 801.207 70.7348 800.274 57.573C800.247 57.5761 800.221 57.5791 800.194 57.5822C800.203 70.8466 800.212 84.1122 800.221 97.3789C797.83 97.3523 795.44 97.326 793.05 97.2999C793.05 72.5087 793.05 47.7175 793.05 22.9263C796.568 22.1344 800.087 21.3313 803.606 20.517C804.575 32.7539 805.543 45.1042 806.512 57.5693ZM33.7816 95.0904C34.6702 95.087 35.5587 95.0836 36.4473 95.0801C37.6024 95.0746 38.411 93.2155 38.8731 89.5272C39.3351 85.8375 39.5662 81.3565 39.5662 76.06C39.5662 70.6295 39.3351 66.0888 38.8731 62.414C38.411 58.6734 37.6024 56.7229 36.4473 56.5859C35.5587 56.4814 34.6702 56.3766 33.7816 56.2713C33.7816 69.211 33.7816 82.1507 33.7816 95.0904Z" fill="url(#paint0_linear_19266_200881)"/>
</g>
<defs>
<filter id="filter0_d_19266_200881" x="0" y="0" width="840" height="195.723" filterUnits="userSpaceOnUse" color-interpolation-filters="sRGB">
<feFlood flood-opacity="0" result="BackgroundImageFix"/>
<feColorMatrix in="SourceAlpha" type="matrix" values="0 0 0 0 0 0 0 0 0 0 0 0 0 0 0 0 0 0 127 0" result="hardAlpha"/>
<feOffset dy="4"/>
<feGaussianBlur stdDeviation="10"/>
<feComposite in2="hardAlpha" operator="out"/>
<feColorMatrix type="matrix" values="0 0 0 0 0 0 0 0 0 0 0 0 0 0 0 0 0 0 1 0"/>
<feBlend mode="normal" in2="BackgroundImageFix" result="effect1_dropShadow_19266_200881"/>
<feBlend mode="normal" in="SourceGraphic" in2="effect1_dropShadow_19266_200881" result="shape"/>
</filter>
<linearGradient id="paint0_linear_19266_200881" x1="420" y1="15.3613" x2="420" y2="155.861" gradientUnits="userSpaceOnUse">
<stop stop-color="#EBFF4C"/>
<stop offset="1" stop-color="#00FFCC"/>
</linearGradient>
</defs>
</svg>
