<svg width="840" height="195" viewBox="0 0 840 195" fill="none" xmlns="http://www.w3.org/2000/svg">
<g filter="url(#filter0_d_12475_178338)">
<path d="M298.914 58.8654C303.481 59.2139 307.235 62.1148 310.175 67.4468C313.116 72.7854 314.586 80.7953 314.586 91.6223C314.586 92.8389 314.586 94.0556 314.586 95.2722C314.586 106.099 313.116 114.109 310.175 119.448C307.235 124.78 303.481 127.681 298.914 128.029C294.347 128.377 290.6 126.015 287.676 120.759C284.751 115.511 283.288 107.005 283.288 95.4013C283.288 94.0986 283.288 92.7959 283.288 91.4932C283.288 79.8893 284.751 71.3833 287.676 66.1358C290.6 60.8791 294.347 58.5173 298.914 58.8654ZM463.615 102.683C463.615 105.964 463.905 108.205 464.484 109.408C465.078 110.584 465.891 111.181 466.924 111.199C467.972 111.217 468.785 110.646 469.364 109.482C469.942 108.292 470.232 106.044 470.232 102.741C470.232 89.7078 470.232 76.6746 470.232 63.6413C473.837 63.5318 477.442 63.4104 481.048 63.2772C481.048 75.6132 481.048 87.9492 481.048 100.285C481.048 108.687 479.773 114.825 477.223 118.654C474.674 122.458 471.272 124.264 467.017 124.138C462.638 124.008 459.166 122.012 456.6 118.162C454.035 114.285 452.753 108.278 452.753 100.103C452.753 88.0955 452.753 76.0878 452.753 64.0801C456.374 64.0084 459.995 63.9247 463.615 63.8292C463.615 76.7803 463.615 89.7314 463.615 102.683ZM570.015 56.4146C574.253 56.0138 577.546 58.1846 579.892 63.0862C582.254 67.9453 583.435 75.0177 583.435 84.1664C583.435 90.3536 583.435 96.5408 583.435 102.728C583.435 112.047 582.199 119.167 579.728 123.947C577.272 128.735 574.034 130.859 570.015 130.48C565.729 130.042 562.429 127.323 560.114 122.422C557.799 117.516 556.641 110.79 556.641 102.12C556.641 96.3381 556.641 90.5563 556.641 84.7745C556.642 76.3901 557.807 69.7291 560.137 64.6625C562.483 59.6005 565.776 56.8154 570.015 56.4146ZM637.397 70.7649C636.771 70.808 636.146 70.8509 635.52 70.8936C631.829 71.1486 629.021 73.3497 627.097 77.402C626.009 79.6926 625.232 83.2436 624.765 88.057C624.902 87.6237 625.045 87.1991 625.197 86.7899C626.839 82.3591 628.927 80.044 631.461 79.9393C634.402 79.8176 636.74 82.0716 638.476 86.8173C640.212 91.5575 641.08 98.401 641.08 107.234C641.081 116.952 639.829 124.56 637.327 129.874C634.84 135.158 631.563 137.433 627.496 136.902C623.32 136.356 619.98 133.111 617.478 127.331C614.975 121.505 613.724 112.77 613.724 100.938C613.724 99.4215 613.724 97.9048 613.724 96.3881C613.724 82.8195 615.554 72.0474 619.214 63.6756C622.874 55.3226 628.2 50.5073 635.192 49.5675C635.927 49.47 636.662 49.3719 637.397 49.2734C637.397 56.4372 637.397 63.6011 637.397 70.7649ZM775.962 23.9431C779.951 23.0525 783.189 25.7047 785.675 32.1609C788.162 38.5423 789.406 48.1348 789.406 60.6995C789.406 62.5993 789.406 64.4991 789.406 66.3989C786.066 66.686 782.727 66.9692 779.388 67.2485C779.388 66.3752 779.388 65.5019 779.388 64.6286C779.388 60.8855 779.114 57.9811 778.566 55.9318C778.019 53.8193 777.213 52.8411 776.15 52.9792C775.055 53.1212 774.265 54.0538 773.78 55.7661C773.295 57.4178 773.053 59.5827 773.053 62.2721C773.053 65.0225 773.374 67.1014 774.015 68.5222C774.656 69.8832 776.478 72.0358 779.482 75.1026C782.829 78.5858 785.441 83.8009 787.318 90.7603C789.21 97.648 790.157 107.773 790.157 120.947C790.157 135.609 788.882 146.687 786.332 153.905C783.783 161.073 780.467 164.052 776.385 163.138C772.318 162.228 768.947 158.21 766.273 151.317C763.614 144.417 762.284 134.836 762.284 122.324C762.284 120.287 762.284 118.25 762.284 116.212C765.686 116.461 769.088 116.713 772.49 116.969C772.49 118.068 772.49 119.166 772.49 120.264C772.49 124.962 772.818 128.502 773.475 130.908C774.132 133.251 775.063 134.512 776.267 134.672C777.362 134.816 778.214 134.001 778.825 132.208C779.45 130.418 779.763 127.859 779.763 124.549C779.763 121.051 779.442 118.305 778.801 116.328C778.175 114.354 776.471 111.713 773.686 108.515C770.089 104.236 767.344 98.9589 765.451 92.6418C763.559 86.3191 762.613 77.6888 762.612 66.5792C762.612 53.9936 763.84 44.1016 766.296 36.6495C768.752 29.1485 771.974 24.8344 775.962 23.9431ZM805.806 17.0346C809.794 16.0692 813.032 18.9974 815.519 26.1004C818.006 33.1214 819.249 43.6635 819.249 57.4679C819.249 59.5552 819.249 61.6425 819.249 63.7298C815.91 64.04 812.57 64.3464 809.231 64.6489C809.231 63.689 809.231 62.729 809.231 61.7691C809.231 57.6546 808.957 54.4615 808.41 52.2077C807.863 49.8846 807.057 48.8074 805.993 48.9571C804.898 49.1111 804.109 50.1348 803.624 52.0166C803.139 53.8318 802.896 56.2118 802.896 59.1689C802.896 62.1931 803.217 64.4794 803.858 66.0423C804.5 67.5395 806.322 69.9084 809.325 73.2824C812.672 77.1145 815.284 82.8476 817.161 90.4948C819.054 98.0634 820 109.186 820 123.66C820 139.768 818.725 151.941 816.176 159.882C813.626 167.766 810.31 171.054 806.228 170.063C802.161 169.077 798.79 164.67 796.116 157.096C793.457 149.513 792.128 138.976 792.127 125.213C792.127 122.971 792.127 120.73 792.127 118.489C795.529 118.76 798.931 119.034 802.333 119.312C802.333 120.519 802.333 121.727 802.333 122.935C802.333 128.1 802.662 131.992 803.319 134.636C803.976 137.211 804.906 138.596 806.111 138.769C807.206 138.925 808.058 138.027 808.668 136.055C809.294 134.086 809.606 131.273 809.606 127.634C809.607 123.789 809.286 120.771 808.644 118.599C808.019 116.429 806.314 113.529 803.53 110.015C799.932 105.312 797.187 99.5095 795.295 92.5614C793.402 85.607 792.456 76.1129 792.456 63.8922C792.456 50.0478 793.684 39.1682 796.139 30.9782C798.595 22.7342 801.817 18.0005 805.806 17.0346ZM435.837 63.4089C440.216 63.3653 443.681 65.0476 446.23 68.4957C448.795 71.9421 450.078 77.1235 450.078 84.0241C450.078 85.2859 450.078 86.5477 450.078 87.8095C446.59 87.8217 443.102 87.8318 439.614 87.8397C439.614 86.1041 439.614 84.3684 439.614 82.6328C439.614 80.4699 439.309 78.856 438.699 77.792C438.089 76.728 437.174 76.2005 435.954 76.2075C434.656 76.215 433.631 77.0063 432.881 78.5812C432.145 80.156 431.778 82.8735 431.778 86.7354C431.778 91.2233 431.778 95.7111 431.778 100.199C431.778 103.981 432.138 106.712 432.857 108.393C433.592 110.074 434.648 110.919 436.024 110.927C437.229 110.934 438.12 110.314 438.699 109.062C439.293 107.812 439.598 105.877 439.614 103.26C439.614 101.939 439.614 100.617 439.614 99.295C443.102 99.3033 446.59 99.3139 450.078 99.3266C450.078 100.803 450.078 102.28 450.078 103.756C450.062 109.959 448.78 114.818 446.23 118.318C443.696 121.82 440.232 123.529 435.837 123.486C431.066 123.438 427.265 121.145 424.434 116.59C421.619 112.009 420.211 104.844 420.211 95.0829C420.211 93.9924 420.211 92.902 420.211 91.8116C420.211 81.8909 421.642 74.699 424.505 70.2242C427.367 65.7226 431.144 63.4558 435.837 63.4089ZM248.588 97.5113C248.651 98.2053 248.698 98.8644 248.729 99.4889C248.776 100.078 248.823 100.789 248.87 101.621C248.917 101.62 248.964 101.619 249.01 101.618C249.057 100.784 249.096 100.073 249.128 99.4824C249.175 98.8573 249.229 98.1976 249.292 97.5035C250.762 83.5156 252.233 69.6961 253.703 56.0384C257.105 56.3807 260.507 56.7125 263.909 57.0338C265.449 70.6009 266.99 84.005 268.531 97.2532C268.609 97.9115 268.664 98.5202 268.695 99.0797C268.742 99.6389 268.789 100.346 268.836 101.201C268.883 101.2 268.93 101.2 268.976 101.199C269.023 100.342 269.063 99.6338 269.094 99.0739C269.141 98.5139 269.195 97.9046 269.258 97.2461C270.564 83.9949 271.87 70.8756 273.176 57.883C276.359 58.1658 279.542 58.4394 282.725 58.7038C280.066 81.6611 277.407 105.054 274.748 128.921C271.018 129.25 267.287 129.59 263.557 129.944C261.961 116.828 260.366 103.55 258.771 90.1013C258.708 89.4586 258.646 88.7987 258.583 88.1215C258.536 87.4446 258.489 86.6828 258.442 85.8362C258.403 85.8354 258.364 85.8347 258.325 85.8339C258.278 86.6789 258.223 87.4394 258.161 88.1156C258.114 88.7581 258.059 89.4177 257.996 90.0944C256.401 103.542 254.806 117.161 253.21 130.957C249.456 131.337 245.702 131.729 241.949 132.134C239.243 106.652 236.537 80.5942 233.831 53.9194C237.35 54.3158 240.869 54.701 244.389 55.075C245.788 69.3849 247.188 83.5284 248.588 97.5113ZM48.7407 57.3966C45.7923 57.0591 42.844 56.7176 39.8956 56.372C39.8956 92.9809 39.8956 129.59 39.8956 166.199C36.2199 167.044 32.5442 167.902 28.8686 168.771C28.8686 130.868 28.8686 92.9644 28.8686 55.0609C25.9124 54.7044 22.9562 54.3438 20 53.9792C20 41.3196 20 28.66 20 16.0005C29.5802 18.3191 39.1605 20.5544 48.7407 22.7064C48.7407 34.2698 48.7407 45.8332 48.7407 57.3966ZM62.1608 73.802C64.5696 73.9532 66.9783 74.1028 69.3871 74.2509C69.3871 58.5724 69.3871 42.8938 69.3871 27.2153C73.0236 27.9867 76.6602 28.7462 80.2968 29.4937C80.2968 72.1294 80.2968 114.765 80.2968 157.401C76.6602 158.148 73.0236 158.908 69.3871 159.679C69.3871 142.575 69.3871 125.472 69.3871 108.368C66.9783 108.483 64.5696 108.599 62.1608 108.717C62.1608 126.22 62.1608 143.724 62.1608 161.228C58.5321 162.014 54.9033 162.811 51.2746 163.621C51.2746 116.838 51.2746 70.0561 51.2746 23.2737C54.9033 24.0832 58.5321 24.8808 62.1608 25.6665C62.1608 41.7117 62.1608 57.7569 62.1608 73.802ZM109.296 63.7634C104.548 63.3086 99.8014 62.8434 95.0542 62.3677C95.0543 68.0363 95.0543 73.7049 95.0543 79.3735C99.1366 79.5587 103.219 79.7405 107.301 79.9187C107.301 88.4814 107.301 97.0441 107.301 105.607C103.219 105.767 99.1366 105.93 95.0543 106.097C95.0543 112.547 95.0543 118.998 95.0543 125.448C99.9265 124.946 104.799 124.454 109.671 123.974C109.671 133.191 109.671 142.408 109.671 151.624C101.295 153.197 92.9193 154.833 84.5434 156.533C84.5434 114.476 84.5434 72.4185 84.5434 30.361C92.7941 32.0357 101.045 33.6485 109.296 35.1996C109.296 44.7209 109.296 54.2421 109.296 63.7634ZM148.758 67.2335C144.574 66.8826 140.39 66.5236 136.206 66.1565C136.206 72.0255 136.206 77.8945 136.206 83.7634C139.858 83.8771 143.511 83.9887 147.163 84.098C147.163 91.889 147.163 99.6801 147.163 107.471C143.511 107.635 139.858 107.802 136.206 107.973C136.206 120.934 136.206 133.894 136.206 146.855C132.577 147.478 128.949 148.113 125.32 148.76C125.32 111.885 125.32 75.0096 125.32 38.1344C133.133 39.5274 140.946 40.865 148.758 42.1472C148.758 50.5093 148.758 58.8714 148.758 67.2335ZM162.507 142.548C158.831 143.121 155.156 143.706 151.48 144.303C151.48 110.399 151.48 76.4954 151.48 42.5916C155.156 43.1888 158.831 43.7737 162.507 44.3464C162.507 77.0803 162.507 109.814 162.507 142.548ZM190.192 70.4428C186.008 70.1455 181.824 69.8401 177.64 69.5266C177.64 74.6708 177.64 79.815 177.64 84.9593C181.292 85.0564 184.944 85.1513 188.596 85.244C188.596 92.08 188.596 98.9161 188.596 105.752C184.944 105.891 181.292 106.034 177.64 106.179C177.64 117.539 177.64 128.9 177.64 140.26C174.011 140.792 170.382 141.336 166.753 141.892C166.753 109.595 166.753 77.299 166.753 45.0025C174.566 46.1997 182.379 47.3414 190.192 48.4277C190.192 55.7661 190.192 63.1044 190.192 70.4428ZM221.983 134.352C218.315 134.792 214.647 135.243 210.979 135.707C210.414 131.27 209.849 126.81 209.284 122.328C205.765 122.633 202.246 122.946 198.727 123.266C198.189 127.994 197.651 132.745 197.113 137.519C193.672 137.983 190.231 138.458 186.79 138.943C190.692 108.02 194.595 78.2139 198.497 49.4411C202.455 49.9729 206.412 50.4905 210.369 50.9938C214.24 79.7497 218.111 107.509 221.983 134.352ZM333.848 62.1593C337.555 62.3539 340.527 64.3658 342.764 68.1508C345 71.9097 346.119 76.9067 346.119 83.2019C346.119 89.7218 344.938 94.9103 342.576 98.8301C342.219 99.4223 341.846 99.9651 341.463 100.47C343.507 108.41 345.552 116.276 347.597 124.076C343.616 124.25 339.636 124.439 335.655 124.642C334.184 118.104 332.712 111.52 331.241 104.887C330.468 104.902 329.695 104.917 328.921 104.933C328.921 111.621 328.921 118.31 328.921 124.999C325.293 125.199 321.664 125.411 318.035 125.635C318.035 104.177 318.035 82.7179 318.035 61.2594C323.306 61.5846 328.577 61.8845 333.848 62.1593ZM360.36 108.796C364.607 108.718 368.853 108.648 373.1 108.587C373.1 113.443 373.1 118.299 373.1 123.155C365.225 123.379 357.349 123.658 349.474 123.995C349.474 103.63 349.474 83.2648 349.474 62.8999C353.103 63.0548 356.731 63.1977 360.36 63.3286C360.36 78.4845 360.36 93.6403 360.36 108.796ZM389.617 64.1254C394.247 64.2114 397.946 66.658 400.714 71.4608C403.483 76.2375 404.867 82.9702 404.867 91.6877C404.867 92.7941 404.867 93.9004 404.867 95.0068C404.867 103.698 403.475 110.47 400.691 115.354C397.907 120.21 394.216 122.684 389.617 122.769C384.995 122.854 380.373 122.958 375.751 123.082C375.751 103.326 375.751 83.5689 375.751 63.8123C380.373 63.9361 384.995 64.0404 389.617 64.1254ZM501.53 62.3937C505.377 62.2024 508.341 64.0274 510.422 67.9487C512.502 71.8375 513.542 77.3394 513.542 84.393C513.542 91.4175 512.518 96.9536 510.469 100.937C508.435 104.896 505.401 106.796 501.365 106.71C499.582 106.672 497.799 106.636 496.016 106.601C496.016 112.48 496.016 118.359 496.016 124.238C492.387 124.071 488.759 123.916 485.13 123.773C485.13 103.556 485.13 83.3386 485.13 63.1214C490.596 62.906 496.063 62.6634 501.53 62.3937ZM541.227 58.8547C545.763 58.5082 549.087 59.9999 551.198 63.4315C553.326 66.857 554.397 71.6727 554.413 77.8048C554.428 82.5132 553.92 86.6066 552.888 90.0465C551.871 93.4869 550.541 96.7629 548.899 99.8586C547.069 103.513 545.239 107.122 543.409 110.688C547.312 110.838 551.214 110.994 555.116 111.157C555.116 116.776 555.116 122.394 555.116 128.013C546.013 127.269 536.91 126.6 527.807 126.006C527.807 121.936 527.807 117.866 527.807 113.796C532.03 106.097 536.253 98.2084 540.476 90.0947C541.321 88.3127 542.025 86.5372 542.588 84.7732C543.151 83.0092 543.433 81.1052 543.432 79.0713C543.432 77.0372 543.245 75.5956 542.869 74.7495C542.494 73.8723 541.915 73.4527 541.133 73.487C540.32 73.5227 539.71 74.1461 539.303 75.3529C538.912 76.529 538.717 78.8531 538.717 82.3299C538.717 83.1076 538.717 83.8854 538.717 84.6632C535.049 84.7326 531.381 84.7989 527.713 84.8619C527.713 83.3267 527.713 81.7915 527.713 80.2563C527.713 74.5635 528.918 69.6977 531.326 65.5651C533.751 61.4344 537.051 59.1734 541.227 58.8547ZM598.474 53.4932C603.01 52.9832 606.333 54.6334 608.445 58.58C610.572 62.5181 611.644 68.1092 611.659 75.2449C611.675 80.7238 611.167 85.4915 610.134 89.4932C609.118 93.4955 607.788 97.3007 606.146 100.885C604.316 105.118 602.486 109.284 600.656 113.386C604.558 113.605 608.461 113.83 612.363 114.063C612.363 120.604 612.363 127.144 612.363 133.684C603.26 132.625 594.157 131.641 585.054 130.731C585.054 126.071 585.054 121.41 585.054 116.75C589.277 108 593.5 98.9537 597.723 89.5768C598.568 87.5176 599.271 85.4631 599.835 83.4206C600.398 81.3782 600.679 79.1736 600.679 76.8213C600.679 74.4689 600.492 72.8037 600.116 71.8303C599.741 70.821 599.162 70.3442 598.38 70.3947C597.567 70.4472 596.957 71.1755 596.55 72.5728C596.159 73.9347 595.963 76.617 595.963 80.6264C595.963 81.5233 595.963 82.4202 595.963 83.3172C592.296 83.4202 588.628 83.5199 584.96 83.6165C584.96 81.8586 584.96 80.1006 584.96 78.3427C584.96 71.8245 586.164 66.238 588.573 61.4434C590.997 56.6519 594.298 53.9623 598.474 53.4932ZM717.425 37.6426C721.273 36.9445 724.237 39.9796 726.317 46.9836C728.397 53.9236 729.438 63.9586 729.437 76.8729C729.438 89.7338 728.413 99.8808 726.364 107.096C724.331 114.272 721.296 117.591 717.261 117.274C715.478 117.137 713.695 117.001 711.912 116.867C711.912 127.334 711.912 137.801 711.912 148.269C708.283 147.628 704.654 146.999 701.025 146.382C701.025 111.092 701.025 75.8023 701.025 40.5126C706.492 39.583 711.959 38.6264 717.425 37.6426ZM762.308 157.938C758.64 157.178 754.972 156.431 751.304 155.696C750.739 148.942 750.174 142.224 749.609 135.542C746.09 135.065 742.571 134.596 739.052 134.134C738.514 140.447 737.976 146.727 737.438 152.974C733.997 152.314 730.556 151.663 727.115 151.024C731.017 113.312 734.92 74.1613 738.822 33.4893C742.78 32.7238 746.737 31.9441 750.694 31.1501C754.565 71.8479 758.436 114.083 762.308 157.938ZM627.496 95.2963C626.589 95.2916 625.869 96.153 625.338 97.8682C624.835 99.4882 624.573 101.547 624.545 104.054C624.574 110.307 624.829 114.327 625.314 116.125C625.846 117.997 626.581 118.976 627.52 119.048C628.427 119.118 629.099 118.378 629.537 116.819C629.975 115.261 630.194 111.778 630.194 106.38C630.194 102.884 629.983 100.159 629.561 98.215C629.154 96.2706 628.466 95.3012 627.496 95.2963ZM570.038 72.0734C569.162 72.1211 568.529 72.9087 568.138 74.4302C567.762 75.9513 567.575 78.0464 567.575 80.7218C567.575 89.3359 567.575 97.95 567.575 106.564C567.575 109.174 567.762 111.237 568.138 112.758C568.529 114.247 569.162 115.019 570.038 115.067C570.914 115.116 571.54 114.41 571.915 112.944C572.291 111.445 572.478 109.371 572.478 106.728C572.478 98.0063 572.478 89.2846 572.478 80.5629C572.478 77.8537 572.291 75.7464 571.915 74.2474C571.54 72.748 570.914 72.0257 570.038 72.0734ZM298.914 73.6271C297.553 73.5677 296.497 74.4578 295.746 76.3128C295.011 78.1673 294.644 81.361 294.644 85.8802C294.644 90.9713 294.644 96.0624 294.644 101.154C294.644 105.704 295.011 108.928 295.746 110.813C296.497 112.699 297.553 113.604 298.914 113.543C300.274 113.483 301.33 112.489 302.081 110.574C302.847 108.658 303.231 105.474 303.231 101.01C303.231 96.0138 303.231 91.0174 303.231 86.021C303.231 81.5871 302.847 78.4343 302.081 76.5486C301.33 74.6644 300.274 73.6864 298.914 73.6271ZM386.379 110.077C387.146 110.068 387.912 110.06 388.679 110.051C390.258 110.034 391.51 109.015 392.432 106.998C393.371 104.953 393.84 101.71 393.84 97.2641C393.84 94.7463 393.84 92.2285 393.84 89.7107C393.84 85.2109 393.371 82.0216 392.432 80.1379C391.51 78.2546 390.258 77.303 388.679 77.2864C387.912 77.2784 387.146 77.2701 386.379 77.2615C386.379 88.2 386.379 99.1385 386.379 110.077ZM203.588 80.5077C203.479 81.7301 203.346 83.0912 203.19 84.5925C202.407 91.2868 201.624 98.0289 200.841 104.819C202.915 104.748 204.989 104.677 207.064 104.607C206.242 97.9976 205.419 91.3389 204.597 84.6302C204.425 83.1265 204.285 81.7594 204.175 80.5306C204.081 79.3025 204.003 78.3306 203.94 77.6161C203.909 77.6146 203.878 77.6131 203.847 77.6116C203.784 78.3203 203.698 79.2853 203.588 80.5077ZM743.913 75.2455C743.804 76.9775 743.671 78.9039 743.515 81.0226C742.731 90.4767 741.948 99.8592 741.165 109.171C743.24 109.276 745.314 109.383 747.389 109.49C746.567 99.9062 745.744 90.3985 744.922 80.9661C744.75 78.8509 744.609 76.9334 744.5 75.2111C744.406 73.4878 744.328 72.1276 744.265 71.129C744.234 71.1313 744.203 71.1335 744.172 71.1358C744.109 72.143 744.023 73.5135 743.913 75.2455ZM658.254 61.5788C656.612 61.7421 654.97 61.9036 653.327 62.0635C653.327 73.2749 653.327 84.4864 653.327 95.6978C651.177 95.6828 649.026 95.668 646.875 95.6534C646.875 84.6633 646.875 73.6731 646.875 62.6829C645.225 62.8391 643.575 62.9936 641.925 63.1464C641.925 58.7602 641.925 54.3741 641.925 49.9879C647.368 49.265 652.811 48.5156 658.254 47.7395C658.254 52.3526 658.254 56.9657 658.254 61.5788ZM671.51 71.2766C671.549 71.2739 671.588 71.2712 671.628 71.2684C672.715 62.6959 673.802 54.0354 674.889 45.2851C677.571 44.876 680.254 44.4604 682.936 44.0383C682.936 61.3314 682.936 78.6245 682.936 95.9177C681.005 95.9025 679.073 95.8874 677.141 95.8726C677.149 87.1818 677.157 78.4903 677.165 69.7982C677.118 69.8017 677.071 69.8053 677.024 69.8088C676.039 78.5703 675.053 87.2499 674.068 95.8491C672.324 95.8358 670.58 95.8227 668.836 95.8097C667.866 87.3369 666.896 78.9417 665.926 70.6229C665.879 70.6263 665.833 70.6296 665.786 70.633C665.794 79.0171 665.801 87.4019 665.809 95.7873C663.893 95.7732 661.977 95.7593 660.061 95.7455C660.061 79.6573 660.061 63.5692 660.061 47.481C662.814 47.0855 665.567 46.6833 668.32 46.2742C669.383 54.5243 670.447 62.8579 671.51 71.2766ZM496.016 93.4049C497.025 93.4049 498.034 93.4048 499.043 93.4047C500.404 93.4049 501.342 92.6527 501.858 91.1426C502.39 89.6044 502.656 87.5218 502.656 84.9007C502.656 82.2796 502.39 80.2186 501.858 78.7233C501.342 77.1986 500.404 76.4578 499.043 76.4937C498.034 76.5202 497.025 76.5461 496.016 76.5716C496.016 82.1827 496.016 87.7938 496.016 93.4049ZM711.912 93.3719C712.92 93.3717 713.929 93.3714 714.938 93.3712C716.299 93.3719 717.237 92.0227 717.754 89.3035C718.285 86.5343 718.551 82.7796 718.551 78.0605C718.551 73.3414 718.285 69.6388 717.754 66.9733C717.237 64.2538 716.299 62.9721 714.938 63.1063C713.929 63.2049 712.92 63.3031 711.912 63.4008C711.912 73.3912 711.912 83.3815 711.912 93.3719ZM328.921 91.9303C329.836 91.9327 330.751 91.9351 331.666 91.9375C332.918 91.9404 333.801 91.2394 334.318 89.8399C334.849 88.4115 335.123 86.4707 335.139 84.0123C335.139 81.5822 334.873 79.6475 334.341 78.2026C333.809 76.7579 332.918 76.0145 331.666 75.9771C330.751 75.9499 329.836 75.9223 328.921 75.8942C328.921 81.2396 328.921 86.5849 328.921 91.9303Z" fill="url(#paint0_linear_12475_178338)"/>
</g>
<defs>
<filter id="filter0_d_12475_178338" x="0" y="0" width="840" height="194.235" filterUnits="userSpaceOnUse" color-interpolation-filters="sRGB">
<feFlood flood-opacity="0" result="BackgroundImageFix"/>
<feColorMatrix in="SourceAlpha" type="matrix" values="0 0 0 0 0 0 0 0 0 0 0 0 0 0 0 0 0 0 127 0" result="hardAlpha"/>
<feOffset dy="4"/>
<feGaussianBlur stdDeviation="10"/>
<feComposite in2="hardAlpha" operator="out"/>
<feColorMatrix type="matrix" values="0 0 0 0 0 0 0 0 0 0 0 0 0 0 0 0 0 0 1 0"/>
<feBlend mode="normal" in2="BackgroundImageFix" result="effect1_dropShadow_12475_178338"/>
<feBlend mode="normal" in="SourceGraphic" in2="effect1_dropShadow_12475_178338" result="shape"/>
</filter>
<linearGradient id="paint0_linear_12475_178338" x1="420" y1="14.9473" x2="420" y2="155.447" gradientUnits="userSpaceOnUse">
<stop stop-color="#EBFF4C"/>
<stop offset="1" stop-color="#00FFCC"/>
</linearGradient>
</defs>
</svg>
