<svg preserveAspectRatio="none" width="100%" height="100%" overflow="visible" style="display: block;" viewBox="0 0 34.9988 36.6667" fill="none" xmlns="http://www.w3.org/2000/svg">
<path id="Vector" d="M33.3321 36.6667H8.33213C7.95985 36.6668 7.59823 36.5424 7.30493 36.3131C7.01162 36.0838 6.80352 35.763 6.7138 35.4017L0.0487994 8.55833C-0.00451976 8.34287 -0.014262 8.11892 0.0201445 7.89963C0.054551 7.68035 0.132413 7.47015 0.249161 7.28136C0.365908 7.09258 0.51919 6.92902 0.700008 6.80028C0.880827 6.67154 1.08554 6.58022 1.30213 6.53167L6.66547 5.33333V1.66667C6.66547 1.22464 6.84106 0.800716 7.15362 0.488155C7.46618 0.175595 7.8901 0 8.33213 0H33.3321C33.7742 0 34.1981 0.175595 34.5106 0.488155C34.8232 0.800716 34.9988 1.22464 34.9988 1.66667V35C34.9988 35.442 34.8232 35.8659 34.5106 36.1785C34.1981 36.4911 33.7742 36.6667 33.3321 36.6667ZM9.9988 3.33333V33.3333H31.6655V3.33333H9.9988ZM6.66547 8.74833L3.69547 9.415L6.66547 21.375V8.74833ZM28.3321 31.6667C27.8901 31.6667 27.4662 31.4911 27.1536 31.1785C26.8411 30.8659 26.6655 30.442 26.6655 30V26.6667C26.6655 26.2246 26.8411 25.8007 27.1536 25.4882C27.4662 25.1756 27.8901 25 28.3321 25C28.7742 25 29.1981 25.1756 29.5106 25.4882C29.8232 25.8007 29.9988 26.2246 29.9988 26.6667V30C29.9988 30.442 29.8232 30.8659 29.5106 31.1785C29.1981 31.4911 28.7742 31.6667 28.3321 31.6667ZM20.8321 25C20.5876 25.0002 20.346 24.9465 20.1245 24.8428C19.903 24.7391 19.707 24.5879 19.5505 24.4L15.3838 19.4C15.1339 19.1004 14.9971 18.7226 14.9971 18.3325C14.9971 17.9424 15.1339 17.5646 15.3838 17.265L19.5505 12.265C19.7069 12.0774 19.9026 11.9265 20.1238 11.823C20.345 11.7194 20.5862 11.6658 20.8305 11.6658C21.0747 11.6658 21.3159 11.7194 21.5371 11.823C21.7583 11.9265 21.954 12.0774 22.1105 12.265L26.2771 17.265C26.527 17.5646 26.6639 17.9424 26.6639 18.3325C26.6639 18.7226 26.527 19.1004 26.2771 19.4L22.1105 24.4C21.9543 24.5875 21.7589 24.7384 21.538 24.8421C21.3171 24.9458 21.0761 24.9997 20.8321 25ZM20.8321 15.935L18.8321 18.3333L20.8321 20.73L22.8321 18.3333L20.8321 15.935ZM13.3321 11.6667C12.8901 11.6667 12.4662 11.4911 12.1536 11.1785C11.8411 10.866 11.6655 10.442 11.6655 10V6.66667C11.6655 6.22464 11.8411 5.80072 12.1536 5.48815C12.4662 5.17559 12.8901 5 13.3321 5C13.7742 5 14.1981 5.17559 14.5106 5.48815C14.8232 5.80072 14.9988 6.22464 14.9988 6.66667V10C14.9988 10.442 14.8232 10.866 14.5106 11.1785C14.1981 11.4911 13.7742 11.6667 13.3321 11.6667Z" fill="var(--fill-0, #EDF0F2)"/>
</svg>
