<svg preserveAspectRatio="none" width="100%" height="100%" overflow="visible" style="display: block;" viewBox="0 0 26.2491 27.5" fill="none" xmlns="http://www.w3.org/2000/svg">
<path id="Vector" d="M24.9991 27.5H6.2491C5.96989 27.5001 5.69867 27.4068 5.47869 27.2348C5.25872 27.0629 5.10264 26.8222 5.03535 26.5512L0.0365996 6.41875C-0.00338982 6.25715 -0.0106965 6.08919 0.0151084 5.92473C0.0409132 5.76026 0.0993097 5.60261 0.186871 5.46102C0.274431 5.31943 0.389392 5.19676 0.525006 5.10021C0.66062 5.00365 0.814155 4.93516 0.976599 4.89875L4.9991 4V1.25C4.9991 0.918479 5.1308 0.600537 5.36522 0.366117C5.59964 0.131696 5.91758 0 6.2491 0H24.9991C25.3306 0 25.6486 0.131696 25.883 0.366117C26.1174 0.600537 26.2491 0.918479 26.2491 1.25V26.25C26.2491 26.5815 26.1174 26.8995 25.883 27.1339C25.6486 27.3683 25.3306 27.5 24.9991 27.5ZM7.4991 2.5V25H23.7491V2.5H7.4991ZM4.9991 6.56125L2.7716 7.06125L4.9991 16.0312V6.56125ZM21.2491 23.75C20.9176 23.75 20.5996 23.6183 20.3652 23.3839C20.1308 23.1495 19.9991 22.8315 19.9991 22.5V20C19.9991 19.6685 20.1308 19.3505 20.3652 19.1161C20.5996 18.8817 20.9176 18.75 21.2491 18.75C21.5806 18.75 21.8986 18.8817 22.133 19.1161C22.3674 19.3505 22.4991 19.6685 22.4991 20V22.5C22.4991 22.8315 22.3674 23.1495 22.133 23.3839C21.8986 23.6183 21.5806 23.75 21.2491 23.75ZM15.6241 18.75C15.4407 18.7501 15.2595 18.7099 15.0933 18.6321C14.9272 18.5543 14.7802 18.4409 14.6628 18.3L11.5378 14.55C11.3504 14.3253 11.2478 14.042 11.2478 13.7494C11.2478 13.4568 11.3504 13.1735 11.5378 12.9488L14.6628 9.19875C14.7802 9.05807 14.927 8.9449 15.0928 8.86723C15.2587 8.78957 15.4397 8.74931 15.6228 8.74931C15.806 8.74931 15.987 8.78957 16.1528 8.86723C16.3187 8.9449 16.4655 9.05807 16.5828 9.19875L19.7078 12.9488C19.8953 13.1735 19.9979 13.4568 19.9979 13.7494C19.9979 14.042 19.8953 14.3253 19.7078 14.55L16.5828 18.3C16.4657 18.4406 16.3192 18.5538 16.1535 18.6316C15.9878 18.7093 15.8071 18.7497 15.6241 18.75ZM15.6241 11.9513L14.1241 13.75L15.6241 15.5475L17.1241 13.75L15.6241 11.9513ZM9.9991 8.75C9.66758 8.75 9.34964 8.6183 9.11522 8.38388C8.8808 8.14946 8.7491 7.83152 8.7491 7.5V5C8.7491 4.66848 8.8808 4.35054 9.11522 4.11612C9.34964 3.8817 9.66758 3.75 9.9991 3.75C10.3306 3.75 10.6486 3.8817 10.883 4.11612C11.1174 4.35054 11.2491 4.66848 11.2491 5V7.5C11.2491 7.83152 11.1174 8.14946 10.883 8.38388C10.6486 8.6183 10.3306 8.75 9.9991 8.75Z" fill="var(--fill-0, #F5F7F8)"/>
</svg>
