<svg preserveAspectRatio="none" width="100%" height="100%" overflow="visible" style="display: block;" viewBox="0 0 43.3333 43.3333" fill="none" xmlns="http://www.w3.org/2000/svg">
<path id="Vector" d="M21.6667 43.3333C18.6694 43.3333 15.8528 42.7642 13.2167 41.626C10.5806 40.4878 8.2875 38.9444 6.3375 36.9958C4.3875 35.0473 2.84411 32.7542 1.70734 30.1166C0.570558 27.4791 0.00144719 24.6624 2.74261e-06 21.6667C-0.0014417 18.6709 0.567669 15.8542 1.70734 13.2167C2.847 10.5791 4.39039 8.28605 6.3375 6.3375C8.28461 4.38894 10.5777 2.84555 13.2167 1.70733C15.8557 0.569111 18.6723 0 21.6667 0C24.661 0 27.4777 0.569111 30.1166 1.70733C32.7556 2.84555 35.0487 4.38894 36.9958 6.3375C38.9429 8.28605 40.487 10.5791 41.6281 13.2167C42.7693 15.8542 43.3376 18.6709 43.3333 21.6667C43.329 24.6624 42.7599 27.4791 41.626 30.1166C40.4921 32.7542 38.9487 35.0473 36.9958 36.9958C35.0429 38.9444 32.7499 40.4885 30.1166 41.6281C27.4834 42.7678 24.6668 43.3362 21.6667 43.3333ZM19.5 38.8375V36.6708C18.2361 36.4903 17.0177 36.1472 15.8448 35.6416C14.6719 35.1361 13.5792 34.5222 12.5667 33.8L11.05 35.3708C12.2417 36.3097 13.5511 37.0774 14.9782 37.674C16.4053 38.2705 17.9125 38.6584 19.5 38.8375ZM23.8333 38.8375C25.4222 38.6569 26.9302 38.2691 28.3573 37.674C29.7844 37.0789 31.0931 36.3111 32.2833 35.3708L30.7667 33.8C29.7555 34.5222 28.6635 35.1361 27.4907 35.6416C26.3178 36.1472 25.0987 36.4903 23.8333 36.6708V38.8375ZM21.6667 32.5C24.6639 32.5 27.2191 31.4434 29.3323 29.3301C31.4455 27.2169 32.5014 24.6624 32.5 21.6667C32.4985 18.6709 31.4419 16.1164 29.3301 14.0032C27.2184 11.8899 24.6639 10.8333 21.6667 10.8333C18.6694 10.8333 16.1149 11.8899 14.0032 14.0032C11.8914 16.1164 10.8348 18.6709 10.8333 21.6667C10.8319 24.6624 11.8885 27.2176 14.0032 29.3323C16.1178 31.447 18.6723 32.5029 21.6667 32.5ZM35.3708 32.2833C36.3097 31.0916 37.0774 29.783 37.674 28.3573C38.2705 26.9317 38.6584 25.4237 38.8375 23.8333H36.6708C36.4903 25.0972 36.1472 26.3163 35.6417 27.4906C35.1361 28.665 34.5222 29.757 33.8 30.7666L35.3708 32.2833ZM7.9625 32.2833L9.53333 30.7125C8.81111 29.7014 8.19722 28.618 7.69166 27.4625C7.18611 26.3069 6.84305 25.0972 6.6625 23.8333H4.49583C4.67639 25.4222 5.06422 26.9295 5.65933 28.3551C6.25444 29.7808 7.02217 31.0902 7.9625 32.2833ZM21.6667 30.3333L15.1667 21.6667L21.6667 13L28.1667 21.6667L21.6667 30.3333ZM4.49583 19.5H6.6625C6.84305 18.2361 7.18611 17.0264 7.69166 15.8708C8.19722 14.7153 8.81111 13.6319 9.53333 12.6208L7.9625 11.05C7.02361 12.2417 6.25661 13.551 5.6615 14.9782C5.06639 16.4053 4.67783 17.9125 4.49583 19.5ZM36.6708 19.5H38.8375C38.6569 17.9111 38.2597 16.4038 37.6458 14.9782C37.0319 13.5525 36.2555 12.2431 35.3166 11.05L33.8 12.5667C34.5222 13.5778 35.1361 14.6705 35.6417 15.8448C36.1472 17.0192 36.4903 18.2375 36.6708 19.5ZM12.6208 9.53333C13.6319 8.81111 14.7153 8.19722 15.8708 7.69166C17.0264 7.18611 18.2361 6.84305 19.5 6.6625V4.49583C17.9111 4.67639 16.4038 5.06494 14.9782 5.6615C13.5525 6.25805 12.2431 7.02505 11.05 7.9625L12.6208 9.53333ZM30.7667 9.53333L32.2833 8.01666C31.0916 7.07777 29.783 6.30138 28.3573 5.6875C26.9317 5.07361 25.4237 4.67639 23.8333 4.49583V6.6625C25.0972 6.84305 26.3163 7.18611 27.4907 7.69166C28.665 8.19722 29.757 8.81111 30.7667 9.53333Z" fill="var(--fill-0, #F5F7F8)"/>
</svg>
