<svg preserveAspectRatio="none" width="100%" height="100%" overflow="visible" style="display: block;" viewBox="0 0 26 26" fill="none" xmlns="http://www.w3.org/2000/svg">
<path id="Vector" d="M13 26C11.2017 26 9.51166 25.6585 7.93 24.9756C6.34833 24.2926 4.9725 23.3666 3.8025 22.1975C2.6325 21.0284 1.70647 19.6525 1.0244 18.07C0.342335 16.4875 0.000868312 14.7975 1.64557e-06 13C-0.000865021 11.2025 0.340602 9.51253 1.0244 7.92999C1.7082 6.34746 2.63423 4.97163 3.8025 3.8025C4.97077 2.63336 6.3466 1.70733 7.93 1.0244C9.5134 0.341467 11.2034 0 13 0C14.7966 0 16.4866 0.341467 18.07 1.0244C19.6534 1.70733 21.0292 2.63336 22.1975 3.8025C23.3658 4.97163 24.2922 6.34746 24.9769 7.92999C25.6616 9.51253 26.0026 11.2025 26 13C25.9974 14.7975 25.6559 16.4875 24.9756 18.07C24.2953 19.6525 23.3692 21.0284 22.1975 22.1975C21.0258 23.3666 19.6499 24.2931 18.07 24.9769C16.4901 25.6607 14.8001 26.0017 13 26ZM11.7 23.3025V22.0025C10.9417 21.8941 10.2106 21.6883 9.5069 21.385C8.80316 21.0817 8.14753 20.7133 7.54 20.28L6.63 21.2225C7.345 21.7858 8.13063 22.2465 8.9869 22.6044C9.84316 22.9623 10.7475 23.195 11.7 23.3025ZM14.3 23.3025C15.2533 23.1941 16.1581 22.9614 17.0144 22.6044C17.8707 22.2473 18.6559 21.7867 19.37 21.2225L18.46 20.28C17.8533 20.7133 17.1981 21.0817 16.4944 21.385C15.7907 21.6883 15.0592 21.8941 14.3 22.0025V23.3025ZM13 19.5C14.7983 19.5 16.3315 18.866 17.5994 17.5981C18.8673 16.3302 19.5009 14.7975 19.5 13C19.4991 11.2025 18.8652 9.66983 17.5981 8.40189C16.331 7.13396 14.7983 6.49999 13 6.49999C11.2017 6.49999 9.66896 7.13396 8.4019 8.40189C7.13483 9.66983 6.50086 11.2025 6.5 13C6.49913 14.7975 7.1331 16.3306 8.4019 17.5994C9.6707 18.8682 11.2034 19.5017 13 19.5ZM21.2225 19.37C21.7858 18.655 22.2465 17.8698 22.6044 17.0144C22.9623 16.159 23.195 15.2542 23.3025 14.3H22.0025C21.8942 15.0583 21.6883 15.7898 21.385 16.4944C21.0817 17.199 20.7133 17.8542 20.28 18.46L21.2225 19.37ZM4.7775 19.37L5.72 18.4275C5.28667 17.8208 4.91833 17.1708 4.615 16.4775C4.31167 15.7842 4.10583 15.0583 3.9975 14.3H2.6975C2.80583 15.2533 3.03853 16.1577 3.3956 17.0131C3.75267 17.8685 4.2133 18.6541 4.7775 19.37ZM13 18.2L9.1 13L13 7.79999L16.9 13L13 18.2ZM2.6975 11.7H3.9975C4.10583 10.9417 4.31167 10.2158 4.615 9.52249C4.91833 8.82916 5.28667 8.17916 5.72 7.57249L4.7775 6.62999C4.21417 7.34499 3.75397 8.13063 3.3969 8.98689C3.03983 9.84316 2.8067 10.7475 2.6975 11.7ZM22.0025 11.7H23.3025C23.1942 10.7467 22.9558 9.84229 22.5875 8.98689C22.2192 8.13149 21.7533 7.34586 21.19 6.62999L20.28 7.53999C20.7133 8.14666 21.0817 8.80229 21.385 9.50689C21.6883 10.2115 21.8942 10.9425 22.0025 11.7ZM7.5725 5.72C8.17916 5.28666 8.82916 4.91833 9.5225 4.615C10.2158 4.31166 10.9417 4.10583 11.7 3.9975V2.6975C10.7467 2.80583 9.8423 3.03896 8.9869 3.3969C8.1315 3.75483 7.34586 4.21503 6.63 4.7775L7.5725 5.72ZM18.46 5.72L19.37 4.81C18.655 4.24666 17.8698 3.78083 17.0144 3.4125C16.159 3.04416 15.2542 2.80583 14.3 2.6975V3.9975C15.0583 4.10583 15.7898 4.31166 16.4944 4.615C17.199 4.91833 17.8542 5.28666 18.46 5.72Z" fill="var(--fill-0, #EDF0F2)"/>
</svg>
