<svg width="20" height="20" viewBox="0 0 20 20" fill="none" xmlns="http://www.w3.org/2000/svg">
<path fill-rule="evenodd" clip-rule="evenodd" d="M16.2999 2.97432V6.18646C16.6545 6.18646 17.0056 6.26295 17.3332 6.41154C17.6608 6.56014 17.9584 6.77794 18.2092 7.05251C18.4599 7.32708 18.6588 7.65304 18.7945 8.01179C18.9302 8.37053 19 8.75503 19 9.14333C19 9.53163 18.9302 9.91613 18.7945 10.2749C18.6588 10.6336 18.4599 10.9596 18.2092 11.2342C17.9584 11.5087 17.6608 11.7265 17.3332 11.8751C17.0056 12.0237 16.6545 12.1002 16.2999 12.1002V15.0571C16.2999 16.6814 14.6069 17.6088 13.4198 16.6341L11.5657 15.1103C10.5746 14.2966 9.42067 13.7533 8.19957 13.5254V16.3285C8.19966 16.9729 7.98706 17.5955 7.60095 18.0817C7.21484 18.5679 6.68125 18.8849 6.09854 18.9742C5.51582 19.0635 4.92327 18.9191 4.43011 18.5677C3.93694 18.2163 3.57641 17.6814 3.41498 17.0618L2.00192 11.6448C1.49341 10.9872 1.16249 10.1873 1.04634 9.33504C0.930189 8.48277 1.03342 7.61191 1.34443 6.82036C1.65544 6.0288 2.16189 5.34794 2.80687 4.85429C3.45184 4.36065 4.20976 4.0738 4.99544 4.02598L7.71175 3.8604C9.04078 3.77956 10.3333 3.35426 11.4829 2.6195L13.5926 1.27117C14.7932 0.505341 16.2999 1.45252 16.2999 2.97432ZM4.27001 13.1627L5.14574 16.5207C5.18789 16.6833 5.28232 16.8236 5.41159 16.9159C5.54086 17.0081 5.69625 17.046 5.84906 17.0226C6.00187 16.9992 6.14178 16.916 6.24295 16.7884C6.34412 16.6608 6.39973 16.4975 6.39949 16.3285V13.3618L4.99544 13.276C4.75122 13.2599 4.5086 13.222 4.27001 13.1627ZM14.4998 2.97432L12.3892 4.32364C11.1075 5.1434 9.67751 5.646 8.19957 5.79616V11.5315C9.80793 11.774 11.3389 12.4609 12.6457 13.5333L14.4998 15.0571V2.97432ZM6.39949 5.91443L5.09444 5.99328C4.48732 6.02999 3.91482 6.31462 3.48996 6.79097C3.0651 7.26732 2.81875 7.90078 2.79953 8.56632C2.78032 9.23186 2.98964 9.8811 3.38617 10.3859C3.78271 10.8907 4.33764 11.2143 4.94144 11.293L5.09444 11.3078L6.39949 11.3866V5.91443ZM16.2999 8.15771V10.129C16.5293 10.1287 16.7499 10.0325 16.9167 9.86003C17.0836 9.68757 17.1839 9.45188 17.1974 9.20109C17.2108 8.95031 17.1363 8.70337 16.9891 8.51073C16.8418 8.31808 16.633 8.19428 16.4052 8.16461L16.2999 8.15771Z" fill="#51555E"/>
</svg>
