<svg width="12" height="12" viewBox="0 0 12 12" fill="none" xmlns="http://www.w3.org/2000/svg">
<path d="M10.502 6.45455L10.5014 4.49906C10.5009 2.56643 8.93406 1 7.00143 1H5.00253C3.06931 1 1.50221 2.56735 1.50253 4.50058L1.50302 7.50311C1.50334 9.43448 3.06912 11 5.00049 11H7.50049" stroke="#51555E" stroke-width="1.2" stroke-linecap="round"/>
<path d="M4.00242 6.50146L4.00265 5.49884C4.00291 4.39483 4.89795 3.5 6.00195 3.5C7.10668 3.5 8.00275 4.39567 8.00254 5.50039L8.00234 6.50039C8.00213 7.60481 7.10491 8.5 6.00049 8.5C4.8968 8.5 4.00216 7.60515 4.00242 6.50146Z" stroke="#51555E" stroke-width="1.2" stroke-linecap="round"/>
<path d="M8.00195 8.63495L8.11091 8.65674C9.3481 8.90418 10.5025 7.95825 10.5031 6.69656L10.5034 6.13495" stroke="#51555E" stroke-width="1.2" stroke-linecap="round"/>
<path d="M8.00195 8.5L8.00342 6.5V3.5" stroke="#51555E" stroke-width="1.2" stroke-linecap="round"/>
</svg>
