<svg width="40" height="40" viewBox="0 0 40 40" fill="none" xmlns="http://www.w3.org/2000/svg">
        <path
            d="M34.8555 24.0288C34.7619 24.0167 34.6998 23.9264 34.7199 23.8342C35.0326 22.4003 35.1279 19.3818 35.0243 17.9874C34.2709 7.69402 22.8729 2.53798 14.5054 4.36155C14.3534 4.39469 14.3429 4.604 14.4883 4.65928C20.6557 7.00298 26.7669 12.8999 26.8131 19.8513C26.818 20.6775 26.7577 21.4872 26.643 22.2827C26.631 22.3658 26.5552 22.4241 26.4717 22.4153L20.219 21.7516C20.0777 21.7366 19.9906 21.9021 20.0831 22.0101L24.2305 26.8536L28.5431 31.8958C28.5942 31.9555 28.6815 31.9683 28.7476 31.9258L34.3161 28.3437L39.6374 24.9257C39.7608 24.8464 39.718 24.6564 39.5726 24.6376L34.8555 24.0288Z"
            fill="#DEE4E7"
        />
        <path
            d="M4.82194 15.7373C4.91391 15.7523 4.97284 15.8427 4.95154 15.9334C4.62082 17.3417 4.46338 20.3322 4.52526 21.7136C4.98937 31.9251 15.5973 37.3148 23.5175 35.7252C23.6678 35.695 23.6841 35.4902 23.5433 35.4295C17.7902 32.9496 12.178 26.9597 12.2988 20.0775C12.3151 19.2607 12.3905 18.4602 12.5168 17.6802C12.5304 17.5965 12.6085 17.5393 12.6925 17.5509L18.5408 18.3549C18.6802 18.3741 18.7726 18.2144 18.6865 18.1031L14.8999 13.2076L10.9658 8.11372C10.9161 8.04933 10.8254 8.03354 10.7569 8.07732L5.44023 11.4717L0.346096 14.7275C0.224614 14.8051 0.263075 14.9917 0.40536 15.015L4.82194 15.7373Z"
            fill="#DEE4E7"
        />
    </svg>
