<svg width="16" height="16" viewBox="0 0 16 16" fill="none" xmlns="http://www.w3.org/2000/svg">
<path fill-rule="evenodd" clip-rule="evenodd" d="M5.57785 2.32799C5.91068 2.59205 6.35927 2.96097 6.84825 3.39955C7.31613 3.8192 7.82969 4.31025 8.31661 4.84029C9.25218 4.04591 9.97412 3.14998 10.3463 2.29659C9.83152 2.08526 9.28984 1.94397 8.73692 1.87695C7.68759 1.74976 6.59895 1.89033 5.57785 2.32799ZM11.2388 2.75072C10.7868 3.75667 9.97105 4.7462 8.96855 5.59829C9.26919 5.97462 9.5426 6.36182 9.76673 6.75002C10.0398 7.22299 10.2825 7.7718 10.4964 8.34756C11.7045 7.89216 12.9745 7.66669 14.165 7.81073C14.1356 6.82428 13.8683 5.83091 13.3404 4.91648C12.8109 3.99938 12.0816 3.26968 11.2388 2.75072ZM14.1132 8.81234C13.0892 8.67352 11.9436 8.86611 10.8174 9.295C11.0113 9.92023 11.1737 10.5461 11.3063 11.1146C11.4708 11.8196 11.5927 12.4504 11.6735 12.9052C11.676 12.9196 11.6786 12.9339 11.681 12.948C12.5805 12.2807 13.2534 11.4025 13.671 10.423C13.8903 9.90843 14.0391 9.36625 14.1132 8.81234ZM10.7626 13.5132C10.7441 13.3993 10.7196 13.2529 10.6889 13.0801C10.6104 12.6384 10.492 12.0256 10.3325 11.3419C10.2095 10.8148 10.0639 10.2537 9.89575 9.70045C9.62333 9.83648 9.35446 9.98529 9.09125 10.1455C7.48337 11.1238 6.1968 12.4587 5.65399 13.7032C7.2557 14.3606 9.11688 14.3397 10.7626 13.5132ZM4.76141 13.2491C5.42864 11.7643 6.88827 10.3154 8.57143 9.29118C8.89547 9.094 9.23175 8.91017 9.57662 8.74327C9.37522 8.19489 9.14984 7.68154 8.9007 7.25002C8.70197 6.9058 8.4553 6.55695 8.17984 6.21296C7.9492 6.37774 7.71214 6.53494 7.47035 6.68338C5.75726 7.73517 3.69841 8.41472 1.83494 8.18922C1.86437 9.17545 2.1315 10.1688 2.6594 11.0831C3.18899 12.0004 3.91864 12.7301 4.76141 13.2491ZM1.88664 7.18763C2.11665 5.46579 3.0688 3.85846 4.61457 2.84524C4.69749 2.90852 4.80267 2.98983 4.92561 3.08706C5.24918 3.34295 5.69451 3.70804 6.18055 4.14398C6.62042 4.53851 7.08568 4.9841 7.52186 5.45371C7.3357 5.5843 7.14386 5.7104 6.94713 5.83119C5.31516 6.83317 3.45799 7.40083 1.88664 7.18763ZM4.41656 1.7933C5.81328 0.986899 7.37004 0.70395 8.85725 0.88422C11.0171 1.14602 13.0339 2.38565 14.2064 4.41648C15.3789 6.4473 15.4441 8.81373 14.5909 10.8151C14.0034 12.1932 12.9799 13.3999 11.5832 14.2063C8.15546 16.1853 3.7724 15.0109 1.79338 11.5831C-0.185641 8.15538 0.988798 3.77232 4.41656 1.7933Z" fill="#86909C"/>
</svg>
