<svg width="19" height="19" viewBox="0 0 19 19" fill="none" xmlns="http://www.w3.org/2000/svg">
<path d="M9.33333 11.6667C10.622 11.6667 11.6667 10.622 11.6667 9.33333C11.6667 8.04467 10.622 7 9.33333 7C8.04467 7 7 8.04467 7 9.33333C7 10.622 8.04467 11.6667 9.33333 11.6667Z" stroke="#99A4B7" stroke-width="1.6"/>
<path d="M10.7058 1.67291C10.4204 1.55469 10.0579 1.55469 9.33303 1.55469C8.60814 1.55469 8.2457 1.55469 7.96025 1.67291C7.77139 1.75109 7.59979 1.86572 7.45526 2.01025C7.31073 2.15478 7.1961 2.32638 7.11792 2.51524C7.04637 2.68869 7.01759 2.89169 7.0067 3.18647C7.00163 3.39952 6.94261 3.60781 6.83515 3.79185C6.72769 3.97589 6.57531 4.12967 6.39225 4.2388C6.20622 4.34284 5.99682 4.39799 5.78367 4.39908C5.57051 4.40016 5.36057 4.34716 5.17348 4.24502C4.91214 4.10658 4.72314 4.03035 4.5357 4.00547C4.12684 3.9517 3.71335 4.06248 3.38614 4.31347C3.14192 4.50247 2.95992 4.81591 2.59748 5.44358C2.23503 6.07124 2.05303 6.38469 2.01337 6.69191C1.98664 6.89448 2.00008 7.10034 2.05293 7.29772C2.10578 7.49509 2.19699 7.68013 2.32137 7.84224C2.43648 7.99158 2.59748 8.1168 2.84714 8.27391C3.21503 8.50491 3.45148 8.89846 3.45148 9.33246C3.45148 9.76646 3.21503 10.16 2.84714 10.3902C2.59748 10.5481 2.4357 10.6734 2.32137 10.8227C2.19699 10.9848 2.10578 11.1698 2.05293 11.3672C2.00008 11.5646 1.98664 11.7704 2.01337 11.973C2.05381 12.2795 2.23503 12.5937 2.5967 13.2214C2.95992 13.849 3.14114 14.1625 3.38614 14.3515C3.54826 14.4758 3.73329 14.5671 3.93067 14.6199C4.12805 14.6727 4.3339 14.6862 4.53648 14.6595C4.72314 14.6346 4.91214 14.5584 5.17348 14.4199C5.36057 14.3178 5.57051 14.2648 5.78367 14.2659C5.99682 14.2669 6.20622 14.3221 6.39225 14.4261C6.76792 14.6439 6.99114 15.0445 7.0067 15.4785C7.01759 15.774 7.04559 15.9762 7.11792 16.1497C7.1961 16.3385 7.31073 16.5101 7.45526 16.6547C7.59979 16.7992 7.77139 16.9138 7.96025 16.992C8.2457 17.1102 8.60814 17.1102 9.33303 17.1102C10.0579 17.1102 10.4204 17.1102 10.7058 16.992C10.8947 16.9138 11.0663 16.7992 11.2108 16.6547C11.3553 16.5101 11.47 16.3385 11.5481 16.1497C11.6197 15.9762 11.6485 15.774 11.6594 15.4785C11.6749 15.0445 11.8981 14.6431 12.2738 14.4261C12.4598 14.3221 12.6692 14.2669 12.8824 14.2659C13.0956 14.2648 13.3055 14.3178 13.4926 14.4199C13.7539 14.5584 13.9429 14.6346 14.1296 14.6595C14.3322 14.6862 14.538 14.6727 14.7354 14.6199C14.9328 14.5671 15.1178 14.4758 15.2799 14.3515C15.5249 14.1632 15.7061 13.849 16.0686 13.2214C16.431 12.5937 16.613 12.2802 16.6527 11.973C16.6794 11.7704 16.666 11.5646 16.6131 11.3672C16.5603 11.1698 16.4691 10.9848 16.3447 10.8227C16.2296 10.6734 16.0686 10.5481 15.8189 10.391C15.6369 10.2801 15.4859 10.1248 15.3802 9.93968C15.2745 9.75455 15.2175 9.54562 15.2146 9.33246C15.2146 8.89846 15.451 8.50491 15.8189 8.27469C16.0686 8.1168 16.2304 7.99158 16.3447 7.84224C16.4691 7.68013 16.5603 7.49509 16.6131 7.29772C16.666 7.10034 16.6794 6.89448 16.6527 6.69191C16.6123 6.38546 16.431 6.07124 16.0694 5.44358C15.7061 4.81591 15.5249 4.50247 15.2799 4.31347C15.1178 4.18909 14.9328 4.09788 14.7354 4.04503C14.538 3.99218 14.3322 3.97874 14.1296 4.00547C13.9429 4.03035 13.7539 4.10658 13.4918 4.24502C13.3048 4.34702 13.095 4.39995 12.882 4.39886C12.669 4.39777 12.4598 4.3427 12.2738 4.2388C12.0908 4.12967 11.9384 3.97589 11.8309 3.79185C11.7235 3.60781 11.6644 3.39952 11.6594 3.18647C11.6485 2.89091 11.6205 2.68869 11.5481 2.51524C11.47 2.32638 11.3553 2.15478 11.2108 2.01025C11.0663 1.86572 10.8947 1.75109 10.7058 1.67291Z" stroke="#99A4B7" stroke-width="1.6"/>
</svg>
