<svg width="20" height="20" viewBox="0 0 20 20" fill="none" xmlns="http://www.w3.org/2000/svg">
<path d="M13.5177 7.02281C13.4366 6.72053 13.3087 6.45532 13.1341 6.22719C12.9595 5.99335 12.7412 5.79658 12.4792 5.63688C12.2235 5.47148 11.9241 5.34886 11.5811 5.26901C11.2443 5.18346 10.8732 5.14068 10.4678 5.14068C9.59459 5.14068 8.84927 5.33175 8.23181 5.71388C7.62058 6.09601 7.15281 6.64639 6.82848 7.36502C6.51039 8.08365 6.35135 8.95057 6.35135 9.96578C6.35135 10.9924 6.50416 11.8707 6.80977 12.6008C7.11538 13.3308 7.57069 13.8897 8.17567 14.2776C8.78066 14.6654 9.53222 14.8593 10.4304 14.8593C11.2225 14.8593 11.8805 14.7538 12.4044 14.5428C12.9345 14.3317 13.3306 14.0323 13.5925 13.6445C13.8545 13.2567 13.9854 12.8004 13.9854 12.2757L14.8836 12.3612H10.5052V8.97338H19V11.403C19 13 18.6289 14.366 17.8867 15.501C17.1507 16.6302 16.1341 17.4971 14.8368 18.1017C13.5457 18.7006 12.0644 19 10.3929 19C8.52807 19 6.89085 18.6378 5.48129 17.9135C4.07173 17.1892 2.97089 16.1568 2.17879 14.8165C1.39293 13.4762 1 11.8821 1 10.0342C1 8.58555 1.24012 7.30228 1.72037 6.18441C2.20686 5.06654 2.88046 4.12262 3.74116 3.35266C4.60187 2.577 5.59667 1.9924 6.72557 1.59886C7.85447 1.19962 9.06445 1 10.3555 1C11.4906 1 12.5447 1.14829 13.5177 1.44487C14.4969 1.73574 15.3607 2.15209 16.1091 2.69392C16.8638 3.23004 17.4719 3.86597 17.9335 4.60171C18.395 5.33745 18.6757 6.14449 18.7755 7.02281H13.5177Z" fill="#495266"/>
</svg>
