<svg width="20" height="20" viewBox="0 0 20 20" fill="none" xmlns="http://www.w3.org/2000/svg">
<path d="M10 1C11.5955 1 12.9722 1.81771 13.6143 3H17C17.5523 3 18 3.44772 18 4V12C18 12.5523 17.5523 13 17 13H16V18.4004C15.9998 18.7315 15.7315 18.9998 15.4004 19H4.59961C4.26855 18.9998 4.00021 18.7315 4 18.4004V13H3C2.44772 13 2 12.5523 2 12V4C2 3.44772 2.44772 3 3 3H6.38574C7.0278 1.81771 8.4045 1 10 1ZM7.40039 15C7.17948 15 7 15.1795 7 15.4004V16.5996C7 16.8205 7.17948 17 7.40039 17H12.5996C12.8205 17 13 16.8205 13 16.5996V15.4004C13 15.1795 12.8205 15 12.5996 15H7.40039ZM4.59961 5C4.26855 5.00021 4.00021 5.26855 4 5.59961V10.4004C4.00021 10.7315 4.26855 10.9998 4.59961 11H15.4004C15.7315 10.9998 15.9998 10.7315 16 10.4004V5.59961C15.9998 5.26855 15.7315 5.00021 15.4004 5H4.59961Z" fill="#495266"/>
<rect x="14" y="15" width="3" height="1" fill="#495266"/>
<path d="M18.5 15.5C18.5 16.0523 18.0523 16.5 17.5 16.5C16.9477 16.5 16.5 16.0523 16.5 15.5C16.5 14.9477 16.9477 14.5 17.5 14.5C18.0523 14.5 18.5 14.9477 18.5 15.5Z" fill="#495266"/>
<path d="M7.8213 6C7.89967 6.04762 7.96882 6.11472 8.02875 6.2013C8.09329 6.28355 8.12556 6.38745 8.12556 6.51299C8.12556 6.58225 8.11865 6.65368 8.10482 6.72727C8.09099 6.79654 8.06794 6.8658 8.03567 6.93506L6.59736 9.99351C6.53282 9.99784 6.47058 10 6.41065 10C6.35533 10 6.30232 10 6.25161 10C6.04416 10 5.87589 9.9632 5.74682 9.88961C5.61774 9.81602 5.5532 9.68831 5.5532 9.50649C5.5532 9.41558 5.57625 9.31818 5.62235 9.21429C5.66845 9.10606 5.73068 8.97835 5.80905 8.83117L6.81863 6.88961H5.12447C5.09681 6.84199 5.06915 6.77922 5.04149 6.7013C5.01383 6.62338 5 6.54113 5 6.45455C5 6.29004 5.03918 6.17316 5.11755 6.1039C5.19592 6.03463 5.29504 6 5.4149 6H7.8213Z" fill="#495266"/>
<path d="M11.2585 6C11.3369 6.04762 11.406 6.11472 11.466 6.2013C11.5305 6.28355 11.5628 6.38745 11.5628 6.51299C11.5628 6.58225 11.5559 6.65368 11.542 6.72727C11.5282 6.79654 11.5052 6.8658 11.4729 6.93506L10.0346 9.99351C9.97004 9.99784 9.9078 10 9.84787 10C9.79255 10 9.73954 10 9.68883 10C9.48138 10 9.31311 9.9632 9.18403 9.88961C9.05496 9.81602 8.99042 9.68831 8.99042 9.50649C8.99042 9.41558 9.01347 9.31818 9.05957 9.21429C9.10567 9.10606 9.1679 8.97835 9.24627 8.83117L10.2559 6.88961H8.56169C8.53403 6.84199 8.50637 6.77922 8.47871 6.7013C8.45105 6.62338 8.43722 6.54113 8.43722 6.45455C8.43722 6.29004 8.4764 6.17316 8.55477 6.1039C8.63314 6.03463 8.73226 6 8.85212 6H11.2585Z" fill="#495266"/>
<path d="M14.6957 6C14.7741 6.04762 14.8433 6.11472 14.9032 6.2013C14.9677 6.28355 15 6.38745 15 6.51299C15 6.58225 14.9931 6.65368 14.9793 6.72727C14.9654 6.79654 14.9424 6.8658 14.9101 6.93506L13.4718 9.99351C13.4073 9.99784 13.345 10 13.2851 10C13.2298 10 13.1768 10 13.126 10C12.9186 10 12.7503 9.9632 12.6213 9.88961C12.4922 9.81602 12.4276 9.68831 12.4276 9.50649C12.4276 9.41558 12.4507 9.31818 12.4968 9.21429C12.5429 9.10606 12.6051 8.97835 12.6835 8.83117L13.6931 6.88961H11.9989C11.9712 6.84199 11.9436 6.77922 11.9159 6.7013C11.8883 6.62338 11.8744 6.54113 11.8744 6.45455C11.8744 6.29004 11.9136 6.17316 11.992 6.1039C12.0704 6.03463 12.1695 6 12.2893 6H14.6957Z" fill="#495266"/>
</svg>
