<svg width="20" height="20" viewBox="0 0 20 20" fill="none" xmlns="http://www.w3.org/2000/svg">
  <g transform="translate(1, 1) scale(1, 1)">
    <path d="M9 0C13.9704 0 17.9999 4.02927 18 9C18 13.9708 13.9704 18 9 18C4.02938 17.9999 0 13.9706 0 9C6.03019e-05 4.02942 4.02942 6.03001e-05 9 0ZM4.5166 15.6631C5.40472 16.264 6.40614 16.6785 7.45898 16.8818L7.66016 15.8779C6.74104 15.7002 5.86699 15.3388 5.09082 14.8154L4.5166 15.6631ZM12.916 14.8105C12.1401 15.3347 11.2667 15.6978 10.3477 15.877L10.541 16.8818C11.5939 16.6786 12.5952 16.2638 13.4834 15.6631L12.916 14.8105ZM1.11914 10.541C1.32238 11.5938 1.73621 12.5952 2.33691 13.4834L3.18945 12.916C2.66528 12.1403 2.30203 11.2666 2.12305 10.3477L1.11914 10.541ZM15.8779 10.3398C15.7001 11.2589 15.3387 12.133 14.8154 12.9092L15.6631 13.4834C16.2636 12.5951 16.6783 11.5938 16.8818 10.541L15.8779 10.3398ZM8.89844 5.01465C8.67459 5.08283 8.51318 5.37875 8.06348 5.82227C7.68792 6.19382 7.08367 6.65955 6.33301 7.22266C5.53771 7.81899 5.00004 8.46457 5 9.44434C5 9.9157 5.18728 10.3678 5.52051 10.7012C5.8538 11.0345 6.306 11.2225 6.77734 11.2227C7.01145 11.2242 7.24406 11.179 7.46094 11.0908C7.67777 11.0027 7.87541 10.8724 8.04199 10.708C8.02466 10.7818 8.02711 10.8348 8 10.917C7.93067 11.1241 7.82399 11.3511 7.70801 11.584C7.6161 11.7669 7.52879 11.947 7.43066 12.1113C7.37218 12.2088 7.31608 12.2692 7.29199 12.3057C7.0951 12.6008 7.31188 13 7.66699 13H10.333C10.6877 13 10.9049 12.6008 10.708 12.3057C10.6835 12.2692 10.6278 12.2088 10.5693 12.1113C10.4708 11.947 10.3835 11.7669 10.292 11.584C10.1756 11.3511 10.0693 11.1241 10 10.917C9.97244 10.8348 9.9749 10.7822 9.95801 10.708C10.1246 10.8725 10.3222 11.0026 10.5391 11.0908C10.7559 11.1791 10.9885 11.2242 11.2227 11.2227C11.694 11.2225 12.1462 11.0345 12.4795 10.7012C12.8127 10.3678 13 9.9157 13 9.44434C13 8.49079 12.4481 7.80879 11.667 7.22266C10.8901 6.63999 10.2976 6.18663 9.91895 5.81152C9.43058 5.32714 9.26576 4.99822 9 5L8.89844 5.01465ZM2.33691 4.51758C1.73638 5.40555 1.32235 6.40644 1.11914 7.45898L2.12207 7.66016C2.30002 6.74113 2.66136 5.86705 3.18457 5.09082L2.33691 4.51758ZM14.8105 5.08398C15.3346 5.85967 15.697 6.73347 15.876 7.65234L16.8809 7.45898C16.6776 6.40614 16.2638 5.4048 15.6631 4.5166L14.8105 5.08398ZM7.45898 1.11914C6.40644 1.32231 5.40556 1.73641 4.51758 2.33691L5.08398 3.18945C5.85975 2.66543 6.73346 2.30307 7.65234 2.12402L7.45898 1.11914ZM10.3398 2.12207C11.2589 2.30007 12.1329 2.66141 12.9092 3.18457L13.4834 2.33691C12.5952 1.73619 11.5939 1.3223 10.541 1.11914L10.3398 2.12207Z" fill="#51555E"/>
  </g>
</svg>
