<svg width="20" height="20" viewBox="0 0 20 20" fill="none" xmlns="http://www.w3.org/2000/svg">
<path d="M1 8.31575C1 5.93159 3.02884 4 5.53204 4H9.06945C11.5731 4 13.6015 5.93201 13.6015 8.31575C13.6015 10.6986 11.5726 12.6311 9.06945 12.6311H6.40064V14.7144C6.40064 14.7144 1 13.6729 1 8.31575Z" fill="#495266"/>
<path d="M10.2148 13.3708C10.8894 13.9889 11.7895 14.3337 12.7257 14.3325H14.0506V15.9992C14.0506 15.9992 19.0012 15.1661 19.0012 10.8803C19.0012 9.96472 18.6193 9.0866 17.9395 8.43913C17.2596 7.79165 16.3376 7.42785 15.3761 7.42773H14.3814C14.4593 7.70888 14.5007 8.00417 14.5007 8.30888C14.5007 10.792 12.6645 12.8672 10.2148 13.3708Z" fill="#495266"/>
</svg>
