<svg width="20" height="20" viewBox="0 0 20 20" fill="none" xmlns="http://www.w3.org/2000/svg">
<g clip-path="url(#clip0_5120_127104)">
<path d="M14.7674 6.93442L16.0953 6.08336C15.4565 5.08836 14.5803 4.25889 13.5475 3.67592L12.7738 5.05057C13.5817 5.50759 14.2672 6.15533 14.7674 6.93442ZM5.20604 13.0646L3.87817 13.9156C4.51871 14.9106 5.39316 15.7401 6.42775 16.3231L7.20144 14.9484C6.39176 14.4932 5.70623 13.8437 5.20604 13.0646ZM15.5339 11.2131L17.0759 11.5496C17.3278 10.3926 17.2954 9.18712 16.9751 8.04458L15.4547 8.46921C15.5915 8.95501 15.6671 9.46781 15.6671 9.9986C15.6671 10.416 15.6185 10.8227 15.5339 11.2131ZM4.43954 8.78588L2.89756 8.44941C2.64566 9.60635 2.67805 10.8119 2.99832 11.9544L4.51871 11.5298C4.38196 11.044 4.30639 10.5312 4.30639 10.0004C4.30639 9.58296 4.35498 9.17812 4.43954 8.78588ZM8.77401 15.5476L8.43754 17.0896C9.59448 17.3415 10.8 17.3091 11.9425 16.9888L11.5161 15.4648C11.0285 15.6016 10.5175 15.6789 9.98852 15.6789C9.56929 15.6789 9.16445 15.6321 8.77401 15.5476ZM11.1994 4.45321L11.5359 2.91123C10.379 2.65933 9.17345 2.69172 8.03091 3.01199L8.45733 4.53598C8.94494 4.39924 9.45594 4.32187 9.98492 4.32187C10.4042 4.32007 10.809 4.36685 11.1994 4.45321ZM13.0491 14.7775L13.902 16.109C14.8988 15.4684 15.7282 14.594 16.3112 13.5594L14.9347 12.7839C14.4777 13.5936 13.8282 14.2773 13.0491 14.7775ZM6.92435 5.22151L6.07149 3.89004C5.07649 4.53058 4.24702 5.40503 3.66405 6.43962L5.0405 7.21511C5.49572 6.40543 6.14526 5.72171 6.92435 5.22151Z" fill="#FF8800"/>
<path d="M9.98816 10.0003L8.46057 4.53409C7.90999 4.68703 7.39539 4.92094 6.92578 5.22142L9.98816 10.0003ZM15.4562 8.47092C15.3014 7.92214 15.0711 7.40394 14.7688 6.93613L9.98816 10.0003L15.4562 8.47092ZM9.98816 10.0003L12.7734 5.05049C12.2894 4.777 11.7604 4.57548 11.2009 4.45312L9.98816 10.0003ZM9.98816 10.0003L11.5157 15.4665C12.0663 15.3136 12.5809 15.0797 13.0505 14.7792L9.98816 10.0003Z" fill="#FF8800"/>
<path d="M7.20312 14.9479C7.68713 15.2214 8.21612 15.4229 8.7757 15.5452L9.98841 9.99805L7.20312 14.9479Z" fill="#FF8800"/>
<path d="M9.98859 10.0001L5.04057 7.21484C4.76708 7.69885 4.56196 8.22784 4.44141 8.78562L9.98859 10.0001Z" fill="#FF8800"/>
<path d="M9.98754 10L4.51953 11.5294C4.67427 12.0782 4.90458 12.5964 5.20686 13.0642L9.98754 10ZM9.98754 10L14.9356 12.7853C15.2091 12.3013 15.4142 11.7723 15.5347 11.2145L9.98754 10Z" fill="#FF8800"/>
<circle cx="10" cy="10" r="8.2" stroke="#FF8800" stroke-width="1.6"/>
<circle cx="10" cy="10" r="2" fill="#FF8800"/>
<path d="M10 6L10.5006 9H9.5L10 6Z" fill="#FF8800"/>
</g>
<defs>
<clipPath id="clip0_5120_127104">
<rect width="18" height="18" fill="white" transform="translate(1 1)"/>
</clipPath>
</defs>
</svg>
