<svg width="20" height="20" viewBox="0 0 20 20" fill="none" xmlns="http://www.w3.org/2000/svg">
<path fill-rule="evenodd" clip-rule="evenodd" d="M4.85808 1.37571C4.95712 0.832481 5.47793 0.472135 6.02117 0.57102L14.8757 2.1843C15.4189 2.28332 15.7792 2.80416 15.6804 3.34739L13.3503 16.1374C13.2511 16.6805 12.7303 17.0399 12.1872 16.9411L3.33269 15.3288C2.7895 15.2299 2.42929 14.7089 2.52801 14.1657L4.85808 1.37571ZM10.1979 6.9343C9.8838 6.9705 9.69948 7.11316 9.64617 7.36106C9.61782 7.49311 9.62551 7.60293 9.66961 7.69016C9.71373 7.77736 9.76195 7.84785 9.81316 7.90207L10.4557 7.83957L9.95769 10.1579C9.93555 10.2611 9.9293 10.3485 9.93914 10.4197C9.95387 10.4874 9.98122 10.5451 10.0212 10.5925C10.0613 10.64 10.1148 10.6778 10.1804 10.7048C10.2498 10.7327 10.3286 10.7562 10.4167 10.7751C10.5048 10.7941 10.5927 10.8038 10.6804 10.8054C10.7713 10.812 10.8405 10.8159 10.8864 10.8171L11.5798 7.5886C11.618 7.41094 11.5983 7.25935 11.5202 7.1345C11.4421 7.00985 11.3165 6.92936 11.1442 6.89231L10.9216 6.84446L10.1979 6.9343ZM8.06609 6.17844C7.73317 6.10685 7.45663 6.10352 7.23699 6.16868C7.01835 6.22973 6.88572 6.36796 6.83953 6.58274C6.81833 6.68171 6.82219 6.77344 6.85027 6.85715C6.87838 6.94076 6.92085 7.01474 6.9782 7.07883C7.07486 7.03911 7.19088 7.00792 7.32586 6.98508C7.46566 6.95899 7.61574 6.96335 7.77605 6.99778C7.92042 7.02882 8.03385 7.08776 8.1159 7.17454C8.20191 7.26215 8.23249 7.36362 8.20769 7.47922C8.19792 7.52467 8.17786 7.57067 8.14715 7.61594C8.12044 7.66198 8.07858 7.70929 8.02215 7.75754C7.96962 7.80671 7.90114 7.861 7.81707 7.92063C7.73379 7.9762 7.63033 8.0387 7.50652 8.10715L6.51922 8.65989C6.43859 8.70307 6.35939 8.76812 6.28191 8.8552C6.20537 8.93814 6.15195 9.04974 6.12176 9.19016C6.09336 9.32225 6.09208 9.44304 6.11883 9.55247C6.15054 9.65871 6.20407 9.75277 6.27898 9.83372L8.36687 10.282C8.47106 10.3044 8.56188 10.2919 8.63934 10.2439C8.71773 10.1916 8.77337 10.0909 8.80535 9.94211C8.8231 9.85951 8.82701 9.7802 8.81805 9.70481C8.81309 9.63041 8.80399 9.56786 8.78973 9.51731L7.34539 9.20676L8.27312 8.72532C8.83474 8.4355 9.16317 8.07408 9.25652 7.64036C9.29117 7.47922 9.29147 7.321 9.2575 7.16672C9.22352 7.01248 9.15551 6.86997 9.0534 6.73996C8.95135 6.61007 8.81782 6.4978 8.65398 6.40207C8.49087 6.30218 8.29465 6.2276 8.06609 6.17844Z" fill="#FF0066"/>
<path d="M16.5768 4.41623C17.0809 4.54514 17.4066 5.04288 17.3119 5.56266L14.9619 18.4607C14.8629 19.004 14.3422 19.3642 13.7989 19.2652L4.80437 17.6264C4.27942 17.5308 3.92679 17.0417 3.99272 16.5187L13.0545 18.1697C13.5978 18.2686 14.1185 17.9085 14.2175 17.3652L16.5768 4.41623Z" fill="#FF0066"/>
</svg>
