<svg width="20" height="20" viewBox="0 0 20 20" fill="none" xmlns="http://www.w3.org/2000/svg">
<path d="M10 1C14.9704 1 18.9999 5.02927 19 10C19 14.9708 14.9704 19 10 19C5.02938 18.9999 1 14.9706 1 10C1.00006 5.02942 5.02942 1.00006 10 1ZM5.5166 16.6631C6.40472 17.264 7.40614 17.6785 8.45898 17.8818L8.66016 16.8779C7.74104 16.7002 6.86699 16.3388 6.09082 15.8154L5.5166 16.6631ZM13.916 15.8105C13.1401 16.3347 12.2667 16.6978 11.3477 16.877L11.541 17.8818C12.5939 17.6786 13.5952 17.2638 14.4834 16.6631L13.916 15.8105ZM2.11914 11.541C2.32238 12.5938 2.73621 13.5952 3.33691 14.4834L4.18945 13.916C3.66528 13.1403 3.30203 12.2666 3.12305 11.3477L2.11914 11.541ZM16.8779 11.3398C16.7001 12.2589 16.3387 13.133 15.8154 13.9092L16.6631 14.4834C17.2636 13.5951 17.6784 12.5938 17.8818 11.541L16.8779 11.3398ZM9.89844 6.01465C9.67459 6.08283 9.51318 6.37875 9.06348 6.82227C8.68792 7.19382 8.08367 7.65955 7.33301 8.22266C6.53771 8.81899 6.00004 9.46457 6 10.4443C6 10.9157 6.18728 11.3678 6.52051 11.7012C6.8538 12.0345 7.306 12.2225 7.77734 12.2227C8.01145 12.2242 8.24406 12.179 8.46094 12.0908C8.67777 12.0027 8.87541 11.8724 9.04199 11.708C9.02466 11.7818 9.02711 11.8348 9 11.917C8.93067 12.1241 8.82399 12.3511 8.70801 12.584C8.6161 12.7669 8.52879 12.947 8.43066 13.1113C8.37218 13.2088 8.31608 13.2692 8.29199 13.3057C8.0951 13.6008 8.31188 14 8.66699 14H11.333C11.6877 14 11.9049 13.6008 11.708 13.3057C11.6835 13.2692 11.6278 13.2088 11.5693 13.1113C11.4708 12.947 11.3835 12.7669 11.292 12.584C11.1756 12.3511 11.0693 12.1241 11 11.917C10.9724 11.8348 10.9749 11.7822 10.958 11.708C11.1246 11.8725 11.3222 12.0026 11.5391 12.0908C11.7559 12.1791 11.9885 12.2242 12.2227 12.2227C12.694 12.2225 13.1462 12.0345 13.4795 11.7012C13.8127 11.3678 14 10.9157 14 10.4443C14 9.49079 13.4481 8.80879 12.667 8.22266C11.8901 7.63999 11.2976 7.18663 10.9189 6.81152C10.4306 6.32714 10.2658 5.99822 10 6L9.89844 6.01465ZM3.33691 5.51758C2.73638 6.40555 2.32235 7.40644 2.11914 8.45898L3.12207 8.66016C3.30002 7.74113 3.66136 6.86705 4.18457 6.09082L3.33691 5.51758ZM15.8105 6.08398C16.3346 6.85967 16.697 7.73347 16.876 8.65234L17.8809 8.45898C17.6776 7.40614 17.2638 6.4048 16.6631 5.5166L15.8105 6.08398ZM8.45898 2.11914C7.40644 2.32231 6.40556 2.73641 5.51758 3.33691L6.08398 4.18945C6.85975 3.66543 7.73346 3.30307 8.65234 3.12402L8.45898 2.11914ZM11.3398 3.12207C12.2589 3.30007 13.1329 3.66141 13.9092 4.18457L14.4834 3.33691C13.5952 2.73619 12.5939 2.3223 11.541 2.11914L11.3398 3.12207Z" fill="#495266"/>
</svg>
