<svg width="20" height="20" viewBox="0 0 20 20" fill="none" xmlns="http://www.w3.org/2000/svg">
<path fill-rule="evenodd" clip-rule="evenodd" d="M7.28125 1.00566H12.9912C13.2267 1.01743 13.4598 1.06347 13.6826 1.14336C13.9796 1.24986 14.2527 1.41379 14.4863 1.62578C14.8042 1.90785 15.0428 2.26875 15.1777 2.67168H16.6953C16.9287 2.68341 17.1594 2.73048 17.3799 2.81035C17.6741 2.91696 17.9447 3.08076 18.1748 3.29277C18.6572 3.72244 18.9532 4.32329 19 4.96758C18.9899 6.14271 18.681 7.29617 18.1025 8.31914C17.5186 9.35435 16.7014 10.2397 15.7158 10.9041L14.9883 11.3982L14.3965 11.7586C13.9194 12.4995 13.2734 13.117 12.5117 13.5604V15.1541H12.8633C13.5058 15.156 14.1211 15.4125 14.5752 15.867C15.0297 16.3224 15.2852 16.9405 15.2852 17.5857V17.8826C15.287 18.0293 15.2589 18.1763 15.2031 18.3113C15.1207 18.5164 14.9777 18.6914 14.7939 18.8143C14.6102 18.937 14.3938 19.0021 14.1729 18.9998H5.82715C5.53211 19.0006 5.24768 18.8833 5.03809 18.6746C4.93496 18.5705 4.85327 18.447 4.79785 18.3113C4.74241 18.1754 4.71397 18.0294 4.71484 17.8826V17.5848C4.714 16.9405 4.96986 16.3223 5.4248 15.866C5.87832 15.4108 6.49529 15.1532 7.1377 15.1531H7.4873V13.5691C6.72924 13.1246 6.0866 12.5072 5.6123 11.7674L5.03809 11.4168L4.27539 10.9041C3.29192 10.2437 2.4773 9.3609 1.89746 8.32793C1.32137 7.31739 1.01236 6.17661 1 5.01348C1.01343 4.68732 1.09187 4.36665 1.23047 4.07109C1.36907 3.77567 1.56552 3.51062 1.80762 3.2918C2.0415 3.07741 2.3164 2.91208 2.61523 2.80547C2.91405 2.69893 3.23112 2.65272 3.54785 2.6707H4.81348C4.9396 2.26826 5.17193 1.90692 5.48633 1.62578C5.72832 1.40726 6.0122 1.24027 6.32031 1.13359C6.62864 1.02691 6.95575 0.983401 7.28125 1.00566ZM16.4961 4.03984H15.2949V8.83086C15.2871 9.09244 15.2656 9.35406 15.2314 9.61504C15.9278 9.09212 16.5111 8.43331 16.9453 7.67852C17.3934 6.86435 17.6312 5.95057 17.6367 5.02129C17.6105 4.75061 17.4815 4.49904 17.2773 4.31914C17.1734 4.22128 17.0505 4.14547 16.916 4.09746C16.7816 4.04946 16.6385 4.02996 16.4961 4.03984ZM3.54785 4.03984C3.40481 4.02906 3.25987 4.04859 3.12402 4.09356C2.91781 4.16366 2.73671 4.29353 2.60449 4.4666C2.47228 4.63967 2.39524 4.84884 2.38184 5.06621C2.39114 5.98055 2.628 6.87831 3.07227 7.67754C3.49916 8.43707 4.08376 9.09749 4.78613 9.61309C4.75195 9.36001 4.73144 9.10511 4.72363 8.84844V4.03984H3.54785ZM6.22754 5.99981C6.0582 5.99981 5.89905 6.02584 5.75098 6.07793C5.60294 6.12927 5.47225 6.20527 5.35938 6.30645C5.24648 6.40691 5.15854 6.53071 5.09473 6.67656C5.03179 6.82237 5 6.98959 5 7.17852C5 7.41956 5.05127 7.62769 5.1543 7.80254C5.25819 7.97742 5.40301 8.11233 5.58789 8.20684C5.77274 8.30129 5.9879 8.34844 6.23242 8.34844C6.45133 8.34839 6.64531 8.30922 6.81445 8.23125C6.98461 8.15237 7.11831 8.03875 7.21484 7.89141C7.31207 7.74339 7.36132 7.56544 7.36133 7.35723V7.03984H6.24707V7.48223H6.70215C6.70036 7.54593 6.68378 7.60143 6.65137 7.64922C6.61707 7.69974 6.56545 7.73888 6.49609 7.76641C6.42746 7.79391 6.34103 7.80837 6.2373 7.8084C6.11958 7.8084 6.02073 7.78276 5.94141 7.73223C5.86205 7.68162 5.8018 7.60873 5.76172 7.51348C5.72166 7.41826 5.70216 7.3036 5.70215 7.16973C5.70215 7.03727 5.72293 6.92365 5.76465 6.82988C5.80713 6.73643 5.86833 6.66482 5.94824 6.61504C6.02923 6.56518 6.12766 6.53984 6.24219 6.53984C6.29513 6.53987 6.34368 6.54535 6.3877 6.55645C6.43269 6.56686 6.47232 6.58369 6.50586 6.60527C6.54001 6.62604 6.56899 6.6511 6.5918 6.68145C6.6147 6.71121 6.63097 6.7465 6.6416 6.78594H7.33105C7.31797 6.67134 7.28124 6.56553 7.2207 6.46953C7.16019 6.37367 7.08032 6.29038 6.98145 6.22051C6.88336 6.14994 6.76988 6.09533 6.6416 6.05742C6.51421 6.01884 6.37612 5.99984 6.22754 5.99981ZM8.8916 5.99981C8.66258 5.99981 8.45537 6.04456 8.27051 6.13457C8.08644 6.22387 7.93986 6.35618 7.83105 6.53106C7.72314 6.70508 7.66901 6.91934 7.66895 7.17363C7.66895 7.42665 7.72307 7.64133 7.83105 7.81621C7.93985 7.99029 8.08648 8.12291 8.27051 8.21367C8.45536 8.30368 8.66259 8.34844 8.8916 8.34844C9.11888 8.34842 9.32498 8.30386 9.50977 8.21465C9.69461 8.12463 9.8414 7.99224 9.9502 7.81816C10.059 7.64329 10.1133 7.42814 10.1133 7.17363C10.1132 6.91933 10.0589 6.70508 9.9502 6.53106C9.8414 6.35626 9.69459 6.22384 9.50977 6.13457C9.32498 6.04463 9.11887 5.99982 8.8916 5.99981ZM13.7773 5.99981C13.5486 5.99987 13.3419 6.04472 13.1572 6.13457C12.9732 6.22385 12.8266 6.35625 12.7178 6.53106C12.6099 6.70508 12.5557 6.91933 12.5557 7.17363C12.5557 7.42665 12.6098 7.64133 12.7178 7.81621C12.8266 7.9902 12.9733 8.12294 13.1572 8.21367C13.3419 8.30352 13.5486 8.34838 13.7773 8.34844C14.0048 8.34844 14.2116 8.30395 14.3965 8.21465C14.5813 8.12461 14.7281 7.99227 14.8369 7.81816C14.9457 7.6433 15 7.42811 15 7.17363C14.9999 6.91933 14.9457 6.70508 14.8369 6.53106C14.7281 6.3562 14.5813 6.22387 14.3965 6.13457C14.2116 6.04453 14.0048 5.99981 13.7773 5.99981ZM10.2422 6.03106V6.53106H10.998V8.31719H11.6709V6.53106H12.4268V6.03106H10.2422ZM8.8916 6.53984C9.00438 6.53986 9.09893 6.56502 9.17578 6.61406C9.25346 6.66241 9.3123 6.73349 9.35156 6.82793C9.3916 6.92159 9.41206 7.03691 9.41211 7.17363C9.41211 7.31056 9.39165 7.42678 9.35156 7.52129C9.31229 7.61502 9.25348 7.68605 9.17578 7.73516C9.09893 7.78347 9.00439 7.80838 8.8916 7.8084C8.77871 7.8084 8.68319 7.78353 8.60547 7.73516C8.52869 7.68605 8.46973 7.61496 8.42969 7.52129C8.39045 7.4268 8.37109 7.31051 8.37109 7.17363C8.37114 7.03692 8.39047 6.92159 8.42969 6.82793C8.46974 6.73351 8.52867 6.66243 8.60547 6.61406C8.68319 6.56495 8.77871 6.53984 8.8916 6.53984ZM13.7773 6.53984C13.8902 6.53984 13.9856 6.56495 14.0625 6.61406C14.1401 6.66243 14.199 6.73348 14.2383 6.82793C14.2783 6.92159 14.2978 7.03691 14.2979 7.17363C14.2979 7.31052 14.2783 7.42679 14.2383 7.52129C14.199 7.61498 14.1401 7.68605 14.0625 7.73516C13.9856 7.78353 13.8902 7.8084 13.7773 7.8084C13.6647 7.80833 13.5698 7.78345 13.4922 7.73516C13.4153 7.68605 13.3565 7.61503 13.3164 7.52129C13.2771 7.42678 13.2578 7.31056 13.2578 7.17363C13.2579 7.03691 13.2772 6.92159 13.3164 6.82793C13.3565 6.73347 13.4153 6.66242 13.4922 6.61406C13.5698 6.56504 13.6647 6.53991 13.7773 6.53984Z" fill="#495266"/>
</svg>
