<svg width="20" height="20" viewBox="0 0 20 20" fill="none" xmlns="http://www.w3.org/2000/svg">
<path d="M12.8338 1.92733C14.3463 0.462329 16.875 1.5392 16.875 3.6542C16.875 3.9192 16.7981 4.1667 16.665 4.37483H17.2881C17.4802 4.37491 17.6705 4.41284 17.8479 4.48645C18.0253 4.56007 18.1866 4.66792 18.3223 4.80385C18.4581 4.93978 18.5657 5.10112 18.6391 5.27866C18.7125 5.45621 18.7502 5.64647 18.75 5.83858V8.53608C18.7504 8.88744 18.6243 9.22722 18.3948 9.49325C18.1653 9.75927 17.8476 9.93378 17.5 9.98483V17.4461C17.5 18.5123 16.6269 19.3748 15.555 19.3748H4.445C3.375 19.3748 2.5 18.5211 2.5 17.4461V9.98483C2.15237 9.93378 1.83473 9.75927 1.6052 9.49325C1.37566 9.22722 1.24958 8.88744 1.25 8.53608V5.83858C1.24984 5.64652 1.2875 5.45631 1.36085 5.27881C1.43419 5.10131 1.54178 4.93999 1.67747 4.80407C1.81316 4.66815 1.9743 4.56028 2.15167 4.48663C2.32905 4.41298 2.51919 4.37499 2.71125 4.37483H3.33188C3.19595 4.15911 3.12419 3.90917 3.125 3.6542C3.125 1.5392 5.65313 0.456704 7.16688 1.92733L8.28563 3.01233C8.42961 2.67577 8.66897 2.38871 8.97417 2.18658C9.27937 1.98445 9.63706 1.87607 10.0031 1.87483C10.7688 1.87483 11.4269 2.34045 11.7169 3.00983L12.8338 1.92733ZM3.75 9.99983V17.4461C3.75 17.8167 4.05125 18.1248 4.445 18.1248H8.125V9.99983H3.75ZM11.875 9.99983V18.1248H15.555C15.7371 18.1268 15.9126 18.0565 16.0429 17.9292C16.1732 17.802 16.2477 17.6282 16.25 17.4461V9.99983H11.875ZM17.5 8.53608V5.83858C17.5002 5.81067 17.4948 5.78301 17.4843 5.75716C17.4738 5.73132 17.4583 5.7078 17.4386 5.68795C17.419 5.6681 17.3957 5.65231 17.37 5.64148C17.3443 5.63065 17.3167 5.62499 17.2888 5.62483H11.875V8.74983H17.2888C17.3167 8.74967 17.3443 8.74401 17.37 8.73318C17.3957 8.72235 17.419 8.70656 17.4386 8.68671C17.4583 8.66686 17.4738 8.64334 17.4843 8.61749C17.4948 8.59165 17.5002 8.56398 17.5 8.53608ZM8.125 5.62483H2.71125C2.68334 5.62499 2.65574 5.63065 2.63003 5.64148C2.60431 5.65231 2.58097 5.6681 2.56136 5.68795C2.54174 5.7078 2.52622 5.73132 2.5157 5.75716C2.50517 5.78301 2.49984 5.81067 2.5 5.83858V8.53608C2.49984 8.56398 2.50517 8.59165 2.5157 8.61749C2.52622 8.64334 2.54174 8.66686 2.56136 8.68671C2.58097 8.70656 2.60431 8.72235 2.63003 8.73318C2.65574 8.74401 2.68334 8.74967 2.71125 8.74983H8.125V5.62483Z" fill="#495266"/>
</svg>
