<svg width="20" height="20" viewBox="0 0 20 20" fill="none" xmlns="http://www.w3.org/2000/svg">
<g clip-path="url(#clip0_5120_127119)">
<path fill-rule="evenodd" clip-rule="evenodd" d="M14.4224 14.0775L14.5259 14.681C14.5356 14.7384 14.5201 14.7973 14.483 14.8421L13.0962 16.511C12.6273 16.6479 12.1006 16.6431 11.5914 16.4593L9.41363 15.6722L8.68902 17.68C8.2891 18.7871 6.98746 19.3343 5.78668 18.9007C4.58581 18.4669 3.9346 17.2139 4.33453 16.1067L5.05914 14.0999L2.88238 13.3128C1.68163 12.8791 1.03054 11.6269 1.43023 10.5198L1.79254 9.51593L14.4224 14.0775ZM6.69293 16.3919C6.54857 16.3398 6.39052 16.3425 6.25445 16.3997C6.11863 16.457 6.0154 16.5637 5.96734 16.6966C5.91926 16.8297 5.93051 16.9787 5.99859 17.1097C6.06671 17.2405 6.18642 17.3427 6.33062 17.3948C6.47492 17.4469 6.63212 17.4442 6.76812 17.387C6.90418 17.3298 7.00813 17.2232 7.05621 17.0901C7.10422 16.9572 7.09279 16.8089 7.02496 16.678C6.95691 16.5471 6.83717 16.4441 6.69293 16.3919ZM4.51129 1.98858C4.81148 1.15751 5.78662 0.74712 6.68804 1.07257L7.01129 1.18976C7.14387 1.23765 7.23629 1.35539 7.24664 1.48663L7.3648 3.36261C7.38303 3.65284 7.77077 3.79295 7.97027 3.58136L9.26031 2.21417C9.34874 2.11858 9.4988 2.08717 9.6314 2.13507L10.2769 2.36944C10.4095 2.41734 10.5019 2.53507 10.5123 2.66632L10.6304 4.54229C10.6487 4.83252 11.0364 4.97261 11.2359 4.76104L12.5259 3.39386C12.6144 3.29819 12.7644 3.26684 12.897 3.31476L16.4859 4.61163C17.3873 4.93731 17.875 5.87622 17.5748 6.70733L15.4673 12.5403L14.3609 11.6224C14.218 11.5038 14.0044 11.6269 14.0357 11.8099L14.2164 12.8685L2.15484 8.51202L4.51129 1.98858Z" fill="#B48B00"/>
<path d="M15.067 13.2502C15.0357 13.0671 15.249 12.944 15.3918 13.0626L16.9631 14.3668C17.008 14.404 17.0669 14.4198 17.1245 14.41L19.1373 14.0662C19.3203 14.0349 19.4434 14.2482 19.3248 14.3911L18.0207 15.9623C17.9834 16.0072 17.9676 16.0662 17.9774 16.1237L18.3213 18.1365C18.3525 18.3195 18.1392 18.4427 17.9964 18.3241L16.4252 17.0199C16.3802 16.9826 16.3213 16.9668 16.2637 16.9766L14.2509 17.3205C14.0679 17.3517 13.9448 17.1385 14.0634 16.9956L15.3675 15.4244C15.4048 15.3795 15.4206 15.3205 15.4108 15.263L15.067 13.2502Z" fill="#B48B00"/>
</g>
<defs>
<clipPath id="clip0_5120_127119">
<rect width="20" height="20" fill="white"/>
</clipPath>
</defs>
</svg>
