<svg width="20" height="20" viewBox="0 0 20 20" fill="none" xmlns="http://www.w3.org/2000/svg">
<g clip-path="url(#clip0_5120_127090)">
<path d="M10.3183 1.97911C9.86915 1.86944 9.41958 2.14193 9.31663 2.58637L6.68782 13.7598C6.60864 14.0951 6.81323 14.4229 7.15207 14.509L14.2285 16.0998C14.7802 16.2252 15.3244 15.8904 15.4668 15.3524L17.9927 4.64683C18.0956 4.21019 17.8202 3.76534 17.3789 3.66348L10.3183 1.97911ZM10.0094 3.42163C10.2459 3.39848 10.4585 3.57029 10.4819 3.8043C10.5053 4.0383 10.3317 4.24869 10.0952 4.27183C9.85868 4.29498 9.64604 4.12317 9.62265 3.88917C9.59926 3.64737 9.77288 3.44477 10.0094 3.42163ZM13.8438 14.7034C13.5994 14.7265 13.3868 14.5469 13.3634 14.3129C13.34 14.0711 13.5215 13.8607 13.758 13.8376C14.0024 13.8144 14.215 13.994 14.2384 14.228C14.2618 14.4698 14.0882 14.6802 13.8438 14.7034ZM14.4718 9.75155C14.3372 10.3441 13.8244 10.7648 13.2331 10.8187C12.6025 10.8804 12.0117 10.521 11.7759 9.93585C11.192 10.4656 10.2857 10.4178 9.75817 9.84011C9.70305 9.78545 9.65582 9.72301 9.61649 9.65277C9.41189 9.34059 9.34923 8.96616 9.42843 8.60748C9.49972 8.28779 9.62622 7.92136 10.1469 7.51636C10.5255 7.22819 11.7558 6.57437 12.4577 6.20856C12.4656 6.20857 12.4656 6.20077 12.4735 6.20078C12.5839 6.1463 12.7258 6.17765 12.7966 6.27912C13.0957 6.6772 14.0874 8.00412 14.3155 8.45672C14.5987 9.04976 14.5509 9.43187 14.4718 9.75155Z" fill="#E80104"/>
<path d="M6.76985 14.8461C6.51388 14.7895 6.30068 14.6445 6.16434 14.4432C6.02802 14.2339 5.9856 13.9925 6.03707 13.7512L8.9173 1.86329C8.97733 1.59786 9.16532 1.38083 9.40441 1.26041C8.8756 0.96217 8.20144 0.913178 7.61227 1.19413L2.03652 3.84313L2.02798 3.85116C1.58397 4.05987 1.25928 4.42156 1.10519 4.86388C0.951096 5.30621 0.984726 5.78092 1.21471 6.19952L5.99289 15.159C6.30803 15.7547 6.94771 16.1175 7.64753 16.1182C7.93769 16.1185 8.22793 16.0545 8.4841 15.926L9.50021 15.4283L6.76985 14.8461ZM3.08376 6.16934C2.81919 6.16905 2.60605 5.96769 2.60632 5.71829C2.60658 5.46889 2.82016 5.26798 3.08472 5.26826C3.34928 5.26855 3.56243 5.46991 3.56216 5.71931C3.56189 5.96872 3.34832 6.16962 3.08376 6.16934Z" fill="#E80104"/>
<path d="M16.5927 18.3801C16.5846 18.5337 16.4938 18.6566 16.3366 18.7142C16.0517 18.8186 15.7662 18.9217 15.4809 19.0252C15.0518 19.1809 14.6226 19.3363 14.1936 19.4922C13.9613 19.5766 13.7852 19.494 13.7027 19.2594C13.4451 18.5278 13.1879 17.796 12.9309 17.0642C12.8599 16.8622 12.9456 16.6766 13.145 16.6039C13.8753 16.338 14.6058 16.0726 15.3366 15.8078C15.5257 15.7393 15.7093 15.8297 15.7798 16.0285C15.9542 16.5196 16.1261 17.0117 16.2989 17.5034C16.3849 17.7481 16.4716 17.9926 16.5563 18.2377C16.5723 18.2839 16.5808 18.3326 16.5927 18.3801H16.5927ZM15.0805 17.6528C15.0789 17.463 14.9221 17.3059 14.7363 17.308C14.549 17.3101 14.3989 17.467 14.4001 17.6593C14.4013 17.8431 14.5585 18.0012 14.7403 18.0014C14.9258 18.0017 15.0822 17.8415 15.0805 17.6528ZM16.1519 18.1787C16.155 17.9872 16.0046 17.8283 15.8178 17.8258C15.6312 17.8234 15.4752 17.9784 15.4722 18.1691C15.4694 18.3552 15.627 18.5174 15.8123 18.5193C15.9955 18.5211 16.1489 18.3673 16.1519 18.1787V18.1787ZM13.8932 18.7435C13.8924 18.934 14.0457 19.0913 14.2326 19.0921C14.4147 19.0929 14.5701 18.9375 14.5733 18.7514C14.5767 18.5626 14.4212 18.4006 14.2365 18.4006C14.0452 18.4005 13.894 18.5515 13.8932 18.7435ZM13.3306 17.1441C13.3292 17.329 13.4844 17.4902 13.6653 17.4918C13.8498 17.4935 14.0093 17.3335 14.0103 17.1456C14.0114 16.9614 13.8608 16.8028 13.6833 16.8012C13.4872 16.7994 13.3322 16.9502 13.3306 17.1441V17.1441ZM15.5892 16.5669C15.5879 16.3797 15.4358 16.2282 15.2495 16.2288C15.0613 16.2293 14.9109 16.3842 14.9115 16.5769C14.9121 16.761 15.0694 16.9185 15.2516 16.9175C15.4386 16.9165 15.5904 16.7588 15.5892 16.5669V16.5669ZM17.1706 16.0228C17.2755 16.048 17.3978 16.0767 17.5198 16.1069C17.8929 16.1993 18.2659 16.2923 18.639 16.385C18.7857 16.4214 18.8544 16.5254 18.8186 16.6726C18.7015 17.1538 18.582 17.6344 18.4617 18.1148C18.4315 18.2351 18.3202 18.3027 18.2001 18.2733C17.7117 18.1543 17.2237 18.0338 16.7359 17.9121C16.614 17.8816 16.5489 17.775 16.579 17.6508C16.6976 17.1622 16.8178 16.6741 16.9397 16.1864C16.965 16.085 17.0495 16.024 17.1706 16.0228ZM17.8714 17.7041C17.8706 17.7907 17.9419 17.8635 18.0305 17.8664C18.1182 17.8692 18.1953 17.792 18.1949 17.7015C18.1946 17.6165 18.1189 17.543 18.0318 17.5434C17.9452 17.5437 17.8722 17.6168 17.8714 17.7041ZM17.3659 16.4412C17.2766 16.4399 17.2067 16.5081 17.2052 16.5981C17.2039 16.68 17.2754 16.7558 17.3566 16.7585C17.4538 16.7619 17.5286 16.6914 17.5283 16.5966C17.528 16.5098 17.4578 16.4425 17.3659 16.4412H17.3659ZM17.8593 17.1473C17.8577 17.0571 17.7881 16.9898 17.6977 16.9911C17.6086 16.9923 17.5397 17.0625 17.5398 17.1521C17.5398 17.2409 17.6118 17.3136 17.6982 17.3119C17.7943 17.31 17.861 17.2418 17.8593 17.1473L17.8593 17.1473Z" fill="#E80104"/>
<path d="M0.0858287 8C0.0542735 8.02367 0.0255006 8.05045 0 8.07988C0.027236 8.05966 0.0550096 8.04044 0.0833206 8.0222C0.0842166 8.01479 0.0850224 8.00741 0.0858287 8ZM2.0117 13.5388C1.86566 13.538 1.73338 13.6135 1.65602 13.7516C1.20588 14.5554 0.758083 15.3604 0.312631 16.1664C0.20306 16.3646 0.278272 16.5889 0.489127 16.6936C1.33071 17.1113 2.17301 17.5275 3.01755 17.9398C3.27584 18.0659 3.50148 17.99 3.63645 17.7482C3.97976 17.1332 4.3238 16.5184 4.66675 15.9031C4.77879 15.7021 4.88827 15.4998 4.98333 15.3265C5.03632 15.1134 4.9612 14.9389 4.78345 14.8509C3.92891 14.4274 3.07285 14.0066 2.2153 13.5885C2.14721 13.5553 2.078 13.5392 2.01165 13.5388H2.0117ZM3.82145 15.1317C3.84587 15.1314 3.87021 15.1342 3.89384 15.14C4.06107 15.1812 4.15644 15.3332 4.11321 15.4895C4.06877 15.6501 3.91105 15.7445 3.74897 15.7076C3.57203 15.6675 3.4746 15.5059 3.52517 15.3368C3.56088 15.2175 3.69043 15.1327 3.8215 15.1317H3.82145ZM2.62966 15.4808C2.65575 15.4805 2.68177 15.4833 2.70711 15.4892C2.87433 15.5275 2.97391 15.6786 2.93539 15.8355C2.89637 15.9947 2.73909 16.0879 2.57003 16.052C2.39278 16.0144 2.29602 15.868 2.33647 15.6986C2.36706 15.57 2.49182 15.4821 2.62966 15.4808ZM1.44964 15.8252C1.47515 15.825 1.50058 15.828 1.5253 15.8339C1.68791 15.8728 1.79094 16.0323 1.75197 16.1845C1.71282 16.3375 1.54121 16.4389 1.38231 16.4029C1.2133 16.3648 1.10431 16.1962 1.14969 16.0434C1.18844 15.9132 1.31436 15.826 1.44964 15.8252Z" fill="#E80104"/>
</g>
<defs>
<clipPath id="clip0_5120_127090">
<rect width="20" height="20" fill="white"/>
</clipPath>
</defs>
</svg>
