<svg width="20" height="20" viewBox="0 0 20 20" fill="none" xmlns="http://www.w3.org/2000/svg">
<path fill-rule="evenodd" clip-rule="evenodd" d="M4.85816 1.37574C4.95716 0.8324 5.47791 0.472057 6.02125 0.571053L14.8757 2.18433C15.4188 2.28353 15.7784 2.80423 15.6795 3.34742L13.3494 16.1365C13.2504 16.6798 12.7296 17.0402 12.1863 16.9412L3.33277 15.3279C2.78943 15.2289 2.42909 14.7081 2.52808 14.1648L4.85816 1.37574ZM10.197 6.93433C9.88324 6.97055 9.69968 7.11258 9.64625 7.36012C9.61782 7.49233 9.62551 7.60289 9.66969 7.69019C9.71383 7.77739 9.762 7.8479 9.81324 7.90211L10.4558 7.83961L9.95777 10.157C9.93561 10.2601 9.92945 10.3475 9.93922 10.4187C9.95397 10.4867 9.98111 10.545 10.0212 10.5925C10.0614 10.64 10.114 10.6778 10.1795 10.7048C10.249 10.7328 10.3285 10.7562 10.4168 10.7752C10.5049 10.7941 10.5928 10.8038 10.6804 10.8054C10.7712 10.812 10.8396 10.8159 10.8855 10.8171L11.5798 7.58863C11.618 7.41097 11.5983 7.25938 11.5203 7.13453C11.4422 7.0097 11.3168 6.92845 11.1443 6.89137L10.9216 6.84351L10.197 6.93433ZM8.06617 6.1775C7.73339 6.10594 7.45666 6.10266 7.23707 6.16773C7.0184 6.22874 6.88585 6.36709 6.83961 6.5818C6.81832 6.6808 6.82136 6.77246 6.84937 6.85621C6.8775 6.94007 6.92075 7.01462 6.97828 7.07887C7.07494 7.03914 7.19095 7.00796 7.32594 6.98512C7.46578 6.95904 7.61576 6.96333 7.77613 6.99781C7.92052 7.02886 8.03393 7.08776 8.11597 7.17457C8.20186 7.26218 8.23262 7.36367 8.20777 7.47926C8.19802 7.52459 8.17781 7.56985 8.14722 7.615C8.12057 7.66104 8.07862 7.70834 8.02222 7.7566C7.96968 7.80581 7.90131 7.86096 7.81715 7.92066C7.73394 7.97618 7.63026 8.03782 7.5066 8.10621L6.51832 8.65894C6.43789 8.70205 6.35929 8.76745 6.28199 8.85426C6.2054 8.93721 6.15204 9.04972 6.12183 9.19019C6.09346 9.3223 6.09211 9.44306 6.1189 9.5525C6.1506 9.65865 6.20422 9.75187 6.27906 9.83277L8.36695 10.282C8.47107 10.3043 8.56201 10.292 8.63941 10.2439C8.71775 10.1916 8.77246 10.0907 8.80445 9.94215C8.82222 9.85952 8.82709 9.78025 8.81812 9.70484C8.81318 9.63036 8.8031 9.56794 8.78883 9.51734L7.34547 9.20679L8.2732 8.72535C8.83492 8.43548 9.16234 8.07324 9.25562 7.63941C9.2902 7.4784 9.29054 7.32092 9.2566 7.16676C9.22263 7.01248 9.15463 6.87003 9.0525 6.74C8.95039 6.61007 8.81704 6.49687 8.65308 6.40113C8.49008 6.30138 8.29447 6.22662 8.06617 6.1775Z" fill="#495266"/>
<path d="M16.5768 4.41623C17.0809 4.54514 17.4066 5.04288 17.3119 5.56266L14.9619 18.4607C14.8629 19.004 14.3422 19.3642 13.7989 19.2652L4.80437 17.6264C4.27942 17.5308 3.92679 17.0417 3.99272 16.5187L13.0545 18.1697C13.5978 18.2686 14.1185 17.9085 14.2175 17.3652L16.5768 4.41623Z" fill="#495266"/>
</svg>
