<svg width="20" height="20" viewBox="0 0 20 20" fill="none" xmlns="http://www.w3.org/2000/svg">
<path d="M17.501 4.4043C18.3974 4.92309 19.002 5.8898 19.002 7V16C19.002 17.6569 17.6588 19 16.002 19H7.00195C5.89176 19 4.92504 18.3954 4.40625 17.499H14.501C16.1578 17.499 17.501 16.1559 17.501 14.499V4.4043Z" fill="#495266"/>
<path d="M13 1C14.6569 1 16 2.34315 16 4V13C16 14.6569 14.6569 16 13 16H4C2.34315 16 1 14.6569 1 13V4C1 2.34315 2.34315 1 4 1H13ZM4.5 10C3.67157 10 3 10.6716 3 11.5C3 12.3284 3.67157 13 4.5 13C5.32843 13 6 12.3284 6 11.5C6 10.6716 5.32843 10 4.5 10ZM8 10.75C7.58579 10.75 7.25 11.0858 7.25 11.5C7.25 11.9142 7.58579 12.25 8 12.25H13C13.4142 12.25 13.75 11.9142 13.75 11.5C13.75 11.0858 13.4142 10.75 13 10.75H8ZM9 7.25C8.58579 7.25 8.25 7.58579 8.25 8C8.25 8.41421 8.58579 8.75 9 8.75H13C13.4142 8.75 13.75 8.41421 13.75 8C13.75 7.58579 13.4142 7.25 13 7.25H9ZM4 4.25C3.58579 4.25 3.25 4.58579 3.25 5C3.25 5.41421 3.58579 5.75 4 5.75H13C13.4142 5.75 13.75 5.41421 13.75 5C13.75 4.58579 13.4142 4.25 13 4.25H4Z" fill="#495266"/>
</svg>
