<svg width="20" height="20" viewBox="0 0 20 20" fill="none" xmlns="http://www.w3.org/2000/svg">
<g clip-path="url(#clip0_5120_127306)">
<path d="M11.1391 1.87422L10.1499 3.26832L7.44977 1.50004L8.25172 5.28492L4.92773 3.09859L6.79414 2.51758L3.9793 0.808594H0.875V3.28293L4.66164 5.08344L2.36555 5.76703L7.40211 8.81879L3.69484 8.94457L6.5818 10.7854L0.5 13L5.84938 13.3879L3.24078 16.4434L7.01266 15.4558L7.44977 19.2913L9 16L11.5 18.5L12 16.5L16 17.5L14.0049 12.8179L17.3106 14.821L15.3391 15.1043L19.238 17.8129L19.2783 14.5903L16.8052 12.5029L18.9524 12.3235L15.0107 9.7307L17.1085 8.72242L15.5137 7.27094L18.2664 5.9184L16.0045 5.1348L19.2783 1.50004L14.5835 3.68336L14.8167 0.92332L12.4277 3.20848L11.1391 1.87422ZM10.9189 3.5723L11.2705 3.66625L13.9354 4.38031L14.2881 4.47563L14.1941 4.82836L14.1051 5.16039L14.9619 5.38988L15.3147 5.48387L15.2195 5.8366L12.6793 15.319L12.5852 15.6719L12.2325 15.5766L7.1482 14.2144L6.79547 14.1204L6.88941 13.7677L9.43094 4.28523L9.52492 3.93367L9.87766 4.02762L10.7347 4.25711L10.8237 3.92508L10.9189 3.5723ZM11.4293 4.46098L11.2425 5.15551L10.5442 4.96879L10.5455 4.96387L10.0413 4.82832L7.68898 13.604L12.0677 14.7771L14.4199 6.00148L13.9158 5.86594L13.9146 5.87211L13.2151 5.6841L13.4019 4.98957L11.4293 4.46098ZM10.565 5.73051L13.5142 6.52027L12.4582 10.4582L11.5293 10.0395L12.2178 8.72242L10.0352 7.70922L10.565 5.73051ZM9.48219 9.76977L10.4283 10.197L9.89723 11.2004L11.9614 12.3113L11.5427 13.8738L8.59465 13.0839L9.48219 9.76977Z" fill="#495266"/>
</g>
<defs>
<clipPath id="clip0_5120_127306">
<rect width="20" height="20" fill="white"/>
</clipPath>
</defs>
</svg>
