<svg width="20" height="20" viewBox="0 0 20 20" fill="none" xmlns="http://www.w3.org/2000/svg">
<path d="M13.2334 4.54395L18 5.5L16.4668 10L18 14.5L13.2334 15.4561L10 19L6.7666 15.4561L2 14.5L3.5332 10L2 5.5L6.7666 4.54395L10 1L13.2334 4.54395ZM5.47266 8.5C5.26951 8.5 5.07901 8.53128 4.90137 8.59375C4.72377 8.65534 4.56707 8.74681 4.43164 8.86816C4.2962 8.98869 4.18985 9.13656 4.11328 9.31152C4.03774 9.48644 4.00005 9.68742 4 9.91406C4 10.2033 4.06191 10.4533 4.18555 10.6631C4.3102 10.8729 4.48326 11.035 4.70508 11.1484C4.92694 11.2618 5.18499 11.3184 5.47852 11.3184C5.7415 11.3183 5.97459 11.2714 6.17773 11.1777C6.38193 11.0831 6.54236 10.9473 6.6582 10.7705C6.77497 10.5928 6.83299 10.3789 6.83301 10.1289V9.74805H5.49609V10.2793H6.04297C6.04077 10.3555 6.02115 10.4223 5.98242 10.4795C5.94119 10.5402 5.87835 10.5871 5.79492 10.6201C5.71248 10.6532 5.60902 10.6699 5.48438 10.6699C5.34322 10.6699 5.22503 10.6396 5.12988 10.5791C5.03466 10.5184 4.96217 10.4307 4.91406 10.3164C4.86598 10.2021 4.84277 10.064 4.84277 9.90332C4.84282 9.74457 4.86697 9.6085 4.91699 9.49609C4.96804 9.3837 5.04254 9.29807 5.13867 9.23828C5.23582 9.17853 5.35289 9.14844 5.49023 9.14844C5.55384 9.14844 5.61216 9.15466 5.66504 9.16797C5.7189 9.18044 5.76646 9.19979 5.80664 9.22559C5.84787 9.25059 5.88267 9.28175 5.91016 9.31836C5.93761 9.35406 5.95795 9.39607 5.9707 9.44336H6.79785C6.78214 9.30584 6.73768 9.17867 6.66504 9.06348C6.59244 8.94848 6.49654 8.84945 6.37793 8.76562C6.26021 8.68085 6.12469 8.61487 5.9707 8.56934C5.8176 8.52291 5.65127 8.50001 5.47266 8.5ZM8.66992 8.5C8.39509 8.5 8.14664 8.55409 7.9248 8.66211C7.70393 8.76927 7.52803 8.92784 7.39746 9.1377C7.26791 9.34664 7.20312 9.60382 7.20312 9.90918C7.20313 10.2128 7.26788 10.4698 7.39746 10.6797C7.52801 10.8885 7.70401 11.0473 7.9248 11.1562C8.14663 11.2643 8.39511 11.3184 8.66992 11.3184C8.94276 11.3183 9.19029 11.2644 9.41211 11.1572C9.63384 11.0492 9.80992 10.8905 9.94043 10.6816C10.0709 10.4718 10.1367 10.2145 10.1367 9.90918C10.1367 9.60379 10.071 9.34665 9.94043 9.1377C9.8099 8.9279 9.63389 8.76927 9.41211 8.66211C9.19029 8.55408 8.94276 8.50002 8.66992 8.5ZM14.5332 8.5C14.2584 8.50002 14.0099 8.55408 13.7881 8.66211C13.5673 8.76927 13.3913 8.92789 13.2607 9.1377C13.1313 9.34661 13.0664 9.60389 13.0664 9.90918C13.0664 10.2128 13.1312 10.4698 13.2607 10.6797C13.3913 10.8886 13.5673 11.0473 13.7881 11.1562C14.0099 11.2643 14.2584 11.3183 14.5332 11.3184C14.8061 11.3184 15.0535 11.2644 15.2754 11.1572C15.4972 11.0492 15.6732 10.8906 15.8037 10.6816C15.9342 10.4718 16 10.2145 16 9.90918C16 9.60378 15.9343 9.34666 15.8037 9.1377C15.6732 8.92791 15.4972 8.76925 15.2754 8.66211C15.0536 8.55409 14.8061 8.5 14.5332 8.5ZM10.291 8.53711V9.1377H11.1982V11.2812H12.0049V9.1377H12.9121V8.53711H10.291ZM8.66992 9.14844C8.80532 9.14846 8.91948 9.17741 9.01172 9.23633C9.10495 9.29437 9.17457 9.38076 9.22168 9.49414C9.26975 9.60664 9.29395 9.74492 9.29395 9.90918C9.29394 10.0735 9.26978 10.2128 9.22168 10.3262C9.17459 10.4384 9.10475 10.5242 9.01172 10.583C8.91948 10.641 8.80532 10.6699 8.66992 10.6699C8.53445 10.6699 8.41943 10.6411 8.32617 10.583C8.23416 10.5242 8.16426 10.4384 8.11621 10.3262C8.06909 10.2128 8.04493 10.0735 8.04492 9.90918C8.04492 9.74495 8.06913 9.60663 8.11621 9.49414C8.16428 9.3808 8.23398 9.29437 8.32617 9.23633C8.41943 9.17739 8.53445 9.14844 8.66992 9.14844ZM14.5332 9.14844C14.6686 9.14844 14.7828 9.17746 14.875 9.23633C14.9683 9.29437 15.0388 9.38073 15.0859 9.49414C15.1339 9.6066 15.1582 9.74503 15.1582 9.90918C15.1582 10.0735 15.134 10.2128 15.0859 10.3262C15.0388 10.4386 14.9682 10.5241 14.875 10.583C14.7827 10.641 14.6687 10.6699 14.5332 10.6699C14.3979 10.6699 14.2836 10.641 14.1904 10.583C14.0982 10.5241 14.0276 10.4385 13.9795 10.3262C13.9324 10.2128 13.9092 10.0735 13.9092 9.90918C13.9092 9.745 13.9324 9.60661 13.9795 9.49414C14.0276 9.38073 14.0982 9.29437 14.1904 9.23633C14.2836 9.17754 14.3979 9.14846 14.5332 9.14844Z" fill="#E80104"/>
</svg>
