<svg width="14" height="14" viewBox="0 0 14 14" fill="none" xmlns="http://www.w3.org/2000/svg">
<path d="M0.0399563 6.96021C0.0178885 10.8041 3.11612 13.9381 6.96004 13.9602C10.804 13.9823 13.938 10.884 13.96 7.04012C13.9821 3.1962 10.8839 0.0621886 7.03996 0.0401208C3.19603 0.018053 0.0620241 3.11628 0.0399563 6.96021ZM12.568 7.03213C12.5504 10.1073 10.0432 12.5859 6.96803 12.5682C3.89289 12.5505 1.41431 10.0433 1.43196 6.9682C1.44962 3.89306 3.95682 1.41448 7.03197 1.43213C10.1071 1.44978 12.5857 3.95699 12.568 7.03213Z" fill="#B18118"/>
<path d="M8.55397 9.65698C8.7054 9.91585 8.61924 10.2528 8.34064 10.3638C7.71568 10.6129 7.02997 10.6843 6.36074 10.5641C5.5123 10.4119 4.74603 9.96188 4.19976 9.29507C3.65349 8.62827 3.36307 7.78843 3.38073 6.92662C3.39467 6.24684 3.59957 5.58857 3.96677 5.02485C4.13047 4.77355 4.47774 4.75537 4.70175 4.95478C4.92577 5.15419 4.93955 5.49561 4.79234 5.75691C4.58842 6.11887 4.47521 6.52798 4.46658 6.94888C4.45422 7.55215 4.65751 8.14003 5.0399 8.6068C5.42229 9.07356 5.95868 9.38856 6.55259 9.49515C6.96695 9.56951 7.39034 9.53902 7.78535 9.41032C8.0705 9.31741 8.40254 9.3981 8.55397 9.65698Z" fill="#B18118"/>
<path d="M4.375 5.25L2.625 6.125" stroke="#B18118" stroke-width="0.875" stroke-linecap="round"/>
<path d="M5.44652 4.34498C5.29509 4.0861 5.38125 3.7492 5.65985 3.63816C6.28481 3.38906 6.97052 3.3177 7.63975 3.43781C8.48819 3.59007 9.25446 4.04008 9.80073 4.70688C10.347 5.37368 10.6374 6.21352 10.6198 7.07534C10.6058 7.75512 10.4009 8.41338 10.0337 8.9771C9.87002 9.2284 9.52275 9.24658 9.29874 9.04717C9.07472 8.84776 9.06094 8.50634 9.20815 8.24504C9.41206 7.88309 9.52528 7.47397 9.5339 7.05308C9.54627 6.44981 9.34298 5.86192 8.96059 5.39516C8.5782 4.92839 8.04181 4.61339 7.4479 4.5068C7.03354 4.43244 6.61015 4.46293 6.21514 4.59164C5.92998 4.68455 5.59795 4.60385 5.44652 4.34498Z" fill="#B18118"/>
<path d="M9.625 8.75L11.375 7.875" stroke="#B18118" stroke-width="0.875" stroke-linecap="round"/>
</svg>
