<svg width="16" height="16" viewBox="0 0 16 16" fill="none" xmlns="http://www.w3.org/2000/svg">
<g clip-path="url(#clip0_380_85857)">
<circle cx="8" cy="8" r="7" stroke="#51555E" stroke-width="1.67"/>
<mask id="path-2-inside-1_380_85857" fill="white">
<path d="M7 3.7C7 3.3134 7.3134 3 7.7 3C8.0866 3 8.4 3.3134 8.4 3.7V8.3C8.4 8.6866 8.0866 9 7.7 9C7.3134 9 7 8.6866 7 8.3V3.7Z"/>
</mask>
<path d="M7 3.7C7 3.3134 7.3134 3 7.7 3C8.0866 3 8.4 3.3134 8.4 3.7V8.3C8.4 8.6866 8.0866 9 7.7 9C7.3134 9 7 8.6866 7 8.3V3.7Z" fill="#51555E"/>
<path d="M8.4 3.7H6.4V8.3H8.4H10.4V3.7H8.4ZM7 8.3H9V3.7H7H5V8.3H7ZM7.7 9V7C8.41797 7 9 7.58203 9 8.3H7H5C5 9.79117 6.20883 11 7.7 11V9ZM8.4 8.3H6.4C6.4 7.58203 6.98203 7 7.7 7V9V11C9.19117 11 10.4 9.79117 10.4 8.3H8.4ZM7.7 3V5C6.98203 5 6.4 4.41797 6.4 3.7H8.4H10.4C10.4 2.20883 9.19117 1 7.7 1V3ZM7.7 3V1C6.20883 1 5 2.20883 5 3.7H7H9C9 4.41797 8.41797 5 7.7 5V3Z" fill="#51555E" mask="url(#path-2-inside-1_380_85857)"/>
<mask id="path-4-inside-2_380_85857" fill="white">
<path d="M7.7 9C7.3134 9 7 8.6866 7 8.3C7 7.9134 7.3134 7.6 7.7 7.6H11.3C11.6866 7.6 12 7.9134 12 8.3C12 8.6866 11.6866 9 11.3 9H7.7Z"/>
</mask>
<path d="M7.7 9C7.3134 9 7 8.6866 7 8.3C7 7.9134 7.3134 7.6 7.7 7.6H11.3C11.6866 7.6 12 7.9134 12 8.3C12 8.6866 11.6866 9 11.3 9H7.7Z" fill="#51555E"/>
<path d="M7.7 7.6V9.6H11.3V7.6V5.6H7.7V7.6ZM11.3 9V7H7.7V9V11H11.3V9ZM12 8.3H10C10 7.58203 10.582 7 11.3 7V9V11C12.7912 11 14 9.79117 14 8.3H12ZM11.3 7.6V9.6C10.582 9.6 10 9.01797 10 8.3H12H14C14 6.80883 12.7912 5.6 11.3 5.6V7.6ZM7 8.3H9C9 9.01797 8.41797 9.6 7.7 9.6V7.6V5.6C6.20883 5.6 5 6.80883 5 8.3H7ZM7 8.3H5C5 9.79117 6.20883 11 7.7 11V9V7C8.41797 7 9 7.58203 9 8.3H7Z" fill="#51555E" mask="url(#path-4-inside-2_380_85857)"/>
</g>
<defs>
<clipPath id="clip0_380_85857">
<rect width="16" height="16" fill="white"/>
</clipPath>
</defs>
</svg>
