<svg width="17" height="17" viewBox="0 0 17 17" fill="none" xmlns="http://www.w3.org/2000/svg">
<path d="M0.833496 8.33398C0.833496 9.3189 1.02749 10.2942 1.4044 11.2041C1.78131 12.1141 2.33376 12.9408 3.03019 13.6373C3.72663 14.3337 4.55343 14.8862 5.46337 15.2631C6.37331 15.64 7.34858 15.834 8.3335 15.834C9.31841 15.834 10.2937 15.64 11.2036 15.2631C12.1136 14.8862 12.9404 14.3337 13.6368 13.6373C14.3332 12.9408 14.8857 12.1141 15.2626 11.2041C15.6395 10.2942 15.8335 9.3189 15.8335 8.33398C15.8335 7.34907 15.6395 6.3738 15.2626 5.46386C14.8857 4.55392 14.3332 3.72712 13.6368 3.03068C12.9404 2.33424 12.1136 1.7818 11.2036 1.40489C10.2937 1.02798 9.31841 0.833984 8.3335 0.833984C7.34858 0.833984 6.37331 1.02798 5.46337 1.40489C4.55343 1.7818 3.72663 2.33424 3.03019 3.03068C2.33376 3.72712 1.78131 4.55392 1.4044 5.46386C1.02749 6.3738 0.833496 7.34907 0.833496 8.33398Z" fill="#FFC31D" stroke="#FF8800" stroke-width="1.66667" stroke-linecap="round" stroke-linejoin="round"/>
<path d="M10.6668 5.83659C10.5159 5.57472 10.2965 5.35884 10.0323 5.21205C9.76809 5.06526 9.46892 4.99308 9.16683 5.00326H7.50016C7.05814 5.00326 6.63421 5.17885 6.32165 5.49141C6.00909 5.80397 5.8335 6.22789 5.8335 6.66992C5.8335 7.11195 6.00909 7.53587 6.32165 7.84843C6.63421 8.16099 7.05814 8.33659 7.50016 8.33659H9.16683C9.60886 8.33659 10.0328 8.51218 10.3453 8.82474C10.6579 9.1373 10.8335 9.56123 10.8335 10.0033C10.8335 10.4453 10.6579 10.8692 10.3453 11.1818C10.0328 11.4943 9.60886 11.6699 9.16683 11.6699H7.50016C7.19807 11.6801 6.8989 11.6079 6.63468 11.4611C6.37045 11.3143 6.15112 11.0985 6.00016 10.8366M8.3335 4.16992V12.5033" stroke="white" stroke-linecap="round" stroke-linejoin="round"/>
</svg>
