<svg  xmlns="http://www.w3.org/2000/svg" width="16" height="16" viewBox="0 0 16 16" fill="none">
        <path
            d="M10.6663 12.5175V13.8995C10.6663 13.926 10.6558 13.9514 10.6371 13.9702C10.6183 13.9889 10.5929 13.9995 10.5663 13.9995H5.43301C5.40649 13.9995 5.38105 13.9889 5.3623 13.9702C5.34354 13.9514 5.33301 13.926 5.33301 13.8995V12.5175C5.33301 12.4609 5.34739 12.4053 5.37479 12.3559C5.4022 12.3064 5.44173 12.2648 5.48967 12.2348L7.71701 10.8428C7.80177 10.7898 7.89972 10.7617 7.99967 10.7617C8.09963 10.7617 8.19758 10.7898 8.28234 10.8428L10.5097 12.2348C10.5576 12.2648 10.5971 12.3064 10.6246 12.3559C10.652 12.4053 10.6663 12.4609 10.6663 12.5175Z"
            fill="#FFC31D"
        />
        <path
            d="M7.99967 8L12.083 10.78C12.2626 10.9022 12.4096 11.0664 12.5113 11.2583C12.6129 11.4503 12.6662 11.6641 12.6663 11.8813V13.6667C12.6663 13.7551 12.6312 13.8399 12.5687 13.9024C12.5062 13.9649 12.4214 14 12.333 14H3.66634C3.57794 14 3.49315 13.9649 3.43064 13.9024C3.36813 13.8399 3.33301 13.7551 3.33301 13.6667V11.882C3.33296 11.6646 3.38609 11.4504 3.48777 11.2582C3.58944 11.066 3.73657 10.9016 3.91634 10.7793L7.99967 8ZM7.99967 8L12.083 5.22C12.2626 5.09782 12.4096 4.93362 12.5113 4.74168C12.6129 4.54974 12.6662 4.33587 12.6663 4.11867V2.33333C12.6663 2.24493 12.6312 2.16014 12.5687 2.09763C12.5062 2.03512 12.4214 2 12.333 2H3.66634C3.57794 2 3.49315 2.03512 3.43064 2.09763C3.36813 2.16014 3.33301 2.24493 3.33301 2.33333V4.118C3.33296 4.33543 3.38609 4.54957 3.48777 4.74176C3.58944 4.93395 3.73657 5.09836 3.91634 5.22067L7.99967 8Z"
            stroke="#A0A8B4"
            stroke-width="1.33333"
            stroke-linecap="round"
            stroke-linejoin="round"
        />
    </svg>
