<svg width="16" height="17" viewBox="0 0 16 17" fill="none" xmlns="http://www.w3.org/2000/svg">
<path d="M4.76647 0.800781V0.000781178C4.3768 0.000781178 4.04381 0.281541 3.97797 0.66561L4.76647 0.800781ZM10.8331 0.800781L11.6216 0.66561C11.5558 0.281541 11.2228 0.000781178 10.8331 0.000781178V0.800781ZM0.799805 2.72376C0.357977 2.72376 -0.000195384 3.08194 -0.000195384 3.52376C-0.000195384 3.96559 0.357977 4.32376 0.799805 4.32376V3.52376V2.72376ZM14.7998 4.32376C15.2416 4.32376 15.5998 3.96559 15.5998 3.52376C15.5998 3.08194 15.2416 2.72376 14.7998 2.72376V3.52376V4.32376ZM12.8553 3.52376L13.6537 3.57527C13.6679 3.35461 13.5902 3.1379 13.4389 2.97659C13.2877 2.81528 13.0764 2.72376 12.8553 2.72376V3.52376ZM12.0775 15.5793V16.3793C12.4994 16.3793 12.8487 16.0518 12.8759 15.6308L12.0775 15.5793ZM3.52198 15.5793L2.72364 15.6308C2.7508 16.0518 3.10015 16.3793 3.52198 16.3793V15.5793ZM2.7442 3.52376V2.72376C2.52308 2.72376 2.31183 2.81528 2.16059 2.97659C2.00935 3.1379 1.93163 3.35461 1.94586 3.57527L2.7442 3.52376ZM5.85541 11.6674C5.41358 11.6674 5.05541 12.0256 5.05541 12.4674C5.05541 12.9093 5.41358 13.2674 5.85541 13.2674V12.4674V11.6674ZM9.7443 13.2674C10.1861 13.2674 10.5443 12.9093 10.5443 12.4674C10.5443 12.0256 10.1861 11.6674 9.7443 11.6674V12.4674V13.2674ZM4.2998 3.523L5.0883 3.65817L5.55497 0.935952L4.76647 0.800781L3.97797 0.66561L3.51131 3.38783L4.2998 3.523ZM4.76647 0.800781V1.60078H10.8331V0.800781V0.000781178H4.76647V0.800781ZM10.8331 0.800781L10.0446 0.935952L10.5113 3.65817L11.2998 3.523L12.0883 3.38783L11.6216 0.66561L10.8331 0.800781ZM0.799805 3.52376V4.32376H14.7998V3.52376V2.72376H0.799805V3.52376ZM12.8553 3.52376L12.057 3.47226L11.2792 15.5278L12.0775 15.5793L12.8759 15.6308L13.6537 3.57527L12.8553 3.52376ZM12.0775 15.5793V14.7793H3.52198V15.5793V16.3793H12.0775V15.5793ZM3.52198 15.5793L4.32032 15.5278L3.54254 3.47226L2.7442 3.52376L1.94586 3.57527L2.72364 15.6308L3.52198 15.5793ZM2.7442 3.52376V4.32376H12.8553V3.52376V2.72376H2.7442V3.52376ZM5.85541 12.4674V13.2674H9.7443V12.4674V11.6674H5.85541V12.4674Z" fill="#99A4B7"/>
</svg>
