<svg width="40" height="20" viewBox="0 0 40 20" fill="none" xmlns="http://www.w3.org/2000/svg">
<path d="M13.4276 12.4408C13.7391 12.4408 13.9171 12.2627 13.9171 11.9512V8.23744C13.9171 7.92593 13.7391 7.74788 13.4276 7.74788H11.1445V12.4411L13.4276 12.4408ZM17.7963 10.0879C17.7963 11.1056 18.5212 11.9765 19.4687 12.2055V7.9895C18.9918 8.09493 18.5655 8.36087 18.2611 8.74286C17.9567 9.12485 17.7926 9.59943 17.7963 10.0879ZM20.4924 12.2058C21.4462 11.9768 22.1521 11.1059 22.1648 10.0882C22.1711 9.07077 21.4529 8.21878 20.4924 7.98981V12.2058ZM26.5718 7.74819C26.2603 7.74819 26.0822 7.92625 26.0822 8.23776V11.9515C26.0822 12.2631 26.2603 12.4411 26.5718 12.4411H28.8548V7.74788L26.5718 7.74819ZM28.8548 13.4648H26.5525C25.6116 13.4648 25.0585 12.9114 25.0585 11.9702V8.21847C25.0585 7.27729 25.6116 6.72416 26.5528 6.72416H28.8548V6.06888C28.8548 4.75895 28.1872 4.09766 26.858 4.09766H20.4924V7.02935C21.9804 7.27096 23.0806 8.5363 23.0996 10.0945C23.1186 11.665 21.9867 12.9307 20.4924 13.1723V16.0977H26.858C28.1872 16.0977 28.8548 15.4361 28.8548 14.1261V13.4648ZM11.1445 13.4648V14.1258C11.1445 15.4361 11.8185 16.0973 13.1414 16.0973H19.4684V13.172C17.9804 12.937 16.8612 11.6713 16.8612 10.0945C16.8612 8.52998 17.9804 7.24535 19.4684 7.01669V4.09766H13.1414C11.8182 4.09766 11.1445 4.75262 11.1445 6.06888V6.72416H13.4466C14.3877 6.72416 14.9409 7.27729 14.9409 8.21847V11.9702C14.9409 12.9114 14.3874 13.4648 13.4466 13.4648H11.1445Z" fill="#C4C4C4"/>
</svg>
