<svg width="14" height="14" viewBox="-0.5 -0.5 13 13" fill="none" xmlns="http://www.w3.org/2000/svg">
<path d="M8.09418 6.99397C8.1739 6.68182 7.90555 6.41668 7.58338 6.41668C7.26122 6.41668 7.01167 6.69329 6.85722 6.97602C6.80439 7.07273 6.73767 7.16231 6.65834 7.24163C6.43955 7.46043 6.1428 7.58334 5.83338 7.58334C5.52396 7.58334 5.22722 7.46043 5.00842 7.24163C4.9291 7.16231 4.86237 7.07273 4.80954 6.97602C4.65509 6.69329 4.40555 6.41668 4.08338 6.41668C3.76122 6.41668 3.49287 6.68182 3.57258 6.99397C3.67538 7.39648 3.88474 7.76787 4.18347 8.06659C4.62105 8.50418 5.21454 8.75001 5.83338 8.75001C6.45222 8.75001 7.04571 8.50418 7.4833 8.06659C7.78203 7.76787 7.99139 7.39648 8.09418 6.99397ZM4.66672 4.66668C4.66672 4.82139 4.60526 4.96976 4.49586 5.07916C4.38646 5.18855 4.23809 5.25001 4.08338 5.25001C3.92867 5.25001 3.7803 5.18855 3.6709 5.07916C3.56151 4.96976 3.50005 4.82139 3.50005 4.66668C3.50005 4.51197 3.56151 4.36359 3.6709 4.2542C3.7803 4.1448 3.92867 4.08334 4.08338 4.08334C4.23809 4.08334 4.38646 4.1448 4.49586 4.2542C4.60526 4.36359 4.66672 4.51197 4.66672 4.66668ZM7.58338 5.25001C7.73809 5.25001 7.88646 5.18855 7.99586 5.07916C8.10526 4.96976 8.16672 4.82139 8.16672 4.66668C8.16672 4.51197 8.10526 4.36359 7.99586 4.2542C7.88646 4.1448 7.73809 4.08334 7.58338 4.08334C7.42867 4.08334 7.2803 4.1448 7.1709 4.2542C7.06151 4.36359 7.00005 4.51197 7.00005 4.66668C7.00005 4.82139 7.06151 4.96976 7.1709 5.07916C7.2803 5.18855 7.42867 5.25001 7.58338 5.25001Z" fill="currentColor"/>
<path fill-rule="evenodd" clip-rule="evenodd" d="M11.6667 5.83333C11.6667 9.05508 9.05508 11.6667 5.83333 11.6667C2.61158 11.6667 0 9.05508 0 5.83333C0 2.61158 2.61158 0 5.83333 0C9.05508 0 11.6667 2.61158 11.6667 5.83333ZM10.5 5.83333C10.5 7.07101 10.0083 8.258 9.13316 9.13316C8.258 10.0083 7.07101 10.5 5.83333 10.5C4.59566 10.5 3.40867 10.0083 2.5335 9.13316C1.65833 8.258 1.16667 7.07101 1.16667 5.83333C1.16667 4.59566 1.65833 3.40867 2.5335 2.5335C3.40867 1.65833 4.59566 1.16667 5.83333 1.16667C7.07101 1.16667 8.258 1.65833 9.13316 2.5335C10.0083 3.40867 10.5 4.59566 10.5 5.83333Z" fill="currentColor"/>
</svg>
