<svg width="14" height="14" viewBox="-0.5 -0.5 13 13" fill="none" xmlns="http://www.w3.org/2000/svg">
<path d="M4.08338 5.25001C4.23809 5.25001 4.38646 5.18855 4.49586 5.07916C4.60526 4.96976 4.66672 4.82139 4.66672 4.66668C4.66672 4.51197 4.60526 4.36359 4.49586 4.2542C4.38646 4.1448 4.23809 4.08334 4.08338 4.08334C3.92867 4.08334 3.7803 4.1448 3.6709 4.2542C3.56151 4.36359 3.50005 4.51197 3.50005 4.66668C3.50005 4.82139 3.56151 4.96976 3.6709 5.07916C3.7803 5.18855 3.92867 5.25001 4.08338 5.25001ZM7.58338 8.75001C7.26122 8.75001 7.01167 8.4734 6.85722 8.19067C6.80439 8.09396 6.73767 8.00438 6.65834 7.92505C6.43955 7.70626 6.1428 7.58334 5.83338 7.58334C5.52396 7.58334 5.22722 7.70626 5.00842 7.92505C4.9291 8.00438 4.86237 8.09396 4.80954 8.19067C4.65509 8.4734 4.40555 8.75001 4.08338 8.75001C3.76122 8.75001 3.49287 8.48486 3.57258 8.17272C3.67538 7.77021 3.88474 7.39882 4.18347 7.10009C4.62105 6.66251 5.21454 6.41668 5.83338 6.41668C6.45222 6.41668 7.04571 6.66251 7.4833 7.10009C7.78203 7.39882 7.99139 7.77021 8.09418 8.17272C8.1739 8.48486 7.90555 8.75001 7.58338 8.75001ZM8.16672 4.66668C8.16672 4.82139 8.10526 4.96976 7.99586 5.07916C7.88646 5.18855 7.73809 5.25001 7.58338 5.25001C7.42867 5.25001 7.2803 5.18855 7.1709 5.07916C7.06151 4.96976 7.00005 4.82139 7.00005 4.66668C7.00005 4.51197 7.06151 4.36359 7.1709 4.2542C7.2803 4.1448 7.42867 4.08334 7.58338 4.08334C7.73809 4.08334 7.88646 4.1448 7.99586 4.2542C8.10526 4.36359 8.16672 4.51197 8.16672 4.66668Z" fill="currentColor"/>
<path fill-rule="evenodd" clip-rule="evenodd" d="M11.6667 5.83333C11.6667 9.05508 9.05508 11.6667 5.83333 11.6667C2.61158 11.6667 0 9.05508 0 5.83333C0 2.61158 2.61158 0 5.83333 0C9.05508 0 11.6667 2.61158 11.6667 5.83333ZM10.5 5.83333C10.5 7.07101 10.0083 8.258 9.13316 9.13316C8.258 10.0083 7.07101 10.5 5.83333 10.5C4.59566 10.5 3.40867 10.0083 2.5335 9.13316C1.65833 8.258 1.16667 7.07101 1.16667 5.83333C1.16667 4.59566 1.65833 3.40867 2.5335 2.5335C3.40867 1.65833 4.59566 1.16667 5.83333 1.16667C7.07101 1.16667 8.258 1.65833 9.13316 2.5335C10.0083 3.40867 10.5 4.59566 10.5 5.83333Z" fill="currentColor"/>
</svg>
