<svg width="16" height="16" viewBox="0 0 16 16" fill="none" xmlns="http://www.w3.org/2000/svg">
<path d="M6.85669 3.23883C7.37453 2.37583 8.62487 2.37596 9.14282 3.23883L14.7883 12.647C15.3215 13.5357 14.6812 14.6666 13.6448 14.6666H2.35474C1.31844 14.6664 0.67799 13.5357 1.21118 12.647L6.85669 3.23883ZM8.00122 11.9996C7.63307 11.9996 7.33429 12.2984 7.33423 12.6666C7.33423 13.0348 7.63303 13.3336 8.00122 13.3336C8.3693 13.3334 8.66724 13.0347 8.66724 12.6666C8.66717 12.2985 8.36926 11.9997 8.00122 11.9996ZM8.00122 5.33356C7.51646 5.33356 7.12957 5.73693 7.14966 6.22125L7.30688 10.0005C7.3224 10.3728 7.62863 10.6666 8.00122 10.6666C8.37374 10.6665 8.68005 10.3728 8.69556 10.0005L8.85278 6.22125C8.87286 5.73699 8.4859 5.33365 8.00122 5.33356Z" fill="#E80104"/>
</svg>
