<svg width="16" height="16" viewBox="0 0 16 16" fill="none" xmlns="http://www.w3.org/2000/svg">
<path d="M10.7041 1.05804L14.7973 3.80625C15.0004 3.94263 15.0004 4.24447 14.7973 4.38081L10.7041 7.12902C10.4777 7.28103 10.1752 7.11674 10.1752 6.84172V5.15657H4.43652C3.14856 5.15657 2.10072 6.21707 2.10072 7.52059V8.47941C2.10072 9.06652 1.63048 9.54247 1.05037 9.54247C0.47027 9.54247 0 9.06652 0 8.47941L0 7.52059C0 5.04475 1.99022 3.03052 4.43652 3.03052H10.1752V1.34534C10.1752 1.07032 10.4777 0.906027 10.7041 1.05804ZM13.8993 7.52059V8.47941C13.8993 9.78293 12.8514 10.8434 11.5635 10.8434H5.82481V9.15829C5.82481 8.8833 5.5223 8.71897 5.29586 8.87098L1.20265 11.6192C0.99955 11.7556 0.99955 12.0574 1.20265 12.1938L5.29586 14.942C5.5223 15.094 5.82481 14.9297 5.82481 14.6547V12.9695H11.9861C12.1235 12.9695 12.2546 12.9425 12.3749 12.894C14.435 12.507 16 10.6748 16 8.47941V7.52059C16 6.93348 15.5297 6.45756 14.9497 6.45756C14.3696 6.45756 13.8993 6.93348 13.8993 7.52059Z" fill="#A0A8B4"/>
</svg>
