<svg width="16" height="16" viewBox="0 0 16 16" fill="none" xmlns="http://www.w3.org/2000/svg">
<path fill-rule="evenodd" clip-rule="evenodd" d="M1.85458 7.48329L2.11866 7.30873C2.51488 7.04682 2.77659 6.87291 2.96206 6.7174C3.13765 6.57016 3.20428 6.47169 3.23923 6.37951C3.27418 6.28729 3.2896 6.16925 3.25577 5.94232C3.22006 5.7027 3.13947 5.39868 3.01659 4.93956L2.90508 4.52288C2.32007 5.37919 1.94512 6.39078 1.85458 7.48329ZM3.68768 3.58968C3.69389 3.60591 3.69932 3.62262 3.70392 3.63977L3.98976 4.70779C4.10357 5.13297 4.19974 5.49224 4.24485 5.7949C4.26799 5.95019 4.27975 6.10208 4.2725 6.25257L5.93907 6.95491C5.97648 6.91709 6.01679 6.88153 6.05989 6.84857L7.28423 5.91217C7.34994 5.86192 7.4197 5.81956 7.49222 5.7851V3.97872C7.35331 3.93084 7.21966 3.86577 7.08702 3.78944C6.82195 3.63691 6.52289 3.41615 6.16906 3.15494L5.25035 2.47679C4.67189 2.76522 4.14511 3.14207 3.68768 3.58968ZM6.35945 2.05255L6.74061 2.3339C7.12276 2.61599 7.37603 2.80201 7.58576 2.92269C7.78436 3.03697 7.89949 3.06554 7.99763 3.0666C8.09577 3.06766 8.21149 3.04159 8.4125 2.93164C8.62479 2.81552 8.88201 2.63503 9.27016 2.36127L9.68433 2.06916C9.14668 1.91567 8.57902 1.8335 7.99222 1.8335C7.42697 1.8335 6.87947 1.90975 6.35945 2.05255ZM10.7899 2.50496C10.7706 2.52392 10.7496 2.54157 10.7268 2.55765L9.82383 3.19447C9.46444 3.44796 9.16069 3.66221 8.89239 3.80897C8.76102 3.88082 8.62892 3.9419 8.49222 3.98652V5.7851C8.56474 5.81956 8.63451 5.86192 8.70022 5.91217L9.92456 6.84857C9.96841 6.88211 10.0094 6.91835 10.0473 6.95692L11.7545 6.24996C11.7475 6.10034 11.7593 5.94933 11.7823 5.79497C11.8274 5.4923 11.9236 5.13303 12.0374 4.70784L12.3232 3.63983C12.3249 3.63353 12.3267 3.62728 12.3286 3.62109C11.8785 3.17422 11.3599 2.79644 10.7899 2.50496ZM13.11 4.56813L13.0106 4.93962C12.8877 5.39874 12.8071 5.70276 12.7714 5.94238C12.7376 6.16931 12.753 6.28735 12.7879 6.37957C12.8229 6.47175 12.8895 6.57022 13.0651 6.71746C13.2506 6.87298 13.5123 7.04688 13.9085 7.30879L14.1273 7.45344C14.0342 6.39151 13.6722 5.40688 13.11 4.56813ZM15.1463 8.26817C15.1495 8.17924 15.1512 8.0899 15.1512 8.00016C15.1512 4.04267 11.9466 0.833496 7.99222 0.833496C4.03789 0.833496 0.833252 4.04267 0.833252 8.00016C0.833252 11.9577 4.03789 15.1668 7.99222 15.1668C11.7423 15.1668 14.8181 12.2806 15.1259 8.60709C15.1731 8.49781 15.1785 8.3778 15.1463 8.26817ZM14.1178 8.64589L13.3339 8.12771C12.967 7.88521 12.6569 7.68025 12.4226 7.48372C12.3101 7.3894 12.207 7.29068 12.117 7.18222L10.3755 7.90339C10.3675 7.97588 10.3526 8.04832 10.3305 8.11979L9.84964 9.67779C9.8329 9.73204 9.81243 9.7844 9.78858 9.83461L10.7673 10.9667C10.917 10.9167 11.0736 10.8869 11.2369 10.8682C11.5407 10.8335 11.9123 10.8335 12.3519 10.8335H13.4564C13.459 10.8335 13.4615 10.8335 13.464 10.8336C13.8094 10.1663 14.0366 9.42784 14.1178 8.64589ZM12.817 11.8335H12.3797C11.9049 11.8335 11.5908 11.8343 11.3505 11.8617C11.123 11.8877 11.0133 11.9331 10.9336 11.9906C10.8539 12.0482 10.7761 12.1381 10.6794 12.3461C10.5774 12.5658 10.4773 12.8639 10.3272 13.3148L10.1764 13.7678C11.2226 13.3704 12.1326 12.6958 12.817 11.8335ZM9.01788 14.0817L9.38713 12.9726C9.52616 12.555 9.64363 12.2022 9.77256 11.9247C9.83059 11.7998 9.89451 11.6819 9.96935 11.5727L9.01314 10.4667C8.92374 10.4886 8.83072 10.5002 8.73567 10.5002H7.24877C7.1606 10.5002 7.07419 10.4902 6.99078 10.4713L6.1398 11.555C6.21998 11.6691 6.28771 11.793 6.34889 11.9247C6.47782 12.2022 6.59529 12.555 6.73431 12.9726L7.11107 14.1042C7.39885 14.1455 7.69305 14.1668 7.99222 14.1668C8.34166 14.1668 8.68431 14.1377 9.01788 14.0817ZM5.96402 13.8246L5.79428 13.3148C5.64414 12.8639 5.54408 12.5658 5.44201 12.3461C5.34535 12.1381 5.26757 12.0482 5.18782 11.9906C5.1081 11.9331 4.99848 11.8877 4.77097 11.8617C4.53066 11.8343 4.21658 11.8335 3.74178 11.8335H3.16747C3.88559 12.7384 4.85225 13.4365 5.96402 13.8246ZM2.52997 10.852C2.57293 10.8399 2.61824 10.8335 2.66505 10.8335H3.76954C4.20915 10.8335 4.58075 10.8335 4.88453 10.8682C5.04102 10.8861 5.19127 10.9142 5.33519 10.9605L6.20481 9.85303C6.1771 9.79725 6.15361 9.73871 6.1348 9.67779L5.65391 8.11979C5.63159 8.04749 5.61662 7.9742 5.60869 7.90086L3.90839 7.1843C3.81877 7.29193 3.71632 7.38996 3.60459 7.48366C3.37021 7.68019 3.06012 7.88515 2.69323 8.12765L1.8694 8.67222C1.95376 9.4516 2.18315 10.1874 2.52997 10.852ZM7.99222 6.67243C7.95657 6.67243 7.92151 6.68372 7.89173 6.70649L6.66739 7.64288C6.63929 7.66438 6.61952 7.69345 6.60942 7.72614C6.59966 7.75778 6.59925 7.79188 6.60943 7.82486L7.09032 9.38286C7.10062 9.41622 7.12038 9.44415 7.14639 9.46464C7.17521 9.48733 7.21074 9.50016 7.24877 9.50016H8.73567C8.7737 9.50016 8.80924 9.48733 8.83805 9.46464C8.86406 9.44416 8.88382 9.41623 8.89412 9.38286L9.37502 7.82486C9.3852 7.79188 9.38478 7.75778 9.37502 7.72614C9.36493 7.69345 9.34516 7.66438 9.31705 7.64288L8.09271 6.70649C8.06294 6.68372 8.02787 6.67243 7.99222 6.67243Z" fill="#86909C"/>
</svg>
