<svg width="14" height="14" viewBox="0 0 14 14" fill="none" xmlns="http://www.w3.org/2000/svg">
<path d="M8.83196 3.5L12.0508 6.3875C12.1135 6.44488 12.1635 6.51469 12.1978 6.59247C12.232 6.67025 12.2497 6.7543 12.2497 6.83929C12.2497 6.92428 12.232 7.00833 12.1978 7.08612C12.1635 7.1639 12.1135 7.2337 12.0508 7.29108L8.77713 10.2591M5.1873 8.38425V9.32633C5.17681 9.43391 5.19801 9.54221 5.24828 9.63789C5.29856 9.73357 5.37572 9.81246 5.47026 9.86485C5.56481 9.91724 5.67261 9.94083 5.78039 9.93273C5.88817 9.92463 5.99123 9.88518 6.07688 9.81925L9.05655 7.3395C9.12444 7.27929 9.17879 7.20537 9.21601 7.12262C9.25323 7.03986 9.27247 6.95016 9.27247 6.85942C9.27247 6.76868 9.25323 6.67897 9.21601 6.59621C9.17879 6.51346 9.12444 6.43954 9.05655 6.37933L6.07688 3.89958C5.99119 3.8336 5.88807 3.79414 5.78023 3.78605C5.67238 3.77796 5.56453 3.80161 5.46996 3.85407C5.37539 3.90653 5.29823 3.98552 5.24801 4.0813C5.19778 4.17708 5.17668 4.28546 5.1873 4.39308V5.38475C3.2553 5.38475 1.6873 7.1225 1.6873 9.26625V10.0415C1.6739 10.1403 1.6971 10.2406 1.75253 10.3234C1.80796 10.4063 1.89178 10.466 1.9882 10.4913C2.08461 10.5166 2.18696 10.5058 2.27595 10.4609C2.36494 10.416 2.43442 10.34 2.4713 10.2474C2.69474 9.70766 3.07014 9.24442 3.55188 8.91397C4.03362 8.58353 4.60096 8.40011 5.18497 8.386L5.1873 8.38425Z" stroke="#A0A8B4" stroke-width="1.16667" stroke-linecap="round" stroke-linejoin="round"/>
</svg>
