<svg width="14" height="14" viewBox="0 0 14 14" fill="none" xmlns="http://www.w3.org/2000/svg">
<path d="M11.0834 2.33203C11.5298 2.33201 11.9593 2.50255 12.2841 2.80878C12.6088 3.11501 12.8043 3.53376 12.8305 3.97936L12.8334 4.08203V5.14195C12.8321 5.2995 12.7896 5.45397 12.7102 5.59005C12.6308 5.72614 12.5173 5.83911 12.3807 5.91778L12.3183 5.95161C12.1296 6.04425 11.9694 6.18616 11.8547 6.36234C11.74 6.53852 11.675 6.74242 11.6666 6.95249C11.6583 7.16256 11.7068 7.37099 11.8072 7.55573C11.9075 7.74048 12.0559 7.89468 12.2367 8.00203L12.3183 8.04578C12.5709 8.17061 12.7967 8.42845 12.8293 8.76911L12.8334 8.85545V9.91536C12.8334 10.3617 12.6629 10.7912 12.3567 11.116C12.0504 11.4408 11.6317 11.6363 11.1861 11.6624L11.0834 11.6654H2.91675C2.47038 11.6654 2.04086 11.4948 1.7161 11.1886C1.39133 10.8824 1.19585 10.4636 1.16966 10.018L1.16675 9.91536V8.85545C1.16675 8.50195 1.37208 8.22661 1.61941 8.07961L1.68183 8.04578C1.87056 7.95315 2.03075 7.81124 2.14546 7.63506C2.26017 7.45888 2.32515 7.25497 2.33352 7.0449C2.34188 6.83483 2.29333 6.62641 2.19299 6.44166C2.09265 6.25692 1.94426 6.10271 1.7635 5.99536L1.68183 5.95161C1.42925 5.82678 1.2035 5.56895 1.17083 5.22828L1.16675 5.14253V4.08203C1.16672 3.63566 1.33727 3.20615 1.6435 2.88138C1.94972 2.55661 2.36848 2.36114 2.81408 2.33495L2.91675 2.33203H11.0834ZM11.0834 3.4987H2.91675C2.77387 3.49872 2.63597 3.55117 2.5292 3.64612C2.42243 3.74106 2.35421 3.87188 2.3375 4.01378L2.33341 4.08203V4.97745C2.67901 5.17683 2.96771 5.46149 3.17193 5.80425C3.37615 6.14701 3.48907 6.53641 3.49989 6.93525C3.51072 7.33409 3.41909 7.72904 3.23376 8.08238C3.04844 8.43571 2.77561 8.73562 2.44133 8.95345L2.33341 9.01995V9.91536C2.33343 10.0582 2.38589 10.1961 2.48083 10.3029C2.57577 10.4097 2.7066 10.4779 2.8485 10.4946L2.91675 10.4987H11.0834C11.2263 10.4987 11.3642 10.4462 11.471 10.3513C11.5777 10.2563 11.6459 10.1255 11.6627 9.98361L11.6667 9.91536V9.01995C11.3212 8.82057 11.0325 8.5359 10.8282 8.19314C10.624 7.85038 10.5111 7.46098 10.5003 7.06214C10.4894 6.66331 10.5811 6.26835 10.7664 5.91502C10.9517 5.56169 11.2246 5.26178 11.5588 5.04395L11.6667 4.97745V4.08203C11.6667 3.93915 11.6143 3.80125 11.5193 3.69448C11.4244 3.58771 11.2936 3.5195 11.1517 3.50278L11.0834 3.4987ZM5.83342 5.2487C5.97629 5.24872 6.1142 5.30117 6.22097 5.39612C6.32774 5.49106 6.39595 5.62188 6.41266 5.76378L6.41675 5.83203V8.16536C6.41658 8.31404 6.35965 8.45705 6.25759 8.56516C6.15552 8.67328 6.01603 8.73834 5.8676 8.74705C5.71918 8.75576 5.57303 8.70747 5.45901 8.61204C5.345 8.51662 5.27173 8.38125 5.25417 8.23361L5.25008 8.16536V5.83203C5.25008 5.67732 5.31154 5.52895 5.42094 5.41955C5.53033 5.31016 5.67871 5.2487 5.83342 5.2487Z" fill="currentColor"/>
</svg>
