<svg width="14" height="14" viewBox="0 0 14 14" fill="none" xmlns="http://www.w3.org/2000/svg">
<g clip-path="url(#clip0_8183_165985)">
<path d="M7.00008 5.83203H2.33341C1.68908 5.83203 1.16675 6.35437 1.16675 6.9987V11.6654C1.16675 12.3097 1.68908 12.832 2.33341 12.832H7.00008C7.64441 12.832 8.16675 12.3097 8.16675 11.6654V6.9987C8.16675 6.35437 7.64441 5.83203 7.00008 5.83203Z" stroke="currentColor" stroke-width="1.05" stroke-linecap="round" stroke-linejoin="round"/>
<path d="M10.4533 8.16586L12.495 6.1242C12.7114 5.88415 12.8312 5.57241 12.8312 5.2492C12.8312 4.92598 12.7114 4.61424 12.495 4.3742L9.57833 1.5042C9.33829 1.28776 9.02655 1.16797 8.70333 1.16797C8.38012 1.16797 8.06838 1.28776 7.82833 1.5042L5.83333 3.4992M3.5 10.4992H3.50583M5.83333 8.16586H5.83917M8.75 3.4992H8.75583M10.5 5.2492H10.5058" stroke="currentColor" stroke-width="1.05" stroke-linecap="round" stroke-linejoin="round"/>
</g>
<defs>
<clipPath id="clip0_8183_165985">
<rect width="14" height="14" fill="white"/>
</clipPath>
</defs>
</svg>
