<svg width="20" height="20" viewBox="0 0 20 20" fill="none" xmlns="http://www.w3.org/2000/svg">
<path d="M10 18.6673C8.80115 18.6673 7.67448 18.4397 6.62004 17.9844C5.5656 17.5291 4.64837 16.9117 3.86837 16.1323C3.08837 15.3529 2.47102 14.4357 2.01631 13.3806C1.5616 12.3256 1.33395 11.199 1.33338 10.0006C1.3328 8.80233 1.56044 7.67567 2.01631 6.62065C2.47217 5.56563 3.08953 4.6484 3.86837 3.86898C4.64722 3.08956 5.56444 2.47221 6.62004 2.01692C7.67564 1.56163 8.8023 1.33398 10 1.33398C11.1978 1.33398 12.3244 1.56163 13.38 2.01692C14.4356 2.47221 15.3529 3.08956 16.1317 3.86898C16.9105 4.6484 17.5282 5.56563 17.9846 6.62065C18.4411 7.67567 18.6684 8.80233 18.6667 10.0006C18.665 11.199 18.4373 12.3256 17.9838 13.3806C17.5302 14.4357 16.9129 15.3529 16.1317 16.1323C15.3505 16.9117 14.4333 17.5294 13.38 17.9852C12.3267 18.4411 11.2001 18.6685 10 18.6673ZM9.13337 16.869V16.0023C8.62781 15.9301 8.14046 15.7929 7.6713 15.5906C7.20215 15.3884 6.76506 15.1429 6.36004 14.854L5.75337 15.4823C6.23004 15.8579 6.75379 16.165 7.32464 16.4036C7.89548 16.6422 8.49839 16.7973 9.13337 16.869ZM10.8667 16.869C11.5023 16.7968 12.1055 16.6416 12.6763 16.4036C13.2471 16.1655 13.7706 15.8584 14.2467 15.4823L13.64 14.854C13.2356 15.1429 12.7988 15.3884 12.3296 15.5906C11.8605 15.7929 11.3728 15.9301 10.8667 16.0023V16.869ZM10 14.334C11.1989 14.334 12.221 13.9113 13.0663 13.066C13.9116 12.2208 14.3339 11.199 14.3334 10.0006C14.3328 8.80233 13.9101 7.78054 13.0654 6.93525C12.2207 6.08996 11.1989 5.66731 10 5.66731C8.80115 5.66731 7.77935 6.08996 6.93464 6.93525C6.08993 7.78054 5.66728 8.80233 5.66671 10.0006C5.66613 11.199 6.08877 12.221 6.93464 13.0669C7.7805 13.9128 8.8023 14.3351 10 14.334ZM15.4817 14.2473C15.8573 13.7706 16.1643 13.2472 16.403 12.6769C16.6416 12.1066 16.7967 11.5034 16.8684 10.8673H16.0017C15.9295 11.3729 15.7923 11.8605 15.59 12.3302C15.3878 12.8 15.1423 13.2368 14.8534 13.6406L15.4817 14.2473ZM4.51837 14.2473L5.14671 13.619C4.85782 13.2145 4.61226 12.7812 4.41004 12.319C4.20782 11.8568 4.0706 11.3729 3.99837 10.8673H3.13171C3.20393 11.5029 3.35906 12.1058 3.59711 12.676C3.83515 13.2463 4.14224 13.7701 4.51837 14.2473ZM10 13.4673L7.40004 10.0006L10 6.53398L12.6 10.0006L10 13.4673ZM3.13171 9.13398H3.99837C4.0706 8.62842 4.20782 8.14454 4.41004 7.68231C4.61226 7.22009 4.85782 6.78676 5.14671 6.38231L4.51837 5.75398C4.14282 6.23065 3.83602 6.7544 3.59797 7.32525C3.35993 7.89609 3.20451 8.499 3.13171 9.13398ZM16.0017 9.13398H16.8684C16.7961 8.49842 16.6373 7.89551 16.3917 7.32525C16.1461 6.75498 15.8356 6.23123 15.46 5.75398L14.8534 6.36065C15.1423 6.76509 15.3878 7.20218 15.59 7.67191C15.7923 8.14165 15.9295 8.629 16.0017 9.13398ZM6.38171 5.14732C6.78615 4.85843 7.21948 4.61287 7.6817 4.41065C8.14393 4.20843 8.62781 4.0712 9.13337 3.99898V3.13232C8.49782 3.20454 7.8949 3.35996 7.32464 3.59858C6.75437 3.8372 6.23062 4.144 5.75337 4.51898L6.38171 5.14732ZM13.64 5.14732L14.2467 4.54065C13.77 4.16509 13.2466 3.85454 12.6763 3.60898C12.106 3.36343 11.5028 3.20454 10.8667 3.13232V3.99898C11.3723 4.0712 11.8599 4.20843 12.3296 4.41065C12.7994 4.61287 13.2362 4.85843 13.64 5.14732Z" fill="#51555E"/>
</svg>
