<svg width="31" height="31" viewBox="0 0 31 31" fill="none" xmlns="http://www.w3.org/2000/svg">
<g filter="url(#filter0_d_78_10506)">
<path d="M9.67647 12.1847V22.6816C9.67647 23.0296 9.54013 23.3633 9.29743 23.6094C9.05474 23.8554 8.72557 23.9937 8.38235 23.9937H5.79412C5.4509 23.9937 5.12173 23.8554 4.87904 23.6094C4.63634 23.3633 4.5 23.0296 4.5 22.6816V13.4968C4.5 13.1488 4.63634 12.8151 4.87904 12.569C5.12173 12.323 5.4509 12.1847 5.79412 12.1847H9.67647ZM9.67647 12.1847C11.0494 12.1847 12.366 11.6318 13.3368 10.6475C14.3076 9.66324 15 8.39197 15 7V5.5C15 4.80402 15.1256 4.26075 15.611 3.76861C16.0964 3.27648 16.7547 3 17.4412 3C18.1276 3 18.7859 3.27648 19.2713 3.76861C19.7567 4.26075 20 5.30402 20 6V6.77872C20 7.58985 19.9005 8.39791 19.7038 9.18481C19.5682 9.72712 19.3829 10.2558 19.1503 10.764L18.5 12.1847H23.9118C24.5982 12.1847 25.2565 12.4612 25.7419 12.9533C26.2273 13.4455 26.5 14.113 26.5 14.8089L25.2059 21.3695C25.0198 22.1744 24.6667 22.8656 24.1999 23.3389C23.7331 23.8122 23.1778 24.042 22.6176 23.9937H13.5588C12.5292 23.9937 11.5417 23.579 10.8136 22.8408C10.0855 22.1026 9.67647 21.1013 9.67647 20.0574" fill="#E80104"/>
<path d="M9.67647 12.1847V22.6816C9.67647 23.0296 9.54013 23.3633 9.29743 23.6094C9.05474 23.8554 8.72557 23.9937 8.38235 23.9937H5.79412C5.4509 23.9937 5.12173 23.8554 4.87904 23.6094C4.63634 23.3633 4.5 23.0296 4.5 22.6816V13.4968C4.5 13.1488 4.63634 12.8151 4.87904 12.569C5.12173 12.323 5.4509 12.1847 5.79412 12.1847H9.67647ZM9.67647 12.1847C11.0494 12.1847 12.366 11.6318 13.3368 10.6475C14.3076 9.66324 15 8.39197 15 7V5.5C15 4.80402 15.1256 4.26075 15.611 3.76861C16.0964 3.27648 16.7547 3 17.4412 3C18.1276 3 18.7859 3.27648 19.2713 3.76861C19.7567 4.26075 20 5.30402 20 6V6.77872C20 7.58985 19.9005 8.39791 19.7038 9.18481C19.5682 9.72712 19.3829 10.2558 19.1503 10.764L18.5 12.1847H23.9118C24.5982 12.1847 25.2565 12.4612 25.7419 12.9533C26.2273 13.4455 26.5 14.113 26.5 14.8089L25.2059 21.3695C25.0198 22.1744 24.6667 22.8656 24.1999 23.3389C23.7331 23.8122 23.1778 24.042 22.6176 23.9937H13.5588C12.5292 23.9937 11.5417 23.579 10.8136 22.8408C10.0855 22.1026 9.67647 21.1013 9.67647 20.0574" stroke="#E80104" stroke-linecap="round" stroke-linejoin="round"/>
</g>
<defs>
<filter id="filter0_d_78_10506" x="0" y="0.5" width="31" height="30" filterUnits="userSpaceOnUse" color-interpolation-filters="sRGB">
<feFlood flood-opacity="0" result="BackgroundImageFix"/>
<feColorMatrix in="SourceAlpha" type="matrix" values="0 0 0 0 0 0 0 0 0 0 0 0 0 0 0 0 0 0 127 0" result="hardAlpha"/>
<feOffset dy="2"/>
<feGaussianBlur stdDeviation="2"/>
<feComposite in2="hardAlpha" operator="out"/>
<feColorMatrix type="matrix" values="0 0 0 0 1 0 0 0 0 0.588235 0 0 0 0 0.592157 0 0 0 1 0"/>
<feBlend mode="normal" in2="BackgroundImageFix" result="effect1_dropShadow_78_10506"/>
<feBlend mode="normal" in="SourceGraphic" in2="effect1_dropShadow_78_10506" result="shape"/>
</filter>
</defs>
</svg>
