<svg width="20" height="20" viewBox="0 0 20 20" fill="none" xmlns="http://www.w3.org/2000/svg">
<path d="M1.66675 17.916H18.3334" stroke="#51555E" stroke-width="2" stroke-linecap="round" stroke-linejoin="round"/>
<path d="M2.5 8.33333C2.5 8.33333 6.27192 7.5 10 7.5C13.7281 7.5 17.5 8.33333 17.5 8.33333" stroke="#51555E" stroke-width="1.66667"/>
<path d="M2.08325 12.5C2.08325 12.5 5.83325 13.3333 9.99992 13.3333C14.1666 13.3333 17.9166 12.5 17.9166 12.5" stroke="#51555E" stroke-width="1.66667"/>
<path d="M10.0001 2.5C5.39771 2.5 1.66675 6.23096 1.66675 10.8333C1.66675 14.0869 3.1146 16.5443 5.83341 17.9167H14.1667C16.8856 16.5443 18.3334 14.0869 18.3334 10.8333C18.3334 6.23096 14.6025 2.5 10.0001 2.5Z" stroke="#51555E" stroke-width="2"/>
<path d="M9.99992 2.5C8.38909 2.5 7.08325 6.23096 7.08325 10.8333C7.08325 13.8239 7.50513 16.4465 8.33325 17.9167H11.6666C12.4947 16.4465 12.9166 13.8239 12.9166 10.8333C12.9166 6.23096 11.6108 2.5 9.99992 2.5Z" stroke="#51555E" stroke-width="1.66667"/>
</svg>
