<svg width="14"  height="14" viewBox="0 0 14 14" fill="none" xmlns="http://www.w3.org/2000/svg">
        <path
            d="M6.61192 0.425949C6.82016 0.197388 7.17984 0.197388 7.38808 0.425949L8.22271 1.34202C8.36085 1.49364 8.57465 1.55093 8.77009 1.48869L9.95094 1.11266C10.2456 1.01885 10.5571 1.19869 10.6231 1.50075L10.8879 2.7114C10.9317 2.91178 11.0882 3.06829 11.2886 3.11211L12.4993 3.37689C12.8013 3.44295 12.9812 3.75444 12.8873 4.04906L12.5113 5.22991C12.4491 5.42535 12.5064 5.63915 12.658 5.77729L13.5741 6.61192C13.8026 6.82016 13.8026 7.17984 13.5741 7.38808L12.658 8.22271C12.5064 8.36085 12.4491 8.57465 12.5113 8.77009L12.8873 9.95094C12.9812 10.2456 12.8013 10.5571 12.4993 10.6231L11.2886 10.8879C11.0882 10.9317 10.9317 11.0882 10.8879 11.2886L10.6231 12.4993C10.5571 12.8013 10.2456 12.9812 9.95094 12.8873L8.77009 12.5113C8.57465 12.4491 8.36085 12.5064 8.22271 12.658L7.38808 13.5741C7.17984 13.8026 6.82016 13.8026 6.61192 13.5741L5.77729 12.658C5.63915 12.5064 5.42535 12.4491 5.22991 12.5113L4.04906 12.8873C3.75444 12.9812 3.44295 12.8013 3.37689 12.4993L3.11211 11.2886C3.06829 11.0882 2.91178 10.9317 2.7114 10.8879L1.50075 10.6231C1.19869 10.5571 1.01885 10.2456 1.11266 9.95094L1.48869 8.77009C1.55093 8.57465 1.49364 8.36085 1.34202 8.22271L0.425949 7.38808C0.197388 7.17984 0.197388 6.82016 0.425949 6.61192L1.34202 5.77729C1.49364 5.63915 1.55093 5.42535 1.48869 5.22991L1.11266 4.04906C1.01885 3.75444 1.19869 3.44295 1.50075 3.37689L2.7114 3.11211C2.91178 3.06829 3.06829 2.91178 3.11211 2.7114L3.37689 1.50075C3.44295 1.19869 3.75444 1.01885 4.04906 1.11266L5.22991 1.48869C5.42535 1.55093 5.63915 1.49364 5.77729 1.34202L6.61192 0.425949Z"
            fill="url(#paint0_linear_2107_112657)"
        />
        <path d="M3.9375 7.4375L6.56288 9.62507" stroke="white" stroke-width="1.225" stroke-linecap="round" />
        <path d="M6.56177 9.62573L10.0619 4.81217" stroke="white" stroke-width="1.225" stroke-linecap="round" />
        <defs>
            <linearGradient
                id="paint0_linear_2107_112657"
                x1="0.525"
                y1="0.35"
                x2="13.5625"
                y2="13.5625"
                gradientUnits="userSpaceOnUse"
            >
                <stop stop-color="#00FFFF" />
                <stop offset="1" stop-color="#0004FF" />
            </linearGradient>
        </defs>
    </svg>
