<svg width="16" height="16" viewBox="0 0 16 16" fill="none" xmlns="http://www.w3.org/2000/svg">
<path d="M3.36719 3.91895H10.0645C12.5578 3.91895 14.4795 5.77349 14.4795 7.94238V8.85645C14.4795 11.0253 12.5578 12.8789 10.0645 12.8789H3.36719C2.29196 12.8788 1.51953 12.0867 1.51953 11.2275V5.57031C1.5197 4.71125 2.29207 3.91903 3.36719 3.91895Z" stroke="#51555E" stroke-width="1.44"/>
<path d="M6.05225 6.31543C6.10781 6.287 6.16726 6.28706 6.20752 6.30176L9.25635 8.01855L9.27881 8.03125L9.30322 8.04199C9.58389 8.169 9.63623 8.33958 9.63623 8.42676C9.63615 8.51398 9.58348 8.68365 9.30322 8.81055L9.29248 8.81543L9.28174 8.82129L6.21045 10.3545C6.17017 10.3705 6.10931 10.372 6.05225 10.3428C6.04538 10.3392 6.0403 10.3342 6.03564 10.3311V6.32617C6.04022 6.32314 6.0456 6.31884 6.05225 6.31543Z" fill="#51555E" stroke="#51555E" stroke-width="1.20035"/>
</svg>
