<svg width="20" height="20" viewBox="0 0 20 20" fill="none" xmlns="http://www.w3.org/2000/svg">
<g clip-path="url(#paint0_angular_428_17710_clip_path)" data-figma-skip-parse="true"><g transform="matrix(0.01 0 0 0.01 10 10)"><foreignObject x="-1100" y="-1100" width="2200" height="2200"><div  style="background:conic-gradient(from 90deg,rgba(255, 255, 255, 0) 0deg,rgba(232, 1, 4, 1) 360deg);height:100%;width:100%;opacity:1"></div></foreignObject></g></g><path d="M20 10C20 15.5228 15.5228 20 10 20C4.47715 20 0 15.5228 0 10C0 4.47715 4.47715 0 10 0C15.5228 0 20 4.47715 20 10ZM3 10C3 13.866 6.13401 17 10 17C13.866 17 17 13.866 17 10C17 6.13401 13.866 3 10 3C6.13401 3 3 6.13401 3 10Z" data-figma-gradient-fill="{&#34;type&#34;:&#34;GRADIENT_ANGULAR&#34;,&#34;stops&#34;:[{&#34;color&#34;:{&#34;r&#34;:1.0,&#34;g&#34;:1.0,&#34;b&#34;:1.0,&#34;a&#34;:0.0},&#34;position&#34;:0.0},{&#34;color&#34;:{&#34;r&#34;:0.90980392694473267,&#34;g&#34;:0.0039215688593685627,&#34;b&#34;:0.015686275437474251,&#34;a&#34;:1.0},&#34;position&#34;:1.0}],&#34;stopsVar&#34;:[{&#34;color&#34;:{&#34;r&#34;:1.0,&#34;g&#34;:1.0,&#34;b&#34;:1.0,&#34;a&#34;:0.0},&#34;position&#34;:0.0},{&#34;color&#34;:{&#34;r&#34;:0.90980392694473267,&#34;g&#34;:0.0039215688593685627,&#34;b&#34;:0.015686275437474251,&#34;a&#34;:1.0},&#34;position&#34;:1.0}],&#34;transform&#34;:{&#34;m00&#34;:20.0,&#34;m01&#34;:1.3445140996642263e-13,&#34;m02&#34;:-1.3322676295501878e-13,&#34;m10&#34;:8.3152302860108052e-14,&#34;m11&#34;:20.0,&#34;m12&#34;:-8.6597395920762210e-14},&#34;opacity&#34;:1.0,&#34;blendMode&#34;:&#34;NORMAL&#34;,&#34;visible&#34;:true}"/>
<path d="M20 10C20 10.3978 19.842 10.7794 19.5607 11.0607C19.2794 11.342 18.8978 11.5 18.5 11.5C18.1022 11.5 17.7206 11.342 17.4393 11.0607C17.158 10.7794 17 10.3978 17 10L18.5 10H20Z" fill="#E80104"/>
<defs>
<clipPath id="paint0_angular_428_17710_clip_path"><path d="M20 10C20 15.5228 15.5228 20 10 20C4.47715 20 0 15.5228 0 10C0 4.47715 4.47715 0 10 0C15.5228 0 20 4.47715 20 10ZM3 10C3 13.866 6.13401 17 10 17C13.866 17 17 13.866 17 10C17 6.13401 13.866 3 10 3C6.13401 3 3 6.13401 3 10Z"/></clipPath></defs>
</svg>
