<svg  width="16" height="16" viewBox="0 0 16 16" fill="none" xmlns="http://www.w3.org/2000/svg">
        <path
            d="M12.375 6C13.8247 6 15 7.17525 15 8.625V12.375C15 13.8247 13.8247 15 12.375 15H3.625C2.17525 15 1 13.8247 1 12.375V8.625C1 7.17525 2.17525 6 3.625 6H12.375ZM8 9.125C7.51675 9.125 7.125 9.51675 7.125 10V10.625C7.125 11.1082 7.51675 11.5 8 11.5C8.48325 11.5 8.875 11.1082 8.875 10.625V10C8.875 9.51675 8.48325 9.125 8 9.125Z"
            fill="#A0A8B4"
        />
        <path
            d="M4.2002 5C4.2002 3.17747 5.67747 1.7002 7.5 1.7002H8.5C10.3225 1.70019 11.7998 3.17747 11.7998 5V7.7373L4.2002 7.7373V5Z"
            stroke="#A0A8B4"
            stroke-width="1.4"
        />
    </svg>
