<svg width="14" height="14" viewBox="0 0 14 14" fill="none" xmlns="http://www.w3.org/2000/svg">
<path d="M14 7C14 10.866 10.866 14 7 14C3.13401 14 0 10.866 0 7C0 3.13401 3.13401 0 7 0C10.866 0 14 3.13401 14 7ZM1.4 7C1.4 10.0928 3.90721 12.6 7 12.6C10.0928 12.6 12.6 10.0928 12.6 7C12.6 3.90721 10.0928 1.4 7 1.4C3.90721 1.4 1.4 3.90721 1.4 7Z" fill="#C4C4C4"/>
<path d="M5.15503 5.52539H8.84448C9.46869 5.52539 9.97437 6.03107 9.97437 6.65527V8.34473C9.97437 8.96893 9.46868 9.47461 8.84448 9.47461H5.15503C4.53083 9.47461 4.02515 8.96893 4.02515 8.34473V6.65527C4.02515 6.03107 4.53083 5.52539 5.15503 5.52539Z" stroke="#C4C4C4" stroke-width="1.05"/>
<path d="M6.71715 6.8176C6.73214 6.67265 6.85428 6.5625 7 6.5625C7.14572 6.5625 7.26786 6.67265 7.28285 6.8176L7.39248 7.87732C7.41656 8.11006 7.23398 8.3125 7 8.3125C6.76602 8.3125 6.58344 8.11006 6.60752 7.87732L6.71715 6.8176Z" fill="#C4C4C4"/>
<path d="M9.18738 5.15047C9.22563 4.82986 9.19639 4.50453 9.10163 4.19658C9.00688 3.88863 8.84883 3.60527 8.63823 3.36575C8.42763 3.12622 8.1694 2.93615 7.88109 2.80843C7.59278 2.68071 7.28113 2.61835 6.96732 2.62556C6.65351 2.63278 6.34488 2.70941 6.0624 2.85025C5.77991 2.99109 5.5302 3.19285 5.3302 3.44181C5.1302 3.69078 4.98461 3.98112 4.90332 4.29312C4.82203 4.60512 4.80693 4.93147 4.85906 5.25L5.61406 5.11915C5.58017 4.9121 5.58998 4.69997 5.64282 4.49717C5.69566 4.29437 5.7903 4.10565 5.92029 3.94382C6.05029 3.782 6.21261 3.65086 6.39622 3.55931C6.57983 3.46776 6.78044 3.41795 6.98442 3.41326C7.1884 3.40857 7.39097 3.44911 7.57837 3.53213C7.76577 3.61514 7.93362 3.73869 8.07051 3.89438C8.20741 4.05007 8.31014 4.23425 8.37173 4.43442C8.43332 4.63459 8.45232 4.84606 8.42746 5.05445L9.18738 5.15047Z" fill="#C4C4C4"/>
</svg>
