<svg width="14" height="14" viewBox="0 0 14 14" fill="none" xmlns="http://www.w3.org/2000/svg">
<g clip-path="url(#clip0_1_18153)">
<path d="M2.91699 0.702026C4.14688 0.731788 5.13453 1.73652 5.13477 2.97351V12.5165C5.13477 12.9512 4.78233 13.3036 4.34766 13.3036H1.4873C1.05263 13.3036 0.700195 12.9512 0.700195 12.5165V2.97351C0.700435 1.73687 1.6876 0.732339 2.91699 0.702026Z" stroke="#3C4851" stroke-width="1.4"/>
<path d="M9.99789 6.12645C10.2225 6.51546 10.784 6.51546 11.0086 6.12645L13.0299 2.62543C13.2545 2.23643 12.9737 1.75017 12.5245 1.75017H8.4819C8.03272 1.75017 7.75198 2.23642 7.97657 2.62543L9.99789 6.12645Z" fill="#3C4851"/>
<path d="M9.99789 7.87697C10.2225 7.48796 10.784 7.48796 11.0086 7.87697L13.0299 11.378C13.2545 11.767 12.9737 12.2532 12.5245 12.2532H8.4819C8.03272 12.2532 7.75198 11.767 7.97657 11.378L9.99789 7.87697Z" fill="#3C4851"/>
</g>
<defs>
<clipPath id="clip0_1_18153">
<rect width="14.0041" height="14.0041" fill="white"/>
</clipPath>
</defs>
</svg>
