<svg width="14" height="14" viewBox="0 0 14 14" fill="none" xmlns="http://www.w3.org/2000/svg">
<path d="M2.12891 7.70203H2.53906C3.22759 7.70203 3.96777 8.39758 3.96777 9.4989V12.7557C3.96784 12.9655 4.02813 13.1481 4.10938 13.3036H2.33105C2.3222 13.3033 2.30563 13.3023 2.2832 13.3007C2.23798 13.2974 2.16855 13.2913 2.08398 13.2772C1.91114 13.2484 1.6917 13.1914 1.48047 13.0858C1.27176 12.9815 1.08407 12.8359 0.947266 12.6307C0.813403 12.4299 0.700195 12.1308 0.700195 11.6698V9.4989C0.700195 8.39758 1.44038 7.70203 2.12891 7.70203Z" stroke="#3C4851" stroke-width="1.4"/>
<path d="M8.29688 0.700195H9.21973C11.4512 0.700195 13.3096 2.59485 13.3096 4.99414V11.5068C13.3096 12.5269 12.5239 13.3035 11.6152 13.3037H4.67383C4.4374 13.3037 4.36178 13.2538 4.34863 13.2441C4.33987 13.2377 4.30398 13.2106 4.26855 13.084C4.2299 12.9458 4.2089 12.7488 4.20312 12.4648C4.19715 12.1707 4.20703 11.8852 4.20703 11.5068V4.99414C4.20703 2.59485 6.06541 0.700195 8.29688 0.700195Z" stroke="#3C4851" stroke-width="1.4"/>
</svg>
