<svg width="18" height="19" viewBox="0 0 18 19" fill="none" xmlns="http://www.w3.org/2000/svg">
<path d="M16.6661 18.3333H4.16607C3.97993 18.3334 3.79912 18.2712 3.65246 18.1566C3.50581 18.0419 3.40176 17.8815 3.3569 17.7008L0.0243997 4.27917C-0.00225988 4.17143 -0.00713099 4.05946 0.0100723 3.94982C0.0272755 3.84017 0.0662065 3.73507 0.12458 3.64068C0.182954 3.54629 0.259595 3.46451 0.350004 3.40014C0.440414 3.33577 0.54277 3.29011 0.651066 3.26583L3.33273 2.66667V0.833333C3.33273 0.61232 3.42053 0.400358 3.57681 0.244078C3.73309 0.0877974 3.94505 0 4.16607 0H16.6661C16.8871 0 17.099 0.0877974 17.2553 0.244078C17.4116 0.400358 17.4994 0.61232 17.4994 0.833333V17.5C17.4994 17.721 17.4116 17.933 17.2553 18.0893C17.099 18.2455 16.8871 18.3333 16.6661 18.3333ZM4.9994 1.66667V16.6667H15.8327V1.66667H4.9994ZM3.33273 4.37417L1.84773 4.7075L3.33273 10.6875V4.37417ZM14.1661 15.8333C13.9451 15.8333 13.7331 15.7455 13.5768 15.5893C13.4205 15.433 13.3327 15.221 13.3327 15V13.3333C13.3327 13.1123 13.4205 12.9004 13.5768 12.7441C13.7331 12.5878 13.9451 12.5 14.1661 12.5C14.3871 12.5 14.599 12.5878 14.7553 12.7441C14.9116 12.9004 14.9994 13.1123 14.9994 13.3333V15C14.9994 15.221 14.9116 15.433 14.7553 15.5893C14.599 15.7455 14.3871 15.8333 14.1661 15.8333ZM10.4161 12.5C10.2938 12.5001 10.173 12.4732 10.0622 12.4214C9.95148 12.3695 9.85349 12.294 9.77523 12.2L7.6919 9.7C7.56696 9.5502 7.49853 9.36131 7.49853 9.16625C7.49853 8.97119 7.56696 8.7823 7.6919 8.6325L9.77523 6.1325C9.85344 6.03872 9.9513 5.96327 10.0619 5.91149C10.1725 5.85971 10.2931 5.83288 10.4152 5.83288C10.5373 5.83288 10.658 5.85971 10.7686 5.91149C10.8792 5.96327 10.977 6.03872 11.0552 6.1325L13.1386 8.6325C13.2635 8.7823 13.3319 8.97119 13.3319 9.16625C13.3319 9.36131 13.2635 9.5502 13.1386 9.7L11.0552 12.2C10.9772 12.2937 10.8794 12.3692 10.769 12.421C10.6585 12.4729 10.5381 12.4998 10.4161 12.5ZM10.4161 7.9675L9.41607 9.16667L10.4161 10.365L11.4161 9.16667L10.4161 7.9675ZM6.66607 5.83333C6.44505 5.83333 6.23309 5.74554 6.07681 5.58926C5.92053 5.43298 5.83273 5.22101 5.83273 5V3.33333C5.83273 3.11232 5.92053 2.90036 6.07681 2.74408C6.23309 2.5878 6.44505 2.5 6.66607 2.5C6.88708 2.5 7.09904 2.5878 7.25532 2.74408C7.4116 2.90036 7.4994 3.11232 7.4994 3.33333V5C7.4994 5.22101 7.4116 5.43298 7.25532 5.58926C7.09904 5.74554 6.88708 5.83333 6.66607 5.83333Z" fill="#51555E"/>
</svg>
