<svg width="22" height="15" viewBox="-1 0 22 15" fill="none" xmlns="http://www.w3.org/2000/svg">
<path d="M3.98985 0.235128C4.1303 0.379701 4.2092 0.575675 4.2092 0.780005C4.2092 0.984334 4.1303 1.18031 3.98985 1.32488C3.2005 2.13634 2.57436 3.09969 2.14717 4.15992C1.71998 5.22015 1.5001 6.3565 1.5001 7.5041C1.5001 8.65169 1.71998 9.78804 2.14717 10.8483C2.57436 11.9085 3.2005 12.8719 3.98985 13.6833C4.13055 13.828 4.2096 14.0241 4.2096 14.2287C4.2096 14.4333 4.13055 14.6294 3.98985 14.7741C3.84915 14.9187 3.65832 15 3.45934 15C3.26036 15 3.06952 14.9187 2.92882 14.7741C-0.976274 10.7595 -0.976274 4.24974 2.92882 0.235128C3.06945 0.0907352 3.26008 0.0096313 3.45884 0.0096313C3.65759 0.0096313 3.84822 0.0907352 3.98885 0.235128H3.98985ZM17.0712 0.235128C20.9763 4.24974 20.9763 10.7595 17.0712 14.7741C16.929 14.9103 16.7409 14.9844 16.5466 14.9809C16.3523 14.9774 16.1669 14.8965 16.0295 14.7552C15.8921 14.6139 15.8134 14.4233 15.81 14.2236C15.8065 14.0238 15.8787 13.8305 16.0112 13.6843C16.8005 12.8729 17.4266 11.9095 17.8538 10.8493C18.281 9.78907 18.5009 8.65272 18.5009 7.50512C18.5009 6.35753 18.281 5.22118 17.8538 4.16095C17.4266 3.10071 16.8005 2.13737 16.0112 1.32591C15.9395 1.25482 15.8823 1.16976 15.843 1.07571C15.8036 0.981659 15.7829 0.880492 15.782 0.778113C15.781 0.675734 15.8 0.574194 15.8376 0.479416C15.8753 0.384639 15.931 0.298523 16.0014 0.226093C16.0717 0.153663 16.1555 0.0963694 16.2476 0.0575555C16.3398 0.0187417 16.4385 -0.000815034 16.5381 2.60191e-05C16.6377 0.000867072 16.7361 0.0220892 16.8276 0.0624543C16.9192 0.102819 17.002 0.161519 17.0712 0.235128ZM6.81792 3.14251C6.88762 3.21411 6.94291 3.29914 6.98063 3.39272C7.01835 3.4863 7.03777 3.5866 7.03777 3.6879C7.03777 3.7892 7.01835 3.8895 6.98063 3.98308C6.94291 4.07666 6.88762 4.16169 6.81792 4.23329C6.40004 4.66289 6.06856 5.17289 5.8424 5.73418C5.61625 6.29548 5.49985 6.89707 5.49985 7.50461C5.49985 8.11215 5.61625 8.71374 5.8424 9.27504C6.06856 9.83633 6.40004 10.3463 6.81792 10.7759C6.9504 10.9221 7.02253 11.1154 7.0191 11.3152C7.01567 11.5149 6.93696 11.7055 6.79954 11.8468C6.66213 11.9881 6.47674 12.069 6.28243 12.0725C6.08812 12.076 5.90007 12.0019 5.75789 11.8657C4.63273 10.7089 4.00063 9.13999 4.00063 7.5041C4.00063 5.8682 4.63273 4.2993 5.75789 3.14251C5.89852 2.99812 6.08915 2.91701 6.28791 2.91701C6.48666 2.91701 6.67729 2.99812 6.81792 3.14251ZM14.2431 3.14251C14.8004 3.71531 15.2424 4.39536 15.544 5.14382C15.8456 5.89227 16.0009 6.69447 16.0009 7.50461C16.0009 8.31475 15.8456 9.11695 15.544 9.8654C15.2424 10.6139 14.8004 11.2939 14.2431 11.8667C14.1024 12.0114 13.9116 12.0926 13.7126 12.0926C13.5136 12.0926 13.3228 12.0114 13.1821 11.8667C13.0414 11.7221 12.9623 11.5259 12.9623 11.3213C12.9623 11.1168 13.0414 10.9206 13.1821 10.7759C13.6 10.3463 13.9314 9.83633 14.1576 9.27504C14.3838 8.71374 14.5002 8.11215 14.5002 7.50461C14.5002 6.89707 14.3838 6.29548 14.1576 5.73418C13.9314 5.17289 13.6 4.66289 13.1821 4.23329C13.0496 4.08713 12.9775 3.8938 12.9809 3.69405C12.9843 3.49429 13.063 3.3037 13.2005 3.16243C13.3379 3.02116 13.5233 2.94024 13.7176 2.93672C13.9119 2.93319 14.0999 3.00734 14.2421 3.14354L14.2431 3.14251ZM10 5.96251C10.3978 5.96251 10.7794 6.12498 11.0607 6.41418C11.342 6.70338 11.5 7.09562 11.5 7.50461C11.5 7.9136 11.342 8.30584 11.0607 8.59504C10.7794 8.88424 10.3978 9.04671 10 9.04671C9.60217 9.04671 9.22063 8.88424 8.93931 8.59504C8.658 8.30584 8.49996 7.9136 8.49996 7.50461C8.49996 7.09562 8.658 6.70338 8.93931 6.41418C9.22063 6.12498 9.60217 5.96251 10 5.96251Z" fill="#51555E"/>
</svg>
