<svg width="20" height="20" viewBox="0 0 20 20" fill="none" xmlns="http://www.w3.org/2000/svg">
<path d="M12.0625 17C12.0625 18.1046 11.4432 19 10.0625 19C8.68179 19 8.0625 18.1046 8.0625 17" stroke="#51555E" stroke-width="2"/>
<path d="M9.43457 5H10.6934C13.5204 5.00006 15.7852 7.34249 15.6904 10.168L15.6172 12.3594C15.5744 13.6364 15.9942 14.8862 16.7998 15.8779C16.8168 15.8988 16.8179 15.9104 16.8184 15.915C16.8192 15.924 16.818 15.9392 16.8096 15.957C16.801 15.975 16.7898 15.9862 16.7822 15.9912C16.7783 15.9938 16.7689 16 16.7422 16H3.30078C3.28614 16 3.2782 15.9979 3.27539 15.9971C3.27238 15.9961 3.2698 15.9947 3.26758 15.9932C3.26229 15.9895 3.25336 15.9805 3.24609 15.9648C3.2386 15.9486 3.23756 15.935 3.23828 15.9287C3.23861 15.9262 3.23903 15.9237 3.24023 15.9209C3.24145 15.9181 3.24551 15.9114 3.25488 15.9004C4.10414 14.9061 4.55078 13.6301 4.50781 12.3232L4.43652 10.1641C4.34381 7.33989 6.60883 5 9.43457 5Z" stroke="#51555E" stroke-width="2"/>
<path d="M10.0625 1C11.1671 1 12.0625 1.89543 12.0625 3C12.0625 4.10457 11.1671 5 10.0625 5C8.95793 5 8.0625 4.10457 8.0625 3C8.0625 1.89543 8.95793 1 10.0625 1Z" stroke="#51555E" stroke-width="2"/>
</svg>
