<svg width="24" height="24" viewBox="0 0 24 24" fill="none" xmlns="http://www.w3.org/2000/svg">
<path d="M20.9099 11.1203C20.9099 16.0103 17.3599 20.5903 12.5099 21.9303C12.1799 22.0203 11.8198 22.0203 11.4898 21.9303C6.63984 20.5903 3.08984 16.0103 3.08984 11.1203V6.73031C3.08984 5.91031 3.70986 4.98031 4.47986 4.67031L10.0498 2.39031C11.2998 1.88031 12.7098 1.88031 13.9598 2.39031L19.5298 4.67031C20.2898 4.98031 20.9199 5.91031 20.9199 6.73031L20.9099 11.1203Z" fill="#6D7D98"/>
<path fill-rule="evenodd" clip-rule="evenodd" d="M16.5149 8.39491C16.9595 8.88636 16.9216 9.64521 16.4301 10.0899L11.7406 14.3327C11.2836 14.7463 10.5875 14.7463 10.1304 14.3327L7.39491 11.8577C6.90347 11.4131 6.86552 10.6542 7.31017 10.1628C7.75481 9.67132 8.51366 9.63338 9.00511 10.078L10.9355 11.8246L14.8199 8.31017C15.3114 7.86552 16.0702 7.90347 16.5149 8.39491Z" fill="white"/>
</svg>
