<svg width="16" height="16" viewBox="0 0 16 16" fill="none" xmlns="http://www.w3.org/2000/svg">
<g clip-path="url(#clip0_1210_263)">
<path fill-rule="evenodd" clip-rule="evenodd" d="M8.25042 1.46309C8.25827 1.55756 8.24729 1.65265 8.2181 1.7429C8.1889 1.83315 8.14207 1.91681 8.08029 1.98907C8.0185 2.06134 7.94297 2.1208 7.85802 2.16405C7.77306 2.20731 7.68035 2.2335 7.58519 2.24114C6.50835 2.32917 5.47757 2.71361 4.60866 3.35127C3.73975 3.98893 3.06714 4.85455 2.6664 5.85086C2.26566 6.84718 2.15267 7.93471 2.34013 8.99127C2.52759 10.0478 3.00807 11.0316 3.72758 11.8319C4.44709 12.6323 5.37712 13.2176 6.41319 13.522C7.44925 13.8264 8.55029 13.838 9.5926 13.5553C10.6349 13.2727 11.5772 12.707 12.3135 11.9219C13.0499 11.1368 13.5512 10.1634 13.7611 9.11098C13.7796 9.01808 13.8164 8.92972 13.8694 8.85095C13.9223 8.77217 13.9903 8.70452 14.0696 8.65186C14.1489 8.59919 14.2378 8.56255 14.3314 8.54401C14.4249 8.52548 14.5212 8.52542 14.6148 8.54384C14.7083 8.56226 14.7973 8.59879 14.8766 8.65136C14.956 8.70392 15.0241 8.77149 15.0772 8.8502C15.1302 8.92891 15.1671 9.01723 15.1858 9.1101C15.2044 9.20297 15.2045 9.29859 15.1859 9.39148C14.9234 10.7069 14.2967 11.9236 13.3762 12.9048C12.4556 13.8861 11.2778 14.593 9.97489 14.9462C8.67202 15.2994 7.29578 15.2848 6.00077 14.9042C4.70576 14.5236 3.54331 13.7919 2.644 12.7915C1.7447 11.791 1.14417 10.5614 0.909902 9.2407C0.67563 7.92004 0.816891 6.56067 1.31781 5.31533C1.81874 4.06999 2.65948 2.98801 3.74557 2.19095C4.83167 1.3939 6.12009 0.913348 7.46609 0.803289C7.56124 0.795389 7.65702 0.806197 7.74796 0.835093C7.8389 0.86399 7.9232 0.910408 7.99606 0.971691C8.06891 1.03297 8.12887 1.10792 8.17252 1.19224C8.21617 1.27656 8.24264 1.3686 8.25042 1.46309Z" fill="#51555E"/>
<path fill-rule="evenodd" clip-rule="evenodd" d="M7.42923 4.39218C7.49862 4.57179 7.49383 4.7716 7.41594 4.94769C7.33804 5.12378 7.1934 5.26172 7.01382 5.3312C6.58231 5.49832 6.19697 5.76611 5.88989 6.11228C5.5828 6.45844 5.36285 6.87296 5.24836 7.32132C5.13387 7.76968 5.12815 8.2389 5.23167 8.68992C5.33519 9.14093 5.54496 9.56069 5.84351 9.91424C6.14206 10.2678 6.52076 10.5449 6.94807 10.7225C7.37537 10.9001 7.83892 10.9731 8.30012 10.9353C8.76132 10.8975 9.20683 10.7501 9.59953 10.5053C9.99224 10.2606 10.3208 9.92551 10.5578 9.52809C10.6052 9.44326 10.669 9.36879 10.7456 9.30908C10.8223 9.24937 10.9101 9.20564 11.0039 9.18048C11.0977 9.15531 11.1956 9.14922 11.2918 9.16257C11.388 9.17591 11.4806 9.20843 11.564 9.25818C11.6475 9.30793 11.7201 9.37392 11.7775 9.45223C11.835 9.53054 11.8762 9.61958 11.8986 9.71409C11.9211 9.80859 11.9243 9.90664 11.9082 10.0024C11.8921 10.0982 11.8569 10.1898 11.8048 10.2718C11.4493 10.868 10.9565 11.3708 10.3674 11.7381C9.77832 12.1054 9.11 12.3266 8.41811 12.3833C7.72622 12.4401 7.03078 12.3307 6.38973 12.0643C5.74867 11.7978 5.18055 11.3821 4.73268 10.8517C4.28481 10.3213 3.97016 9.69152 3.81492 9.01488C3.65969 8.33825 3.66837 7.63432 3.84025 6.96172C4.01212 6.28912 4.34222 5.66732 4.80303 5.14811C5.26385 4.62889 5.84205 4.2273 6.48948 3.97677C6.57846 3.9423 6.67336 3.92571 6.76875 3.92793C6.86415 3.93016 6.95817 3.95116 7.04544 3.98974C7.13271 4.02831 7.21153 4.08371 7.27738 4.15277C7.34323 4.22182 7.39483 4.30317 7.42923 4.39218Z" fill="#51555E"/>
<path fill-rule="evenodd" clip-rule="evenodd" d="M11.1555 5.39095C11.2175 5.46343 11.2646 5.54741 11.2941 5.6381C11.3236 5.72879 11.335 5.8244 11.3276 5.91949C11.3202 6.01458 11.2941 6.10727 11.2509 6.19228C11.2076 6.27729 11.1481 6.35295 11.0756 6.41494L8.53377 8.59363C8.46129 8.65562 8.37731 8.70273 8.28662 8.73227C8.19593 8.7618 8.10032 8.77318 8.00523 8.76577C7.91014 8.75835 7.81745 8.73227 7.73244 8.68903C7.64743 8.64579 7.57177 8.58623 7.50978 8.51375C7.44779 8.44127 7.40068 8.35729 7.37115 8.2666C7.34161 8.17591 7.33023 8.0803 7.33765 7.98521C7.34507 7.89012 7.37114 7.79743 7.41438 7.71242C7.45762 7.62741 7.51719 7.55175 7.58967 7.48976L10.1315 5.31107C10.204 5.24907 10.2879 5.20196 10.3786 5.17242C10.4693 5.14288 10.5649 5.1315 10.66 5.13892C10.7551 5.14634 10.8478 5.17241 10.9328 5.21566C11.0178 5.2589 11.0935 5.31847 11.1555 5.39095Z" fill="#51555E"/>
<path d="M7.69872 7.31641C7.84178 7.31641 7.98343 7.34458 8.1156 7.39933C8.24776 7.45407 8.36785 7.53431 8.46901 7.63547C8.57016 7.73662 8.6504 7.85671 8.70515 7.98888C8.75989 8.12104 8.78807 8.2627 8.78807 8.40575C8.78807 8.54881 8.75989 8.69046 8.70515 8.82263C8.6504 8.9548 8.57016 9.07488 8.46901 9.17604C8.36785 9.2772 8.24776 9.35744 8.1156 9.41218C7.98343 9.46693 7.84178 9.4951 7.69872 9.4951C7.40981 9.4951 7.13273 9.38033 6.92844 9.17604C6.72415 8.97175 6.60938 8.69467 6.60938 8.40575C6.60938 8.11684 6.72415 7.83976 6.92844 7.63547C7.13273 7.43118 7.40981 7.31641 7.69872 7.31641Z" fill="#51555E"/>
<path fill-rule="evenodd" clip-rule="evenodd" d="M11.422 5.14885L12.1881 5.49453L12.5556 5.23236C12.3439 5.10061 12.1604 4.92823 12.0157 4.72518C11.871 4.52213 11.7679 4.29243 11.7125 4.04933L11.345 4.3115L11.422 5.14885ZM12.2041 1.91494C12.2646 1.87183 12.335 1.84489 12.4088 1.83667C12.4826 1.82844 12.5573 1.83921 12.6258 1.86795C12.6942 1.89668 12.7542 1.94244 12.8 2.00087C12.8458 2.05929 12.8759 2.12846 12.8875 2.2018L13.1228 3.69638C13.1333 3.76318 13.1591 3.82663 13.1983 3.88171C13.2375 3.93679 13.289 3.98199 13.3487 4.01375L14.6849 4.72255C14.7505 4.75732 14.8061 4.80827 14.8464 4.87055C14.8868 4.93284 14.9106 5.0044 14.9155 5.07845C14.9205 5.1525 14.9064 5.22658 14.8747 5.29368C14.843 5.36078 14.7947 5.41867 14.7343 5.46185L12.5556 7.01599C12.4936 7.06029 12.4211 7.08755 12.3453 7.09507C12.2695 7.10259 12.193 7.0901 12.1235 7.05884L10.2847 6.22948C10.2144 6.1978 10.1538 6.14804 10.109 6.08527C10.0642 6.02249 10.0369 5.94896 10.0298 5.87217L9.8446 3.86342C9.83762 3.78743 9.85072 3.71095 9.88258 3.64162C9.91444 3.57229 9.96395 3.51254 10.0262 3.46835L12.2041 1.91494Z" fill="#51555E"/>
</g>
<defs>
<clipPath id="clip0_1210_263">
<rect width="16" height="16" fill="white"/>
</clipPath>
</defs>
</svg>
