<svg width="20" height="20" viewBox="0 0 20 20" fill="none" xmlns="http://www.w3.org/2000/svg">
<g clip-path="url(#clip0_190_9449)">
<path d="M14.7506 7.81375C13.6474 6.70117 12.6861 6.01085 14.6574 3.57279C16.629 1.13182 17.9293 3.01633 18.9993 4.09601C20.2348 5.34246 19.0419 9.96311 14.4635 14.5196C9.88543 19.0721 5.26446 20.2321 4.0322 18.986C2.9622 17.906 1.09156 16.5886 3.54059 14.6299C5.98995 12.6725 6.66898 13.6431 7.7722 14.756C8.54285 15.536 10.5064 13.9225 12.2019 12.2357C13.8993 10.5476 15.5209 8.59214 14.7506 7.81375ZM4.17865 9.75988C4.38059 8.47859 4.99994 7.14085 6.06382 6.07375C7.12898 5.00666 8.46382 4.38601 9.74349 4.18408C9.74349 4.18408 10.2541 4.10537 10.6132 4.46472C10.9822 4.83343 10.9977 5.4702 10.6099 5.85956C10.3799 6.09117 10.0551 6.13859 10.0551 6.13859C9.42349 6.25666 8.47317 6.45859 7.45962 7.47343C6.44769 8.48827 6.24769 9.44182 6.12962 10.0754C6.12962 10.0754 6.0793 10.3999 5.85059 10.6286C5.46317 11.0179 4.82607 11.0021 4.45769 10.6331C4.09995 10.2738 4.17865 9.75988 4.17865 9.75988Z" fill="#51555E"/>
<path d="M3.54542 3.55106C6.43735 0.654604 9.40477 0.38654 10.8783 0.599443C10.8783 0.599443 11.2677 0.651378 11.5054 0.889443C11.8774 1.26299 11.9012 1.89493 11.5022 2.29202C11.149 2.64654 10.6099 2.55686 10.6099 2.55686C8.90509 2.29686 6.79929 3.09106 4.94155 4.95073C3.08638 6.81041 2.29542 8.92235 2.55219 10.632C2.55219 10.632 2.64219 11.174 2.28929 11.5285C2.10371 11.7136 1.85243 11.8179 1.59028 11.8185C1.32812 11.8191 1.07636 11.716 0.889934 11.5317C0.651869 11.2911 0.599933 10.9017 0.599933 10.9017C0.387352 9.42299 0.655094 6.44944 3.54542 3.55106Z" fill="#51555E"/>
</g>
<defs>
<clipPath id="clip0_190_9449">
<rect width="20" height="20" fill="white" transform="matrix(-1 0 0 1 20 0)"/>
</clipPath>
</defs>
</svg>
