<svg width="20" height="20" viewBox="0 0 20 20" fill="none" xmlns="http://www.w3.org/2000/svg">
<g clip-path="url(#clip0_190_9455)">
<path d="M5.5541 10.6074C5.55043 12.0512 5.7288 13.1272 2.85609 13.4362C-0.0187194 13.7468 0.358463 11.6709 0.362415 10.2701C0.366842 8.65281 4.15131 6.41285 10.1038 6.41714C16.0535 6.42375 19.8243 8.67265 19.818 10.2876C19.8138 11.6886 20.1778 13.7654 17.3051 13.4507C14.433 13.135 14.6212 12.0597 14.6251 10.6157C14.6295 9.60521 12.2982 9.38106 10.0943 9.37909C7.8882 9.37671 5.55765 9.59818 5.5541 10.6074Z" fill="#C4C4C4"/>
</g>
<defs>
<clipPath id="clip0_190_9455">
<rect width="20" height="20" fill="white" transform="matrix(-1 0 0 1 20 0)"/>
</clipPath>
</defs>
</svg>
