<svg width="18" height="12" viewBox="0 0 18 12" fill="none" xmlns="http://www.w3.org/2000/svg">
<path d="M2.28305 8.34314C2.59456 8.34314 2.77261 8.16508 2.77261 7.85357V4.13979C2.77261 3.82827 2.59456 3.65022 2.28305 3.65022H0V8.34345L2.28305 8.34314ZM6.6518 5.9902C6.6518 7.00791 7.37666 7.87887 8.32416 8.10784V3.89184C7.84724 3.99728 7.42096 4.26322 7.11656 4.64521C6.81217 5.02719 6.64811 5.50177 6.6518 5.9902ZM9.34788 8.10816C10.3017 7.87919 11.0076 7.00822 11.0202 5.99051C11.0266 4.97312 10.3083 4.12113 9.34788 3.89216V8.10816ZM15.4273 3.65054C15.1157 3.65054 14.9377 3.82859 14.9377 4.1401V7.85389C14.9377 8.1654 15.1157 8.34345 15.4273 8.34345H17.7103V3.65022L15.4273 3.65054ZM17.7103 9.36717H15.408C14.4671 9.36717 13.914 8.81373 13.914 7.87255V4.12081C13.914 3.17963 14.4671 2.6265 15.4083 2.6265H17.7103V1.97122C17.7103 0.66129 17.0427 0 15.7135 0H9.34788V2.93169C10.8359 3.17331 11.9361 4.43865 11.9551 5.99684C11.9741 7.56736 10.8422 8.83302 9.34788 9.07464V12H15.7135C17.0427 12 17.7103 11.3384 17.7103 10.0285V9.36717ZM0 9.36717V10.0281C0 11.3384 0.673941 11.9997 1.99684 11.9997H8.32385V9.07432C6.83586 8.83934 5.71664 7.57369 5.71664 5.99684C5.71664 4.43232 6.83586 3.14769 8.32385 2.91904V0H1.99684C0.673624 0 0 0.654965 0 1.97122V2.6265H2.30202C3.2432 2.6265 3.79633 3.17963 3.79633 4.12081V7.87255C3.79633 8.81373 3.24288 9.36717 2.30202 9.36717H0Z" fill="#E80104"/>
</svg>
