<svg width="20" height="20" viewBox="0 0 20 20" fill="none" xmlns="http://www.w3.org/2000/svg">
<path d="M7.75146 13.0596C7.75146 13.4869 8.2242 13.745 8.58365 13.5139L13.3461 10.4524C13.6768 10.2398 13.6768 9.75632 13.3461 9.54371L8.58365 6.48215C8.2242 6.25107 7.75146 6.50916 7.75146 6.93648V13.0596ZM10.002 19C8.75668 19 7.58643 18.7635 6.49119 18.2906C5.39595 17.8177 4.44325 17.1765 3.63307 16.3669C2.8229 15.5574 2.18166 14.6046 1.70935 13.5088C1.23705 12.413 1.0006 11.2427 1 9.99804C0.999401 8.75338 1.23585 7.58312 1.70935 6.48728C2.18286 5.39145 2.8241 4.43874 3.63307 3.62916C4.44205 2.81959 5.39475 2.17835 6.49119 1.70545C7.58763 1.23255 8.75788 0.996094 10.002 0.996094C11.246 0.996094 12.4163 1.23255 13.5127 1.70545C14.6091 2.17835 15.5619 2.81959 16.3708 3.62916C17.1798 4.43874 17.8213 5.39145 18.2954 6.48728C18.7696 7.58312 19.0057 8.75338 19.0039 9.99804C19.0021 11.2427 18.7656 12.413 18.2945 13.5088C17.8234 14.6046 17.1822 15.5574 16.3708 16.3669C15.5595 17.1765 14.6067 17.818 13.5127 18.2915C12.4187 18.765 11.2484 19.0012 10.002 19ZM10.002 17.1996C12.0124 17.1996 13.7153 16.502 15.1106 15.1067C16.5059 13.7113 17.2035 12.0085 17.2035 9.99804C17.2035 7.98761 16.5059 6.28474 15.1106 4.88944C13.7153 3.49413 12.0124 2.79648 10.002 2.79648C7.99152 2.79648 6.28865 3.49413 4.89334 4.88944C3.49804 6.28474 2.80039 7.98761 2.80039 9.99804C2.80039 12.0085 3.49804 13.7113 4.89334 15.1067C6.28865 16.502 7.99152 17.1996 10.002 17.1996Z" fill="#495266"/>
</svg>
