<svg width="32" height="34" viewBox="4 0 32 34" overflow="visible" fill="none" xmlns="http://www.w3.org/2000/svg">
<path d="M9 18L8 20" stroke="#FFC31D" stroke-linecap="round"/>
<path d="M18.459 18.0003L19.1346 19.4749" stroke="#E80104" stroke-linecap="round"/>
<path d="M14.4424 15.4937L13.0001 16.0088" stroke="#78E100" stroke-width="1.5" stroke-linecap="round"/>
<path d="M22.4424 16.4937L21.0001 17.0088" stroke="#9333EA" stroke-linecap="round"/>
<path d="M31.0606 18.5792L33.1043 19.4864" stroke="#2563EB" stroke-width="1.5" stroke-linecap="round"/>
<path d="M10 20C10 19.4477 10.4477 19 11 19H29C29.5523 19 30 19.4477 30 20V30C30 31.6569 28.6569 33 27 33H13C11.3431 33 10 31.6569 10 30V20Z" fill="#D9D9D9"/>
<path d="M10 20C10 19.4477 10.4477 19 11 19H29C29.5523 19 30 19.4477 30 20V30C30 31.6569 28.6569 33 27 33H13C11.3431 33 10 31.6569 10 30V20Z" fill="url(#paint0_linear_35_14814)"/>
<path d="M31.0119 10.1873C31.5777 10.3089 32.076 10.6315 32.3972 11.0841C32.7184 11.5368 32.8363 12.0824 32.7249 12.601L31.8845 16.5118C31.7731 17.0304 31.4414 17.4794 30.9626 17.7602C30.4838 18.0409 29.8969 18.1303 29.3312 18.0087L10.1331 13.8833C9.56733 13.7618 9.06903 13.4392 8.74779 12.9865C8.42655 12.5339 8.30869 11.9882 8.42013 11.4696L9.26049 7.55888C9.37192 7.04028 9.70354 6.59122 10.1824 6.31048C10.6612 6.02974 11.248 5.94032 11.8138 6.06189L31.0119 10.1873Z" fill="url(#paint1_radial_35_14814)"/>
<path d="M22 19V33H18V19H22Z" fill="url(#paint2_linear_35_14814)"/>
<path d="M23.3682 8.54348L21.6875 16.3649L17.7768 15.5246L19.4575 7.70312L23.3682 8.54348Z" fill="url(#paint3_linear_35_14814)"/>
<path fill-rule="evenodd" clip-rule="evenodd" d="M18.6895 8.56406C18.1293 8.44367 17.6089 8.18191 17.1758 7.80271C16.7427 7.42351 16.4106 6.93896 16.21 6.39332C16.0094 5.84768 15.9465 5.25835 16.0273 4.67918C16.108 4.10001 16.3297 3.54946 16.6722 3.07783C17.0146 2.6062 17.4669 2.22853 17.9876 1.97932C18.5083 1.73011 19.0809 1.61731 19.6531 1.65123C20.2253 1.68515 20.7788 1.8647 21.2631 2.17348C21.7473 2.48225 22.1469 2.91042 22.4253 3.41885C22.888 3.06966 23.4282 2.84344 23.9965 2.76085C24.5649 2.67827 25.1433 2.74195 25.6789 2.94608C26.2145 3.15021 26.6902 3.48828 27.0626 3.92941C27.435 4.37054 27.6922 4.90065 27.8106 5.47132C27.9291 6.04199 27.9051 6.63503 27.7408 7.19624C27.5765 7.75745 27.2771 8.26895 26.87 8.684C26.463 9.09906 25.9612 9.40443 25.4105 9.57223C24.8598 9.74002 24.2778 9.76489 23.7177 9.64456L18.6895 8.56406ZM17.7487 4.78201C17.8462 4.32824 18.1163 3.931 18.4996 3.67768C18.8828 3.42436 19.3479 3.33571 19.7924 3.43123C20.2369 3.52676 20.6245 3.79862 20.8699 4.18703C21.1153 4.57544 21.1984 5.04857 21.1008 5.50234L20.7332 7.21329L19.0571 6.85312C18.6126 6.7576 18.225 6.48573 17.9796 6.09732C17.7343 5.70891 17.6512 5.23578 17.7487 4.78201ZM22.4093 7.57345L24.0853 7.93362C24.4168 8.00485 24.7625 7.97414 25.0785 7.84537C25.3945 7.71659 25.6668 7.49554 25.8608 7.21017C26.0548 6.9248 26.162 6.58792 26.1686 6.24213C26.1752 5.89634 26.0811 5.55718 25.8981 5.26753C25.7152 4.97788 25.4515 4.75075 25.1406 4.61487C24.8296 4.47899 24.4854 4.44045 24.1513 4.50414C23.8172 4.56782 23.5083 4.73087 23.2637 4.97266C23.019 5.21444 22.8496 5.52411 22.7769 5.86251L22.4093 7.57345Z" fill="url(#paint4_linear_35_14814)"/>
<path fill-rule="evenodd" clip-rule="evenodd" d="M18.6895 8.56406C18.1293 8.44367 17.6089 8.18191 17.1758 7.80271C16.7427 7.42351 16.4106 6.93896 16.21 6.39332C16.0094 5.84768 15.9465 5.25835 16.0273 4.67918C16.108 4.10001 16.3297 3.54946 16.6722 3.07783C17.0146 2.6062 17.4669 2.22853 17.9876 1.97932C18.5083 1.73011 19.0809 1.61731 19.6531 1.65123C20.2253 1.68515 20.7788 1.8647 21.2631 2.17348C21.7473 2.48225 22.1469 2.91042 22.4253 3.41885C22.888 3.06966 23.4282 2.84344 23.9965 2.76085C24.5649 2.67827 25.1433 2.74195 25.6789 2.94608C26.2145 3.15021 26.6902 3.48828 27.0626 3.92941C27.435 4.37054 27.6922 4.90065 27.8106 5.47132C27.9291 6.04199 27.9051 6.63503 27.7408 7.19624C27.5765 7.75745 27.2771 8.26895 26.87 8.684C26.463 9.09906 25.9612 9.40443 25.4105 9.57223C24.8598 9.74002 24.2778 9.76489 23.7177 9.64456L18.6895 8.56406ZM17.7487 4.78201C17.8462 4.32824 18.1163 3.931 18.4996 3.67768C18.8828 3.42436 19.3479 3.33571 19.7924 3.43123C20.2369 3.52676 20.6245 3.79862 20.8699 4.18703C21.1153 4.57544 21.1984 5.04857 21.1008 5.50234L20.7332 7.21329L19.0571 6.85312C18.6126 6.7576 18.225 6.48573 17.9796 6.09732C17.7343 5.70891 17.6512 5.23578 17.7487 4.78201ZM22.4093 7.57345L24.0853 7.93362C24.4168 8.00485 24.7625 7.97414 25.0785 7.84537C25.3945 7.71659 25.6668 7.49554 25.8608 7.21017C26.0548 6.9248 26.162 6.58792 26.1686 6.24213C26.1752 5.89634 26.0811 5.55718 25.8981 5.26753C25.7152 4.97788 25.4515 4.75075 25.1406 4.61487C24.8296 4.47899 24.4854 4.44045 24.1513 4.50414C23.8172 4.56782 23.5083 4.73087 23.2637 4.97266C23.019 5.21444 22.8496 5.52411 22.7769 5.86251L22.4093 7.57345Z" fill="url(#paint5_linear_35_14814)"/>
<defs>
<linearGradient id="paint0_linear_35_14814" x1="18.7244" y1="38.5007" x2="18.7244" y2="13.5476" gradientUnits="userSpaceOnUse">
<stop stop-color="#FFDDDD"/>
<stop offset="0.348" stop-color="#FF9697"/>
<stop offset="1" stop-color="#FF576C"/>
</linearGradient>
<radialGradient id="paint1_radial_35_14814" cx="0" cy="0" r="1" gradientUnits="userSpaceOnUse" gradientTransform="translate(22.0431 5.19154) rotate(12.1276) scale(30.9107 12.5)">
<stop offset="0.196" stop-color="#FF576C"/>
<stop offset="0.763" stop-color="#FF9697"/>
<stop offset="1" stop-color="#FFDDDD"/>
</radialGradient>
<linearGradient id="paint2_linear_35_14814" x1="18" y1="11.1244" x2="18" y2="30.564" gradientUnits="userSpaceOnUse">
<stop stop-color="#FB5937"/>
<stop offset="1" stop-color="#FFCD0F"/>
</linearGradient>
<linearGradient id="paint3_linear_35_14814" x1="23.7433" y1="-12.2416" x2="14.8956" y2="28.9325" gradientUnits="userSpaceOnUse">
<stop stop-color="#FB5937"/>
<stop offset="1" stop-color="#FFCD0F"/>
</linearGradient>
<linearGradient id="paint4_linear_35_14814" x1="24.4622" y1="9.80276" x2="23.923" y2="-5.01749" gradientUnits="userSpaceOnUse">
<stop stop-color="#FF6F47"/>
<stop offset="1" stop-color="#FFCD0F"/>
</linearGradient>
<linearGradient id="paint5_linear_35_14814" x1="27.3719" y1="-17.6937" x2="19.7135" y2="16.4569" gradientUnits="userSpaceOnUse">
<stop stop-color="#FF6F47"/>
<stop offset="0.804" stop-color="#FFCD0F"/>
</linearGradient>
</defs>
</svg>
