<svg width="24" height="25" viewBox="0 0 24 25" fill="none" xmlns="http://www.w3.org/2000/svg">
<path d="M2.25 11.25H21.75V21.75C21.75 23.4069 20.4069 24.75 18.75 24.75H5.25C3.59315 24.75 2.25 23.4069 2.25 21.75V11.25Z" fill="#D9D9D9"/>
<path d="M2.25 11.25H21.75V21.75C21.75 23.4069 20.4069 24.75 18.75 24.75H5.25C3.59315 24.75 2.25 23.4069 2.25 21.75V11.25Z" fill="url(#paint0_linear_9228_29524)"/>
<path d="M21.8182 5.25C22.3968 5.25 22.9518 5.44754 23.361 5.79918C23.7701 6.15081 24 6.62772 24 7.125V10.875C24 11.3723 23.7701 11.8492 23.361 12.2008C22.9518 12.5525 22.3968 12.75 21.8182 12.75H2.18182C1.60316 12.75 1.04821 12.5525 0.63904 12.2008C0.229869 11.8492 0 11.3723 0 10.875V7.125C0 6.62772 0.229869 6.15081 0.63904 5.79918C1.04821 5.44754 1.60316 5.25 2.18182 5.25H21.8182Z" fill="url(#paint1_radial_9228_29524)"/>
<path d="M13.5 12.75V24.75H10.5V12.75H13.5Z" fill="url(#paint2_linear_9228_29524)"/>
<path d="M13.5 5.25V12.75H10.5V5.25H13.5Z" fill="url(#paint3_linear_9228_29524)"/>
<path fill-rule="evenodd" clip-rule="evenodd" d="M9.42849 6.75C8.85557 6.74997 8.29179 6.60862 7.78866 6.33887C7.28553 6.06912 6.85909 5.67957 6.54831 5.2058C6.23752 4.73204 6.0523 4.18917 6.00956 3.62679C5.96681 3.06441 6.06792 2.50045 6.30363 1.98644C6.53935 1.47243 6.90215 1.02476 7.35891 0.684321C7.81566 0.343884 8.3518 0.121537 8.91834 0.0375963C9.48488 -0.0463449 10.0638 0.0107955 10.6021 0.203797C11.1404 0.396798 11.621 0.719506 12 1.14244C12.379 0.719506 12.8596 0.396798 13.3979 0.203797C13.9362 0.0107955 14.5151 -0.0463449 15.0817 0.0375963C15.6482 0.121537 16.1843 0.343884 16.6411 0.684321C17.0978 1.02476 17.4607 1.47243 17.6964 1.98644C17.9321 2.50045 18.0332 3.06441 17.9904 3.62679C17.9477 4.18917 17.7625 4.73204 17.4517 5.2058C17.1409 5.67957 16.7145 6.06912 16.2113 6.33887C15.7082 6.60862 15.1444 6.74997 14.5715 6.75H9.42849ZM7.71415 3.375C7.71415 2.92745 7.89477 2.49823 8.21627 2.18176C8.53777 1.86529 8.97382 1.6875 9.42849 1.6875C9.88316 1.6875 10.3192 1.86529 10.6407 2.18176C10.9622 2.49823 11.1428 2.92745 11.1428 3.375V5.0625H9.42849C8.97382 5.0625 8.53777 4.88471 8.21627 4.56824C7.89477 4.25177 7.71415 3.82255 7.71415 3.375ZM12.8572 5.0625H14.5715C14.9106 5.0625 15.242 4.96353 15.5239 4.7781C15.8059 4.59268 16.0256 4.32913 16.1554 4.02078C16.2851 3.71243 16.3191 3.37313 16.2529 3.04579C16.1868 2.71844 16.0235 2.41776 15.7837 2.18176C15.544 1.94576 15.2385 1.78504 14.906 1.71993C14.5734 1.65481 14.2287 1.68823 13.9155 1.81595C13.6022 1.94368 13.3345 2.15997 13.1461 2.43748C12.9577 2.71498 12.8572 3.04124 12.8572 3.375V5.0625Z" fill="url(#paint4_linear_9228_29524)"/>
<path fill-rule="evenodd" clip-rule="evenodd" d="M9.42849 6.75C8.85557 6.74997 8.29179 6.60862 7.78866 6.33887C7.28553 6.06912 6.85909 5.67957 6.54831 5.2058C6.23752 4.73204 6.0523 4.18917 6.00956 3.62679C5.96681 3.06441 6.06792 2.50045 6.30363 1.98644C6.53935 1.47243 6.90215 1.02476 7.35891 0.684321C7.81566 0.343884 8.3518 0.121537 8.91834 0.0375963C9.48488 -0.0463449 10.0638 0.0107955 10.6021 0.203797C11.1404 0.396798 11.621 0.719506 12 1.14244C12.379 0.719506 12.8596 0.396798 13.3979 0.203797C13.9362 0.0107955 14.5151 -0.0463449 15.0817 0.0375963C15.6482 0.121537 16.1843 0.343884 16.6411 0.684321C17.0978 1.02476 17.4607 1.47243 17.6964 1.98644C17.9321 2.50045 18.0332 3.06441 17.9904 3.62679C17.9477 4.18917 17.7625 4.73204 17.4517 5.2058C17.1409 5.67957 16.7145 6.06912 16.2113 6.33887C15.7082 6.60862 15.1444 6.74997 14.5715 6.75H9.42849ZM7.71415 3.375C7.71415 2.92745 7.89477 2.49823 8.21627 2.18176C8.53777 1.86529 8.97382 1.6875 9.42849 1.6875C9.88316 1.6875 10.3192 1.86529 10.6407 2.18176C10.9622 2.49823 11.1428 2.92745 11.1428 3.375V5.0625H9.42849C8.97382 5.0625 8.53777 4.88471 8.21627 4.56824C7.89477 4.25177 7.71415 3.82255 7.71415 3.375ZM12.8572 5.0625H14.5715C14.9106 5.0625 15.242 4.96353 15.5239 4.7781C15.8059 4.59268 16.0256 4.32913 16.1554 4.02078C16.2851 3.71243 16.3191 3.37313 16.2529 3.04579C16.1868 2.71844 16.0235 2.41776 15.7837 2.18176C15.544 1.94576 15.2385 1.78504 14.906 1.71993C14.5734 1.65481 14.2287 1.68823 13.9155 1.81595C13.6022 1.94368 13.3345 2.15997 13.1461 2.43748C12.9577 2.71498 12.8572 3.04124 12.8572 3.375V5.0625Z" fill="url(#paint5_linear_9228_29524)"/>
<defs>
<linearGradient id="paint0_linear_9228_29524" x1="10.7563" y1="30.0543" x2="10.7563" y2="5.99236" gradientUnits="userSpaceOnUse">
<stop stop-color="#FFDDDD"/>
<stop offset="0.348" stop-color="#FF9697"/>
<stop offset="1" stop-color="#FF576C"/>
</linearGradient>
<radialGradient id="paint1_radial_9228_29524" cx="0" cy="0" r="1" gradientUnits="userSpaceOnUse" gradientTransform="translate(12 2.4375) scale(30.9107 11.7188)">
<stop offset="0.196" stop-color="#FF576C"/>
<stop offset="0.763" stop-color="#FF9697"/>
<stop offset="1" stop-color="#FFDDDD"/>
</radialGradient>
<linearGradient id="paint2_linear_9228_29524" x1="10.5" y1="5.99945" x2="10.5" y2="22.662" gradientUnits="userSpaceOnUse">
<stop stop-color="#FB5937"/>
<stop offset="1" stop-color="#FFCD0F"/>
</linearGradient>
<linearGradient id="paint3_linear_9228_29524" x1="10.5" y1="-13.875" x2="10.5" y2="25.6069" gradientUnits="userSpaceOnUse">
<stop stop-color="#FB5937"/>
<stop offset="1" stop-color="#FFCD0F"/>
</linearGradient>
<linearGradient id="paint4_linear_9228_29524" x1="15.3327" y1="6.74831" x2="11.933" y2="-7.17332" gradientUnits="userSpaceOnUse">
<stop stop-color="#FF6F47"/>
<stop offset="1" stop-color="#FFCD0F"/>
</linearGradient>
<linearGradient id="paint5_linear_9228_29524" x1="12.4007" y1="-19.7638" x2="12.1099" y2="13.9838" gradientUnits="userSpaceOnUse">
<stop stop-color="#FF6F47"/>
<stop offset="0.804" stop-color="#FFCD0F"/>
</linearGradient>
</defs>
</svg>
