<svg width="14" height="14" viewBox="0 0 14 14" fill="none" xmlns="http://www.w3.org/2000/svg">
  <g transform="translate(0.4, 0.75)">
    <path d="M6.59725 11.7719C9.45597 11.7719 11.7734 9.45447 11.7734 6.59575C11.7734 3.73704 9.45597 1.41959 6.59725 1.41959C3.73853 1.41959 1.42108 3.73704 1.42108 6.59575C1.42108 9.45447 3.73853 11.7719 6.59725 11.7719Z" stroke="#51555E" stroke-width="1.29404"/>
    <path d="M2.06799 0.647129C1.47788 0.987843 0.987843 1.47788 0.647129 2.06799M11.1263 0.647129C11.7164 0.987843 12.2064 1.47788 12.5471 2.06799" stroke="#51555E" stroke-width="1.29404" stroke-linecap="round"/>
  </g>
  <g transform="translate(3.51, 5.41)">
    <path d="M5.22547 3.64746C4.88217 3.63542 4.62274 3.5531 4.44719 3.40053C4.27164 3.24393 4.14485 3.06927 4.06683 2.87654C3.98881 2.67979 3.9498 2.48104 3.9498 2.28027C3.9498 2.07148 3.98686 1.87072 4.06098 1.67799C4.139 1.48124 4.26579 1.30658 4.44134 1.154C4.62079 0.997406 4.84706 0.917101 5.12014 0.913086H5.81766C6.09074 0.917101 6.31505 0.997406 6.4906 1.154C6.67005 1.30658 6.79684 1.48124 6.87096 1.67799C6.94898 1.87072 6.98799 2.07148 6.98799 2.28027C6.98799 2.48104 6.94898 2.67979 6.87096 2.87654C6.79294 3.06927 6.66615 3.24393 6.4906 3.40053C6.31505 3.5531 6.05563 3.63542 5.71233 3.64746H5.22547ZM5.09673 1.72015C5.02261 1.72015 4.95824 1.75227 4.90362 1.81651C4.84901 1.87674 4.80805 1.94902 4.78074 2.03334C4.75733 2.11364 4.74563 2.19395 4.74563 2.27425C4.74563 2.35857 4.75733 2.44289 4.78074 2.52721C4.80805 2.60752 4.84901 2.67979 4.90362 2.74403C4.95824 2.80426 5.02261 2.83638 5.09673 2.8404H5.84106C5.91519 2.83638 5.97955 2.80426 6.03417 2.74403C6.08879 2.67979 6.1278 2.60752 6.1512 2.52721C6.17851 2.44289 6.19217 2.35857 6.19217 2.27425C6.19217 2.19395 6.17851 2.11364 6.1512 2.03334C6.1278 1.94902 6.08879 1.87674 6.03417 1.81651C5.97955 1.75227 5.91519 1.72015 5.84106 1.72015H5.09673Z" fill="#51555E"/>
    <path d="M1.23894 0.000488281H3.21857C3.33419 0.00460787 3.42916 0.0478635 3.50349 0.130255C3.58195 0.212647 3.62118 0.311517 3.62118 0.426866C3.60053 0.674041 3.46633 0.807927 3.21857 0.828525H1.44954C1.29262 0.836765 1.16254 0.896499 1.05931 1.00773C0.956075 1.11896 0.879681 1.24666 0.830129 1.39085C0.784706 1.53092 0.761994 1.6751 0.761994 1.82341C0.761994 1.97171 0.784706 2.11796 0.830129 2.26214C0.879681 2.40221 0.956075 2.52786 1.05931 2.63908C1.16254 2.75031 1.29262 2.81005 1.44954 2.81829H2.69826C2.77259 2.81417 2.81182 2.77297 2.81595 2.6947V2.33629C2.81182 2.2539 2.77259 2.21271 2.69826 2.21271H1.74685C1.63123 2.21271 1.53212 2.17357 1.44954 2.0953C1.37108 2.01291 1.33185 1.91404 1.33185 1.79869C1.33185 1.68334 1.37108 1.58447 1.44954 1.50208C1.53212 1.42381 1.63123 1.38467 1.74685 1.38467H3.23095C3.34658 1.38467 3.44568 1.42381 3.52827 1.50208C3.6026 1.58035 3.64183 1.6751 3.64596 1.78633V3.24466C3.64183 3.35589 3.6026 3.44858 3.52827 3.52274C3.44981 3.60101 3.35484 3.6422 3.24334 3.64632H1.23894C0.949881 3.62985 0.710377 3.52068 0.520425 3.31882C0.334602 3.11284 0.200397 2.88008 0.11781 2.62055C0.0393512 2.36101 0.00012207 2.0953 0.00012207 1.82341C0.00012207 1.55151 0.0414159 1.2858 0.124004 1.02627C0.206591 0.766732 0.340796 0.536035 0.526619 0.334175C0.712441 0.128195 0.949881 0.0169666 1.23894 0.000488281Z" fill="#51555E"/>
  </g>
</svg>
