<svg width="14" height="14" viewBox="0 0 14 14" fill="none" xmlns="http://www.w3.org/2000/svg">
<g clip-path="url(#clip0_9772_529601)">
<path d="M7.00038 12.5242C9.8591 12.5242 12.1765 10.2068 12.1765 7.34804C12.1765 4.48932 9.8591 2.17188 7.00038 2.17188C4.14167 2.17188 1.82422 4.48932 1.82422 7.34804C1.82422 10.2068 4.14167 12.5242 7.00038 12.5242Z" stroke="currentColor" stroke-width="1.29404"/>
<path d="M2.47164 1.40234C1.88153 1.74306 1.3915 2.23309 1.05078 2.8232M11.5299 1.40234C12.12 1.74306 12.6101 2.23309 12.9508 2.8232" stroke="currentColor" stroke-width="1.29404" stroke-linecap="round"/>
<path d="M8.73075 9.0586C8.38745 9.04655 8.12802 8.96424 7.95247 8.81166C7.77692 8.65506 7.65013 8.4804 7.57211 8.28767C7.49409 8.09092 7.45508 7.89217 7.45508 7.69141C7.45508 7.48261 7.49214 7.28185 7.56626 7.08912C7.64428 6.89237 7.77107 6.71771 7.94662 6.56513C8.12607 6.40854 8.35234 6.32823 8.62542 6.32422H9.32294C9.59602 6.32823 9.82033 6.40854 9.99588 6.56513C10.1753 6.71771 10.3021 6.89237 10.3762 7.08912C10.4543 7.28185 10.4933 7.48261 10.4933 7.69141C10.4933 7.89217 10.4543 8.09092 10.3762 8.28767C10.2982 8.4804 10.1714 8.65506 9.99588 8.81166C9.82033 8.96424 9.56091 9.04655 9.21761 9.0586H8.73075ZM8.60201 7.13128C8.52789 7.13128 8.46352 7.1634 8.4089 7.22765C8.35429 7.28788 8.31333 7.36015 8.28602 7.44447C8.26261 7.52477 8.25091 7.60508 8.25091 7.68538C8.25091 7.7697 8.26261 7.85402 8.28602 7.93834C8.31333 8.01865 8.35429 8.09092 8.4089 8.15517C8.46352 8.2154 8.52789 8.24752 8.60201 8.25153H9.34634C9.42046 8.24752 9.48483 8.2154 9.53945 8.15517C9.59406 8.09092 9.63308 8.01865 9.65648 7.93834C9.68379 7.85402 9.69744 7.7697 9.69744 7.68538C9.69744 7.60508 9.68379 7.52477 9.65648 7.44447C9.63308 7.36015 9.59406 7.28788 9.53945 7.22765C9.48483 7.1634 9.42046 7.13128 9.34634 7.13128H8.60201Z" fill="currentColor"/>
<path d="M4.74468 5.41016H6.7243C6.83993 5.41428 6.9349 5.45753 7.00923 5.53992C7.08769 5.62232 7.12692 5.72119 7.12692 5.83653C7.10627 6.08371 6.97207 6.2176 6.7243 6.23819H4.95527C4.79836 6.24643 4.66828 6.30617 4.56505 6.4174C4.46181 6.52862 4.38542 6.65633 4.33587 6.80052C4.29044 6.94058 4.26773 7.08477 4.26773 7.23307C4.26773 7.38138 4.29044 7.52762 4.33587 7.67181C4.38542 7.81188 4.46181 7.93752 4.56505 8.04875C4.66828 8.15998 4.79836 8.21972 4.95527 8.22795H6.204C6.27833 8.22383 6.31756 8.18264 6.32169 8.10437V7.74596C6.31756 7.66357 6.27833 7.62238 6.204 7.62238H5.25259C5.13697 7.62238 5.03786 7.58324 4.95527 7.50497C4.87682 7.42257 4.83759 7.3237 4.83759 7.20836C4.83759 7.09301 4.87682 6.99414 4.95527 6.91175C5.03786 6.83347 5.13697 6.79434 5.25259 6.79434H6.73669C6.85231 6.79434 6.95142 6.83347 7.03401 6.91175C7.10834 6.99002 7.14757 7.08477 7.15169 7.196V8.65433C7.14757 8.76556 7.10834 8.85825 7.03401 8.9324C6.95555 9.01068 6.86057 9.05187 6.74908 9.05599H4.74468C4.45562 9.03951 4.21611 8.93034 4.02616 8.72848C3.84034 8.5225 3.70613 8.28975 3.62355 8.03021C3.54509 7.77068 3.50586 7.50497 3.50586 7.23307C3.50586 6.96118 3.54715 6.69547 3.62974 6.43593C3.71233 6.1764 3.84653 5.9457 4.03236 5.74384C4.21818 5.53786 4.45562 5.42663 4.74468 5.41016Z" fill="currentColor"/>
</g>
<defs>
<clipPath id="clip0_9772_529601">
<rect width="14" height="14" fill="white"/>
</clipPath>
</defs>
</svg>
