<svg width="16" height="16" viewBox="0 0 16 16" fill="none" xmlns="http://www.w3.org/2000/svg">
<path d="M14.4805 4.35352L14.4805 10.4932C14.4804 11.5013 13.9114 12.4808 12.8574 13.2363C11.8045 13.991 10.3129 14.4805 8.63281 14.4805H7.36719C5.68706 14.4805 4.19547 13.991 3.14258 13.2363C2.08867 12.4808 1.51963 11.5012 1.51953 10.4932L1.51953 4.35352C1.5196 3.48801 2.35992 2.71973 3.2002 2.71973L12.7998 2.71973C13.6401 2.71973 14.4804 3.488 14.4805 4.35352Z" stroke="#51555E" stroke-width="1.43955"/>
<line x1="5.01685" y1="1.41773" x2="5.01685" y2="3.78386" stroke="#51555E" stroke-width="1.2339" stroke-linecap="round"/>
<line x1="11.0164" y1="1.41773" x2="11.0164" y2="3.78386" stroke="#51555E" stroke-width="1.2339" stroke-linecap="round"/>
<line x1="1.41675" y1="6.18383" x2="14.583" y2="6.18383" stroke="#51555E" stroke-width="1.2339" stroke-linecap="round"/>
<line x1="3.81714" y1="8.58227" x2="12.1833" y2="8.58227" stroke="#51555E" stroke-width="1.2339" stroke-linecap="round"/>
<line x1="5.01685" y1="10.9827" x2="10.983" y2="10.9827" stroke="#51555E" stroke-width="1.2339" stroke-linecap="round"/>
</svg>
