<svg width="50" height="50" viewBox="0 0 50 50" fill="none" xmlns="http://www.w3.org/2000/svg">
<path d="M45.8334 4.16406H29.1667V12.4974H45.8334V4.16406Z" fill="#303236" stroke="#303236" stroke-width="4.16667" stroke-miterlimit="2" stroke-linecap="round" stroke-linejoin="round"/>
<path d="M45.8334 12.5V35.4167C45.8334 36.5729 44.9063 37.5 43.7501 37.5H8.33341C6.03133 37.5 4.16675 35.6354 4.16675 33.3333V27.0833C4.16675 22.4792 7.89591 18.75 12.5001 18.75H29.1667V12.5H45.8334Z" fill="#9CB9DD" stroke="#303236" stroke-width="4.16667" stroke-miterlimit="2" stroke-linecap="round" stroke-linejoin="round"/>
<path d="M14.5833 25V18.75" stroke="#303236" stroke-width="4.16667" stroke-miterlimit="2" stroke-linecap="round" stroke-linejoin="round"/>
<path d="M21.875 25V18.75" stroke="#303236" stroke-width="4.16667" stroke-miterlimit="2" stroke-linecap="round" stroke-linejoin="round"/>
<path d="M23.9583 18.75H12.5" stroke="#303236" stroke-width="4.16667" stroke-miterlimit="2" stroke-linecap="round" stroke-linejoin="round"/>
<path d="M9.37492 45.8333C11.6761 45.8333 13.5416 43.9678 13.5416 41.6667C13.5416 39.3655 11.6761 37.5 9.37492 37.5C7.07373 37.5 5.20825 39.3655 5.20825 41.6667C5.20825 43.9678 7.07373 45.8333 9.37492 45.8333Z" fill="#A0A8B4" stroke="#303236" stroke-width="4.16667" stroke-miterlimit="2" stroke-linecap="round" stroke-linejoin="round"/>
<path d="M20.1352 45.8333C22.4363 45.8333 24.3018 43.9678 24.3018 41.6667C24.3018 39.3655 22.4363 37.5 20.1352 37.5C17.8339 37.5 15.9685 39.3655 15.9685 41.6667C15.9685 43.9678 17.8339 45.8333 20.1352 45.8333Z" fill="#A0A8B4" stroke="#303236" stroke-width="4.16667" stroke-miterlimit="2" stroke-linecap="round" stroke-linejoin="round"/>
<path d="M30.9062 45.8333C33.2074 45.8333 35.0728 43.9678 35.0728 41.6667C35.0728 39.3655 33.2074 37.5 30.9062 37.5C28.605 37.5 26.7395 39.3655 26.7395 41.6667C26.7395 43.9678 28.605 45.8333 30.9062 45.8333Z" fill="#A0A8B4" stroke="#303236" stroke-width="4.16667" stroke-miterlimit="2" stroke-linecap="round" stroke-linejoin="round"/>
<path d="M41.6667 45.8333C43.9678 45.8333 45.8333 43.9678 45.8333 41.6667C45.8333 39.3655 43.9678 37.5 41.6667 37.5C39.3655 37.5 37.5 39.3655 37.5 41.6667C37.5 43.9678 39.3655 45.8333 41.6667 45.8333Z" fill="#A0A8B4" stroke="#303236" stroke-width="4.16667" stroke-miterlimit="2" stroke-linecap="round" stroke-linejoin="round"/>
</svg>
