<svg width="50" height="50" viewBox="0 0 50 50" fill="none" xmlns="http://www.w3.org/2000/svg">
<path d="M39.5837 43.7474H10.417C6.96908 43.7474 4.16699 40.9557 4.16699 37.4974V29.1641C4.16699 25.7161 6.95866 22.9141 10.417 22.9141H39.5837C43.0316 22.9141 45.8337 25.7057 45.8337 29.1641V37.4974C45.8337 40.9557 43.042 43.7474 39.5837 43.7474Z" stroke="#51555E" stroke-width="4.16667" stroke-miterlimit="2" stroke-linejoin="round"/>
<path d="M4.16699 33.3359H45.8337" stroke="#51555E" stroke-width="4.16667" stroke-miterlimit="2" stroke-linecap="round" stroke-linejoin="round"/>
<path d="M10.417 22.9167L17.167 7.5C17.4899 6.73958 18.2399 6.25 19.0732 6.25H36.9795C38.9899 6.25 40.6253 7.88542 40.6253 9.89583C40.6253 11.9062 38.9899 13.5417 36.9795 13.5417H22.917V22.9167H10.417Z" stroke="#51555E" stroke-width="4.16667" stroke-miterlimit="2" stroke-linecap="round" stroke-linejoin="round"/>
</svg>
