<svg width="20" height="20" viewBox="0 0 20 20" fill="none" xmlns="http://www.w3.org/2000/svg">
<g clip-path="url(#clip0_58_7584)">
<circle cx="10" cy="10.0007" r="9.16667" fill="#3C5C91"/>
<path d="M6.90886 8.46204C6.40275 8.33176 6.44312 8.33176 6.51143 7.90169C6.55372 7.65308 6.57809 7.40226 6.58439 7.15081C6.58439 6.95468 6.65736 6.89024 6.87316 6.89024C7.27059 6.89024 7.23488 6.89024 7.19918 6.53162C7.10708 5.99095 7.24942 5.43906 7.59661 4.99064C7.69144 4.8687 7.81548 4.76759 7.95954 4.69484C8.1036 4.62208 8.26397 4.57954 8.42874 4.57037C8.50301 4.56528 8.57754 4.57633 8.64609 4.60259C8.72311 4.60949 8.79741 4.632 8.86344 4.66844C8.86344 4.60259 8.89915 4.50453 8.86344 4.44009C8.8093 4.28543 8.79334 4.12195 8.81669 3.96114C8.84004 3.80032 8.90213 3.64607 8.9986 3.50922C9.09507 3.37237 9.22358 3.25624 9.3751 3.16899C9.52662 3.08174 9.69747 3.02549 9.87566 3.00418C10.1287 2.97196 10.3818 3.13446 10.5991 3.20031C11.0338 3.29837 11.0649 3.657 11.1052 3.9834C11.1409 4.17953 11.1409 4.40367 10.8165 4.50593C10.7435 4.53815 10.7078 4.73428 10.6721 4.86456C11.1068 4.96262 11.1068 4.79872 11.5042 4.66844C11.9016 4.73428 11.8302 4.83234 12.0833 4.83234H14.797C14.9336 4.84976 15.0671 4.88271 15.1945 4.9304C15.1945 4.80012 15.4118 4.89818 15.5205 5.15875C15.8465 5.12653 16.171 5.12653 16.4613 5.09291C16.6174 5.08767 16.7736 5.09848 16.927 5.12513C16.9627 5.12513 17 5.19097 17 5.19097C17 5.22319 16.927 5.28903 16.927 5.28903H16.4613C16.1479 5.27264 15.8338 5.27264 15.5205 5.28903C15.0187 5.37576 14.5109 5.43053 14.0006 5.45293C13.8837 5.45014 13.7677 5.4717 13.6615 5.51595C13.5553 5.5602 13.4619 5.62594 13.3885 5.70806C13.315 5.79018 13.2635 5.88648 13.2381 5.98946C13.2126 6.09245 13.2137 6.19936 13.2414 6.30187L13.3501 6.59606C13.0614 6.6619 13.0241 6.85662 12.9884 7.05275C12.956 7.20835 12.8788 7.35353 12.7647 7.47376C12.6505 7.59398 12.5033 7.68503 12.3379 7.73778C12.1188 7.77917 11.8909 7.75609 11.6874 7.67194C11.3614 7.57388 11.0664 7.41138 10.7466 7.27969C10.6736 7.4436 10.5665 7.6061 10.8553 7.69996C10.8899 7.72206 10.9179 7.75153 10.9368 7.78574C10.9558 7.81995 10.9651 7.85785 10.9639 7.89608C10.9282 8.38639 10.891 8.84308 10.8196 9.33199C10.7839 9.4959 10.6752 9.59256 10.4578 9.4959C10.4221 9.4959 10.2762 9.56174 10.2762 9.59396C10.2855 9.76475 10.3347 9.93184 10.4206 10.0843C10.8996 10.6066 11.268 11.2039 11.5073 11.8466C11.5803 12.0091 11.7247 12.173 11.7961 12.3691C11.9046 12.8427 11.9046 13.3314 11.7961 13.805C11.7779 14.0116 11.7779 14.2191 11.7961 14.4256C11.8022 14.5572 11.7902 14.689 11.7604 14.8179L11.6517 15.3082C11.6395 15.5493 11.7139 15.7876 11.8638 15.9875C12.0137 16.1874 12.2312 16.3383 12.4838 16.4177C12.5791 16.4411 12.6661 16.4859 12.7369 16.548C12.7723 16.5755 12.7981 16.6118 12.8111 16.6523C12.824 16.6929 12.8236 16.736 12.8098 16.7763C12.8098 16.8085 12.6655 16.8744 12.6282 16.8744L11.3257 16.7763H10.7823C10.565 16.7763 10.4563 16.7105 10.5293 16.4821C10.6803 16.095 10.7421 15.684 10.7109 15.2746C10.6752 15.0784 10.6022 14.8823 10.5665 14.6876C10.4828 14.344 10.4345 13.9941 10.4221 13.6425C10.4527 13.4524 10.501 13.265 10.5665 13.0822C10.6395 12.8216 10.5308 12.7558 10.2405 12.6899C10.0991 12.6627 9.97176 12.5937 9.87876 12.4938C9.66141 12.2332 9.48133 11.9713 9.25777 11.6771C9.22206 11.6449 9.1848 11.5468 9.1491 11.5468C8.86033 11.579 8.75166 11.3507 8.60573 11.1265C8.38838 11.5468 8.17103 11.9096 7.98473 12.2697C7.96524 12.3824 7.92867 12.4923 7.87606 12.5961C7.83073 12.711 7.77027 12.8206 7.69597 12.9225C7.51433 13.183 7.33424 13.4128 7.1526 13.6411C7.1526 13.6733 7.1169 13.6733 7.1169 13.707C7.22557 14.2673 6.79087 14.6876 6.61079 15.1429C6.57508 15.3068 6.32203 15.4034 6.24906 15.5631C6.1481 15.7321 6.08926 15.919 6.07665 16.1106C6.06405 16.3023 6.09799 16.4941 6.17609 16.6726C6.28477 16.901 6.2118 16.9991 5.92304 16.9991H5.30204C5.25641 17.0026 5.21049 16.996 5.16839 16.9797C5.12628 16.9634 5.08929 16.938 5.06071 16.9057C5.03213 16.8734 5.01285 16.8352 5.00457 16.7945C4.9963 16.7539 4.99929 16.712 5.01328 16.6726C5.08625 16.314 5.19492 15.954 5.26634 15.5954C5.30204 15.4315 5.26634 15.2367 5.30204 15.035C5.33775 14.8333 5.37346 14.6764 5.41072 14.4747C5.46676 14.2739 5.53941 14.0772 5.62806 13.8863C5.73379 13.6518 5.85457 13.4231 5.98979 13.2012C6.09944 13.0562 6.196 12.9035 6.27856 12.7446C6.32382 12.6636 6.34873 12.5746 6.35152 12.484L6.4602 11.2106C6.4602 11.1125 6.42449 10.9822 6.42449 10.8842C6.42449 10.6558 6.38878 10.4275 6.38878 10.1991C6.38878 10.1333 6.42449 10.0352 6.46175 10.0352C6.7148 9.9694 6.60613 9.80689 6.60613 9.70883C6.57042 9.44827 6.53316 9.21852 6.49746 8.95795C6.60613 8.76183 6.57042 8.53769 6.89644 8.43542L6.90886 8.46204ZM12.1873 6.40554C12.3317 6.17719 12.5133 6.01329 12.622 5.81857C12.6382 5.77843 12.6398 5.7347 12.6267 5.69367C12.6136 5.65263 12.5864 5.61641 12.549 5.59022C12.5133 5.558 12.3674 5.59022 12.296 5.62244C12.1579 5.73917 12.0364 5.87093 11.9342 6.01469C12.0103 6.11135 12.0817 6.24303 12.1904 6.40554H12.1873Z" fill="white"/>
</g>
<defs>
<clipPath id="clip0_58_7584">
<rect width="20" height="20" rx="10" fill="white"/>
</clipPath>
</defs>
</svg>
