<svg width="20" height="20" viewBox="0 0 20 20" fill="none" xmlns="http://www.w3.org/2000/svg">
<path d="M10.4141 7.11802L11.2344 6.04146C11.2344 6.04146 11.3985 5.78834 11.5532 5.80552C11.7063 5.82271 11.9563 6.31021 12.5719 6.26177C13.2219 6.21021 13.8344 6.04146 13.8344 6.04146L14.3469 6.76021L14.2594 7.23209C14.2594 7.23209 14.0657 7.81334 14.175 8.19927C14.2704 8.53834 14.6032 8.75084 14.6079 8.90552C14.6157 9.11021 4.75629 18.8461 4.65316 18.9149C4.55004 18.9836 3.52504 18.8461 3.42191 18.7946C3.31879 18.743 1.64379 16.829 1.64379 16.829C1.64379 16.829 1.57347 15.9852 1.65941 15.8321C1.67035 15.8133 1.73285 15.7508 1.78285 15.7118C2.49535 15.1571 5.18598 14.079 7.2516 12.043C8.14066 11.1649 10.4141 7.11802 10.4141 7.11802Z" fill="#D06F1D"/>
<path d="M17.4625 2.58482V1.85669C17.4625 1.85669 17.786 1.17857 17.8641 1.07857C17.9422 0.978569 18.5781 0.855131 19.025 1.33482C19.4719 1.81451 19.3906 2.28169 19.3485 2.35044C19.3 2.42857 18.4938 2.92388 18.4938 2.92388L17.4625 2.58482Z" fill="#AF570C"/>
<path d="M11.2359 6.03831C11.3 6.00706 11.6875 6.59768 12.1547 6.62112C12.6219 6.64456 13.4016 6.59768 13.4016 6.59768L13.7969 7.20862L13.7734 7.62737C13.7734 7.62737 13.6781 8.08206 13.7734 8.36956C13.8688 8.65706 14.0375 8.80081 14.0609 8.90862C14.0844 9.01643 4.75 18.4211 4.66719 18.4461C4.58282 18.4696 3.60156 18.4586 3.52969 18.3992C3.45781 18.3399 2.09688 16.8102 2.0375 16.7024C1.97813 16.5946 1.75625 15.8477 1.78125 15.7149C1.80156 15.5852 11.1547 6.07893 11.2359 6.03831Z" fill="#EB8B34"/>
<path d="M13.1516 6.16563C13.1516 6.12969 17.3906 1.9375 17.3906 1.9375L18.4219 3.01562L14.2094 7.30469C14.2094 7.30469 12.8969 7.52187 12.9094 7.4625C12.9219 7.40156 13.1516 6.16563 13.1516 6.16563Z" fill="#474C4F"/>
<path d="M15.4531 3.85769L15.9422 3.37019L17.0203 4.44362L16.5187 4.95456L15.4531 3.85769ZM16.4016 2.91706L17.4656 3.98738L18.5563 2.88894C18.5563 2.88894 17.5062 1.79362 17.4766 1.82487C17.4516 1.84987 16.4016 2.91706 16.4016 2.91706Z" fill="#E0E0E0"/>
<path d="M8.81092 11.5145C8.9031 11.6145 9.16717 11.3942 9.35154 11.2504C9.4281 11.191 10.7531 10.1348 11.9469 9.12386C13.1406 8.11292 14.2469 7.33792 14.2547 7.24573C14.2625 7.15354 13.2531 6.17229 13.1515 6.16604C13.0484 6.15979 12.1703 7.15667 11.239 8.29417C10.2031 9.5598 9.13123 10.8832 9.09529 10.9285C8.91092 11.1723 8.73904 11.4364 8.81092 11.5145Z" fill="#AF570C"/>
<path d="M1.37025 5.02209C0.473379 5.82053 0.245254 7.39865 1.2765 8.45646C2.14994 9.35334 3.57807 9.45959 4.61713 8.46896C5.56557 7.56271 5.32494 5.94396 4.75932 5.28303C3.92963 4.31428 2.33744 4.15959 1.37025 5.02209Z" fill="#A52415"/>
<path d="M2.61406 4.79288C2.33749 4.76007 1.58906 4.92725 1.24374 5.74913C0.92968 6.49757 1.13281 7.04132 1.28593 7.0835C1.53749 7.15382 1.73906 6.1335 2.29531 5.76632C2.85156 5.39913 3.19374 5.63819 3.27031 5.43194C3.32499 5.28819 3.18749 4.86163 2.61406 4.79288Z" fill="#D26051"/>
<path d="M1.0094 8.13008C1.06877 8.10977 2.40159 7.54414 3.1469 6.9707C4.28127 6.09727 4.6219 5.14258 4.6219 5.14258C4.6219 5.14258 4.8344 5.3082 4.98909 5.61914C5.10002 5.84414 5.19377 6.20195 5.18752 6.23945C5.17502 6.31914 4.36409 7.19883 3.54377 7.83164C2.72346 8.46445 1.72502 8.82852 1.72502 8.82852C1.72502 8.82852 1.41877 8.60508 1.27346 8.45664C1.11877 8.2957 1.0094 8.13008 1.0094 8.13008Z" fill="#8B200B"/>
<path d="M0.851562 7.87109C0.851562 7.87109 1.98125 7.61016 3.01719 6.76953C4.025 5.95078 4.5 5.02734 4.5 5.02734C4.5 5.02734 4.61094 5.10859 4.68906 5.18672C4.76719 5.26484 4.82344 5.35391 4.82344 5.35391C4.82344 5.35391 4.55312 6.20859 3.23125 7.22578C2.06406 8.12578 1.08438 8.24141 1.08438 8.24141C1.08438 8.24141 1.00156 8.15078 0.939063 8.03984C0.895313 7.95703 0.851562 7.87109 0.851562 7.87109ZM1.45781 8.62578C1.45781 8.62578 2.52188 8.38516 3.54531 7.54297C4.82969 6.48672 5.08906 5.85391 5.08906 5.85391C5.08906 5.85391 5.15312 6.02578 5.17656 6.12891C5.20625 6.25703 5.225 6.41016 5.225 6.41016C5.225 6.41016 4.8625 7.15234 3.84531 7.93359C2.83594 8.71016 1.98906 8.96172 1.98906 8.96172C1.98906 8.96172 1.81562 8.88359 1.7 8.81328C1.60469 8.75703 1.45781 8.62578 1.45781 8.62578Z" fill="#FDE7C4"/>
</svg>
