<svg width="20" height="20" viewBox="0 0 20 20" fill="none" xmlns="http://www.w3.org/2000/svg">
<g clip-path="url(#clip0_10705_182009)">
<path d="M17.9676 0.838831C18.4482 0.96697 18.8326 1.28732 19.0568 1.73581C19.5373 2.7449 19.5053 4.26655 19.4572 4.97132C19.4092 5.91635 19.4733 10.6255 14.4118 15.4627C14.4118 15.4627 11.4485 18.3939 7.05978 19.1307C2.92729 19.8195 1.48572 19.1307 1.18139 18.8424C0.796972 18.49 0.476624 17.8333 0.492641 15.767C0.540693 14.822 0.636798 13.909 0.812989 12.98C1.48572 8.78346 4.19266 5.82024 4.19266 5.82024C8.98186 0.726709 13.9633 0.566535 14.8603 0.582552C14.8603 0.582552 16.7343 0.502465 17.9676 0.838831Z" fill="#982E30"/>
<path d="M1.19751 18.841C1.50184 19.1293 2.94341 19.8341 7.0759 19.1293C11.4647 18.3925 14.4279 15.4614 14.4279 15.4614C19.4894 10.6241 19.4253 5.91499 19.4734 4.96996C19.5054 4.2652 19.5535 2.74354 19.0729 1.73445C18.9448 1.47817 18.7686 1.25392 18.5283 1.09375C18.5123 1.09375 14.7002 11.8414 1.19751 18.841Z" fill="#742826"/>
<path d="M1.05328 18.6821L0.796997 18.2496C13.5148 11.7465 17.8395 0.93478 17.8876 0.806641L18.256 0.918762C18.24 0.950797 17.1027 3.65774 14.3157 7.32572C11.7369 10.7214 7.78058 15.2383 1.05328 18.6821Z" fill="#742826"/>
<path d="M7.66846 14.3739L7.21997 13.8133C10.904 10.8821 13.9152 6.79766 13.9473 6.76562L14.5239 7.18208C14.4919 7.21411 11.4325 11.3786 7.66846 14.3739Z" fill="#F8F7F1"/>
<path d="M7.31612 12.7068L8.78972 14.2445C8.9499 14.4206 8.9499 14.6929 8.7737 14.8531C8.59751 15.0133 8.32522 15.0133 8.16504 14.8371L6.69144 13.2994C6.53127 13.1232 6.53127 12.8509 6.70746 12.6908C6.88365 12.5306 7.15595 12.5466 7.31612 12.7068ZM9.046 11.2973L10.5837 12.7548C10.7599 12.915 10.7599 13.1873 10.5997 13.3635C10.4395 13.5397 10.1672 13.5397 10.007 13.3795L8.46937 11.9219C8.29318 11.7618 8.29318 11.4895 8.45336 11.3133C8.61353 11.1371 8.88583 11.1371 9.046 11.2973ZM10.6798 9.64746L12.1854 11.1531C12.3456 11.3133 12.3456 11.5856 12.1854 11.7618C12.0252 11.9219 11.7529 11.9219 11.5768 11.7618L10.0711 10.2561C9.91094 10.0959 9.91094 9.82365 10.0711 9.64746C10.2313 9.48729 10.5036 9.48729 10.6798 9.64746ZM12.1534 7.96563L13.7872 9.32711C13.9633 9.47127 13.9954 9.74356 13.8352 9.93577C13.691 10.112 13.4188 10.144 13.2265 9.98382L11.5928 8.62235C11.4166 8.47819 11.3845 8.20589 11.5447 8.01368C11.7049 7.83749 11.9612 7.82148 12.1534 7.96563ZM13.5949 6.29982L15.2768 7.61325C15.469 7.75741 15.501 8.0297 15.3569 8.22191C15.2127 8.41412 14.9404 8.44615 14.7482 8.28598L13.0664 6.97255C12.8742 6.8284 12.8421 6.5561 12.9863 6.36389C13.1465 6.17168 13.4027 6.13965 13.5949 6.29982Z" fill="#F8F7F1"/>
</g>
<defs>
<clipPath id="clip0_10705_182009">
<rect width="20" height="20" fill="white"/>
</clipPath>
</defs>
</svg>
