<svg width="20" height="20" viewBox="0 0 20 20" fill="none" xmlns="http://www.w3.org/2000/svg">
<g clip-path="url(#clip0_7648_463642)">
<path d="M3.83228 7.57812C3.78978 7.64012 3.75178 7.69953 3.7229 7.73633C3.62565 7.8602 3.32406 8.22571 3.64087 8.48633C3.95782 8.74644 4.26683 8.28601 4.38403 8.14844C4.44631 8.07593 4.58512 7.89292 4.69946 7.73145C5.05751 7.83916 5.42536 8.00165 5.802 8.21973C5.7382 8.26874 5.67099 8.32299 5.60571 8.37207C5.38556 8.53776 5.18612 8.85929 5.32349 9.06543C5.46099 9.27168 5.82642 9.17012 6.05298 9.01855C6.17546 8.93662 6.35821 8.79985 6.50708 8.68652C6.88705 8.96669 7.27518 9.29937 7.67114 9.68457C7.4478 9.77347 7.17495 9.87977 7.07349 9.90918C6.81268 9.98414 6.72151 10.2467 6.77759 10.4326C6.83383 10.6185 7.08724 10.7155 7.38403 10.625C7.56903 10.5692 7.98943 10.4581 8.2981 10.3516C8.69245 10.8167 9.01934 11.3046 9.28931 11.8037C9.08295 11.8228 8.79712 11.8513 8.67212 11.8721C8.33774 11.9283 8.20962 12.0721 8.20337 12.2783C8.19724 12.4843 8.36836 12.5924 8.51978 12.5957C8.75083 12.6 9.27921 12.5823 9.64868 12.5439C9.84245 12.9965 9.99359 13.4526 10.1125 13.9023C9.94125 13.8572 9.75233 13.8058 9.65942 13.7861C9.46725 13.7455 9.20905 13.7155 9.09497 13.9717C8.956 14.2808 9.20101 14.4343 9.35571 14.5156C9.5269 14.6053 9.97616 14.7036 10.302 14.7578C10.3738 15.156 10.4232 15.5439 10.4534 15.915C10.3622 15.8838 10.2673 15.8498 10.1917 15.8145C9.97293 15.7114 9.70411 15.6219 9.56665 15.8281C9.41683 16.0531 9.50484 16.2893 9.86255 16.4893C10.0673 16.6037 10.3024 16.7093 10.4924 16.7842C10.4975 17.144 10.4889 17.4781 10.4709 17.7783C10.3978 17.7256 10.3283 17.6754 10.2874 17.6465C10.1701 17.5636 9.92495 17.394 9.74536 17.5596C9.56256 17.7283 9.68306 17.9801 10.0549 18.2207C10.1983 18.3134 10.3151 18.3947 10.4124 18.458C10.3892 18.6641 10.3651 18.8391 10.343 18.9775C10.1577 18.8902 9.88412 18.8001 9.78735 18.9707C9.76497 19.0104 9.74935 19.0531 9.74438 19.0977C5.6334 18.9276 3.09497 15.8809 3.09497 15.8809C1.23346 14.0675 0.62542 11.842 0.79126 9.70605C1.08316 9.75736 1.11927 9.51732 1.14478 9.40625C1.19499 9.18896 1.24304 8.9497 1.27173 8.75195C1.38941 8.62512 1.54468 8.47083 1.73462 8.31738C1.67174 8.51479 1.64216 8.82459 1.91724 8.93164C2.23427 9.05475 2.45457 8.71066 2.53735 8.45605C2.59361 8.28307 2.71149 7.96348 2.78442 7.72266C2.96418 7.66105 3.15446 7.6137 3.35474 7.5918C3.51161 7.57448 3.67082 7.57056 3.83228 7.57812ZM9.17896 1.59082C9.05839 1.84634 8.89331 2.24152 8.85767 2.30957C8.80459 2.40813 8.77203 2.65944 8.9563 2.76562C9.1405 2.87162 9.34192 2.68934 9.41235 2.5332C9.4619 2.4206 9.57949 2.14735 9.64185 2.00391C9.92056 2.25138 10.2305 2.52375 10.5549 2.80957C10.4699 3.036 10.3705 3.35018 10.3215 3.56055C10.2762 3.75273 10.3045 4.05176 10.5452 4.09082C10.8138 4.1361 10.9155 3.98144 10.9983 3.75195C11.0409 3.63386 11.099 3.46569 11.1467 3.33105C11.5295 3.66627 11.9226 4.005 12.301 4.33105C12.1935 4.63652 12.0719 5.0626 12.0374 5.18164C11.9842 5.36452 11.8986 5.75428 12.1682 5.83887C12.4526 5.92793 12.6434 5.80137 12.7278 5.47949C12.771 5.31512 12.8462 5.05205 12.9036 4.84961C13.2592 5.14982 13.6657 5.47588 14.095 5.81348C13.9996 6.10249 13.8837 6.51227 13.8577 6.62793C13.8186 6.7998 13.8206 7.0752 14.094 7.14551C14.3171 7.20305 14.4971 7.08757 14.5471 6.87695C14.5907 6.69631 14.6603 6.47358 14.718 6.30078C15.1042 6.59814 15.4995 6.89628 15.886 7.18555C15.855 7.46771 15.8421 7.82312 15.842 7.90137C15.842 8.02324 15.9315 8.3418 16.219 8.3418C16.4748 8.34153 16.5822 8.06738 16.5823 7.92676C16.5823 7.88365 16.588 7.80254 16.592 7.71094C16.9205 7.95359 17.235 8.18185 17.5217 8.39062C17.5018 8.67294 17.5022 9.09267 17.511 9.2373C17.5235 9.44199 17.6967 9.6205 17.9202 9.61426C18.1435 9.60801 18.2463 9.39704 18.2385 9.23145C18.2354 9.16589 18.2387 9.04093 18.2415 8.91406C18.4189 9.04181 18.573 9.15255 18.6985 9.24219C18.6869 9.54355 18.7375 9.98045 18.7375 10.0361C18.7376 10.1129 18.7626 10.3749 19.0247 10.375C19.114 10.375 19.1799 10.3529 19.2278 10.3193C19.1126 11.9415 18.5407 14.303 17.0432 16.0234C15.6432 17.631 13.9606 18.739 11.3069 19.0322C11.2555 18.9421 11.116 18.9334 10.968 18.9541C10.9898 18.823 11.013 18.6653 11.0354 18.4844C11.234 18.3985 11.4591 18.2864 11.5422 18.2402C11.756 18.123 11.8247 17.8892 11.6594 17.7236C11.4938 17.558 11.259 17.7295 11.1418 17.792C11.1301 17.7983 11.1162 17.8041 11.1018 17.8115C11.1249 17.4856 11.1382 17.1197 11.134 16.7236C11.3375 16.5775 11.5657 16.379 11.6311 16.3174C11.7405 16.2143 12.044 15.8902 11.8518 15.6699C11.6221 15.4075 11.3768 15.6082 11.1565 15.7598C11.1356 15.7741 11.1143 15.7888 11.093 15.8037C11.0609 15.4113 11.0075 15.0005 10.929 14.5781C11.0966 14.4111 11.2926 14.1966 11.3948 14.1035C11.5682 13.9457 11.7604 13.6139 11.5745 13.3936C11.3886 13.1737 11.1416 13.3108 10.9963 13.4482C10.9355 13.5058 10.833 13.6118 10.7327 13.7139C10.5987 13.2166 10.4259 12.7104 10.2014 12.207C10.3602 11.9018 10.5496 11.4237 10.634 11.1973C10.7387 10.9177 10.8327 10.6251 10.5237 10.5156C10.2143 10.4062 10.076 10.6266 9.96509 10.8672C9.9189 10.9688 9.8309 11.1465 9.74731 11.3193C9.46725 10.8349 9.13288 10.3601 8.73755 9.90234C8.80913 9.57186 8.88643 9.05625 8.90649 8.88477C8.93462 8.64414 8.94048 8.34043 8.62329 8.29199C8.30614 8.24358 8.17681 8.45802 8.14868 8.68457C8.13975 8.75672 8.09561 8.98563 8.05884 9.19043C7.63794 8.78527 7.22274 8.43519 6.81372 8.13965C6.8373 7.91372 6.85767 7.63718 6.85767 7.49023C6.8577 7.22147 6.89189 6.80311 6.5686 6.78125C6.24542 6.7594 6.17686 7.00747 6.15649 7.19336C6.14611 7.28838 6.12704 7.4989 6.1106 7.68164C5.67128 7.428 5.24047 7.23959 4.81763 7.11816C4.75305 6.82773 4.65101 6.45882 4.61841 6.35156C4.56998 6.19221 4.45931 5.80972 4.10181 5.89844C3.78309 5.97812 3.79792 6.31097 3.89478 6.64844C3.9279 6.76385 3.95405 6.87255 3.97681 6.96484C3.74395 6.94663 3.51421 6.94711 3.28735 6.97168C3.07787 6.99463 2.88155 7.03361 2.69849 7.08496C2.60475 6.89779 2.48958 6.69249 2.42017 6.59082C2.28892 6.39863 2.02778 6.28105 1.81372 6.4248C1.67157 6.52172 1.59988 6.81761 1.77954 7.07227C1.8577 7.18371 1.92531 7.29702 1.97095 7.37891C1.57468 7.59195 1.276 7.84867 1.07056 8.05957C1.57665 6.13089 2.6562 4.39612 3.92017 3.27148C5.11113 2.21177 6.38294 1.48765 7.69263 1.1084C7.65934 1.19339 7.65754 1.31342 7.77173 1.40332C7.91839 1.51867 8.1228 1.4222 8.23071 1.3457C8.33341 1.27381 8.51803 1.04769 8.54028 1.02051C8.68743 1.15258 8.90789 1.34921 9.17896 1.59082ZM9.36157 0.8125C11.5176 0.674791 13.7285 1.45717 15.8186 3.21387C16.4461 3.7418 17.1323 4.29915 17.5725 4.99316C18.2771 5.95659 18.9523 7.43821 19.1721 8.75195C19.0995 8.76072 19.0232 8.78442 18.9543 8.81836C18.8159 8.71851 18.6272 8.5821 18.4006 8.41699C18.4869 8.35697 18.5869 8.28889 18.6282 8.25977C18.75 8.17699 18.7749 7.97829 18.6672 7.8252C18.5579 7.67211 18.3342 7.62628 18.1233 7.74805C18.0213 7.80697 17.8906 7.88735 17.7805 7.96094C17.4598 7.72504 17.101 7.46199 16.7249 7.18066C16.8316 7.12231 16.9877 7.03695 17.0608 6.98633C17.2202 6.87695 17.4 6.67324 17.2844 6.45605C17.1688 6.23909 16.8627 6.30302 16.6643 6.38574C16.5659 6.42888 16.2851 6.59194 16.1067 6.7168C15.7529 6.4492 15.3923 6.17268 15.0374 5.89746C15.1904 5.81185 15.3836 5.70315 15.4856 5.65039C15.6715 5.5551 15.7544 5.29237 15.6389 5.10645C15.5233 4.92051 15.2624 4.94707 15.0061 5.03613C14.835 5.09702 14.5645 5.25958 14.385 5.38379C13.9794 5.06247 13.5932 4.75146 13.2512 4.46289C13.4599 4.38577 13.7288 4.28678 13.8167 4.25293C13.9666 4.19512 14.1401 4.00487 14.0354 3.77051C13.9307 3.53613 13.6325 3.56602 13.4856 3.61914C13.4706 3.62564 12.9224 3.80705 12.6252 3.92578C12.2716 3.62185 11.9083 3.30905 11.554 3.00098C11.6658 2.96493 11.7837 2.92618 11.8674 2.90137C12.1481 2.81864 12.2312 2.70326 12.2375 2.55664C12.2438 2.40979 12.0907 2.13493 11.6174 2.24414C11.4194 2.29074 11.112 2.35591 10.8987 2.42969C10.6749 2.23417 10.4584 2.04663 10.2561 1.86914C10.2928 1.86551 10.326 1.86498 10.3518 1.86133C10.5673 1.83163 10.7315 1.77173 10.719 1.52344C10.7065 1.27507 10.3048 1.29376 9.89087 1.32031C9.80935 1.32519 9.72503 1.32858 9.64673 1.33203C9.49845 1.20141 9.36481 1.08351 9.24927 0.981445C9.30252 0.944966 9.34609 0.889379 9.36157 0.8125Z" fill="#495266"/>
</g>
<defs>
<clipPath id="clip0_7648_463642">
<rect width="20" height="20" fill="white"/>
</clipPath>
</defs>
</svg>
