<svg width="50" height="50" viewBox="0 0 50 50" fill="none" xmlns="http://www.w3.org/2000/svg">
<g clip-path="url(#clip0_501_96532)">
<path d="M14.5833 14.1693C14.5833 12.6735 13.1842 11.4609 11.4583 11.4609C9.73237 11.4609 8.33325 12.6735 8.33325 14.1693V35.8359C8.33325 37.3317 9.73237 38.5443 11.4583 38.5443C13.1842 38.5443 14.5833 37.3317 14.5833 35.8359V14.1693Z" fill="#A0A8B4" stroke="#303236" stroke-width="4.16667" stroke-linejoin="round"/>
<path d="M41.6667 14.1693C41.6667 12.6735 40.2677 11.4609 38.5417 11.4609C36.8158 11.4609 35.4167 12.6735 35.4167 14.1693V35.8359C35.4167 37.3317 36.8158 38.5443 38.5417 38.5443C40.2677 38.5443 41.6667 37.3317 41.6667 35.8359V14.1693Z" fill="#A0A8B4" stroke="#303236" stroke-width="4.16667" stroke-linejoin="round"/>
<path d="M8.33325 19.4419C8.33325 17.9077 6.93414 16.6641 5.20825 16.6641C3.48237 16.6641 2.08325 17.9077 2.08325 19.4419V30.5529C2.08325 32.0871 3.48237 33.3307 5.20825 33.3307C6.93414 33.3307 8.33325 32.0871 8.33325 30.5529V19.4419Z" fill="#A0A8B4" stroke="#303236" stroke-width="4.16667" stroke-linejoin="round"/>
<path d="M47.9167 19.4419C47.9167 17.9077 46.5177 16.6641 44.7917 16.6641C43.0658 16.6641 41.6667 17.9077 41.6667 19.4419V30.5529C41.6667 32.0871 43.0658 33.3307 44.7917 33.3307C46.5177 33.3307 47.9167 32.0871 47.9167 30.5529V19.4419Z" fill="#A0A8B4" stroke="#303236" stroke-width="4.16667" stroke-linejoin="round"/>
<path d="M35.4166 28.125H14.5833V21.875H35.4166V28.125Z" fill="#A0A8B4" stroke="#303236" stroke-width="4.16667" stroke-linejoin="round"/>
</g>
<defs>
<clipPath id="clip0_501_96532">
<rect width="50" height="50" fill="white"/>
</clipPath>
</defs>
</svg>
