<svg width="20" height="20" viewBox="0 0 20 20" fill="none" xmlns="http://www.w3.org/2000/svg">
<path d="M9.26514 1.76465C9.5936 1.30506 10.2746 1.29874 10.6118 1.75195L13.355 5.44336C13.4574 5.58119 13.6001 5.68454 13.7632 5.73828L18.0874 7.16309C18.6218 7.3393 18.8317 7.98343 18.5034 8.44043L15.8394 12.1445C15.7381 12.2854 15.6827 12.4544 15.6821 12.6279L15.6685 17.1934L15.6626 17.2969C15.603 17.7712 15.1496 18.1001 14.6802 18.0098L14.5796 17.9834L10.2563 16.5879C10.09 16.5342 9.91003 16.5342 9.74365 16.5879L5.42041 17.9834C4.91696 18.1458 4.40232 17.805 4.33838 17.2969L4.33154 17.1934L4.31787 12.6279C4.31742 12.4978 4.28621 12.37 4.22803 12.2549L4.16064 12.1445L1.49658 8.44043C1.16829 7.98341 1.3781 7.33928 1.9126 7.16309L6.229 5.74121C6.35514 5.69958 6.46865 5.62789 6.56104 5.53418L6.646 5.43359L9.26514 1.76465ZM8.00244 6.40234C7.69368 6.8347 7.25507 7.15789 6.75049 7.32422L3.51318 8.38965L5.51416 11.1709C5.81842 11.594 5.98226 12.1019 5.98389 12.623L5.99365 16.0469L9.23193 15.002C9.6686 14.861 10.1347 14.8436 10.5786 14.9492L10.7681 15.002L14.0054 16.0469L14.0161 12.623L14.0239 12.4287C14.0606 11.9765 14.2204 11.5412 14.4868 11.1709L16.4858 8.38965L13.2417 7.32129C12.7523 7.16005 12.3244 6.85107 12.0171 6.4375L9.95654 3.66406L8.00244 6.40234ZM9.33643 6.29102C9.66989 5.8518 10.3301 5.85179 10.6636 6.29102L11.7554 7.73047C11.8595 7.86774 12.0042 7.96951 12.1685 8.02148L13.8804 8.56348C14.4275 8.73663 14.6404 9.39806 14.2964 9.85742L13.2651 11.2334C13.1578 11.3768 13.0997 11.5514 13.0991 11.7305L13.0933 13.4561C13.0912 14.0161 12.5482 14.4149 12.0132 14.249L10.2466 13.7012C10.086 13.6514 9.91402 13.6514 9.75342 13.7012L7.98584 14.249C7.45093 14.4145 6.90875 14.016 6.90674 13.4561L6.90088 11.7305C6.90032 11.5514 6.84215 11.3768 6.73486 11.2334L5.70361 9.85742C5.35957 9.39805 5.57244 8.73662 6.11963 8.56348L7.83154 8.02148C7.99575 7.96953 8.13953 7.86766 8.24365 7.73047L9.33643 6.29102Z" fill="#495266"/>
</svg>
