<svg width="20" height="20" viewBox="0 0 20 20" fill="none" xmlns="http://www.w3.org/2000/svg">
<path d="M13.3499 3.83301C12.3213 2.61712 8.80258 -0.515955 4.85767 2.00098C0.91305 4.51799 2.01542 8.58452 3.21216 10.8018C4.36997 12.9455 5.57036 13.7586 6.63599 14.3008C7.70161 14.843 9.302 14.6475 9.302 14.6475L9.32739 14.6289C9.54833 14.62 9.85047 14.597 10.0872 14.5791C10.3184 14.5604 10.7765 14.443 11.3811 14.6289C11.7305 14.736 12.0074 14.9185 12.1838 15.0566C12.9154 16.0894 13.7274 17.2381 14.0754 17.7393C14.4536 18.2846 15.0645 19.3943 15.2864 19.4756C15.5084 19.5563 16.0038 19.1117 16.5989 18.6885C17.1941 18.2651 17.7907 17.8711 17.8206 17.6289C17.8502 17.3867 17.3157 16.9518 17.2141 16.8408C17.1117 16.7288 16.3962 15.8609 15.5579 14.6807C15.2206 14.2059 14.813 13.5826 14.4436 13.0088C14.3913 12.8103 14.3366 12.5785 14.3176 12.4082C14.2771 12.0443 14.4813 11.6242 14.5891 11.3789C14.7401 11.0364 14.9905 10.6348 15.0325 10.4619L15.1018 10.3281C15.2252 10.059 15.4649 9.37501 15.4075 8.20996C15.3483 6.98056 14.8477 5.89434 14.1917 4.93066L14.3567 5.18359C14.3567 5.2077 14.1979 7.45499 11.6067 7.45215C9.86138 7.45059 8.79224 5.91133 8.99536 4.16602C9.19863 2.42089 11.3645 2.23047 11.3645 2.23047L14.1633 4.88867C13.9092 4.51921 13.6326 4.1673 13.3499 3.83301Z" fill="#495266"/>
<path fill-rule="evenodd" clip-rule="evenodd" d="M13.72 1.09627C12.7528 0.383842 11.1985 0.383177 10.2297 1.35017C9.50474 2.07516 9.02164 3.95701 10.4075 5.14607C11.7278 6.27889 13.6112 5.75369 14.344 4.649C15.172 3.40058 14.7153 1.82907 13.72 1.09627ZM11.6828 1.41267C11.6861 1.09553 12.3099 0.848251 13.0207 1.16853C13.7425 1.49358 14.1096 2.35978 14.1096 2.92537C14.1096 3.50159 13.9236 3.67986 13.6457 3.65193C13.3552 3.62225 13.3172 3.36443 13.2532 2.86775C13.1938 2.40838 12.745 1.86541 12.3528 1.77791C11.9296 1.68426 11.6813 1.67976 11.6828 1.41267Z" fill="#495266"/>
</svg>
