<svg width="50" height="50" viewBox="0 0 50 50" fill="none" xmlns="http://www.w3.org/2000/svg">
<path d="M25.2829 45.4062C36.5584 45.4062 45.691 36.2735 45.691 24.998C45.691 13.7225 36.5584 4.58984 25.2829 4.58984C14.0074 4.58984 4.87476 13.7225 4.87476 24.998C4.87476 36.2735 14.0074 45.4062 25.2829 45.4062Z" stroke="#51555E" stroke-width="4.08163" stroke-miterlimit="2" stroke-linejoin="round"/>
<path d="M25.2829 27.0404C26.9768 27.0404 28.3441 25.6731 28.3441 23.9792C28.3441 22.2853 26.9768 20.918 25.2829 20.918C23.589 20.918 22.2217 22.2853 22.2217 23.9792C22.2217 25.6731 23.589 27.0404 25.2829 27.0404Z" fill="#51555E"/>
<path d="M32.4257 18.8764C34.1196 18.8764 35.487 17.509 35.487 15.8151C35.487 14.1213 34.1196 12.7539 32.4257 12.7539C30.7318 12.7539 29.3645 14.1213 29.3645 15.8151C29.3645 17.509 30.7318 18.8764 32.4257 18.8764Z" fill="#51555E"/>
<path d="M18.1401 18.8764C19.834 18.8764 21.2013 17.509 21.2013 15.8151C21.2013 14.1213 19.834 12.7539 18.1401 12.7539C16.4462 12.7539 15.0789 14.1213 15.0789 15.8151C15.0789 17.509 16.4462 18.8764 18.1401 18.8764Z" fill="#51555E"/>
</svg>
