<svg width="20" height="20" viewBox="0 0 20 20" fill="none" xmlns="http://www.w3.org/2000/svg">
<path d="M19.166 6.66602C19.1484 7.36468 11.3282 16.0029 10.125 17.3281L10.0742 17.499L10.0469 17.4141C9.99925 17.4665 9.97412 17.4963 9.97168 17.499C6.69834 14.0579 3.64649 10.4428 0.833008 6.67188H6.66895L6.66699 6.66699H0.833008L4.62695 2.5H15.374L19.166 6.66602ZM13.3311 6.67188H19.1475L19.1641 6.66699H13.333L13.3311 6.67188Z" fill="#495266"/>
<path d="M5.83337 5.83398H8.75004L8.35231 6.25065L10.4167 13.334H9.58337L6.07959 6.25065L5.83337 5.83398Z" fill="white"/>
<path d="M14.1667 5.83398H11.1932L11.6478 6.25065L9.58337 13.334H10.4167L13.9205 6.25065L14.1667 5.83398Z" fill="white"/>
</svg>
