<svg width="20" height="20" viewBox="0 0 20 20" fill="none" xmlns="http://www.w3.org/2000/svg">
<g clip-path="url(#clip0_7648_463621)">
<path d="M14.2937 7.6038C14.1484 7.89599 2.37341 18.1429 2.37341 18.1429C2.37341 18.1429 3.21873 19.5679 6.68435 19.421C9.83123 19.2882 13.1265 17.8397 16.0437 14.4569C18.9609 11.0741 19.3937 7.63036 19.2547 5.58505C19.0765 2.9663 18.0703 2.28661 17.8078 2.02411C17.5469 1.76318 14.2937 7.6038 14.2937 7.6038Z" fill="#CF6F24"/>
<path d="M4.84537 4.91994C1.93443 7.75588 -1.16244 14.1496 2.01568 17.8246C3.25475 19.2574 6.50787 18.8059 9.54068 17.2699C11.6063 16.2246 13.5016 14.5293 14.8188 13.1293C18.0563 9.68713 19.911 3.02463 17.1813 1.49182C13.8563 -0.373809 8.87037 0.996503 4.84537 4.91994Z" fill="#E07F14"/>
<path d="M1.78903 17.5429C1.5234 16.107 1.71247 15.1523 2.35465 13.6413C3.33903 11.3242 5.94684 8.02571 7.7984 6.29759C9.71247 4.51321 11.5312 3.0804 14.189 1.8929C16.1718 1.00696 16.7984 1.23509 16.8437 1.2429C16.914 1.25384 17.2797 1.39603 17.3359 1.54759C17.3656 1.62728 17.4265 1.74446 17.2453 1.73196C17.239 1.7304 16.2672 1.68353 14.4578 2.49134C11.8828 3.64134 10.1125 5.03665 8.2484 6.77728C6.44528 8.46009 3.9109 11.6616 2.95934 13.8991C2.36872 15.2913 2.18278 16.7179 2.42653 18.0273C2.45934 18.2054 2.29997 18.1616 2.14684 18.0788C2.00778 18.0023 1.81872 17.7023 1.78903 17.5429Z" fill="#AF5912"/>
<path d="M5.10472 11.8778C4.66566 11.8778 4.25316 11.7512 3.9016 11.4981C3.42191 11.1512 3.30941 10.7278 3.26878 10.1715C3.16097 8.67933 4.62972 6.85901 5.9516 5.57933C8.70003 2.92151 10.6844 2.06214 11.9782 3.11995C12.5891 3.61995 12.8047 4.36214 12.5563 5.10745C12.3219 5.81058 11.5407 6.5762 10.461 7.63558C10.1469 7.94339 9.82191 8.26214 9.47816 8.61058C9.22503 8.86839 8.96878 9.15276 8.70003 9.45276C8.02191 10.2075 7.32191 10.9887 6.53753 11.4528C6.06097 11.7371 5.56878 11.8778 5.10472 11.8778ZM10.6703 3.21214C9.60628 3.21214 8.13285 4.11839 6.26722 5.92308C4.51722 7.61683 3.59222 9.09964 3.6641 10.0996C3.69222 10.4918 3.87503 10.8043 4.22191 11.0559C4.76253 11.4465 5.52347 11.42 6.25941 10.984C6.97191 10.5621 7.64378 9.8137 8.29378 9.0887C8.56722 8.78245 8.8266 8.49339 9.09066 8.22776C9.43753 7.8762 9.7641 7.55589 10.0797 7.24651C11.0672 6.27933 11.8469 5.5137 12.0391 4.93558C12.2188 4.39808 12.0735 3.90433 11.6328 3.54339C11.3625 3.32308 11.0422 3.21214 10.6703 3.21214Z" fill="#AF5912"/>
<path d="M6.17975 6.70686C5.97037 6.93499 5.961 7.24905 6.31412 7.51467C6.711 7.81467 7.02818 8.09436 7.236 8.28186C7.4485 8.47249 7.81568 8.67561 8.11568 8.42717C8.34693 8.23499 8.33287 7.82717 8.10475 7.60842C7.911 7.42405 7.136 6.80686 6.97506 6.68655C6.77037 6.53186 6.41881 6.44905 6.17975 6.70686ZM7.35787 5.47874C7.07818 5.74749 7.236 6.08499 7.46412 6.25061C7.69225 6.41624 8.20006 6.84124 8.36568 6.98655C8.53131 7.13186 8.97662 7.63967 9.40162 7.20374C9.72193 6.87561 9.34537 6.53655 9.1735 6.36467C8.961 6.14905 8.37975 5.66155 8.17506 5.51624C8.00006 5.39436 7.62818 5.21936 7.35787 5.47874ZM8.67975 4.4303C8.42662 4.70217 8.60631 5.00374 8.83287 5.16467C9.05943 5.32561 9.48756 5.7303 9.67193 5.88342C9.85787 6.03655 10.3047 6.45999 10.6172 6.10999C10.9063 5.78499 10.611 5.46467 10.3985 5.25374C10.1657 5.02249 9.68443 4.60217 9.41412 4.42249C9.26412 4.32249 8.92037 4.17092 8.67975 4.4303ZM9.98287 3.4803C9.83443 3.63342 9.76881 3.8928 10.0391 4.12874C10.3735 4.42092 10.8797 4.84592 11.0001 4.95999C11.2016 5.15374 11.5594 5.23499 11.7344 5.00061C11.936 4.7303 11.7579 4.46155 11.5079 4.15061C11.3391 3.94124 10.8454 3.5678 10.6922 3.47092C10.5391 3.37561 10.1735 3.28186 9.98287 3.4803ZM5.03912 7.99592C4.80787 8.28655 4.92662 8.56936 5.2485 8.81936C5.57193 9.06936 6.07193 9.46467 6.26568 9.57874C6.45943 9.6928 6.73756 9.85999 7.00787 9.54592C7.31412 9.19124 6.94381 8.85217 6.66881 8.60999C6.46725 8.43186 5.99225 8.0803 5.76412 7.93186C5.55475 7.79436 5.2235 7.76155 5.03912 7.99592ZM3.986 9.23342C3.8485 9.40842 3.76256 9.71624 4.14225 10.0475C4.52193 10.3787 4.90943 10.6537 5.06256 10.774C5.21568 10.8959 5.71725 11.0897 5.96725 10.7662C6.21725 10.4428 5.95943 10.1694 5.69225 9.98342C5.42506 9.79749 4.76412 9.3053 4.63443 9.1928C4.50475 9.0803 4.19537 8.96624 3.986 9.23342Z" fill="#713604"/>
</g>
<defs>
<clipPath id="clip0_7648_463621">
<rect width="20" height="20" fill="white"/>
</clipPath>
</defs>
</svg>
