<svg width="20" height="20" viewBox="0 0 20 20" fill="none" xmlns="http://www.w3.org/2000/svg">
<path d="M1 10.0004C0.999947 11.1823 1.2327 12.3527 1.68497 13.4447C2.13724 14.5367 2.80016 15.5289 3.6359 16.3646C4.47163 17.2004 5.4638 17.8634 6.55576 18.3157C7.64771 18.768 8.81807 19.0008 10 19.0008C11.1819 19.0008 12.3523 18.768 13.4442 18.3157C14.5362 17.8634 15.5284 17.2004 16.3641 16.3646C17.1998 15.5289 17.8628 14.5367 18.315 13.4447C18.7673 12.3527 19.0001 11.1823 19 10.0004C19.0001 8.81847 18.7673 7.6481 18.315 6.55613C17.8628 5.46415 17.1998 4.47195 16.3641 3.63618C15.5284 2.80041 14.5362 2.13744 13.4442 1.68512C12.3523 1.23281 11.1819 1 10 1C8.81807 1 7.64771 1.23281 6.55576 1.68512C5.4638 2.13744 4.47163 2.80041 3.6359 3.63618C2.80016 4.47195 2.13724 5.46415 1.68497 6.55613C1.2327 7.6481 0.999947 8.81847 1 10.0004Z" fill="#495266"/>
<path d="M8.63262 2.85156C8.63262 2.85156 6.07405 3.46926 4.22095 6.99883C4.22095 6.99883 4.92641 8.67529 8.01492 9.99846C8.01492 9.99846 9.07368 6.47002 10.2213 5.67567L8.63262 2.85156Z" fill="white"/>
</svg>
