<svg width="20" height="20" viewBox="0 0 20 20" fill="none" xmlns="http://www.w3.org/2000/svg">
<g clip-path="url(#clip0_10697_180817)">
<path d="M4.875 18.4382C4.875 18.4382 7.15625 17.2507 9.53125 17.7195C11.75 18.1569 11.8125 16.782 13 16.782C14.1875 16.782 14 15.7194 14.9062 15.7819C14.9062 15.7819 15.3125 15.8132 15.3125 16.2195C15.3125 16.2195 14.5625 16.2507 14.25 16.8445C13.9375 17.4382 12.1875 17.3757 11.5 18.0632C10.6562 18.9069 8.28125 18.3444 7.28125 18.4382C6.5 18.5319 5.5625 19.3757 4.21875 19.3757L4.875 18.4382Z" fill="#3E4347"/>
<path d="M8.53125 16.75C8.53125 16.75 9.96875 16.6875 10.8125 17.3125C11.6875 17.9375 12.3125 18.7187 13.4063 18.3437C14.5 17.9687 15.5313 17.6875 16.7188 18.0625C16.7188 18.0625 16.875 17.8437 16.8438 17.5937C16.8438 17.5937 16.0938 17.1562 15.2188 17.3437C14.3438 17.5312 13.4688 18.0312 12.9062 17.8437C12.3438 17.6562 11.1563 16.375 9.25 16.375L8.53125 16.75Z" fill="#3E4347"/>
<path d="M17.4375 18.0313C17.4687 17.9688 17.4687 17.9063 17.4375 17.9063L16.4062 17.5312L16.3125 17.75L17.3437 18.125C17.3437 18.125 17.4062 18.0938 17.4375 18.0313Z" fill="#3E4347"/>
<path d="M4.46878 11.7503C4.46878 11.7503 2.78128 6.03155 8.56253 4.15655C13.6875 2.53155 12 7.3128 4.46878 11.7503Z" fill="#C94747"/>
<path d="M8.56247 3.31243C5.87497 10.2499 4.03122 10.0624 5.28122 12.4999L5.74997 18.6874C5.74997 18.6874 6.59372 18.1874 8.59372 17.0312C10.0937 16.1562 13.0625 15.9374 15.0625 14.7499C18.5937 12.6874 20.625 9.53118 18.5937 5.96868C16.5625 2.43743 10.8125 -2.53132 8.56247 3.31243Z" fill="#ED4C5C"/>
<path d="M7.625 13.3759C6.625 11.6259 5.0625 10.6571 4.125 11.1884L1.28125 12.8446L4.875 19.2196L7.71875 17.5634C8.65625 17.0009 8.625 15.1259 7.625 13.3759Z" fill="#C94747"/>
<path d="M4.81252 15.0321C5.81252 16.7821 5.84377 18.6571 4.90627 19.2196C3.96877 19.7821 2.40627 18.7821 1.40627 17.0321C0.406274 15.2821 0.375024 13.4071 1.31252 12.8446C2.25002 12.3134 3.81252 13.2821 4.81252 15.0321Z" fill="#3E4347"/>
<path d="M4.25004 15.343C4.96879 16.6242 5.03129 17.968 4.40629 18.343C3.78129 18.718 2.65629 17.9992 1.93754 16.718C1.21879 15.4367 1.15629 14.093 1.78129 13.718C2.43754 13.343 3.53129 14.093 4.25004 15.343Z" fill="#ED4C5C"/>
<path d="M4.25002 15.3428C3.65627 14.2803 2.78127 13.5928 2.12502 13.6241C2.00002 14.2178 2.18752 15.1241 2.68752 15.9991C3.28127 17.0616 4.15627 17.7491 4.81252 17.7178C4.93752 17.1241 4.75002 16.2178 4.25002 15.3428Z" fill="#C94747"/>
<path d="M12.0938 1.87435C13.0313 1.31185 16.0313 3.56185 17.4063 5.9681C18.7813 8.37435 16.6251 8.8431 15.2501 6.43685C13.9063 3.99935 10.5626 2.74935 12.0938 1.87435Z" fill="#FF717F"/>
<path d="M8.1875 4.3125C8.1875 4.3125 7.5625 7.25 5.40625 9.65625C5.40625 9.65625 6.78125 7.46875 7.28125 4.6875L8.1875 4.3125Z" fill="#3E4347"/>
<path d="M9.375 3.09375C10.4375 2.78125 9.40625 1.90625 10 1.21875C9.4375 1.65625 8.71875 2.28125 8.4375 3.3125C7 8.78125 4.90625 9.3125 4.875 11.0625C5.25 10.8125 6.0625 10.0313 7 10.2813C8.34375 10.6563 5.46875 8.875 7.0625 9.09375C8.6875 9.28125 6.40625 7.9375 7.875 7.84375C9.34375 7.75 6.625 6.28125 8.53125 6.3125C10.4375 6.34375 7.4375 5.03125 9.625 4.90625C11.8125 4.71875 8.0625 3.46875 9.375 3.09375Z" fill="#C94747"/>
<path d="M2.8125 12.4688C3.65625 12.8438 4.53125 13.6875 5.1875 14.8125C5.84375 15.9688 6.09375 17.125 6 18.0625L7.53125 17.1563C8.15625 16.7813 8.21875 15.2188 7.28125 13.5625C6.5 12.1875 5.40625 11.4375 4.75 11.4375C4.59375 11.4375 4.5 11.4688 4.375 11.5313L2.8125 12.4688Z" fill="white"/>
<path d="M15.9375 15.8438C15.9375 15.7813 15.9062 15.7188 15.875 15.7188L14.75 15.9375L14.7812 16.1875L15.875 16C15.9062 15.9688 15.9375 15.9063 15.9375 15.8438Z" fill="#3E4347"/>
</g>
<defs>
<clipPath id="clip0_10697_180817">
<rect width="20" height="20" fill="white"/>
</clipPath>
</defs>
</svg>
