<svg width="20" height="20" viewBox="0 0 20 20" fill="none" xmlns="http://www.w3.org/2000/svg">
<g clip-path="url(#clip0_45_2570)">
<circle cx="10" cy="10.0007" r="9.16667" fill="#495266"/>
<path d="M9.139 15.9971L8.851 15.5317C8.74014 15.5794 8.621 15.6059 8.5 15.6097C8.44699 15.6126 8.39397 15.6043 8.34446 15.5855C8.29494 15.5668 8.25004 15.5379 8.21275 15.5008C8.21275 15.5008 8.1745 15.5096 8.1595 15.6134C8.14075 15.6134 7.9795 15.5899 7.9015 15.3432C7.87641 15.3528 7.85493 15.3698 7.84 15.3918C7.82074 15.425 7.80885 15.4619 7.80511 15.5C7.80136 15.538 7.80584 15.5764 7.81825 15.6127L7.81375 15.609C7.74486 15.5405 7.69345 15.457 7.66375 15.3653L7.55725 15.4779L7.63225 15.5678L7.594 15.6127C7.594 15.6127 7.46425 15.4794 7.39 15.4794C7.38187 15.4794 7.37388 15.4815 7.36675 15.4853L7.37425 15.5825L7.306 15.6053L7.21525 15.4698C7.21525 15.4698 7.11625 15.5236 7.10875 15.5972L7.075 15.5464L7.02175 15.584H6.95275C6.95275 15.584 6.93025 15.4367 6.892 15.4117L6.85375 15.5096H6.718V15.4198L6.589 15.5096C6.58151 15.5091 6.57399 15.5091 6.5665 15.5096C6.52924 15.5067 6.49221 15.5175 6.46266 15.54C6.43311 15.5625 6.41317 15.5949 6.40675 15.6311L6.325 15.5913C6.33415 15.5134 6.31815 15.4346 6.27925 15.366C6.2738 15.365 6.2682 15.365 6.26275 15.366C6.2365 15.366 6.18775 15.3866 6.18025 15.5265C6.17105 15.5295 6.16143 15.531 6.15175 15.531C6.1225 15.531 6.0715 15.517 6.05125 15.4212H5.9815L5.9965 15.609C5.9965 15.609 5.965 15.5052 5.74975 15.5052C5.71539 15.5053 5.68108 15.5075 5.647 15.5118H5.58175C5.47 15.5118 5.278 15.4986 5.245 15.4124L5.21425 15.6002C5.21054 15.5844 5.2025 15.5699 5.191 15.5582C5.17735 15.5455 5.16117 15.5358 5.14348 15.5296C5.12579 15.5234 5.10699 15.5208 5.08825 15.5221C5.0077 15.5273 4.92908 15.5486 4.85725 15.5847L4.78225 15.5773L4.78975 15.4801H4.744L4.71325 15.6451L4.63825 15.6304C4.63825 15.6304 4.68325 15.5567 4.66525 15.5059C4.66238 15.4981 4.65771 15.491 4.65159 15.4853C4.64548 15.4795 4.63809 15.4753 4.63 15.4728C4.59539 15.4821 4.56419 15.5009 4.54003 15.527C4.51587 15.5531 4.49973 15.5853 4.4935 15.6201L4.4185 15.5825L4.426 15.4176L4.075 15.3668C4.24916 14.8011 4.2701 14.2006 4.13575 13.6246C4.1327 13.4252 4.16078 13.2266 4.219 13.0355L4.40125 13.0282L4.4545 11.7521L4.219 11.7145C4.14363 11.2055 4.12853 10.6896 4.174 10.1771C4.17844 10.1761 4.18306 10.1761 4.1875 10.1771C4.2055 10.1771 4.246 10.1859 4.318 10.2507L4.34875 10.1984L4.243 10.1336L4.2505 10.021L4.456 10.1336L4.471 9.68301C4.4545 9.67491 4.0615 9.47536 4.321 8.82739C4.0536 7.56018 4.01502 6.2567 4.207 4.97638L4.13725 4.93809C4.132 4.96828 4.11775 5.01908 4.08475 5.01908C4.05175 5.01908 4.033 4.99552 4 4.94545L4.02325 4.33724L4.15975 4.35197L4.144 4.39762L4.0915 4.41235L4.114 4.68994L4.15975 4.69731L4.219 4.2209C4.31943 4.31231 4.45035 4.36466 4.58725 4.36817C4.67492 4.3639 4.76079 4.3421 4.83958 4.30412C4.91838 4.26614 4.98845 4.21276 5.0455 4.14727L5.116 4.27686L5.44225 4.29453L5.51725 4.35491L5.56375 4.23194L5.60875 4.23931L5.692 4.35197L5.7535 4.28496L5.89 4.29453L5.97325 4.38437L6.025 4.32988L6.57175 4.3446L6.7 4.2695L6.715 4.34313L6.958 4.37332L7.05925 4.24004C7.10694 4.30227 7.16732 4.35405 7.23654 4.39208C7.30576 4.43012 7.38229 4.45357 7.46125 4.46094C7.51 4.46094 7.57 4.46536 7.64125 4.46536C7.9 4.46168 8.233 4.4418 8.236 4.4418C8.271 4.4755 8.31583 4.49763 8.36425 4.50512C8.3995 4.50512 8.425 4.48377 8.43925 4.4418C8.45284 4.41327 8.46122 4.38261 8.464 4.35123L8.65 4.3446C8.65271 4.34526 8.65554 4.34526 8.65825 4.3446C8.67925 4.3446 8.73325 4.31957 8.7865 4.08762L8.8615 4.2452L8.9035 4.08247L9.139 4.10456C9.15542 4.11615 9.17503 4.12257 9.19525 4.12297C9.2305 4.12297 9.28 4.10161 9.32125 4C9.48339 4.0647 9.65565 4.10156 9.8305 4.10898C9.94637 4.11685 10.0608 4.08044 10.15 4.00736C10.2556 4.08446 10.3844 4.12487 10.516 4.12223H10.6135C10.8745 4.12223 11.2743 4.33871 11.2818 4.66417C11.4217 4.59859 11.5777 4.57307 11.7317 4.59054H11.7835C11.7835 4.57655 11.7955 4.55446 11.8135 4.52574C11.8653 4.44401 11.944 4.32104 11.7828 4.21648C11.7918 4.20985 11.8825 4.15831 12.3483 4.15831C12.932 4.16677 13.515 4.20388 14.095 4.2695C14.1054 4.26855 14.1153 4.26526 14.1242 4.2599C14.133 4.25453 14.1405 4.24723 14.146 4.23857C14.161 4.21059 14.1513 4.16494 14.1175 4.11192C14.0965 4.07805 14.0913 4.05228 14.101 4.03829C14.1108 4.0243 14.1392 4.0162 14.1595 4.0162C14.173 4.01544 14.1866 4.01594 14.2 4.01767L14.2135 4.02209H14.206C14.206 4.02209 14.2465 4.29453 14.38 4.29453C14.4101 4.28985 14.4389 4.27921 14.4647 4.26326C14.4905 4.24731 14.5127 4.22639 14.53 4.20175C14.6733 4.26986 14.8272 4.31391 14.9852 4.33209C15.079 4.33209 15.127 4.29601 15.1293 4.22458L15.25 4.29453L15.5763 4.3019C15.573 4.32924 15.5802 4.35679 15.5965 4.37921C15.6273 4.42707 15.7068 4.49334 15.91 4.53384C15.9318 4.63545 16.03 5.14794 15.8643 5.23704C16.0159 6.21358 16.0389 7.20523 15.9325 8.18752L15.583 8.19488L15.7195 8.54022C15.6765 8.55416 15.6368 8.57629 15.6025 8.60535C15.5683 8.63442 15.5402 8.66984 15.52 8.70958C15.5055 8.75409 15.5017 8.80127 15.5087 8.84748C15.5157 8.89368 15.5334 8.9377 15.5605 8.97613C15.5857 8.96513 15.6125 8.95817 15.64 8.95551C15.649 8.95551 15.655 8.95551 15.6565 8.96214C15.658 8.96877 15.6453 8.99528 15.6108 9.02988C15.6058 9.06173 15.613 9.09426 15.631 9.12119C15.649 9.14408 15.6716 9.16308 15.6974 9.17701C15.7232 9.19095 15.7517 9.19952 15.781 9.20218C15.781 9.20218 15.7098 9.49672 15.7983 9.61011C15.8091 9.62401 15.8233 9.63514 15.8395 9.64257C15.8556 9.65 15.8734 9.65352 15.8912 9.65282H15.9025C15.9025 9.65724 15.721 10.074 15.8568 10.1683C15.7838 10.3388 15.7602 10.5258 15.7885 10.7087C15.7813 10.7157 15.7728 10.7212 15.7634 10.7249C15.7539 10.7286 15.7439 10.7303 15.7338 10.7301C15.697 10.7273 15.6625 10.712 15.6362 10.6866C15.6362 10.6866 15.5883 10.7293 15.6018 10.7654C15.6153 10.8015 15.6768 10.817 15.7863 10.817C15.8426 10.8165 15.8989 10.8133 15.955 10.8074L16 15.6672C15.6998 15.4964 15.3663 15.3895 15.0213 15.3535C14.955 15.3493 14.8886 15.3583 14.8259 15.38C14.7633 15.4016 14.7058 15.4354 14.6567 15.4794L15.1128 15.517L15.082 15.5773L14.8847 15.5847C14.8878 15.6165 14.8799 15.6484 14.8623 15.6753C14.8597 15.678 14.8565 15.6802 14.8531 15.6818C14.8496 15.6833 14.8458 15.6841 14.842 15.6841C14.8173 15.6841 14.7835 15.6554 14.74 15.598C14.604 15.7019 14.4353 15.7559 14.263 15.7504C14.0664 15.7445 13.8739 15.6941 13.7005 15.6031C13.6213 15.6322 13.5375 15.6471 13.453 15.6473C13.3284 15.6496 13.2067 15.6102 13.108 15.5354C13.095 15.5342 13.082 15.5342 13.069 15.5354C13.0255 15.5328 12.9825 15.5466 12.949 15.5739C12.9154 15.6013 12.8937 15.6401 12.8883 15.6826C12.8317 15.6742 12.7745 15.6702 12.7172 15.6709C12.541 15.672 12.3659 15.6985 12.1975 15.7496L12.2283 15.6444H12.175L12.1675 15.7717C12.1475 15.7873 12.1237 15.7975 12.0985 15.8015C12.0733 15.8055 12.0475 15.8031 12.0235 15.7946L12.0768 15.6142C12.0618 15.6102 12.0465 15.6082 12.031 15.6083C12.0045 15.607 11.9784 15.6143 11.9565 15.6289C11.9346 15.6435 11.9181 15.6647 11.9095 15.6893L12.0077 15.6672L11.9777 15.7946C11.8979 15.8673 11.7941 15.9093 11.6852 15.9131C11.6023 15.9118 11.5216 15.8861 11.4535 15.8395L11.7498 15.8167C11.7642 15.8065 11.776 15.793 11.784 15.7773C11.7919 15.7616 11.7959 15.7443 11.7955 15.7268H11.614C11.2987 15.7078 10.9822 15.7299 10.6728 15.7924C10.6718 15.7939 10.6713 15.7957 10.6713 15.7975C10.6713 15.7993 10.6718 15.8011 10.6728 15.8027L10.7642 15.8704H10.7605C10.644 15.911 10.5218 15.9341 10.3982 15.9389C10.3295 15.9425 10.2612 15.9256 10.2025 15.8903L10.1943 15.7813L10.1335 15.7887L10.0345 15.9315C9.99046 15.8712 9.93126 15.823 9.86265 15.7918C9.79405 15.7606 9.71837 15.7473 9.643 15.7533C9.54368 15.755 9.44524 15.7719 9.35125 15.8034L9.38875 15.9315H9.35575C9.3168 15.9283 9.27759 15.9327 9.24039 15.9444C9.20318 15.9562 9.16872 15.9751 9.139 16V15.9971ZM6.83875 13.8904C6.85675 13.8904 6.86875 13.9147 6.8695 13.9169C6.84625 13.981 6.8215 14.0171 6.7945 14.0259C6.80706 14.0301 6.82022 14.0324 6.8335 14.0325C6.90325 14.0325 6.92275 13.9589 6.92275 13.9545L7.02475 14.0185L8.7025 13.4854L6.334 11.2219C6.3295 11.2323 5.71825 12.5297 5.605 12.8699C5.49175 13.21 5.63425 13.2638 5.63575 13.2638L6.63775 14.0001L6.649 13.9029L6.70225 13.9103L6.7705 13.8654L6.778 13.9744L6.805 13.9184C6.81625 13.8992 6.8275 13.8904 6.83875 13.8904ZM10.7028 11.8287L10.8318 11.9487L10.7785 12.0164L11.9928 13.2999C11.9928 13.3058 12.2477 13.8727 13.4928 13.8727H13.504C13.5925 13.8727 13.6885 13.8727 13.789 13.8632C14.2642 13.1962 14.5368 12.4105 14.575 11.5975L13.573 10.9296L12.9887 10.8766L12.9963 10.7794L13.216 10.8692L13.291 10.8766L13.162 10.7743L13.225 10.7006L8.4025 7.46076H8.3875C8.30156 7.46524 8.21686 7.43909 8.149 7.38713C8.1357 7.37284 8.12566 7.35591 8.11958 7.33749C8.1135 7.31908 8.11151 7.29959 8.11375 7.28036L7.99225 7.27299L7.924 7.20525L7.85575 7.25827L7.8175 7.22072L7.8625 7.14708L7.675 7.04031L7.7665 7.15297L7.72075 7.17506L7.525 6.97993L7.57075 6.92766L6.67225 6.30472C6.54298 6.19241 6.37447 6.13357 6.202 6.14052C5.917 6.15581 5.64266 6.25199 5.41225 6.41738L8.32675 9.49524C8.33874 9.49464 8.35076 9.49464 8.36275 9.49524C8.41503 9.49107 8.46734 9.50301 8.51238 9.52941C8.55742 9.55581 8.59294 9.59534 8.614 9.64251C8.63275 9.6889 8.6395 9.71614 8.63425 9.72351C8.63366 9.72377 8.63302 9.72391 8.63237 9.72391C8.63173 9.72391 8.63109 9.72377 8.6305 9.72351C8.61475 9.72351 8.5705 9.66534 8.56825 9.66313L8.47825 9.59612L9.65425 10.8538C9.65425 10.8538 9.65425 10.8471 9.649 10.8405C9.62626 10.786 9.61088 10.7288 9.60325 10.6704C9.613 10.6704 9.64525 10.7198 9.69775 10.8177C9.82736 11.0453 9.99407 11.2505 10.1912 11.4252L10.2362 11.3574L10.0615 11.1623C10.0615 11.1623 10.0098 11.1012 10.018 11.082C10.0192 11.08 10.0209 11.0783 10.0231 11.0773C10.0252 11.0762 10.0276 11.0758 10.03 11.0761C10.06 11.0816 10.0885 11.0929 10.114 11.1093L10.339 11.4038C10.3264 11.4612 10.3312 11.5209 10.3528 11.5756C10.3744 11.6303 10.4119 11.6775 10.4605 11.7116L10.4223 11.5916C10.5442 11.6776 10.6405 11.794 10.7013 11.9288L10.6937 11.8324L10.7028 11.8287ZM13.1027 8.00712H13.111C13.1221 8.00719 13.133 8.00967 13.143 8.01438C13.153 8.01909 13.1618 8.02592 13.1688 8.03436C13.2015 8.09613 13.2131 8.16663 13.2018 8.23538H13.3158L13.3802 8.31785L13.4793 8.31049L13.7222 6.76787L13.654 6.77155L13.6615 6.83193C13.6615 6.84298 13.645 6.89452 13.6278 6.89452C13.6105 6.89452 13.609 6.87832 13.6007 6.84666C13.5708 6.73106 13.6382 6.69939 13.639 6.69939L13.7185 6.72148V6.67288L13.1935 6.28999C13.1105 6.24058 13.0145 6.21649 12.9175 6.22078C12.8229 6.22202 12.729 6.23767 12.6393 6.26717C12.2778 6.38203 11.1393 6.66626 11.1288 6.6692L13.1207 8.18236L13.1477 8.12935L13.0525 8.08443C13.0525 8.08443 13.0285 8.05203 13.0382 8.03142C13.048 8.0108 13.0697 8.00859 13.1042 8.00859L13.1027 8.00712Z" fill="white"/>
</g>
<defs>
<clipPath id="clip0_45_2570">
<rect width="20" height="20" fill="white"/>
</clipPath>
</defs>
</svg>
