<svg width="20" height="20" viewBox="0 0 20 20" fill="none" xmlns="http://www.w3.org/2000/svg">
<path fill-rule="evenodd" clip-rule="evenodd" d="M9.44256 0.652344C9.30914 0.721296 8.38917 1.19965 8.03728 1.44434C7.7781 1.62459 7.43289 1.93983 7.18865 2.12891L7.64959 3.77051C8.50863 4.00509 10.6963 4.70233 11.3859 4.99609C11.8277 4.77714 12.3271 4.54841 12.7844 4.37891C13.3306 4.17595 13.807 4.01757 14.1672 3.9043C14.0412 3.19048 13.7388 1.49465 13.7179 1.37891C15.1666 2.00412 16.4067 2.9884 17.3527 4.19629C18.0296 5.09546 18.425 5.8981 18.5978 6.29004C18.6341 6.37414 18.6666 6.45976 18.7004 6.54492C18.6695 6.57152 18.3411 6.84857 18.0695 7.05566C18.1022 7.50385 18.134 8.05841 18.134 8.63184C18.134 9.49076 18.0442 10.4017 17.9806 10.9512C18.1648 11.3566 18.3952 11.9354 18.4855 12.3271C18.628 12.944 18.7083 13.5316 18.7131 13.5664C18.6808 13.655 18.6479 13.7426 18.6135 13.8291C18.5945 13.8774 18.5721 13.9309 18.548 13.9893C18.105 15.0443 17.4948 15.9429 16.756 16.6875C16.5444 16.8978 16.3601 17.0637 16.2336 17.1719C16.1751 17.2214 16.1156 17.2695 16.0558 17.3174C15.9683 17.2907 14.061 16.7044 13.2804 16.4033C12.825 16.623 12.1008 16.9515 11.4357 17.1475C10.6371 17.3821 10.0012 17.5301 9.55389 17.6221C9.17839 18.1974 8.50225 19.1963 8.45525 19.2656C6.34466 19.0006 4.4982 18.114 3.12517 16.7334C3.12 16.6852 3.01768 15.7069 2.9865 15.1406C2.72522 14.8672 2.35119 14.4467 1.93377 13.8818C1.7014 13.5679 1.51064 13.2659 1.35564 13C1.1859 13.0047 1.00074 12.9981 0.964042 12.9961C0.878495 12.6948 0.807362 12.3848 0.750175 12.0664C0.62726 11.3544 0.515447 10.2911 0.641777 9.0791C0.709711 8.42702 0.822275 7.86045 0.945487 7.38574C1.11127 6.77233 1.32967 6.19327 1.59881 5.65234C1.62814 5.75007 2.01256 7.03283 2.17205 7.64355C2.46129 7.54896 2.80391 7.44225 3.16521 7.34473C3.66064 7.21059 4.23863 7.07887 4.55975 7.00781C5.13969 6.23343 6.48305 4.5797 7.04998 3.94629L6.58611 2.29199C5.93622 2.30046 4.61365 2.30265 4.50799 2.30273C4.56966 2.26039 4.63173 2.21857 4.69451 2.17773C4.94621 2.01918 5.4213 1.73781 5.98064 1.48047C7.04044 1.0105 8.20925 0.726943 9.44256 0.652344ZM11.1203 9.875C10.2435 10.2165 8.01956 10.97 7.15642 11.208C7.03555 11.5623 6.85649 12.1262 6.74334 12.7119C6.61805 13.3635 6.54394 14.0055 6.50701 14.3623C7.18044 14.8929 8.92546 16.3907 9.56267 16.9824C9.98634 16.8918 10.5596 16.7545 11.259 16.5488C11.8972 16.3613 12.615 16.0317 13.048 15.8213C13.1738 15.3739 13.3975 14.6556 13.5715 14.0244C13.7406 13.4108 13.8219 12.7493 13.884 12.3418L11.1203 9.875ZM4.41912 7.67871C4.1017 7.75126 3.6883 7.84983 3.3283 7.94727C2.88465 8.06751 2.46278 8.20313 2.14275 8.31152C2.01445 8.70511 1.79287 9.36509 1.6701 10.123C1.5642 10.7773 1.6105 11.6248 1.64373 12.2236C1.80718 12.5478 2.06708 13.0135 2.43572 13.5117C2.8135 14.0218 3.15513 14.4095 3.39959 14.668C4.04242 14.5459 5.28404 14.3141 5.89373 14.2168C5.93436 13.8385 6.00782 13.2275 6.12908 12.5947C6.25089 11.9625 6.43792 11.3662 6.5656 10.9941C6.0287 10.2712 4.82236 8.38349 4.41912 7.67871ZM14.4963 4.45508C14.1312 4.56759 13.6074 4.7384 13.0012 4.96289C12.5519 5.12931 12.0508 5.36218 11.6105 5.58203C11.6161 6.52053 11.5794 8.59645 11.5226 9.39551L14.2599 11.8398C14.6321 11.7075 15.2977 11.4863 15.8556 11.2646C16.3835 11.055 17.0094 10.7364 17.3908 10.5752C17.4462 10.0402 17.508 9.31118 17.508 8.63184C17.508 8.05377 17.4744 7.48741 17.4406 7.03906C17.1011 6.67775 16.5136 5.99064 15.922 5.51953C15.2385 4.9744 14.7664 4.64991 14.4963 4.45508Z" fill="#495266"/>
</svg>
