<svg width="20" height="20" viewBox="0 0 20 20" fill="none" xmlns="http://www.w3.org/2000/svg">
<g clip-path="url(#clip0_7648_463650)">
<path d="M3.24097 2.84082C6.05758 0.152982 10.3292 -0.711653 14.0945 0.991211C19.047 3.2312 21.2455 9.06201 19.0056 14.0146C17.4225 17.5152 14.0458 19.6367 10.4529 19.791C10.5562 19.7867 10.6595 19.7831 10.7625 19.7754C14.5466 17.8239 16.5828 14.3088 17.1736 13.1523C17.6986 13.6605 18.1749 14.2169 18.5955 14.8145C18.7186 14.5958 18.8333 14.3725 18.9402 14.1455C17.5074 12.2254 15.7829 11.0718 14.2595 10.3828C14.2268 10.3392 14.1842 10.3023 14.1296 10.2773C14.0718 10.2508 14.0107 10.2437 13.9529 10.25C12.4015 9.59856 11.1073 9.42031 10.6199 9.375C10.1278 8.36893 9.78586 7.37366 9.59839 6.39258C10.9562 6.31445 16.0519 6.34069 19.8582 10.6094C19.88 10.2877 19.8847 9.96567 19.8738 9.64551C15.891 5.62207 10.8218 5.64375 9.49683 5.72656C9.36252 4.60952 9.42831 3.51256 9.69702 2.44238C10.9597 2.39865 15.2146 2.49759 18.7722 5.42871C18.4946 4.89343 18.1686 4.38433 17.7986 3.9082C14.6095 1.93008 11.2484 1.74727 9.89526 1.76758C10.1359 1.06134 10.4265 0.509566 10.6531 0.137695C10.3968 0.122073 10.1402 0.116016 9.8855 0.119141C9.54103 0.751032 9.27345 1.42191 9.08765 2.11719C8.8189 3.11719 8.64175 4.46953 8.87769 6.08203C8.87769 6.09896 8.87813 6.11589 8.87964 6.13281C8.88274 6.153 8.88712 6.17373 8.89331 6.19238C9.05893 7.24701 9.40158 8.41121 10.0125 9.66113C9.72651 10.0361 8.91206 11.033 7.65112 12.0205C6.9117 10.9699 4.18484 6.49841 6.64526 0.722656C6.35167 0.830418 6.06407 0.951641 5.78296 1.08594C3.67671 6.82344 6.37534 11.3383 7.11597 12.418C6.29722 12.9961 5.323 13.541 4.21362 13.9238C3.56041 12.7627 1.34206 8.20856 3.24097 2.84082ZM14.1248 11.0586C14.9404 11.4414 15.8126 11.9633 16.658 12.6836C16.2093 13.6138 13.8556 18.0401 9.13257 19.7588C8.07164 19.6607 7.00848 19.3904 5.98315 18.9268C5.70528 18.8011 5.43676 18.6621 5.17651 18.5146C10.5758 17.1147 13.4291 12.3716 14.1248 11.0586ZM10.5652 10.043C10.9839 10.082 12.1236 10.2328 13.5095 10.7891C12.7955 12.125 9.87961 16.9102 4.37671 18.0088C3.26115 17.226 2.34361 16.2376 1.65601 15.1182C2.48879 15.0682 3.27028 14.924 3.99683 14.71C4.09208 14.7428 4.19979 14.7331 4.28882 14.6738C4.32319 14.6504 4.35132 14.6221 4.37476 14.5908C7.87872 13.4223 10.0537 10.7327 10.5652 10.043ZM2.19312 4.0166C1.04041 8.83463 2.85141 12.8184 3.55933 14.125C2.84995 14.3172 2.09058 14.4326 1.28589 14.4561C-0.0359136 11.8793 -0.215052 8.74708 1.07104 5.90332C1.38007 5.22007 1.75915 4.59061 2.19312 4.0166ZM2.96558 3.1123C2.78224 3.3017 2.60593 3.49944 2.43726 3.70508C2.60617 3.49952 2.78221 3.3017 2.96558 3.1123ZM2.21265 3.99121C2.28629 3.89446 2.36044 3.79856 2.43726 3.70508C2.36054 3.79861 2.28627 3.8945 2.21265 3.99121Z" fill="#495266"/>
</g>
<defs>
<clipPath id="clip0_7648_463650">
<rect width="20" height="20" fill="white"/>
</clipPath>
</defs>
</svg>
