<svg width="20" height="20" viewBox="0 0 20 20" fill="none" xmlns="http://www.w3.org/2000/svg">
<g clip-path="url(#clip0_7648_463546)">
<path d="M4.50098 7.99609C4.84384 8.3527 5.22122 8.71957 5.63281 9.09277C3.23834 12.3924 2.84225 14.9149 2.85449 16.2598C2.85612 16.2617 2.98211 16.4156 3.14355 16.5879C3.30605 16.7629 3.53613 16.9521 3.53613 16.9521C3.42141 16.1843 3.27714 13.4263 6.10059 9.50781C6.54849 9.89892 6.99869 10.2784 7.45215 10.6445C6.70998 12.0113 6.55066 14.2498 7.79102 16.6084C8.43855 17.8411 9.2538 18.7927 9.85156 19.3945C6.11152 19.3464 3.85228 17.2682 3.52734 16.9492C3.26323 16.7373 2.7143 16.2089 1.96289 15.0215C1.14333 13.7262 0.679032 12.2965 0.556641 10.8457C1.30658 10.6227 2.87148 9.94842 4.50098 7.99609ZM7.94531 11.0371C9.9623 12.6187 12.0269 13.9516 14.1074 15.0127C15.3194 15.6319 16.2825 16.0211 17.0049 16.2666C15.7971 17.6954 14.0595 18.8909 11.6406 19.2666C11.329 19.3151 11.0252 19.349 10.7295 19.3701C10.2032 18.8931 9.12897 17.8147 8.34375 16.3174C7.55015 14.8054 7.13937 12.6007 7.94531 11.0371ZM14.3125 8.55957C17.067 8.56108 19.168 9.11333 19.3633 9.16699C19.4246 9.83073 19.4155 10.5722 19.2832 11.375C19.0817 12.5959 18.5093 14.2523 17.416 15.7432C16.7052 15.5134 15.7006 15.1229 14.3936 14.4561C12.3328 13.4059 10.2863 12.0827 8.28613 10.5098C9.63079 8.79547 12.0764 8.55959 14.3027 8.55957H14.3125ZM2.04883 4.91113C2.43907 5.52746 3.09673 6.46345 4.07031 7.53516C2.63061 9.27975 1.24173 9.95019 0.523438 10.1963C0.497071 8.33842 1.028 6.47475 2.08691 4.83984C2.06384 4.88077 2.05026 4.90832 2.04883 4.91113ZM15.5664 2.46289C15.8585 2.67716 16.1292 2.90471 16.373 3.14551C17.6382 4.3936 18.2456 5.70732 18.2549 5.72754C18.2549 5.72754 18.2543 5.72987 18.2549 5.7334C18.3559 5.88974 18.99 6.89907 19.2676 8.47461C19.0023 8.40584 17.1332 7.93607 14.3125 7.93457H14.3027C11.9266 7.93459 9.30456 8.19867 7.79688 10.1201C7.35331 9.76087 6.91292 9.38849 6.47461 9.00488C11.175 2.83297 15.567 2.51053 15.6201 2.50684C15.6201 2.50684 15.599 2.48972 15.5664 2.46289ZM3.25195 3.36035C6.61484 -0.180857 11.6714 0.119853 14.8574 1.99512C13.3335 2.34339 9.76922 3.65873 6.00684 8.58789C5.60194 8.21868 5.23181 7.85432 4.89551 7.50098C5.99991 6.03542 6.35903 4.87305 6.67676 3.84082C6.87987 3.1815 7.05491 2.61285 7.39551 2.04102C7.76738 1.41447 8.08614 0.999802 8.30957 0.745117C8.30957 0.745117 7.95586 0.792187 7.77148 0.835938C7.54055 0.887606 7.3704 0.944259 7.36133 0.947266C7.20667 1.16284 7.03707 1.4202 6.85742 1.72168C6.47773 2.35762 6.28438 2.98945 6.07812 3.6582C5.78217 4.61749 5.44994 5.69587 4.46387 7.03418C3.42996 5.8815 2.77016 4.89498 2.43262 4.34082C2.43209 4.34155 2.40881 4.37098 2.37305 4.41992C2.63815 4.05277 2.93115 3.69805 3.25195 3.36035Z" fill="#495266"/>
</g>
<defs>
<clipPath id="clip0_7648_463546">
<rect width="20" height="20" fill="white"/>
</clipPath>
</defs>
</svg>
