<svg xmlns="http://www.w3.org/2000/svg" width="16" height="16" viewBox="0 0 16 16" fill="none">
<path d="M3.99902 1.66602C4.19353 1.472 4.50875 1.47179 4.70312 1.66602L7.03516 3.99902C7.22967 4.19354 7.22967 4.50861 7.03516 4.70312L5.56445 6.1748C4.89435 6.84491 3.80782 6.84486 3.1377 6.1748L2.52734 5.56445C1.85722 4.89433 1.85722 3.80782 2.52734 3.1377L3.99902 1.66602Z" stroke="currentColor" stroke-width="1.43958"/>
<path d="M10.4365 2.52734C11.1066 1.85724 12.1932 1.85723 12.8633 2.52734L14.334 3.99902C14.5285 4.19354 14.5285 4.50862 14.334 4.70312L12.002 7.03516C11.8074 7.22966 11.4924 7.22965 11.2979 7.03516L9.82617 5.56445C9.15606 4.89434 9.15607 3.80782 9.82617 3.1377L10.4365 2.52734Z" stroke="currentColor" stroke-width="1.43958"/>
<path d="M10.4357 9.82617C11.1059 9.15605 12.1924 9.15605 12.8625 9.82617L13.4728 10.4365C14.1429 11.1067 14.1429 12.1932 13.4728 12.8633L12.0012 14.334C11.8066 14.5285 11.4916 14.5285 11.2971 14.334L8.96405 12.002C8.76982 11.8076 8.77004 11.4924 8.96405 11.2979L10.4357 9.82617Z" stroke="currentColor" stroke-width="1.43958"/>
<path d="M3.99823 8.96484C4.19262 8.77065 4.50785 8.7708 4.70233 8.96484L6.17401 10.4365C6.84413 11.1066 6.84412 12.1932 6.17401 12.8633L5.56366 13.4736C4.89354 14.1437 3.80702 14.1437 3.1369 13.4736L1.66522 12.002C1.47118 11.8075 1.47102 11.4922 1.66522 11.2979L3.99823 8.96484Z" stroke="currentColor" stroke-width="1.43958"/>
</svg>
