<svg width="50" height="50" viewBox="0 0 50 50" fill="none" xmlns="http://www.w3.org/2000/svg">
<path d="M25.0003 42.7057C34.7816 42.7057 42.7087 34.7786 42.7087 24.9974C42.7087 15.2161 34.7816 7.28906 25.0003 7.28906C15.2191 7.28906 7.29199 15.2161 7.29199 24.9974C7.29199 34.7786 15.2191 42.7057 25.0003 42.7057Z" stroke="#51555E" stroke-width="4.16667" stroke-miterlimit="2" stroke-linejoin="round"/>
<path d="M25.0003 33.3307C29.6045 33.3307 33.3337 29.6016 33.3337 24.9974C33.3337 20.3932 29.6045 16.6641 25.0003 16.6641C20.3962 16.6641 16.667 20.3932 16.667 24.9974C16.667 29.6016 20.3962 33.3307 25.0003 33.3307Z" stroke="#51555E" stroke-width="4.16667" stroke-miterlimit="2" stroke-linejoin="round"/>
<path d="M4.16699 25H45.8337" stroke="#51555E" stroke-width="4.16667" stroke-miterlimit="2" stroke-linecap="round" stroke-linejoin="round"/>
<path d="M25 4.16406V45.8307" stroke="#51555E" stroke-width="4.16667" stroke-miterlimit="2" stroke-linecap="round" stroke-linejoin="round"/>
</svg>
