<svg width="20" height="20" viewBox="0 0 20 20" fill="none" xmlns="http://www.w3.org/2000/svg">
<g clip-path="url(#clip0_7648_463624)">
<path d="M17.9844 4.51808C21.0137 8.92745 19.8941 14.9571 15.485 17.9837C11.0756 21.0131 5.04562 19.894 2.01624 15.4837C-1.01313 11.0743 0.106553 5.04401 4.51624 2.01495C8.92562 -1.01317 14.955 0.106202 17.9819 4.51495" fill="#C3D82E"/>
<path d="M14.1674 18.7481C14.1674 18.7481 9.54241 8.4425 14.4693 1.40625L14.8827 1.63438C14.8827 1.63438 9.7221 8.70438 15.1477 18.2206L14.1674 18.7488M2.01866 15.4847C2.01866 15.4847 6.57585 8.71625 5.31991 1.52125L4.75866 1.90719C4.75866 1.90719 7.21804 3.91531 1.66772 14.9734" fill="white"/>
</g>
<defs>
<clipPath id="clip0_7648_463624">
<rect width="20" height="20" fill="white"/>
</clipPath>
</defs>
</svg>
