<svg width="20" height="20" viewBox="0 0 20 20" fill="none" xmlns="http://www.w3.org/2000/svg">
<g clip-path="url(#clip0_7648_463660)">
<path d="M17.3556 1.60254C17.5261 1.72102 17.6763 1.86153 17.8068 2.02246L17.8077 2.02344C18.0702 2.28594 19.0769 2.96621 19.255 5.58496C19.394 7.63026 18.9608 11.0736 16.0441 14.4561C13.127 17.8388 9.83149 19.288 6.68469 19.4209C3.39611 19.5603 2.46636 18.2841 2.38 18.1533C2.37735 18.1514 2.37484 18.1494 2.37219 18.1475C2.41687 18.1403 2.44159 18.1072 2.42688 18.0273C2.18324 16.7181 2.36854 15.2915 2.95911 13.8994C3.24713 13.2222 3.68061 12.4569 4.19446 11.6719C4.47463 11.8084 4.78218 11.8779 5.10461 11.8779C5.56858 11.8779 6.06076 11.7374 6.53723 11.4531C7.32161 10.9891 8.02219 10.2078 8.70032 9.45312C8.96904 9.15315 9.22456 8.86814 9.47766 8.61035C9.82141 8.26191 10.147 7.94355 10.4611 7.63574C11.5407 6.57641 12.3214 5.81053 12.5558 5.10742C12.7379 4.56099 12.6696 4.01722 12.38 3.56836C13.0187 3.18695 13.704 2.829 14.4581 2.49219C16.2651 1.68548 17.2366 1.73075 17.2452 1.73242C17.3881 1.74227 17.3797 1.67194 17.3556 1.60254ZM4.84583 4.9209C8.64828 1.21441 13.3073 -0.212535 16.6144 1.21387C16.2847 1.20201 15.5616 1.28007 14.1886 1.89355C13.3609 2.2634 12.6142 2.65651 11.921 3.07715C10.6263 2.08856 8.66038 2.95935 5.95129 5.5791C4.62942 6.85879 3.16086 8.67969 3.26868 10.1719C3.30144 10.6202 3.38336 10.98 3.66418 11.2852C3.11939 12.1142 2.65916 12.9248 2.35461 13.6416C1.71249 15.1524 1.52367 16.1073 1.78918 17.543C-1.00636 13.831 2.00789 7.68571 4.84583 4.9209ZM11.9161 3.85352C12.1258 4.16677 12.1718 4.53879 12.0392 4.93555C11.847 5.51367 11.0667 6.27892 10.0792 7.24609C9.7637 7.55537 9.4377 7.8761 9.09094 8.22754C8.82691 8.49313 8.56746 8.78266 8.29407 9.08887C7.64407 9.81387 6.97141 10.5625 6.25891 10.9844C5.64293 11.3491 5.01015 11.4253 4.50305 11.2119C4.6318 11.0246 4.76395 10.8365 4.89954 10.6494C4.96688 10.7 5.02276 10.7421 5.06262 10.7734C5.21601 10.8953 5.71698 11.0885 5.96692 10.7656C6.21685 10.4423 5.95961 10.1684 5.6925 9.98242C5.64145 9.94689 5.57739 9.89784 5.50403 9.84473C5.639 9.67081 5.77582 9.49882 5.91321 9.3291C6.05964 9.43888 6.18746 9.53204 6.26575 9.57812C6.45949 9.69218 6.73775 9.85884 7.00793 9.54492C7.31384 9.19044 6.94399 8.85151 6.66907 8.60938C6.64332 8.58662 6.61184 8.56181 6.57825 8.53418C6.71644 8.37451 6.85452 8.21879 6.99133 8.06738C7.08369 8.14761 7.16627 8.21881 7.23547 8.28125C7.44797 8.47188 7.81536 8.67422 8.11536 8.42578C8.3465 8.23356 8.3327 7.82614 8.10461 7.60742C8.03524 7.54141 7.89111 7.42038 7.72766 7.28613C7.88499 7.12675 8.03849 6.97567 8.18762 6.83496C8.26124 6.89713 8.32424 6.94928 8.36536 6.98535C8.53096 7.13065 8.97654 7.63876 9.40149 7.20312C9.7218 6.875 9.34485 6.53516 9.17297 6.36328C9.11635 6.30586 9.03326 6.22976 8.9386 6.14551C9.11085 5.99166 9.28486 5.84253 9.45813 5.69434C9.54306 5.77017 9.61784 5.83783 9.672 5.88281C9.85808 6.03611 10.305 6.45906 10.6173 6.10938C10.9063 5.78445 10.611 5.46387 10.3986 5.25293C10.3464 5.20111 10.2811 5.1402 10.2091 5.07422C10.3703 4.94659 10.5325 4.82053 10.6974 4.69727C10.8365 4.81671 10.9512 4.91258 11.0001 4.95898C11.2017 5.15266 11.5595 5.23421 11.7345 5C11.9361 4.72969 11.7579 4.46035 11.5079 4.14941C11.5032 4.14351 11.4976 4.13799 11.4923 4.13184C11.6316 4.03782 11.7727 3.94489 11.9161 3.85352ZM10.67 3.21191C10.9469 3.21191 11.1958 3.27314 11.4161 3.39551C11.2704 3.49013 11.1271 3.5863 10.9855 3.68359C10.8621 3.58824 10.7521 3.50744 10.6925 3.46973C10.5394 3.37441 10.1732 3.28105 9.98254 3.47949C9.83422 3.63264 9.76897 3.89208 10.0392 4.12793C10.0865 4.16925 10.137 4.21342 10.1896 4.25879C10.0255 4.38316 9.86296 4.5091 9.70227 4.6377C9.59544 4.55192 9.49543 4.4759 9.41418 4.42188C9.26418 4.32188 8.92043 4.17031 8.67981 4.42969C8.42679 4.70154 8.60659 5.00314 8.83313 5.16406C8.86998 5.19026 8.9106 5.22479 8.95618 5.26172C8.78235 5.4113 8.60768 5.56169 8.43469 5.7168C8.32827 5.63045 8.23518 5.55841 8.17493 5.51562C7.99993 5.39375 7.62785 5.2182 7.35754 5.47754C7.07786 5.74629 7.23586 6.08437 7.46399 6.25C7.52075 6.29122 7.5951 6.34809 7.67688 6.41309C7.52592 6.55698 7.37083 6.711 7.21204 6.87305C7.10382 6.78741 7.01783 6.71777 6.97473 6.68555C6.77003 6.53095 6.41881 6.44835 6.17981 6.70605C5.97049 6.93412 5.96077 7.24809 6.3136 7.51367C6.37282 7.55844 6.4299 7.60384 6.48547 7.64746C6.34314 7.80548 6.19952 7.96806 6.05579 8.13477C5.9437 8.05375 5.84011 7.98032 5.76379 7.93066C5.55441 7.79332 5.22348 7.76086 5.03918 7.99512C4.80797 8.28569 4.92642 8.56839 5.24817 8.81836C5.29318 8.85315 5.34215 8.89042 5.3927 8.92969C5.25301 9.10259 5.11397 9.27788 4.97668 9.45508C4.81871 9.33591 4.68465 9.23542 4.63391 9.19141C4.50395 9.07904 4.1946 8.96555 3.98547 9.23242C3.84805 9.40744 3.76223 9.71574 4.14172 10.0469C4.22186 10.1168 4.3034 10.1831 4.38196 10.2471C4.24135 10.4408 4.10449 10.6358 3.97083 10.8301C3.78607 10.6231 3.68447 10.3825 3.66418 10.0996C3.59235 9.09962 4.51681 7.61654 6.26672 5.92285C8.13223 4.11828 9.606 3.21203 10.67 3.21191Z" fill="#495266"/>
</g>
<defs>
<clipPath id="clip0_7648_463660">
<rect width="20" height="20" fill="white"/>
</clipPath>
</defs>
</svg>
