<svg width="20" height="20" viewBox="0 0 20 20" fill="none" xmlns="http://www.w3.org/2000/svg">
<path d="M10 19C14.9706 19 19 14.9706 19 10C19 5.02944 14.9706 1 10 1C5.02944 1 1 5.02944 1 10C1 14.9706 5.02944 19 10 19Z" fill="#DD2E44"/>
<path d="M10 16.75C13.7279 16.75 16.75 13.7279 16.75 10C16.75 6.27208 13.7279 3.25 10 3.25C6.27208 3.25 3.25 6.27208 3.25 10C3.25 13.7279 6.27208 16.75 10 16.75Z" fill="white"/>
<path d="M10 15C12.7614 15 15 12.7614 15 10C15 7.23858 12.7614 5 10 5C7.23858 5 5 7.23858 5 10C5 12.7614 7.23858 15 10 15Z" fill="#DD2E44"/>
<path d="M10 13C11.6569 13 13 11.6569 13 10C13 8.34315 11.6569 7 10 7C8.34315 7 7 8.34315 7 10C7 11.6569 8.34315 13 10 13Z" fill="white"/>
<path d="M10 11.5C10.8284 11.5 11.5 10.8284 11.5 10C11.5 9.17157 10.8284 8.5 10 8.5C9.17157 8.5 8.5 9.17157 8.5 10C8.5 10.8284 9.17157 11.5 10 11.5Z" fill="#DD2E44"/>
<path opacity="0.2" d="M10.1201 10.1406L16.6921 16.0176C16.6921 16.0176 15.3686 17.7056 12.7471 18.5721L9.78955 10.2096L10.1201 10.1406Z" fill="black"/>
<path d="M10.147 10.4995C10.0484 10.4999 9.95195 10.4709 9.86991 10.4162C9.78786 10.3616 9.7239 10.2838 9.68617 10.1928C9.64844 10.1017 9.63864 10.0015 9.65801 9.90486C9.67738 9.80822 9.72505 9.71952 9.79496 9.65003L10.0765 9.36853C10.1697 9.27518 10.2963 9.2227 10.4283 9.22266C10.5603 9.22261 10.6869 9.27499 10.7802 9.36828C10.8736 9.46157 10.926 9.58813 10.9261 9.72011C10.9261 9.85208 10.8737 9.97868 10.7805 10.072L10.4985 10.3535C10.4051 10.4466 10.2788 10.4991 10.147 10.4995Z" fill="#FFAC33"/>
<path d="M13.008 4.49041C12.8065 5.52991 13.008 6.83591 13.008 6.83591L16.535 3.14191C16.6805 2.41491 16.271 1.17591 15.676 1.02291C15.081 0.869907 13.6365 1.42441 13.008 4.49041ZM15.5095 6.99191C14.47 7.19341 13.164 6.99191 13.164 6.99191L16.858 3.46491C17.585 3.31941 18.824 3.72891 18.977 4.32391C19.13 4.91891 18.5755 6.36341 15.5095 6.99191Z" fill="#55ACEE"/>
<path d="M17.399 3.24263L11.588 9.79363C11.407 9.97463 10.7515 10.2346 10.333 9.81663C9.91452 9.39863 10.1235 8.77663 10.3045 8.59513L16.9075 2.75063C16.9075 2.75063 17.2455 2.43313 17.487 2.67463C17.7285 2.91613 17.399 3.24263 17.399 3.24263Z" fill="#3A87C2"/>
</svg>
