<svg width="20" height="20" viewBox="0 0 20 20" fill="none" xmlns="http://www.w3.org/2000/svg">
<path fill-rule="evenodd" clip-rule="evenodd" d="M15.4531 3.8584L16.5175 4.9541L14.2509 7.26172C14.2136 7.38504 14.0801 7.86528 14.1748 8.19922C14.2702 8.53813 14.6027 8.75062 14.6074 8.90527C14.6109 9.11386 4.77467 18.8272 4.65329 18.9141C4.55016 18.9828 3.52496 18.8455 3.42184 18.7939C3.31744 18.7408 1.64352 16.8281 1.64352 16.8281C1.64169 16.8059 1.57467 15.984 1.65914 15.832C1.67008 15.8133 1.73317 15.75 1.78317 15.7109C1.78501 15.7095 1.78716 15.7085 1.78903 15.707C2.05481 15.3322 11.1561 6.07914 11.2363 6.03906C11.2531 6.01393 11.4068 5.78899 11.5527 5.80469C11.7058 5.82187 11.9566 6.31015 12.5722 6.26172C12.755 6.2472 12.9345 6.22102 13.0986 6.19433C13.1236 6.17584 13.141 6.16554 13.1513 6.16601L13.3339 5.97363C13.7196 5.58079 14.6543 4.65068 15.5293 3.78222L15.4531 3.8584ZM17.4648 3.9873L17.0185 4.44238L15.9443 3.37207C16.1144 3.20335 16.2775 3.04044 16.4297 2.88965C16.4116 2.90798 16.4013 2.91797 16.4013 2.91797L17.4648 3.9873ZM17.8642 1.07812C17.9436 0.978185 18.579 0.855831 19.0254 1.33496C19.472 1.81456 19.3908 2.28185 19.3486 2.35058C19.3081 2.4158 18.7402 2.76944 18.5527 2.88574C18.4842 2.81439 17.5052 1.79601 17.4765 1.82617C17.5403 1.69341 17.796 1.16541 17.8642 1.07812Z" fill="#495266"/>
<path d="M5.22266 6.41309C5.32774 7.11289 5.19078 7.92165 4.61719 8.46973C3.82796 9.22208 2.81479 9.33994 1.99023 8.96094C2.02933 8.94906 2.86043 8.69162 3.8457 7.93359C4.82546 7.18095 5.19682 6.46431 5.22266 6.41309ZM1.72754 8.82715C1.72566 8.82784 1.72461 8.8291 1.72461 8.8291C1.72413 8.82875 1.71979 8.82516 1.71191 8.81934C1.71685 8.82227 1.72244 8.8242 1.72754 8.82715ZM4.82129 5.35742C4.87611 5.42834 4.93723 5.51458 4.98926 5.61914C5.02452 5.69066 5.05583 5.77654 5.08496 5.86035C5.05368 5.92987 4.75359 6.54898 3.54492 7.54297C2.53404 8.37482 1.48364 8.61911 1.45801 8.625C1.43107 8.60242 1.406 8.5776 1.37988 8.55371C1.3407 8.51964 1.30317 8.48739 1.27344 8.45703C1.20961 8.39063 1.15425 8.32264 1.11035 8.2666C1.10372 8.25827 1.09634 8.25057 1.08984 8.24219L1.08887 8.24121C1.16195 8.23145 2.11033 8.09103 3.23145 7.22656C4.50485 6.24668 4.80118 5.41691 4.82129 5.35742ZM1.37012 5.02246C2.24433 4.24287 3.6272 4.29683 4.49805 5.0293C4.47315 5.07689 3.99797 5.97289 3.01758 6.76953C2.01436 7.58361 0.922408 7.85287 0.854492 7.86914C0.345791 6.87719 0.627854 5.68328 1.37012 5.02246Z" fill="#495266"/>
</svg>
