<svg width="20" height="20" viewBox="0 0 20 20" fill="none" xmlns="http://www.w3.org/2000/svg">
<g clip-path="url(#clip0_10705_181682)">
<path d="M11.0908 1.14258C11.8875 1.24086 12.6694 1.4435 13.4141 1.75195C13.6463 1.84814 13.8732 1.95529 14.0957 2.07031C14.0928 2.0677 14.0898 2.06511 14.0869 2.0625C14.3781 2.21267 14.6593 2.37939 14.9307 2.55957C14.9522 2.57384 14.9737 2.58808 14.9951 2.60254C15.0933 2.66894 15.1898 2.73746 15.2852 2.80762C15.2987 2.81757 15.3127 2.82689 15.3262 2.83691C15.4328 2.91634 15.5377 2.99802 15.6406 3.08203C15.6625 3.09984 15.6834 3.1187 15.7051 3.13672C15.777 3.19655 15.848 3.25732 15.918 3.31934L15.8154 3.46289C15.7806 3.44542 15.7456 3.43353 15.7139 3.4209C15.8144 3.63232 15.9188 3.87691 16.0088 4.14844C16.1884 4.69092 16.2969 5.21785 16.3271 5.71484C16.3361 5.86654 16.3371 6.01602 16.332 6.16211L17.9023 8.49121C18.1902 8.48632 18.5369 8.51419 18.8213 8.64062C18.8405 8.76619 18.8591 8.8923 18.873 9.01953L18.8457 9.06641L18.7949 9.15234L18.708 9.10059C18.5304 8.99389 18.2699 8.95791 18.0156 8.9541L16.9316 11.5C16.9384 11.735 16.9429 11.9902 16.9404 12.2578C16.9333 13.2518 16.8513 14.1188 16.6963 14.8486C16.7225 14.8687 16.7505 14.8901 16.7803 14.9092C16.9409 15.0122 17.1069 15.062 17.2402 14.9854L17.334 15.085C16.2211 16.6864 14.5989 17.9061 12.7002 18.5078L12.793 18.3682L12.7939 18.3662C12.7949 18.3647 12.7969 18.3624 12.7988 18.3594C12.8029 18.353 12.8087 18.3425 12.8164 18.3301C12.8319 18.3052 12.8539 18.2688 12.8799 18.2236C12.9321 18.1326 13.0007 18.0064 13.0635 17.8643C13.1264 17.7217 13.1824 17.5652 13.2139 17.415C13.2244 17.3649 13.2303 17.3161 13.2344 17.2695C12.6954 17.0639 11.9797 16.7316 11.3379 16.4189C11.0282 16.2681 10.7346 16.1194 10.4834 15.9922L7.52539 16.5537L7.46387 16.5654L7.43457 16.5254C7.38087 16.6444 7.32271 16.7729 7.25879 16.9033C7.1285 17.1692 6.97823 17.449 6.82227 17.6904C6.69802 17.8827 6.5638 18.0554 6.42969 18.1797C6.28618 18.117 6.14433 18.0514 6.00488 17.9814L5.98047 17.9473L6.06152 17.8887C6.15957 17.8169 6.27473 17.6794 6.39746 17.4951C6.51885 17.3128 6.64232 17.0923 6.75879 16.8652C6.89499 16.5996 7.01877 16.3252 7.11914 16.0928L5.54004 13.9268C5.28928 13.8861 5.03558 13.8261 4.78223 13.7432C4.29159 13.582 3.79909 13.3422 3.31445 13.0303V13.0312C3.02803 12.8476 2.77939 12.6607 2.57617 12.4951L2.08691 13.7783L2.01172 13.9756C1.97978 13.9115 1.94639 13.8481 1.91602 13.7832L1.99414 13.7432L1.91602 13.7822C1.36645 12.6086 1.07324 11.3178 1.07324 9.99707C1.07327 9.26325 1.16304 8.53375 1.34082 7.8252L1.45117 7.92676L2.02637 8.45801C2.21814 8.18634 2.4754 7.84922 2.78516 7.50586L3.0957 7.17871C3.40699 6.86791 3.72141 6.60546 4.03418 6.39648C4.28098 6.23169 4.52879 6.10093 4.77441 6.00293L5.79883 3.73535L5.77441 3.68848C5.64567 3.44311 5.36083 3.3024 5.08398 3.22461C4.81743 3.1498 4.58371 3.14099 4.5752 3.14062H4.45996L4.47656 3.02637L4.48145 2.9834C4.60076 2.88955 4.72282 2.7995 4.84668 2.71191C4.96058 2.72677 5.10617 2.75215 5.26074 2.79785C5.54297 2.88135 5.86994 3.03571 6.08496 3.32129L9.16797 2.97754C9.17554 2.97244 9.18381 2.96701 9.19141 2.96191C9.78955 2.56182 10.3642 2.2432 10.9004 2.0166C11.1169 1.92527 11.3286 1.84953 11.5332 1.78809C11.4951 1.71616 11.4507 1.64159 11.4062 1.57324C11.3579 1.49879 11.3112 1.43181 11.2764 1.38379C11.259 1.35987 11.2443 1.34034 11.2344 1.32715C11.2295 1.32069 11.2252 1.31587 11.2227 1.3125C11.2214 1.31088 11.2204 1.30943 11.2197 1.30859L11.2188 1.30762L11.0908 1.14258ZM13.332 17.3018C13.3277 17.3418 13.3188 17.382 13.3105 17.4229C13.326 17.3476 13.3379 17.2737 13.3389 17.2021L13.332 17.3018ZM6.75293 17.083C6.82625 16.9471 6.89663 16.8059 6.96387 16.667C6.89656 16.8059 6.82594 16.947 6.75293 17.083ZM14.5439 10.8027C14.2426 11.0531 13.7966 11.4103 13.2725 11.7803L13.2734 11.7812C12.4411 12.3715 11.6709 12.8182 10.9736 13.1191V15.7207C11.139 15.8035 11.3151 15.8941 11.498 15.9834C12.1547 16.304 12.8795 16.6404 13.4033 16.8398C13.4811 16.8062 13.5913 16.7591 13.7227 16.6982C13.9936 16.5728 14.3573 16.3944 14.7285 16.1836C15.1004 15.9724 15.4775 15.7292 15.7764 15.4756C15.9363 15.3399 16.0683 15.2033 16.167 15.0713C16.3621 14.3175 16.4719 13.3626 16.4814 12.2539C16.4829 12.0878 16.4801 11.9267 16.4775 11.7725L14.5439 10.8027ZM10.873 15.7822C11.3093 16.001 11.8347 16.259 12.335 16.4893C11.8351 16.259 11.3102 16.0009 10.874 15.7822V13.0518H10.873V15.7822ZM16.6113 14.9111C16.6228 14.9202 16.636 14.9275 16.6484 14.9365C16.626 14.9199 16.6044 14.9039 16.585 14.8877L16.6113 14.9111ZM1.99316 13.7412C1.99379 13.7424 1.99414 13.7432 1.99414 13.7432L2.53223 12.3291L1.99316 13.7412ZM5.00977 13.707C5.04418 13.7167 5.07891 13.7246 5.11328 13.7334C5.01378 13.7074 4.91336 13.6802 4.81348 13.6475L5.00977 13.707ZM5.10449 13.457C5.11687 13.4605 5.12917 13.4644 5.1416 13.4678C5.12916 13.4644 5.11687 13.4605 5.10449 13.457ZM4.92871 6.4375C4.69454 6.53323 4.46745 6.66261 4.25098 6.81055C3.81962 7.10539 3.43683 7.47486 3.13477 7.80957H3.13379C2.80001 8.17862 2.52646 8.54641 2.33594 8.82227C2.3337 8.82551 2.33132 8.82881 2.3291 8.83203C2.32738 8.85348 2.32401 8.88341 2.32129 8.9209C2.31534 9.00276 2.30817 9.12051 2.30078 9.2627C2.28598 9.54751 2.27271 9.93113 2.2793 10.3252C2.2859 10.72 2.31215 11.1221 2.375 11.4463C2.40013 11.5758 2.43349 11.6895 2.46973 11.7852C2.67921 11.9828 3.06377 12.3212 3.56836 12.6445C4.04342 12.9493 4.6889 13.2782 5.41895 13.4326L7.40332 11.416C7.1752 10.3431 7.09548 9.46422 7.07617 8.83496C7.05901 8.27318 7.0886 7.85867 7.12012 7.58887L4.92871 6.4375ZM7.6875 10.9873C7.72348 11.1762 7.76437 11.3723 7.81055 11.5752L10.8506 12.7773C11.1195 12.6601 11.4009 12.519 11.6934 12.3564C11.4009 12.5188 11.1194 12.6591 10.8506 12.7764L7.81055 11.5742C7.76438 11.3713 7.72341 11.1753 7.6875 10.9863V10.9873ZM7.57031 7.75684L7.56641 7.75977C7.53959 8.04389 7.52379 8.42197 7.54102 8.89648C7.56439 9.52354 7.65221 10.4117 7.89648 11.501L10.8496 12.6689C11.5 12.3811 12.2291 11.9558 13.0078 11.4053C13.4802 11.0713 13.8877 10.7497 14.1777 10.5107C14.2158 10.4793 14.2503 10.4472 14.2842 10.4189L13.6807 7.23047C13.1543 6.85709 12.4702 6.50875 11.6455 6.20117C11.0314 5.9716 10.4587 5.81185 10.0693 5.71289L7.57031 7.75684ZM13.0654 11.4873L13.4082 11.2383C13.4136 11.2343 13.4185 11.2296 13.4238 11.2256C13.3093 11.3109 13.19 11.3992 13.0654 11.4873ZM7.46094 9.27637C7.46266 9.30149 7.46586 9.32682 7.46777 9.35254C7.45535 9.18928 7.4456 9.03811 7.44043 8.89941L7.46094 9.27637ZM2.22949 8.7998C2.22521 8.85106 2.21186 9.02819 2.19922 9.27637C2.2117 9.02484 2.2264 8.84637 2.23047 8.79785L2.22949 8.7998ZM2.04199 8.60938L2.2666 8.29688C2.18285 8.40888 2.10742 8.51353 2.04199 8.6084L1.38281 8L2.04199 8.60938ZM16.2295 6.18945L17.8496 8.5918L16.2305 6.19043C16.2306 6.18686 16.2303 6.18326 16.2305 6.17969C16.2303 6.18295 16.2296 6.18619 16.2295 6.18945ZM2.60254 8.28906C2.57951 8.31869 2.55712 8.34806 2.53516 8.37695C2.62161 8.26333 2.71611 8.14313 2.81836 8.02051L2.60254 8.28906ZM12.251 2.09766C11.4954 2.21061 10.583 2.60535 9.57129 3.26758L10.2891 5.29004C10.6851 5.39368 11.2267 5.55098 11.8047 5.7666C12.3104 5.95578 12.7713 6.1611 13.1797 6.37988L13.5703 6.60352L13.7988 6.74902C13.8321 6.77122 13.8642 6.79495 13.8965 6.81738L15.8691 6.02637C15.8709 5.52327 15.783 5.03493 15.667 4.61426L15.5713 4.2998C15.4576 3.9553 15.3264 3.64935 15.21 3.40527C15.2008 3.41025 15.1923 3.41541 15.1855 3.41992C15.1742 3.42752 15.1659 3.43435 15.1611 3.43848C15.1592 3.44013 15.158 3.44165 15.1572 3.44238V3.44141L15.0879 3.51758L15.0137 3.44531C14.2163 2.66252 13.3934 2.32452 12.7715 2.18164C12.5759 2.13673 12.3999 2.11172 12.251 2.09766ZM4.66016 6.1582C4.48572 6.23775 4.31096 6.33639 4.13477 6.45117C4.31418 6.33429 4.49235 6.23463 4.66992 6.1543L4.66016 6.1582ZM15.9639 5.81445C15.9682 5.90684 15.9706 6.00001 15.9688 6.09375V5.89355C15.968 5.86709 15.9651 5.84078 15.9639 5.81445ZM4.84961 6.0791L5.97852 3.58105H5.97656L4.84961 6.0791ZM16.2324 6.0791C16.2335 6.03639 16.2358 5.99344 16.2354 5.9502L16.2266 5.72168C16.2337 5.84275 16.2344 5.9619 16.2324 6.0791ZM15.9482 5.59961C15.9446 5.56165 15.941 5.52389 15.9365 5.48633C15.9409 5.52389 15.9447 5.56165 15.9482 5.59961ZM16.1074 4.88867C16.0852 4.78612 16.0612 4.68238 16.0332 4.57812C16.0304 4.56761 16.0263 4.55741 16.0234 4.54688C16.0547 4.66189 16.0829 4.77584 16.1074 4.88867ZM15.9131 4.17969C15.9278 4.22422 15.9404 4.26917 15.9541 4.31348C15.9404 4.26926 15.9288 4.22413 15.9141 4.17969C15.8791 4.07411 15.8408 3.97298 15.8027 3.87598C15.8407 3.97295 15.8781 4.07419 15.9131 4.17969ZM15.8584 3.37305L15.8604 3.37402C15.8602 3.37388 15.8478 3.36128 15.8252 3.33691C15.8439 3.35723 15.8553 3.36943 15.8584 3.37305ZM15.2783 2.83496C15.2858 2.84098 15.2935 2.84658 15.3008 2.85254C15.2933 2.84645 15.2859 2.84013 15.2783 2.83398C15.2757 2.82975 15.2731 2.8254 15.2705 2.82129C15.2733 2.82565 15.2755 2.83045 15.2783 2.83496ZM4.98926 2.83496C4.91775 2.82127 4.8524 2.81221 4.79688 2.80566L4.75488 2.80176C4.81828 2.80812 4.89881 2.81782 4.98926 2.83496ZM10.2227 2.4541C10.2012 2.46565 10.1798 2.47745 10.1582 2.48926C10.2855 2.41958 10.4113 2.35463 10.5352 2.29395L10.2227 2.4541Z" fill="#495266"/>
<path d="M10 0.950195C11.2209 0.950195 12.4071 1.18978 13.5215 1.66211C14.5969 2.11628 15.5736 2.77551 16.3975 3.60254C17.2239 4.42688 17.8831 5.40346 18.3379 6.47852C18.8102 7.59466 19.0498 8.77903 19.0498 10C19.0498 11.2209 18.8102 12.4071 18.3379 13.5215C17.8813 14.5991 17.2284 15.5665 16.3975 16.3975C15.5665 17.2284 14.5991 17.8813 13.5215 18.3379C12.4071 18.8102 11.2227 19.0498 10 19.0498C8.77905 19.0498 7.59295 18.8102 6.47852 18.3379C5.40085 17.8813 4.43348 17.2284 3.60254 16.3975C2.7716 15.5665 2.11872 14.5991 1.66211 13.5215C1.18978 12.4053 0.950195 11.221 0.950195 10C0.950195 8.77905 1.18978 7.59295 1.66211 6.47852C2.11628 5.40311 2.77551 4.42643 3.60254 3.60254C4.42688 2.77607 5.40346 2.11692 6.47852 1.66211C7.59467 1.18978 8.77903 0.950195 10 0.950195ZM10 1.19824C5.14746 1.19824 1.19824 5.14573 1.19824 10C1.19824 14.8525 5.14573 18.8018 10 18.8018C14.8543 18.8018 18.8018 14.8543 18.8018 10C18.8018 5.14746 14.8543 1.19824 10 1.19824Z" fill="#495266" stroke="#495266" stroke-width="0.1"/>
</g>
<defs>
<clipPath id="clip0_10705_181682">
<rect width="20" height="20" fill="white"/>
</clipPath>
</defs>
</svg>
