<svg width="20" height="20" viewBox="0 0 20 20" fill="none" xmlns="http://www.w3.org/2000/svg">
<g clip-path="url(#clip0_10705_182176)">
<path d="M4.875 18.4382C4.875 18.4382 7.15625 17.2507 9.53125 17.7195C11.75 18.1569 11.8125 16.782 13 16.782C14.1875 16.782 14 15.7194 14.9062 15.7819C14.9062 15.7819 15.3125 15.8132 15.3125 16.2195C15.3125 16.2195 14.5625 16.2507 14.25 16.8445C13.9375 17.4382 12.1875 17.3757 11.5 18.0632C10.6562 18.9069 8.28125 18.3444 7.28125 18.4382C6.5 18.5319 5.5625 19.3757 4.21875 19.3757L4.875 18.4382Z" fill="#495266"/>
<path d="M8.53125 16.75C8.53125 16.75 9.96875 16.6875 10.8125 17.3125C11.6875 17.9375 12.3125 18.7187 13.4063 18.3437C14.5 17.9687 15.5313 17.6875 16.7188 18.0625C16.7188 18.0625 16.875 17.8437 16.8438 17.5937C16.8438 17.5937 16.0938 17.1562 15.2188 17.3437C14.3438 17.5312 13.4688 18.0312 12.9062 17.8437C12.3438 17.6562 11.1563 16.375 9.25 16.375L8.53125 16.75Z" fill="#495266"/>
<path d="M17.4375 18.0313C17.4687 17.9688 17.4687 17.9063 17.4375 17.9063L16.4062 17.5312L16.3125 17.75L17.3437 18.125C17.3437 18.125 17.4062 18.0938 17.4375 18.0313Z" fill="#495266"/>
<path d="M4.81252 15.0321C5.81252 16.7821 5.84377 18.6571 4.90627 19.2196C3.96877 19.7821 2.40627 18.7821 1.40627 17.0321C0.406274 15.2821 0.375024 13.4071 1.31252 12.8446C2.25002 12.3134 3.81252 13.2821 4.81252 15.0321Z" fill="#495266"/>
<path d="M4.25002 15.3428C3.65627 14.2803 2.78127 13.5928 2.12502 13.6241C2.00002 14.2178 2.18752 15.1241 2.68752 15.9991C3.28127 17.0616 4.15627 17.7491 4.81252 17.7178C4.93752 17.1241 4.75002 16.2178 4.25002 15.3428Z" fill="#495266"/>
<path d="M8.5625 3.3125C10.8125 -2.53125 16.5625 2.4375 18.5938 5.96875C20.6249 9.53121 18.5937 12.6875 15.0625 14.75C13.0625 15.9375 10.0937 16.1563 8.59375 17.0312C6.59381 18.1875 5.75 18.6875 5.75 18.6875L7 17.5L8 17V15L7.5 13.5L6.75 12.5L6 12L5.75 11.5H5.5C5.22906 10.9717 4.88501 11.5664 4.88184 11.1855C4.87048 9.80893 6.45758 8.74609 8.5625 3.3125ZM17.4062 5.96777C16.0312 3.56164 13.0312 1.3116 12.0938 1.87402C10.5626 2.74899 13.9062 3.99918 15.25 6.43652C16.625 8.84277 18.7812 8.37402 17.4062 5.96777Z" fill="#495266"/>
<path d="M8.56226 4.15625C13.5645 2.57018 12.0767 7.08718 4.99976 11.4307C4.82919 11.535 4.99448 11.0164 4.99976 11C4.98261 11.0078 4.29663 11.3188 4.29663 11.4307C4.28332 11.3695 4.37977 11.3668 4.36499 11.2861C4.13433 10.0264 3.84662 6.51519 7.27905 4.69531C6.77781 7.47261 5.40601 9.65625 5.40601 9.65625C7.54775 7.26619 8.17886 4.35161 8.18726 4.3125L7.33081 4.66602C7.69793 4.47533 8.10696 4.30393 8.56226 4.15625Z" fill="#495266"/>
<path d="M4.125 11.1885C5.0625 10.6572 6.625 11.626 7.625 13.376C8.62489 15.1259 8.65622 17.001 7.71875 17.5635L4.875 19.2197L1.28125 12.8447L4.125 11.1885ZM4.75 11.4375C4.59375 11.4375 4.5 11.4688 4.375 11.5312L2.8125 12.4688C3.65624 12.8438 4.53126 13.6875 5.1875 14.8125C5.84371 15.9687 6.09375 17.125 6 18.0625L7.53125 17.1562C8.15624 16.7813 8.21869 15.2187 7.28125 13.5625C6.5 12.1875 5.40625 11.4375 4.75 11.4375Z" fill="#495266"/>
<path d="M15.9375 15.8438C15.9375 15.7813 15.9062 15.7188 15.875 15.7188L14.75 15.9375L14.7812 16.1875L15.875 16C15.9062 15.9688 15.9375 15.9063 15.9375 15.8438Z" fill="#495266"/>
</g>
<defs>
<clipPath id="clip0_10705_182176">
<rect width="20" height="20" fill="white"/>
</clipPath>
</defs>
</svg>
