<svg width="20" height="20" viewBox="0 0 20 20" fill="none" xmlns="http://www.w3.org/2000/svg">
<path fill-rule="evenodd" clip-rule="evenodd" d="M11.9801 12.9944L11.5514 13.6506C11.301 14.0416 10.4403 15.3854 10.2018 15.7571C9.92221 16.1929 9.38297 17.1566 8.90494 17.4709C8.40499 17.799 7.31573 18.0756 6.03776 18.2834C4.49713 18.5334 3.4108 18.6522 2.41861 18.4709C1.34085 18.2756 0.781094 17.2876 0.68717 16.9905C0.59342 16.6936 0.414318 15.3996 1.15494 15.3996C2.10638 15.3997 2.8864 15.634 5.00651 15.634C7.70306 15.634 7.79656 15.3537 8.04654 15.1975C8.29654 15.0412 8.85807 14.4338 9.07682 14.1682C9.26648 13.9379 10.0272 12.9249 10.2282 12.6575L10.6764 12.0305L11.9801 12.9944ZM10.7389 12.6301C10.7124 12.6942 8.82395 15.1214 8.65983 15.3137C8.49579 15.5059 8.22206 15.7601 8.26725 16.135C8.31256 16.5084 8.65768 16.6082 8.90299 16.5207C9.34034 16.3661 9.46252 16.0074 9.69987 15.6965C9.86237 15.484 11.5983 12.9866 11.5983 12.9866L10.7389 12.6301ZM12.5309 12.1555L11.9889 13.0012L11.9801 12.9944L12.529 12.1545L12.5309 12.1555ZM17.9362 1.1975C18.176 1.18106 19.4684 2.04815 19.4919 2.20433C19.5199 2.39505 19.0387 3.07485 18.9215 3.15453C18.8101 3.22975 18.5948 3.07943 18.5905 3.0764L18.0153 3.90257L12.9528 11.5139L12.9499 11.5119L12.529 12.1545L11.2663 11.2053L11.7165 10.5774L11.7126 10.5744L16.9294 3.17406L16.9303 3.17504L17.5202 2.33031C17.51 2.32564 17.226 2.19372 17.2536 2.04027C17.2676 1.95902 17.6471 1.21937 17.9362 1.1975ZM11.2663 11.2053L10.6764 12.0305L10.6735 12.0286L11.2653 11.2053H11.2663Z" fill="#495266"/>
<path d="M14.6985 16.1953L12.6657 16.5469C12.6657 16.5469 12.6047 16.8375 12.6204 17.4484C12.636 18.0594 12.7266 18.2734 12.7266 18.2734C12.7266 18.2734 13.1625 19.2234 15.2844 19.2547C17.5891 19.2891 18.0782 18.2891 18.0782 18.2891C18.0782 18.2891 18.1719 17.7875 18.1719 17.4062C18.1719 17.1609 18.1625 16.5937 18.1094 16.5219C17.9579 16.3234 14.6985 16.1953 14.6985 16.1953Z" fill="#495266"/>
<path d="M15.3141 15.2874C13.4359 15.2687 12.65 16.0812 12.6656 16.5468C12.6766 16.9109 13.3906 17.8577 15.4313 17.8906C17.6469 17.9265 18.1141 16.7015 18.1203 16.5234C18.125 16.3156 17.6016 15.3093 15.3141 15.2874Z" fill="#495266"/>
<path d="M15.3141 15.2874C13.4359 15.2687 12.65 16.0812 12.6656 16.5468C12.6766 16.9109 13.3906 17.8577 15.4313 17.8906C17.6469 17.9265 18.1141 16.7015 18.1203 16.5234C18.125 16.3156 17.6016 15.3093 15.3141 15.2874Z" fill="#495266"/>
</svg>
