<svg width="20" height="20" viewBox="0 0 20 20" fill="none" xmlns="http://www.w3.org/2000/svg">
<g clip-path="url(#clip0_10705_182036)">
<path d="M14.8597 0.582031C14.8597 0.582031 16.6488 0.506264 17.8812 0.816406C17.8031 1.01322 16.7549 3.55268 14.3031 6.85156L13.5951 6.29883C13.403 6.13885 13.1468 6.17136 12.9867 6.36328C12.8425 6.55549 12.8746 6.82752 13.0668 6.97168L13.514 7.32129C13.2984 7.59504 13.0078 7.95769 12.6537 8.38086L12.1537 7.96484C11.9615 7.82071 11.7045 7.83658 11.5443 8.0127C11.3841 8.2049 11.4169 8.47791 11.5931 8.62207L12.0931 9.03809C11.8022 9.37367 11.4825 9.73251 11.139 10.1055L10.6801 9.64648C10.5039 9.48637 10.2308 9.48636 10.0707 9.64648C9.91053 9.82265 9.91058 10.0957 10.0707 10.2559L10.5492 10.7344C10.2264 11.0716 9.88579 11.4141 9.53259 11.7578L9.04626 11.2969C8.88616 11.1368 8.61369 11.1365 8.45349 11.3125C8.29332 11.4887 8.29292 11.7617 8.46912 11.9219L8.91541 12.3447C8.57458 12.661 8.22487 12.9756 7.8656 13.2803L7.3158 12.7061C7.15559 12.5461 6.8835 12.5303 6.7074 12.6904C6.53131 12.8506 6.53163 13.1227 6.69177 13.2988L7.37341 14.0107C5.48632 15.5137 3.30588 16.9662 0.797241 18.249L1.0531 18.6816C3.63784 17.3585 5.81292 15.8759 7.65857 14.3604L7.66833 14.373C7.67828 14.3651 7.6877 14.3566 7.69763 14.3486L8.16541 14.8369C8.32562 15.0127 8.59774 15.0126 8.7738 14.8525C8.94989 14.6924 8.94957 14.4203 8.78943 14.2441L8.36365 13.7998C8.73141 13.4869 9.08856 13.1633 9.43689 12.8389L10.0072 13.3789C10.1674 13.539 10.4398 13.5395 10.6 13.3633C10.7601 13.1871 10.7596 12.9141 10.5834 12.7539L10.0531 12.252C10.4011 11.9124 10.7373 11.5745 11.056 11.2412L11.5765 11.7617C11.7526 11.9216 12.0247 11.9214 12.1849 11.7617C12.3451 11.5855 12.3451 11.3125 12.1849 11.1523L11.6449 10.6123C12.0044 10.2218 12.3377 9.84567 12.641 9.49512L13.2269 9.9834C13.4191 10.1433 13.6912 10.1116 13.8353 9.93555C13.9955 9.74334 13.9637 9.47033 13.7875 9.32617L13.2015 8.83789C13.5605 8.40809 13.8547 8.03851 14.0746 7.75879L14.7484 8.28516C14.9406 8.44528 15.2126 8.41372 15.3568 8.22168C15.501 8.02947 15.4689 7.75646 15.2767 7.6123L14.5326 7.03125C17.0305 3.68561 18.1291 1.20365 18.2445 0.94043C18.3436 0.986201 18.4365 1.0412 18.5238 1.10449C18.5267 1.09733 18.5284 1.09375 18.5287 1.09375C18.7688 1.25391 18.9446 1.47823 19.0726 1.73438C19.5531 2.74345 19.5051 4.26494 19.473 4.96973C19.425 5.91474 19.4893 10.6238 14.4281 15.4609C14.4281 15.4609 11.4643 18.3921 7.07556 19.1289C4.57949 19.5546 3.06574 19.4641 2.1908 19.2637C1.60672 19.134 1.30266 18.957 1.18103 18.8418C0.796701 18.4894 0.476554 17.8324 0.492554 15.7666C0.540605 14.8216 0.636683 13.9085 0.812866 12.9795C1.4856 8.78293 4.19275 5.81934 4.19275 5.81934C8.98104 0.726925 13.9615 0.566079 14.8597 0.582031Z" fill="#495266"/>
</g>
<defs>
<clipPath id="clip0_10705_182036">
<rect width="20" height="20" fill="white"/>
</clipPath>
</defs>
</svg>
