<svg width="20" height="20" viewBox="0 0 20 20" fill="none" xmlns="http://www.w3.org/2000/svg">
<g clip-path="url(#clip0_7648_490712)">
<path fill-rule="evenodd" clip-rule="evenodd" d="M4.51625 2.01482C8.9256 -1.01307 14.9553 0.106178 17.9821 4.51482L18.2565 4.93669C20.9403 9.30184 19.7559 15.0516 15.485 17.9836C15.3716 18.0614 15.2557 18.1348 15.1403 18.2072C9.74988 8.73762 14.8397 1.69384 14.8825 1.63493L14.4694 1.40642C9.59845 8.36277 14.0636 18.5146 14.1657 18.7443C9.98495 20.7424 4.86979 19.4951 2.11 15.6134C3.28788 13.5178 6.3408 7.37045 5.31997 1.52165L4.75844 1.90739C4.75844 1.90739 7.21361 3.91226 1.67739 14.9513C-0.917545 10.6003 0.281266 4.92388 4.51625 2.01482Z" fill="#495266"/>
</g>
<defs>
<clipPath id="clip0_7648_490712">
<rect width="20" height="20" fill="white"/>
</clipPath>
</defs>
</svg>
