<svg width="20" height="20" viewBox="0 0 20 20" fill="none" xmlns="http://www.w3.org/2000/svg">
<g clip-path="url(#clip0_1_17935)">
<path d="M4.28552 13.5713C4.28552 13.1768 4.60532 12.857 4.99981 12.857H7.85695C8.25144 12.857 8.57124 13.1768 8.57124 13.5713C8.57124 13.9658 8.25144 14.2856 7.85695 14.2856H4.99981C4.60532 14.2856 4.28552 13.9658 4.28552 13.5713Z" fill="#3C4851"/>
<path d="M6.42391 15.7124C6.03202 15.7115 5.71503 15.3932 5.71571 15.0013L5.7207 12.1394C5.72139 11.7468 6.04031 11.4292 6.43287 11.4302C6.82513 11.4312 7.14238 11.7499 7.14156 12.1421L7.13558 15.004C7.13476 15.3962 6.81609 15.7134 6.42391 15.7124Z" fill="#3C4851"/>
<path d="M13.614 12.0007C14.0231 12.0119 14.4115 12.1821 14.697 12.4753C14.9825 12.7687 15.1423 13.1617 15.1423 13.571C15.1423 13.9805 14.9826 14.3743 14.697 14.6677C14.4115 14.9608 14.023 15.1312 13.614 15.1423C13.4042 15.148 13.1952 15.1112 12.9998 15.0349C12.8042 14.9585 12.6258 14.8435 12.4753 14.697C12.325 14.5506 12.2054 14.3757 12.1238 14.1824C12.0421 13.989 11.9998 13.781 11.9998 13.571C11.9998 13.3612 12.0422 13.153 12.1238 12.9597C12.2054 12.7665 12.325 12.5914 12.4753 12.4451C12.6257 12.2987 12.8043 12.1835 12.9998 12.1072C13.1952 12.0309 13.4043 11.9951 13.614 12.0007Z" fill="#3C4851" stroke="#3C4851" stroke-width="1.14286"/>
<path d="M10.9967 7.86478C10.819 8.19205 10.4096 8.31321 10.0824 8.1353C9.75577 7.95765 9.63473 7.54897 9.81198 7.22207L11.3337 4.41565C11.4369 4.22528 11.299 3.99375 11.0825 3.99375H7.95041C7.58712 3.99375 7.25201 3.79803 7.07352 3.48162C6.89518 3.16548 6.90082 2.77782 7.08828 2.467L8.22875 0.576025C8.42072 0.257727 8.83417 0.154972 9.15282 0.346366C9.47212 0.538158 9.57528 0.952615 9.38313 1.27171L8.81697 2.21189C8.7023 2.40232 8.83944 2.645 9.06173 2.645H12.1186C12.4775 2.645 12.8099 2.83393 12.9935 3.1423C13.1773 3.45088 13.1849 3.83345 13.0136 4.14909L10.9967 7.86478Z" fill="#3C4851"/>
<rect x="0.571429" y="7.71443" width="18.8571" height="11.7143" rx="5.85714" stroke="#3C4851" stroke-width="1.14286"/>
</g>
<defs>
<clipPath id="clip0_1_17935">
<rect width="20" height="20" fill="white"/>
</clipPath>
</defs>
</svg>
