<svg width="20" height="20" viewBox="0 0 20 20" fill="none" xmlns="http://www.w3.org/2000/svg">
<g clip-path="url(#clip0_10705_180880)">
<path fill-rule="evenodd" clip-rule="evenodd" d="M9.99988 0.84375C15.0567 0.84375 19.1561 4.94314 19.1561 10C19.1561 15.0569 15.0567 19.1562 9.99988 19.1562C4.94308 19.1562 0.843628 15.0568 0.843628 10C0.843628 4.94319 4.94308 0.843822 9.99988 0.84375ZM5.43738 15.1562C5.21862 15.3125 4.62487 15.75 4.15613 16.2188C4.40613 16.5625 4.99989 17.4375 5.78113 17.8125C5.78113 17.8125 7.59364 18.9687 9.71863 18.9062C9.87488 18.8438 10.6874 18.5937 11.2499 18.0312C10.3436 17.2813 9.59363 16.3437 9.37488 16.0312C8.03113 16.0312 5.93738 15.3437 5.43738 15.1562ZM15.4374 16.7188C13.8749 17.875 12.1249 18.1562 11.7186 18.2188C11.4686 18.5 11.1561 18.7188 10.8749 18.875C12.6249 18.6875 14.9374 17.6562 15.9061 16.75C15.7186 16.75 15.5311 16.7188 15.4374 16.7188ZM18.1561 10.1562C17.5624 11.875 16.4999 13 16.1874 13.3125C16.2186 13.6562 16.2499 14.7812 15.6874 16.25C15.9061 16.2812 16.1561 16.25 16.3124 16.1562C17.7811 15.125 18.5936 12.75 18.8436 11.1875C18.8749 10.75 18.8124 10.4688 18.7811 10.3438C18.6874 10.2813 18.4686 10.2187 18.1561 10.1562ZM6.49988 7.8125C5.71863 8.43751 4.31238 10.5 4.03113 10.9375C4.15613 11.375 4.65613 13.2813 5.56238 14.7188C5.96863 14.8437 8.12488 15.5937 9.40613 15.5625C10.5936 14.4688 11.8124 13.0625 12.1249 12.6875C11.8436 11.6875 10.8436 9.15625 10.6249 8.5625C8.84363 8.25 6.93738 7.90625 6.49988 7.8125ZM13.2186 5.34375C12.9686 5.71876 12.0311 7.00001 11.0624 8.375C11.2811 8.96875 12.2811 11.5 12.5624 12.5312C14.0936 12.9062 15.4998 13 15.8749 13C16.1561 12.75 17.2186 11.5937 17.7811 9.875C17.7499 9.59374 17.5311 7.90625 16.4999 6.25C16.2498 6.12498 14.9998 5.46875 13.2186 5.34375ZM1.15613 8.90625C1.06238 9.53125 1.06238 10.25 1.15613 10.9688C1.18738 10.6875 1.28113 10.4062 1.37488 10.125C1.24988 9.71875 1.18738 9.3125 1.15613 8.90625ZM6.09363 4.0625C5.71861 3.96875 4.74986 3.78125 3.99988 3.9375C3.24988 4.28127 2.15612 6.09376 1.74988 6.78125C1.71863 7.00001 1.37488 8.56251 1.78113 10C1.96863 10.125 2.62489 10.4375 3.68738 10.625C4.03113 10.125 5.37488 8.15626 6.18738 7.46875C5.99988 5.96875 6.06238 4.5625 6.09363 4.0625ZM11.4686 1.34375C11.3436 1.34375 11.2811 1.375 11.2186 1.375C11.0311 1.53126 10.7499 2.00001 10.5624 2.40625C12.0311 3.28124 12.9686 4.56249 13.2186 4.9375C14.8749 5.03125 16.0624 5.53125 16.5311 5.78125C16.7811 5.1875 16.8124 4.6875 16.8124 4.5625C16.3436 3.28125 13.8749 1.96875 13.7499 1.90625C13.6248 1.87495 12.2498 1.34375 11.4686 1.34375ZM9.90613 1.09375C7.18739 1.06251 4.96863 2.625 4.87488 2.71875C4.84357 2.75005 4.5311 3.0313 4.31238 3.4375C5.15611 3.375 6.06236 3.59374 6.34363 3.65625C7.81236 2.71876 9.6561 2.37501 10.1561 2.28125C10.2499 2.03125 10.4999 1.5625 10.7499 1.25C10.4999 1.15626 10.1561 1.125 9.90613 1.09375Z" fill="#495266"/>
</g>
<defs>
<clipPath id="clip0_10705_180880">
<rect width="20" height="20" fill="white"/>
</clipPath>
</defs>
</svg>
