<svg width="20" height="20" viewBox="0 0 20 20" fill="none" xmlns="http://www.w3.org/2000/svg">
<path d="M19.1667 6.66602C19.1478 7.42278 9.97162 17.4993 9.97162 17.4993C6.69823 14.0582 3.6469 10.4428 0.833374 6.67184H19.1478L19.1667 6.66602Z" fill="#FFC31D"/>
<path d="M15.3736 2.5H4.62648L0.833374 6.66667H19.1667L15.3736 2.5Z" fill="#FFC31D"/>
<path d="M6.66663 6.66667L10.0865 2.5L13.3333 6.66667H6.66663Z" fill="#FFC31D"/>
<path d="M6.66663 6.66602L10.0743 17.4993L13.3333 6.66602H6.66663Z" fill="#FFC31D"/>
<path d="M4.8513 2.5L6.66671 6.66667H0.833374L4.8513 2.5Z" fill="#FFC31D"/>
<path d="M15.2992 2.5L13.3334 6.66667H19.1667L15.2992 2.5Z" fill="#FFC31D"/>
<path d="M5.83337 5.83398H8.75004L8.35231 6.25065L10.4167 13.334H9.58337L6.07959 6.25065L5.83337 5.83398Z" fill="white"/>
<path d="M14.1667 5.83398H11.1932L11.6478 6.25065L9.58337 13.334H10.4167L13.9205 6.25065L14.1667 5.83398Z" fill="white"/>
</svg>
