<svg width="20" height="20" viewBox="0 0 20 20" fill="none" xmlns="http://www.w3.org/2000/svg">
<path d="M13.6297 9.68359C13.6297 9.68359 15.0735 10.2898 15.0328 10.4602C14.9922 10.632 14.7407 11.0352 14.5891 11.3789C14.4813 11.6242 14.2766 12.0445 14.3172 12.4086C14.3579 12.7727 14.5594 13.418 14.5594 13.418L12.3985 15.2445C12.3985 15.2445 12.0032 14.8195 11.3813 14.6289C10.7766 14.443 10.3188 14.5602 10.0875 14.5789C9.69379 14.6086 9.11879 14.6602 9.03754 14.6195C8.86722 14.5352 11.2891 11.4102 11.2891 11.4102L13.6297 9.68359Z" fill="#FDD083"/>
<path d="M13.4313 11.4082C13.4313 11.4082 14.7188 13.4988 15.5578 14.6801C16.3969 15.8613 17.1125 16.7301 17.2141 16.841C17.3157 16.952 17.85 17.3863 17.8203 17.6285C17.7907 17.8707 17.1938 18.2645 16.5985 18.6879C16.0032 19.1113 15.5078 19.5566 15.286 19.4754C15.0641 19.3941 14.4532 18.2848 14.075 17.7395C13.3719 16.727 10.7735 13.0691 10.7735 13.0691L13.4313 11.4082Z" fill="#F3A25A"/>
<path d="M13.5922 12.8711C13.5313 12.8711 13.5688 13.3867 13.0953 13.6789C12.6203 13.9711 12.25 13.9008 12.1985 13.9617C12.1766 13.9867 12.7235 14.7805 13.3594 15.6883C14.1735 16.8508 15.0766 18.0773 15.1563 18.2023C15.2672 18.3742 15.6 18.657 15.9547 18.4352C16.3031 18.2164 16.6781 17.9289 16.8094 17.7164C16.9406 17.5039 16.8031 17.3039 16.6016 17.0414C16.4906 16.8977 15.6938 15.8023 14.9156 14.7086C14.275 13.8117 13.6422 12.8711 13.5922 12.8711Z" fill="#FDD083"/>
<path d="M15.0328 10.4618L9.30151 14.6477C9.30151 14.6477 7.70151 14.843 6.63589 14.3008C5.57026 13.7586 4.37026 12.9461 3.21245 10.8024C2.01557 8.5852 0.912449 4.51801 4.85776 2.00082C8.80307 -0.516366 12.3218 2.61801 13.3499 3.83363C14.3781 5.04926 15.325 6.48988 15.4078 8.2102C15.4843 9.76332 15.0328 10.4618 15.0328 10.4618Z" fill="#FF4F28"/>
<path d="M11.6062 7.45234C9.86088 7.45078 8.79213 5.91172 8.99525 4.16641C9.19838 2.42109 11.364 2.23047 11.364 2.23047L14.1656 4.89141L14.3562 5.18359C14.3578 5.18516 14.2109 7.45547 11.6062 7.45234Z" fill="#EE3E23"/>
<path d="M13.7203 1.09602C14.7157 1.82883 15.1719 3.4007 14.3438 4.64914C13.611 5.75383 11.7282 6.27883 10.4078 5.14602C9.0219 3.95695 9.50471 2.0757 10.2297 1.3507C11.1985 0.383517 12.7532 0.383517 13.7203 1.09602Z" fill="#D8CDC9"/>
<path d="M13.4906 1.55416C14.1406 2.1901 14.3063 3.43853 13.4781 4.06197C12.7094 4.64166 11.6563 4.57135 11.0578 3.85885C10.4344 3.11666 10.7141 1.84635 11.3 1.45103C11.775 1.13228 12.7766 0.852597 13.4906 1.55416Z" fill="#EAEBEB"/>
<path d="M13.6453 3.65201C13.3547 3.62232 13.3172 3.36451 13.2531 2.86763C13.1938 2.40826 12.7453 1.86607 12.3531 1.77857C11.9297 1.68482 11.6813 1.68013 11.6828 1.41295C11.6859 1.09576 12.3094 0.848884 13.0203 1.1692C13.7422 1.4942 14.1094 2.35982 14.1094 2.92545C14.1094 3.50201 13.9234 3.68013 13.6453 3.65201Z" fill="#FEFFFF"/>
</svg>
