<svg width="20" height="20" viewBox="0 0 20 20" fill="none" xmlns="http://www.w3.org/2000/svg">
<g clip-path="url(#clip0_7648_463547)">
<path d="M3.48584 16.9095C3.48584 16.9095 6.48897 20.0689 11.6405 19.2673C16.7921 18.4673 18.8577 13.9502 19.2827 11.3752C19.8233 8.09547 18.3249 5.84078 18.2452 5.71734C18.1858 5.62671 3.48584 16.9095 3.48584 16.9095Z" fill="#DC5819"/>
<path d="M3.25163 3.36129C0.16569 6.60973 -0.357747 11.355 1.96257 15.0222C3.04225 16.7285 3.70319 17.0754 3.70319 17.0754C3.70319 17.0754 8.75163 20.3129 14.4251 15.405C19.2844 11.2019 18.2548 5.72848 18.2548 5.72848C18.2548 5.72848 17.6485 4.40348 16.3735 3.14566C13.5438 0.351915 7.21881 -0.816835 3.25163 3.36129Z" fill="#EF6C32"/>
<path d="M15.6204 2.50625C15.5751 2.50938 11.061 2.83437 6.28601 9.25313C3.27039 13.3063 3.41883 16.1672 3.53601 16.9516C3.53601 16.9516 3.30633 16.7625 3.14383 16.5875C2.98133 16.4141 2.85476 16.2594 2.85476 16.2594C2.84226 14.8859 3.2532 12.2828 5.78601 8.87969C9.6407 3.69375 13.3266 2.34219 14.872 1.99219C14.872 1.99219 15.061 2.10312 15.2438 2.21719C15.3782 2.30156 15.6204 2.50625 15.6204 2.50625Z" fill="#2D3130"/>
<path d="M2.43271 4.33984C2.93428 5.16328 4.14521 6.94297 6.24209 8.80078C8.88115 11.1414 11.6249 13.0445 14.3937 14.4555C15.7015 15.1227 16.7062 15.5133 17.4171 15.743C17.4171 15.743 17.314 15.9008 17.2171 16.0305C17.1202 16.1602 17.014 16.2695 17.014 16.2695C16.2905 16.0242 15.3249 15.6336 14.1077 15.0117C11.2921 13.5758 8.50459 11.643 5.82646 9.26797C3.84209 7.50859 2.63896 5.84297 2.04834 4.91016C2.04834 4.91016 2.13115 4.74609 2.24053 4.60078C2.3499 4.45547 2.43271 4.33984 2.43271 4.33984Z" fill="#2D3130"/>
<path d="M8.30945 0.746094C8.08602 1.00078 7.76727 1.41484 7.39539 2.04141C7.05477 2.61328 6.87977 3.18203 6.67664 3.84141C6.34383 4.92266 5.96727 6.14766 4.73446 7.71328C3.02196 9.88828 1.33914 10.6148 0.554768 10.8477C0.554768 10.8477 0.532893 10.6445 0.52508 10.5023C0.517268 10.3602 0.520393 10.1992 0.520393 10.1992C1.26571 9.94453 2.74071 9.23203 4.24227 7.32734C5.4032 5.85234 5.76102 4.68672 6.07821 3.65859C6.28446 2.98984 6.47821 2.35859 6.85789 1.72266C7.03758 1.42109 7.20633 1.16328 7.36102 0.947656C7.36102 0.947656 7.53446 0.889844 7.77196 0.836719C7.95633 0.792969 8.30945 0.746094 8.30945 0.746094ZM10.7376 19.3773C10.2141 18.9039 9.13289 17.8227 8.34383 16.318C7.47039 14.6539 7.06102 12.1508 8.22664 10.5867C9.55789 8.80234 12.0438 8.56016 14.3032 8.56016H14.3126C17.1891 8.56172 19.3532 9.16328 19.3782 9.17109C19.3782 9.17109 19.361 8.96016 19.3376 8.78047C19.3173 8.62578 19.2954 8.48203 19.2954 8.48203C19.186 8.45391 17.2735 7.93672 14.3126 7.93516H14.3032C11.8891 7.93516 9.22039 8.20703 7.72508 10.2133C6.76258 11.5039 6.40946 13.982 7.79071 16.6086C8.44071 17.8461 9.25945 18.8008 9.85789 19.4023C9.85789 19.4023 10.0329 19.4086 10.2563 19.4055C10.4766 19.4023 10.7376 19.3773 10.7376 19.3773Z" fill="#2D3130"/>
</g>
<defs>
<clipPath id="clip0_7648_463547">
<rect width="20" height="20" fill="white"/>
</clipPath>
</defs>
</svg>
