<svg width="20" height="20" viewBox="0 0 20 20" fill="none" xmlns="http://www.w3.org/2000/svg">
<g clip-path="url(#clip0_7648_463617)">
<path d="M9.94385 0.633762C15.4938 0.555637 19.6157 5.30876 19.3392 10.3916C19.0126 16.3775 14.7329 19.3853 9.72666 19.351C4.46729 19.315 0.47666 15.5869 0.586035 9.95564C0.693848 4.33376 4.82822 0.7072 9.94385 0.633762Z" fill="#C8C8C8"/>
<path d="M5.49254 2.18623C1.42943 4.50402 -1.14964 11.0735 3.17824 16.0442C3.70778 16.6525 4.54949 17.077 5.18854 17.3665C9.55238 19.3298 14.8331 16.3109 16.8761 14.0094C18.4974 12.1828 19.094 10.9711 18.9011 8.47761C18.7524 6.5388 17.9188 4.66668 16.1913 3.28251C12.2851 0.146578 8.07325 0.712606 5.49254 2.18623Z" fill="white"/>
<path d="M10.4205 6.21805C10.4345 6.21023 11.8798 5.38055 13.0017 4.96492C14.1705 4.53211 15.033 4.2993 15.0423 4.29773L14.8814 3.69461C14.8455 3.70398 13.983 3.93523 12.7845 4.38055C11.6126 4.81492 10.1689 5.64305 10.108 5.67898L10.4205 6.21805ZM7.87874 4.58742L7.02827 1.55273L6.4264 1.72133L7.27671 4.75602L7.87874 4.58742ZM1.56108 8.51961C1.5689 8.51648 2.40015 8.20086 3.32827 7.9493C4.02671 7.76023 4.92671 7.56805 4.93608 7.56648L4.8064 6.95555C4.7689 6.96336 3.8814 7.15242 3.16577 7.34617C2.20483 7.60555 1.37358 7.92273 1.33765 7.93523L1.56108 8.51961ZM6.47827 14.6509C6.47827 14.6415 6.5564 13.6884 6.7439 12.7134C6.92983 11.7509 7.28452 10.8446 7.28765 10.8368L6.7064 10.6071C6.69077 10.6462 6.32671 11.5743 6.12983 12.5962C5.93608 13.6071 5.85796 14.5618 5.85483 14.6024L6.47827 14.6509ZM3.37046 15.5196L3.78296 15.0493C3.77671 15.0446 3.17671 14.5134 2.43608 13.5134C1.75171 12.5884 1.43608 11.779 1.43296 11.7696L0.850145 11.993C0.864208 12.029 1.20015 12.8915 1.93452 13.8837C2.71733 14.943 3.3439 15.4962 3.37046 15.5196ZM14.8037 12.3259L11.1876 9.0982L10.7714 9.56445L14.3876 12.7921L14.8037 12.3259ZM17.9189 11.4618C17.9283 11.4009 18.1345 9.95555 18.1345 8.63367C18.1345 7.31492 17.9845 6.09461 17.9767 6.04305L17.3564 6.12117C17.358 6.13367 17.508 7.35555 17.508 8.63367C17.508 9.90867 17.3001 11.3587 17.2986 11.3727L17.9189 11.4618ZM8.79546 17.7587C8.83452 17.754 9.78765 17.6337 11.4361 17.1493C12.4861 16.8399 13.6861 16.2055 13.7376 16.179L13.4439 15.6274C13.4314 15.6337 12.2486 16.2602 11.2595 16.5509C9.66577 17.0196 8.72827 17.1384 8.7189 17.1399L8.79546 17.7587Z" fill="#171717"/>
<path d="M11.5967 5.11172C11.6451 5.23359 11.5811 9.58516 11.4826 9.71484C11.3842 9.84453 7.00918 11.3305 6.81387 11.282C6.61855 11.2336 4.28418 7.56016 4.28418 7.41328C4.28418 7.26641 7.15605 3.72422 7.30293 3.69141C7.44981 3.65859 11.5311 4.94766 11.5967 5.11172ZM1.59824 5.64609C1.59824 5.64609 2.24199 7.78828 2.24199 7.95234C2.24199 8.11484 1.8498 9.01328 1.67012 10.1227C1.49043 11.232 1.75137 12.8977 1.6373 12.9633C1.52324 13.0289 0.957617 12.9961 0.957617 12.9961C0.957617 12.9961 0.412304 11.282 0.641991 9.07891C0.871679 6.87422 1.59824 5.64609 1.59824 5.64609ZM6.24199 14.1711C6.37324 14.1836 9.81699 17.1414 9.80137 17.2242C9.78574 17.3055 8.45293 19.2695 8.45293 19.2695C8.45293 19.2695 6.77793 19.1367 5.24356 18.3055C3.70918 17.4742 3.12637 16.7352 3.12637 16.7352C3.12637 16.7352 2.91387 14.7602 2.99512 14.7445C3.07481 14.7258 6.07793 14.1555 6.24199 14.1711ZM17.7342 10.482C17.8232 10.5555 18.3389 11.6898 18.4857 12.3273C18.6326 12.9633 18.7139 13.568 18.7139 13.568C18.7139 13.568 18.3217 14.7023 17.7342 15.543C17.0061 16.5836 16.0592 17.318 16.0592 17.318C16.0592 17.318 12.9686 16.3758 12.9514 16.2445C12.9342 16.1133 13.3107 14.9711 13.5717 14.0242C13.8326 13.0773 13.8811 12.0164 13.9795 11.9508C14.0779 11.8852 15.0732 11.5758 15.8561 11.2648C16.6389 10.9539 17.6357 10.4008 17.7342 10.482ZM18.7029 6.54297C18.7029 6.54297 17.8482 7.28203 17.717 7.28203C17.5857 7.28203 16.7576 6.18516 15.9217 5.51953C14.7951 4.62109 14.2404 4.32734 14.2232 4.21328C14.2076 4.09922 13.717 1.37266 13.717 1.37266C13.717 1.37266 15.5295 2.05859 16.8514 3.57578C18.1732 5.09297 18.7029 6.54297 18.7029 6.54297ZM9.45918 0.644531C9.45918 0.644531 8.41699 1.18047 8.0373 1.44453C7.65762 1.70859 7.09824 2.26797 6.93262 2.28516C6.76855 2.30234 4.50137 2.30391 4.50137 2.30391C4.50137 2.30391 5.52949 1.60078 6.66855 1.19766C8.03887 0.711719 9.45918 0.644531 9.45918 0.644531Z" fill="#474C4F"/>
</g>
<defs>
<clipPath id="clip0_7648_463617">
<rect width="20" height="20" fill="white"/>
</clipPath>
</defs>
</svg>
