<svg width="20" height="20" viewBox="0 0 20 20" fill="none" xmlns="http://www.w3.org/2000/svg">
<path d="M10.2781 12.5938C10.2781 12.5938 9.29531 13.9031 9.07656 14.1688C8.85781 14.4344 8.29688 15.0422 8.04688 15.1984C7.79688 15.3547 7.70312 15.6344 5.00625 15.6344C2.88594 15.6344 2.10625 15.4 1.15469 15.4C0.414062 15.4 0.59375 16.6937 0.6875 16.9906C0.78125 17.2875 1.34062 18.2766 2.41875 18.4719C3.41094 18.6531 4.49688 18.5344 6.0375 18.2844C7.31563 18.0766 8.40469 17.8 8.90469 17.4719C9.38281 17.1578 9.92188 16.1937 10.2016 15.7578C10.4812 15.3219 11.6203 13.5438 11.6203 13.5438L11.6047 13.1844L10.2781 12.5938Z" fill="#FFA828"/>
<path d="M10.7391 12.6289C10.7125 12.693 8.82345 15.1195 8.65939 15.3117C8.49533 15.5039 8.22189 15.7586 8.2672 16.1336C8.31252 16.507 8.65783 16.607 8.90314 16.5195C9.34064 16.3648 9.46252 16.0055 9.70002 15.6945C9.86252 15.482 11.5985 12.9852 11.5985 12.9852L10.7391 12.6289Z" fill="#F08A34"/>
<path d="M10.2281 12.6574L11.8344 10.4121L13.0875 11.3027L11.5516 13.6512L10.2281 12.6574Z" fill="#5D6365"/>
<path d="M11.2656 11.2051L12.5313 12.1551L11.9891 13.0004L10.6735 12.0285L11.2656 11.2051Z" fill="#DFE0E0"/>
<path d="M11.7125 10.5758L12.9531 11.5148L18.0156 3.90391L16.9297 3.17578L11.7125 10.5758Z" fill="#FC2929"/>
<path d="M17.9359 1.19752C17.6469 1.21939 17.2672 1.95846 17.2531 2.03971C17.225 2.19596 17.5203 2.33033 17.5203 2.33033L16.7891 3.37877L17.8672 4.11627L18.5906 3.07564C18.5906 3.07564 18.8094 3.23033 18.9219 3.15377C19.0391 3.07408 19.5203 2.39439 19.4922 2.20377C19.4688 2.04752 18.175 1.18033 17.9359 1.19752Z" fill="#5E6367"/>
<path d="M14.6985 16.1953L12.6657 16.5469C12.6657 16.5469 12.6047 16.8375 12.6204 17.4484C12.636 18.0594 12.7266 18.2734 12.7266 18.2734C12.7266 18.2734 13.1625 19.2234 15.2844 19.2547C17.5891 19.2891 18.0782 18.2891 18.0782 18.2891C18.0782 18.2891 18.1719 17.7875 18.1719 17.4062C18.1719 17.1609 18.1625 16.5937 18.1094 16.5219C17.9579 16.3234 14.6985 16.1953 14.6985 16.1953Z" fill="#9A9A9A"/>
<path d="M15.3141 15.2874C13.4359 15.2687 12.65 16.0812 12.6656 16.5468C12.6766 16.9109 13.3906 17.8577 15.4313 17.8906C17.6469 17.9265 18.1141 16.7015 18.1203 16.5234C18.125 16.3156 17.6016 15.3093 15.3141 15.2874Z" fill="#5E6367"/>
</svg>
