<svg width="20" height="20" viewBox="0 0 20 20" fill="none" xmlns="http://www.w3.org/2000/svg">
<g clip-path="url(#clip0_7648_463622)">
<path d="M19.006 14.0167C21.2459 9.06394 19.0467 3.23317 14.094 0.993276C9.14124 -1.24661 3.31046 0.952582 1.07057 5.90532C-1.16932 10.8581 1.02988 16.6888 5.98262 18.9287C10.9354 21.1686 16.7661 18.9694 19.006 14.0167Z" fill="#D8CCC8"/>
<path d="M9.1251 15.4777C13.0265 15.4777 16.1892 12.315 16.1892 8.41367C16.1892 4.5123 13.0265 1.34961 9.1251 1.34961C5.22372 1.34961 2.06104 4.5123 2.06104 8.41367C2.06104 12.315 5.22372 15.4777 9.1251 15.4777Z" fill="#EFEBE9"/>
<path d="M14.2593 10.384C14.2265 10.3402 14.1843 10.3027 14.1296 10.2777C14.0718 10.2512 14.0109 10.2449 13.9531 10.2512C12.4015 9.59961 11.1078 9.42148 10.6203 9.37617C10.1281 8.36992 9.78589 7.37461 9.59839 6.39336C10.9562 6.31523 16.0515 6.3418 19.8578 10.6105C19.8796 10.2887 19.8843 9.9668 19.8734 9.64648C15.8906 5.62305 10.8218 5.64492 9.49683 5.72773C9.36245 4.61055 9.42808 3.51367 9.69683 2.44336C10.9593 2.39961 15.214 2.49805 18.7718 5.4293C18.4942 4.894 18.1684 4.38512 17.7984 3.90898C14.6093 1.93086 11.2484 1.74805 9.89526 1.76836C10.1359 1.06211 10.4265 0.510547 10.6531 0.138672C10.3968 0.123047 10.1406 0.116797 9.88589 0.119922C9.54131 0.751991 9.27328 1.42287 9.08745 2.11836C8.8187 3.11836 8.64214 4.46992 8.87808 6.08242C8.87808 6.09961 8.87808 6.1168 8.87964 6.13398C8.88276 6.1543 8.88745 6.17461 8.8937 6.19336C9.05933 7.24805 9.40151 8.41211 10.0125 9.66211C9.72651 10.0371 8.91245 11.034 7.65151 12.0215C6.91245 10.9715 4.18433 6.49961 6.64526 0.723047C6.35151 0.830859 6.06401 0.952734 5.78276 1.08711C3.67651 6.82461 6.37495 11.3387 7.11558 12.4184C6.29683 12.9965 5.32339 13.5418 4.21401 13.9246C3.56089 12.7637 1.34214 8.20898 3.24214 2.84023C2.86401 3.19961 2.51401 3.59336 2.1937 4.0168C1.04058 8.83555 2.85151 12.8199 3.55933 14.1262C2.84995 14.3184 2.09058 14.434 1.28589 14.4574C1.40151 14.6824 1.52339 14.9043 1.6562 15.1199C2.48901 15.0699 3.27026 14.9246 3.99683 14.7105C4.09214 14.7434 4.19995 14.734 4.28901 14.6746C4.32339 14.6512 4.35151 14.623 4.37495 14.5918C7.87964 13.423 10.0546 10.7324 10.5656 10.0434C10.9843 10.0824 12.1234 10.234 13.5093 10.7902C12.7953 12.1262 9.87964 16.9121 4.37651 18.0105C4.63276 18.1902 4.89839 18.359 5.17651 18.5168C10.5765 17.1168 13.4296 12.3715 14.125 11.059C14.9406 11.4418 15.8125 11.9637 16.6578 12.684C16.2093 13.6137 13.8562 18.0418 9.13276 19.7605C9.67808 19.8105 10.2234 19.8168 10.7625 19.7762C14.5468 17.8246 16.5828 14.309 17.1734 13.1527C17.6986 13.661 18.1746 14.2176 18.5953 14.8152C18.7185 14.5966 18.8336 14.3735 18.9406 14.1465C17.5078 12.2262 15.7828 11.073 14.2593 10.384Z" fill="#BDAAA4"/>
</g>
<defs>
<clipPath id="clip0_7648_463622">
<rect width="20" height="20" fill="white"/>
</clipPath>
</defs>
</svg>
