<svg width="20" height="20" viewBox="0 0 20 20" fill="none" xmlns="http://www.w3.org/2000/svg">
<g clip-path="url(#clip0_10705_180881)">
<path d="M10 19.1562C15.0569 19.1562 19.1562 15.0569 19.1562 10C19.1562 4.94314 15.0569 0.84375 10 0.84375C4.94314 0.84375 0.84375 4.94314 0.84375 10C0.84375 15.0569 4.94314 19.1562 10 19.1562Z" fill="white"/>
<path d="M19.3438 10C19.3438 9.78125 19.4063 6.59375 17.5313 4.53125C17.4375 4.34375 17.0625 3.59375 15.7813 2.6875C14.9375 2.03125 14.0625 1.5625 13.9688 1.5C13.875 1.4375 12.3125 0.625 10.4375 0.625C10.2813 0.625 10.1563 0.625 10 0.65625C8.56251 0.625 7.25001 1 6.28126 1.4375C5.28126 1.875 4.62501 2.3125 4.56251 2.375C3.50001 2.96875 1.46876 5.34375 1.31251 6.625C0.65626 7.4375 0.12501 11.1563 1.31251 13.4062C2.15626 16.5312 5.28126 18.0938 5.53126 18.2188C5.68751 18.3125 7.37501 19.375 9.46876 19.375H9.75001C9.93751 19.4062 10.0938 19.4062 10.2813 19.4062C12.5313 19.4062 15.9063 17.8125 16.5938 16.5625C18.5313 15.125 19.5313 11.5 19.3438 10ZM5.56251 14.7188C4.65626 13.2812 4.15626 11.375 4.03126 10.9375C4.31251 10.5 5.71876 8.4375 6.50001 7.8125C6.93751 7.90625 8.84376 8.25 10.625 8.5625C10.8438 9.15625 11.8438 11.6875 12.125 12.6875C11.8125 13.0625 10.5938 14.4688 9.40626 15.5625C8.12501 15.5938 5.96876 14.8438 5.56251 14.7188ZM16.8125 4.5625C16.8125 4.6875 16.7813 5.1875 16.5313 5.78125C16.0625 5.53125 14.875 5.03125 13.2188 4.9375C12.9688 4.5625 12.0313 3.28125 10.5625 2.40625C10.75 2 11.0313 1.53125 11.2188 1.375C11.2813 1.375 11.3438 1.34375 11.4688 1.34375C12.25 1.34375 13.625 1.875 13.75 1.90625C13.875 1.96875 16.3438 3.28125 16.8125 4.5625ZM3.68751 10.625C2.62501 10.4375 1.96876 10.125 1.78126 10C1.37501 8.5625 1.71876 7 1.75001 6.78125C2.15626 6.09375 3.25001 4.28125 4.00001 3.9375C4.75001 3.78125 5.71876 3.96875 6.09376 4.0625C6.06251 4.5625 6.00001 5.96875 6.18751 7.46875C5.37501 8.15625 4.03126 10.125 3.68751 10.625ZM9.90626 1.09375C10.1563 1.125 10.5 1.15625 10.75 1.25C10.5 1.5625 10.25 2.03125 10.1563 2.28125C9.65626 2.375 7.81251 2.71875 6.34376 3.65625C6.06251 3.59375 5.15626 3.375 4.31251 3.4375C4.53126 3.03125 4.84376 2.75 4.87501 2.71875C4.96876 2.625 7.18751 1.0625 9.90626 1.09375ZM15.875 13C15.5 13 14.0938 12.9062 12.5625 12.5312C12.2813 11.5 11.2813 8.96875 11.0625 8.375C12.0313 7 12.9688 5.71875 13.2188 5.34375C15 5.46875 16.25 6.125 16.5 6.25C17.5313 7.90625 17.75 9.59375 17.7813 9.875C17.2188 11.5938 16.1563 12.75 15.875 13ZM1.15626 8.90625C1.18751 9.3125 1.25001 9.71875 1.37501 10.125C1.28126 10.4062 1.18751 10.6875 1.15626 10.9688C1.06251 10.25 1.06251 9.53125 1.15626 8.90625ZM5.78126 17.8125C5.00001 17.4375 4.40626 16.5625 4.15626 16.2188C4.62501 15.75 5.21876 15.3125 5.43751 15.1562C5.93751 15.3438 8.03126 16.0312 9.37501 16.0312C9.59376 16.3438 10.3438 17.2812 11.25 18.0312C10.6875 18.5938 9.87501 18.8438 9.71876 18.9062C7.59376 18.9688 5.78126 17.8125 5.78126 17.8125ZM10.875 18.875C11.1563 18.7188 11.4688 18.5 11.7188 18.2188C12.125 18.1562 13.875 17.875 15.4375 16.7188C15.5313 16.7188 15.7188 16.75 15.9063 16.75C14.9375 17.6562 12.625 18.6875 10.875 18.875ZM15.6875 16.25C16.25 14.7812 16.2188 13.6562 16.1875 13.3125C16.5 13 17.5625 11.875 18.1563 10.1562C18.4688 10.2188 18.6875 10.2812 18.7813 10.3438C18.8125 10.4688 18.875 10.75 18.8438 11.1875C18.5938 12.75 17.7813 15.125 16.3125 16.1562C16.1563 16.25 15.9063 16.2812 15.6875 16.25Z" fill="#4A4E51"/>
</g>
<defs>
<clipPath id="clip0_10705_180881">
<rect width="20" height="20" fill="white"/>
</clipPath>
</defs>
</svg>
