<svg width="50" height="50" viewBox="0 0 50 50" fill="none" xmlns="http://www.w3.org/2000/svg">
<path d="M37.5 4.16406L31.4896 32.7161C31.2812 33.6849 30.4375 34.3724 29.4479 34.3724H9.375C7.64583 34.3724 6.25 35.7682 6.25 37.4974V39.112C6.25 42.737 9.32292 45.6016 12.9479 45.3411L30.7187 44.0703C33.5 43.8724 35.8125 41.8516 36.3854 39.1224L43.75 4.16406H37.5Z" stroke="#51555E" stroke-width="4.16667" stroke-miterlimit="2" stroke-linecap="round" stroke-linejoin="round"/>
<path d="M15.6251 16.6641C20.2275 16.6641 23.9584 15.265 23.9584 13.5391C23.9584 11.8131 20.2275 10.4141 15.6251 10.4141C11.0227 10.4141 7.29175 11.8131 7.29175 13.5391C7.29175 15.265 11.0227 16.6641 15.6251 16.6641Z" stroke="#51555E" stroke-width="4.16667" stroke-miterlimit="2" stroke-linecap="round" stroke-linejoin="round"/>
<path d="M23.9584 13.5391V19.7891C23.9584 21.5182 20.2292 22.9141 15.6251 22.9141C11.0209 22.9141 7.29175 21.5182 7.29175 19.7891V13.5391" stroke="#51555E" stroke-width="4.16667" stroke-miterlimit="2" stroke-linecap="round" stroke-linejoin="round"/>
</svg>
