<svg width="20" height="20" viewBox="0 0 20 20" fill="none" xmlns="http://www.w3.org/2000/svg">
<g clip-path="url(#clip0_10705_181917)">
<path d="M16.3141 8.78985L11.1782 3.66954C11.1141 3.60548 11.1141 3.50235 11.1782 3.43829C11.2422 3.37423 11.3454 3.37423 11.4094 3.43829L16.5829 8.57423C16.5829 8.57423 16.5282 8.6211 16.4376 8.69454C16.3782 8.73985 16.3141 8.78985 16.3141 8.78985ZM17.361 7.76016L12.1266 2.58673C12.0626 2.52266 12.0626 2.41954 12.1251 2.35548C12.1891 2.29141 12.2922 2.29141 12.3563 2.35391L17.5626 7.49298C17.5626 7.49298 17.5344 7.54454 17.4657 7.63048C17.436 7.66798 17.361 7.76016 17.361 7.76016ZM14.9844 9.56485L10.4266 4.8586C10.3641 4.79454 10.3657 4.68985 10.4297 4.62735C10.4938 4.56485 10.5969 4.56641 10.661 4.63048L15.3063 9.41954C15.3063 9.41954 15.2282 9.45704 15.1485 9.4961C15.0735 9.53204 14.9844 9.56485 14.9844 9.56485ZM13.2797 9.92735L10.0454 6.50548C9.98287 6.43985 9.98443 6.33673 10.0501 6.27423C10.1157 6.21173 10.2188 6.21329 10.2813 6.27891C10.2813 6.27891 13.6672 9.81954 13.6579 9.83204C13.6516 9.83985 13.6157 9.91016 13.4829 9.91329C13.4204 9.91485 13.2797 9.92735 13.2797 9.92735ZM18.1532 6.51485L13.4829 1.9461C13.4188 1.8836 13.4172 1.77891 13.4797 1.71485C13.5438 1.65079 13.6469 1.64923 13.711 1.71173L18.2922 6.1961C18.2922 6.1961 18.2641 6.26329 18.2329 6.33516C18.2032 6.40704 18.1532 6.51485 18.1532 6.51485ZM18.6282 5.00079L15.1501 1.4836C15.086 1.41954 15.0876 1.31641 15.1516 1.25235C15.2157 1.18829 15.3188 1.18985 15.3829 1.25391L18.6782 4.55391C18.6782 4.55391 18.6579 4.81798 18.6282 5.00079Z" fill="#495266"/>
<path d="M10.1531 5.91211C10.1125 5.91211 10.0703 5.89648 10.039 5.86523C9.97497 5.80273 9.97341 5.69961 10.0359 5.63398L14.3531 1.36367C14.4156 1.29961 14.5187 1.29805 14.5843 1.36055C14.6484 1.42305 14.65 1.52617 14.5875 1.5918L10.2703 5.86211C10.239 5.89648 10.1968 5.91211 10.1531 5.91211ZM10.2 7.67148C10.1578 7.67148 10.1172 7.65586 10.0843 7.62305C10.0203 7.55898 10.0203 7.45586 10.0843 7.3918L16.1953 1.29023C16.2593 1.22617 16.3625 1.22617 16.4265 1.29023C16.4906 1.3543 16.4906 1.45742 16.4265 1.52148L10.314 7.62305C10.2828 7.6543 10.2406 7.67148 10.2 7.67148ZM10.8593 8.98711C10.8271 8.9871 10.7956 8.97754 10.7688 8.95966C10.742 8.94177 10.7212 8.91635 10.7088 8.8866C10.6964 8.85686 10.6931 8.82411 10.6994 8.7925C10.7056 8.76089 10.721 8.73183 10.7437 8.70898L17.4109 1.93086C17.4734 1.8668 17.5765 1.86523 17.6422 1.9293C17.7062 1.99336 17.7078 2.09648 17.6437 2.16055L10.9765 8.93867C10.9437 8.97148 10.9015 8.98711 10.8593 8.98711ZM11.7547 9.56524L18.3765 2.91992C18.3765 2.91992 18.4015 2.92305 18.45 3.01211C18.4937 3.0918 18.5265 3.23711 18.5265 3.23711L12.0672 9.71367C12.0672 9.71367 11.9922 9.69023 11.9078 9.64805C11.814 9.60117 11.7547 9.56524 11.7547 9.56524ZM13.275 9.92773L18.6843 4.29648C18.689 4.44648 18.6578 4.81055 18.6578 4.81055L13.8 9.89023C13.8 9.89023 13.5734 9.92773 13.275 9.92773Z" fill="#495266"/>
<path d="M17.8563 1.36434C14.55 -0.629409 10.825 2.63622 9.84224 5.16747C8.85942 7.69715 10.4375 9.37997 10.4375 9.37997C10.4375 9.37997 5.51255 14.5284 5.17036 14.6612L5.29692 15.2409L10.7 9.8909C10.7 9.8909 11.6079 10.7597 13.1407 10.7097C15.8641 10.6206 17.1438 9.17997 17.7391 8.52215C18.3516 7.84559 19.1532 6.72059 19.3313 4.97997C19.4641 3.67997 19.2485 2.2034 17.8563 1.36434ZM16.7266 8.70965C14.7766 10.4362 12.7829 10.1831 12.0688 9.81122C11.3547 9.43934 11.1907 9.18622 10.9235 8.88778C10.7625 8.70809 9.9563 7.79403 10.2391 5.9784C10.4391 4.69715 11.111 3.83153 11.9954 2.95028C12.9954 1.9534 15.836 0.409653 17.8313 2.25184C19.5438 3.83622 18.675 6.98309 16.7266 8.70965Z" fill="#495266"/>
<path d="M17.5141 7.56278C15.886 9.77528 12.8563 10.7175 11.1891 9.15497L10.9219 8.88778C10.9219 8.88778 10.8172 8.97684 10.5641 8.9034C10.311 8.8284 9.82036 8.13622 9.76099 7.23622C9.63286 5.2909 10.2797 4.03465 11.6657 2.75653C13.7641 0.820591 16.6407 0.547153 18.0657 2.22059C18.661 2.91903 19.3 5.13778 17.5141 7.56278ZM19.1672 3.25497C19.1172 2.78934 18.8344 2.1659 18.3938 1.74403C16.1313 -0.421596 12.9141 1.02215 11.4125 2.40653C9.77505 3.91747 9.4188 5.21122 9.31724 6.59247C9.19067 8.32528 10.0844 9.2409 10.0844 9.2409L4.86255 14.4597L4.95161 15.1815L10.6813 9.48153C10.6813 9.48153 11.4516 10.3018 13.1516 10.3737C14.536 10.4331 15.9344 9.73934 16.9313 8.85497C18.1688 7.76434 19.4344 5.79247 19.1672 3.25497Z" fill="#495266"/>
<path d="M4.49817 14.1514C4.69504 13.9592 4.89231 14.0525 5.36731 14.5635C5.85155 15.0836 5.99528 15.2479 5.81262 15.4775C5.6382 15.6963 5.43523 15.6495 5.42688 15.6475L2.22668 18.8193C2.22668 18.8193 2.27166 19.1192 2.05969 19.2646C1.90344 19.3725 1.65735 19.332 1.65735 19.332L0.622192 18.2637C0.622192 18.2637 0.554614 18.018 0.721802 17.8398C0.8857 17.6654 1.12458 17.727 1.13391 17.7295L4.36438 14.4746C4.36438 14.4746 4.33285 14.3122 4.49817 14.1514ZM4.82336 14.7744C4.72659 14.7198 4.53786 14.7664 4.42688 14.9082C4.31594 15.0504 4.36985 15.251 4.25891 15.3369C4.14782 15.4241 3.90925 15.4092 3.672 15.6465C3.4346 15.884 3.46514 16.2489 3.29016 16.4082C3.11516 16.5676 2.78566 16.5791 2.60754 16.7588C2.34523 17.0213 2.32196 17.395 2.17981 17.5137C2.0376 17.6323 1.75908 17.5854 1.61536 17.7197C1.47179 17.8542 1.37844 18.2268 1.65442 18.3223C1.93082 18.4175 1.92507 18.1327 2.11536 18.0762C2.30597 18.0199 2.48919 17.9806 2.64856 17.7588C2.80793 17.5369 2.79094 17.3209 2.96594 17.1553C3.14097 16.9884 3.4268 16.9962 3.63293 16.8135C3.83914 16.6307 3.81548 16.2336 4.05286 16.0273C4.29036 15.8211 4.41106 15.9396 4.59387 15.7178C4.77647 15.496 4.72849 15.2803 4.88 15.21C5.02962 15.1394 5.02163 14.8853 4.82336 14.7744ZM9.83899 9.07422C9.97964 9.06181 10.8747 10.0381 10.8751 10.1025C10.8751 10.1666 10.3138 10.7559 10.1857 10.7559C10.0568 10.755 9.14368 9.86811 9.1593 9.7666C9.18594 9.59937 9.69838 9.08516 9.83899 9.07422Z" fill="#495266"/>
<path d="M9.46169 2.05589C9.34831 1.78395 9.13156 1.56818 8.85912 1.45602C8.58668 1.34386 8.28084 1.3445 8.00887 1.4578L7.49614 1.67148L7.70982 2.18421L8.13719 3.20966L8.35045 3.72342L8.8636 3.50871C9.13553 3.39533 9.35131 3.17858 9.46346 2.90614C9.57562 2.6337 9.57498 2.32786 9.46169 2.05589Z" fill="#495266"/>
<path d="M7.83618 3.93652C7.27281 4.59077 3.30221 7.55198 3.22192 7.36035C2.99419 6.81463 3.51582 6.34301 3.52368 6.33594C3.52368 6.33594 2.93137 6.59831 2.71216 6.07129C2.49607 5.55142 3.08031 5.31673 3.09595 5.31055C3.0801 5.31964 2.5069 5.64271 2.26099 5.05566C2.01162 4.45684 2.66821 4.28516 2.66821 4.28516C2.66821 4.28516 2.00983 4.45196 1.8186 3.99414C1.62838 3.53553 2.24146 3.25879 2.24146 3.25879C2.24146 3.25879 1.64005 3.26168 1.41138 2.71094C1.30586 2.44783 6.15247 1.89428 6.98267 1.88477L7.83618 3.93652ZM6.45728 4.84766C6.3068 4.556 3.31667 6.48204 3.5647 6.84473C3.63004 6.93918 3.87052 6.8715 4.18579 6.71582C4.92498 6.19492 5.64997 5.65349 6.35962 5.09277C6.44156 4.98591 6.48284 4.89836 6.45728 4.84766ZM6.24341 4.20215C6.11716 3.90041 2.97149 5.55152 3.18579 5.93555C3.40195 6.31947 6.39366 4.56835 6.24341 4.20215ZM5.97192 3.48633C5.70509 2.96822 2.48253 4.23897 2.73169 4.84277C2.98209 5.44638 6.19361 3.9177 5.97192 3.48633ZM5.6438 2.75586C5.48956 2.39224 2.14761 3.29329 2.26587 3.7168C2.38609 4.14172 5.77052 3.05831 5.6438 2.75586ZM5.28638 2.09766C4.28953 2.20607 3.07153 2.36417 2.26489 2.5127C2.02419 2.61099 1.87243 2.71348 1.88989 2.80762C1.9728 3.23976 5.43592 2.46321 5.33813 2.15039C5.33154 2.12949 5.31171 2.11279 5.28638 2.09766Z" fill="#495266"/>
</g>
<defs>
<clipPath id="clip0_10705_181917">
<rect width="20" height="20" fill="white"/>
</clipPath>
</defs>
</svg>
