<svg width="50" height="50" viewBox="0 0 50 50" fill="none" xmlns="http://www.w3.org/2000/svg">
<path fill-rule="evenodd" clip-rule="evenodd" d="M39.3759 2.50302C40.5459 2.50302 41.497 3.45404 41.497 4.62408V8.50318H45.3761C45.7956 8.50309 46.2058 8.62744 46.5547 8.86049C46.9036 9.09355 47.1755 9.42485 47.3361 9.81248C47.4967 10.2001 47.5387 10.6266 47.4568 11.0382C47.3749 11.4497 47.1728 11.8276 46.8761 12.1243L42.496 16.5044C41.8564 17.1425 40.9904 17.5017 40.0869 17.5034H35.6768L25.0865 28.0937C24.66 28.4911 24.0958 28.7075 23.5129 28.6972C22.93 28.6869 22.3738 28.4508 21.9616 28.0385C21.5493 27.6263 21.3132 27.0701 21.3029 26.4872C21.2926 25.9043 21.509 25.3401 21.9064 24.9136L32.4967 14.3233V9.91321C32.4967 9.01019 32.8567 8.14317 33.4958 7.50115L37.8759 3.12104C38.0722 2.92315 38.3059 2.76633 38.5634 2.65971C38.821 2.55309 39.0972 2.4988 39.3759 2.50002M6.99606 26.5036C6.99574 24.0572 7.53944 21.6413 8.58778 19.4308C9.63612 17.2204 11.1629 15.2707 13.0575 13.7229C14.9521 12.1752 17.1672 11.0681 19.5424 10.4818C21.9176 9.89559 24.3934 9.84482 26.7906 10.3332C27.3724 10.4442 27.9745 10.3214 28.4662 9.9913C28.958 9.66122 29.2998 9.15055 29.4175 8.57008C29.5352 7.9896 29.4192 7.38614 29.0948 6.89061C28.7704 6.39507 28.2637 6.04743 27.6846 5.92311C23.2615 5.02384 18.6663 5.57357 14.5802 7.49081C10.494 9.40805 7.13427 12.5908 4.99889 16.5673C2.86351 20.5438 2.06613 25.1025 2.72492 29.5678C3.38371 34.0331 5.46361 38.1673 8.65638 41.3577C11.8491 44.5481 15.9849 46.625 20.4506 47.2805C24.9164 47.936 29.4745 47.1353 33.4494 44.997C37.4244 42.8587 40.6047 39.4967 42.5189 35.4091C44.4332 31.3215 44.9795 26.726 44.077 22.3035C43.9581 21.7187 43.6117 21.2051 43.114 20.8757C42.6164 20.5463 42.0083 20.428 41.4235 20.547C40.8386 20.6659 40.325 21.0123 39.9956 21.51C39.6662 22.0076 39.548 22.6157 39.6669 23.2006C39.8849 24.2666 39.9949 25.3676 39.9969 26.5036C39.9969 30.8798 38.2585 35.0768 35.1641 38.1712C32.0696 41.2656 27.8727 43.0041 23.4965 43.0041C19.1203 43.0041 14.9234 41.2656 11.8289 38.1712C8.7345 35.0768 6.99606 30.8798 6.99606 26.5036ZM23.0885 19.0154C23.6844 18.9836 24.2433 18.7164 24.6422 18.2724C25.0411 17.8285 25.2474 17.2443 25.2155 16.6484C25.1837 16.0524 24.9164 15.4935 24.4725 15.0946C24.0286 14.6957 23.4444 14.4895 22.8485 14.5213C20.5442 14.6455 18.3246 15.4314 16.4556 16.785C14.5866 18.1385 13.1475 20.0022 12.3107 22.1527C11.4739 24.3033 11.2749 26.6495 11.7376 28.9103C12.2003 31.1711 13.305 33.2505 14.9194 34.8994C16.5337 36.5483 18.5893 37.6968 20.8397 38.2073C23.0902 38.7177 25.4401 38.5685 27.6079 37.7775C29.7757 36.9864 31.6695 35.5871 33.0623 33.7472C34.4551 31.9073 35.2878 29.7048 35.4608 27.4037C35.505 26.8085 35.3109 26.2202 34.9213 25.7681C34.5316 25.316 33.9784 25.0373 33.3832 24.9931C32.7881 24.9489 32.1998 25.143 31.7477 25.5326C31.2956 25.9223 31.0168 26.4755 30.9727 27.0707C30.8633 28.5081 30.3419 29.8836 29.471 31.0324C28.6 32.1812 27.4165 33.0547 26.062 33.5483C24.7075 34.0418 23.2395 34.1346 21.8336 33.8154C20.4278 33.4962 19.1437 32.7787 18.1351 31.7486C17.1265 30.7186 16.4362 29.4197 16.1467 28.0074C15.8572 26.5951 15.9809 25.1294 16.5029 23.7856C17.0249 22.4418 17.9231 21.2769 19.09 20.4304C20.2569 19.5839 21.643 19.0916 23.0825 19.0124" fill="#51555E"/>
</svg>
