<svg width="20" height="20" viewBox="0 0 20 20" fill="none" xmlns="http://www.w3.org/2000/svg">
<path d="M10 1C14.9705 1 19 5.02943 19 10C19 14.9705 14.9705 19 10 19C5.02943 19 1 14.9705 1 10C1 5.02943 5.02943 1 10 1ZM11.5026 13.5999H8.49655L7.25548 15.3072L7.75396 16.8428C8.46073 17.0746 9.21574 17.2 10 17.2C10.7843 17.2 11.5393 17.0746 12.246 16.8428L12.7436 15.3072L11.5026 13.5999ZM3.96419 8.98471L2.802 9.82855L2.8 10C2.8 11.5567 3.29405 12.9981 4.13389 14.1757L5.85329 14.1759L7.04308 12.5379L6.11789 9.68491L3.96419 8.98471ZM16.0349 8.98471L13.8812 9.68491L12.956 12.5379L14.1459 14.1759L15.8661 14.1757C16.706 12.9981 17.2 11.5567 17.2 10L17.1973 9.829L16.0349 8.98471ZM10 7.7824L7.8904 9.3142L8.6968 11.8H11.3023L12.1087 9.3142L10 7.7824ZM12.0623 3.09969L10.8996 3.94564V6.21094L13.3241 7.97224L15.3393 7.31794L15.838 5.78512C14.9203 4.51617 13.5989 3.55829 12.0623 3.09969ZM7.93681 3.09996C6.40019 3.55876 5.07894 4.51686 4.16135 5.786L4.65988 7.31794L6.67499 7.97224L9.09955 6.21094V3.94564L7.93681 3.09996Z" fill="#E80104"/>
</svg>
