<svg width="20" height="20" viewBox="0 0 20 20" fill="none" xmlns="http://www.w3.org/2000/svg">
<g clip-path="url(#clip0_7648_463623)">
<path d="M12.0327 6.31642L3.09521 15.8805C3.09521 15.8805 5.94522 19.3039 10.4968 19.0977C13.628 18.9555 15.5062 17.7883 17.0437 16.0227C18.9218 13.8649 19.3452 10.6992 19.2358 9.24767C19.0937 7.36954 17.8124 4.92111 16.8155 4.18048C15.8187 3.43986 12.0327 6.31642 12.0327 6.31642Z" fill="#D7CCC6"/>
<path d="M3.92035 3.27089C0.957855 5.90683 -0.999958 11.8912 3.09535 15.8803C5.28754 18.0146 12.4594 18.1224 15.875 13.6537C17.4797 11.5553 18.7672 8.27245 17.8969 5.66151C17.5547 4.63651 16.636 3.90058 15.8188 3.21308C11.8907 -0.0884873 7.53598 0.0537001 3.92035 3.27089Z" fill="#F1EDEC"/>
<path d="M10.886 19.3891L10.2782 19.3391C10.2907 19.2812 11.5563 13.5938 7.8563 9.86563C6.21255 8.20937 4.69849 7.44375 3.35474 7.59219C1.95474 7.74531 1.02349 9.04219 1.01724 9.05469L0.729736 8.47188C0.765674 8.41563 1.59067 7.15781 3.28755 6.97188C4.8313 6.80469 6.51724 7.62969 8.30161 9.42656C12.2454 13.4031 10.9422 19.1422 10.886 19.3891ZM19.0625 9.50156C19.0204 9.47344 14.9125 6.56563 12.7922 4.75625C10.886 3.13125 8.35942 0.860938 8.33599 0.8375L8.77505 0.5625C8.79849 0.584375 11.2313 2.74219 13.1313 4.3625C15.2329 6.15469 19.1719 8.97813 19.2141 9.00625L19.0625 9.50156Z" fill="#979892"/>
<path d="M10.6798 2.53824C10.6017 2.62106 10.4001 3.22418 10.322 3.56012C10.2767 3.75231 10.3048 4.05074 10.5454 4.08981C10.8142 4.13512 10.9157 3.98043 10.9985 3.75074C11.0814 3.52106 11.2282 3.10543 11.2282 3.10543C11.2282 3.10543 11.6564 2.96324 11.8673 2.90074C12.1485 2.81793 12.2314 2.70231 12.2376 2.55543C12.2439 2.40856 12.0907 2.13356 11.6173 2.24293C11.3251 2.31168 10.7939 2.41637 10.6798 2.53824ZM9.29855 1.37262C9.23136 1.42731 8.90948 2.21012 8.85792 2.30856C8.8048 2.40699 8.77198 2.65856 8.95636 2.76481C9.14073 2.87106 9.3423 2.68824 9.41261 2.53199C9.48136 2.37574 9.68292 1.91168 9.68292 1.91168C9.68292 1.91168 10.1751 1.88512 10.3517 1.86012C10.5673 1.83043 10.7314 1.77106 10.7189 1.52262C10.7064 1.27418 10.3048 1.29293 9.89073 1.31949C9.6298 1.33512 9.34386 1.33512 9.29855 1.37262ZM8.33448 0.469494C8.22198 0.521056 7.78448 0.967931 7.72667 1.04449C7.66886 1.12106 7.62511 1.28668 7.77198 1.40231C7.91886 1.51793 8.12355 1.42106 8.23136 1.34449C8.34073 1.26793 8.54386 1.01793 8.54386 1.01793C8.54386 1.01793 8.96573 1.02418 9.08761 1.03043C9.20948 1.03668 9.36886 0.941369 9.36886 0.749181C9.36886 0.556994 9.14542 0.480431 8.95948 0.474181C8.77511 0.469494 8.4048 0.436681 8.33448 0.469494ZM12.447 4.00856C12.3439 4.08981 12.0907 4.99762 12.0376 5.18043C11.9845 5.36324 11.8985 5.75387 12.1689 5.83824C12.4532 5.92731 12.6439 5.80074 12.7282 5.47887C12.8064 5.18199 12.9845 4.56168 12.9845 4.56168C12.9845 4.56168 13.6673 4.31012 13.8173 4.25231C13.9673 4.19449 14.1407 4.00387 14.036 3.76949C13.9314 3.53512 13.6329 3.56481 13.486 3.61793C13.4876 3.61949 12.547 3.93043 12.447 4.00856ZM14.2095 5.52106C14.1376 5.61481 13.897 6.45387 13.8579 6.62731C13.8189 6.79918 13.8204 7.07418 14.0939 7.14449C14.3173 7.20231 14.497 7.08668 14.547 6.87574C14.6314 6.52574 14.8157 6.01949 14.8157 6.01949C14.8157 6.01949 15.3017 5.74449 15.486 5.64918C15.672 5.55387 15.7548 5.29137 15.6392 5.10543C15.5235 4.91949 15.2626 4.94606 15.0064 5.03512C14.7517 5.12574 14.2735 5.43824 14.2095 5.52106ZM15.9579 6.83981C15.8673 6.97574 15.8423 7.77887 15.8423 7.90074C15.8423 8.02262 15.9314 8.34137 16.2189 8.34137C16.4751 8.34137 16.5829 8.06637 16.5829 7.92574C16.5829 7.78512 16.6142 7.24137 16.6142 7.24137C16.6142 7.24137 16.9439 7.06637 17.061 6.98512C17.2204 6.87574 17.4001 6.67262 17.2845 6.45543C17.1689 6.23824 16.8626 6.30231 16.6642 6.38512C16.5251 6.44606 16.022 6.74449 15.9579 6.83981ZM17.5579 8.13824C17.5017 8.27418 17.4985 9.03199 17.511 9.23668C17.5235 9.44137 17.697 9.61949 17.9204 9.61324C18.1439 9.60699 18.247 9.39606 18.2392 9.23043C18.2314 9.06481 18.2517 8.52106 18.2517 8.52106C18.2517 8.52106 18.5485 8.31481 18.6282 8.25856C18.7501 8.17574 18.7751 7.97731 18.6673 7.82418C18.5579 7.67106 18.3345 7.62574 18.1235 7.74762C17.9126 7.86949 17.5798 8.08356 17.5579 8.13824ZM18.7439 8.98668C18.6423 9.16168 18.7376 9.95856 18.7376 10.0351C18.7376 10.1117 18.7626 10.3742 19.0251 10.3742C19.2548 10.3742 19.3314 10.2336 19.3376 10.1054C19.3439 9.97731 19.3251 9.25543 19.3251 9.25543C19.3251 9.25543 19.5485 9.18512 19.4532 8.89137C19.3579 8.59918 18.8501 8.80543 18.7439 8.98668ZM9.78761 18.9695C9.70011 19.1242 9.71886 19.3273 10.0485 19.4929C10.3798 19.6586 10.447 19.6679 10.5173 19.6726C10.6407 19.6789 10.9235 19.5836 11.1095 19.4804C11.2579 19.3976 11.4407 19.2742 11.3095 19.0336C11.1876 18.8086 10.5251 19.0742 10.5251 19.0742C10.5251 19.0742 9.93917 18.7023 9.78761 18.9695ZM9.74542 17.5586C9.56261 17.7273 9.68292 17.9789 10.0548 18.2195C10.386 18.4336 10.572 18.5914 10.7157 18.5914C10.8595 18.5914 11.4017 18.3179 11.5423 18.2398C11.7564 18.1226 11.8251 17.8882 11.6595 17.7226C11.4939 17.557 11.2595 17.7289 11.1423 17.7914C11.0251 17.8539 10.7564 17.9836 10.7564 17.9836C10.7564 17.9836 10.4048 17.7289 10.2876 17.6461C10.1704 17.5632 9.92511 17.3929 9.74542 17.5586ZM9.5673 15.8273C9.4173 16.0523 9.5048 16.2882 9.86261 16.4882C10.2204 16.6882 10.6689 16.8664 10.8126 16.8882C10.9564 16.9101 11.522 16.4195 11.6314 16.3164C11.7407 16.2132 12.0439 15.8898 11.8517 15.6695C11.622 15.407 11.3767 15.607 11.1564 15.7586C10.9876 15.8742 10.7907 16.0195 10.7907 16.0195C10.7907 16.0195 10.4126 15.9164 10.1923 15.8132C9.97355 15.7101 9.7048 15.6211 9.5673 15.8273ZM10.4595 13.9914C10.4595 13.9914 10.8517 13.5851 10.997 13.4476C11.1423 13.3101 11.3892 13.1726 11.5751 13.3929C11.761 13.6132 11.5689 13.9445 11.3954 14.1023C11.222 14.2601 10.7829 14.7773 10.6579 14.7976C10.5329 14.8179 9.61886 14.6523 9.35636 14.5148C9.20167 14.4336 8.95636 14.2804 9.09542 13.9711C9.20948 13.7148 9.4673 13.7445 9.65948 13.7851C9.85167 13.8257 10.4595 13.9914 10.4595 13.9914ZM9.52511 11.782C9.52511 11.782 9.85636 11.107 9.96573 10.8664C10.0767 10.6257 10.2142 10.4054 10.5235 10.5148C10.8329 10.6242 10.7392 10.9164 10.6345 11.1961C10.511 11.5273 10.1657 12.4007 10.0142 12.4773C9.82979 12.5695 8.85792 12.6007 8.52042 12.5945C8.36886 12.5914 8.19698 12.4836 8.20323 12.2773C8.20948 12.0711 8.33761 11.9273 8.67198 11.8711C8.87823 11.8367 9.52511 11.782 9.52511 11.782ZM7.99698 9.55074C7.96261 9.57106 7.25167 9.85699 7.07355 9.90856C6.81261 9.98356 6.72198 10.2461 6.77823 10.432C6.83448 10.6179 7.08761 10.7148 7.38448 10.6242C7.6798 10.5351 8.57511 10.307 8.65792 10.1773C8.74073 10.0476 8.87823 9.12418 8.90636 8.88356C8.93448 8.64293 8.94073 8.33981 8.62355 8.29137C8.30636 8.24293 8.17667 8.45699 8.14855 8.68356C8.13136 8.82262 7.99698 9.55074 7.99698 9.55074ZM6.08136 8.00543C6.08136 8.00543 6.13605 7.37887 6.15636 7.19293C6.17667 7.00699 6.24542 6.75856 6.56886 6.78043C6.8923 6.80231 6.85792 7.22106 6.85792 7.48981C6.85792 7.75856 6.79542 8.46012 6.7548 8.49449C6.71417 8.52887 6.2798 8.86637 6.05323 9.01793C5.82667 9.16949 5.46105 9.27106 5.32355 9.06481C5.18605 8.85856 5.38605 8.53668 5.60636 8.37106C5.82667 8.20543 6.08136 8.00543 6.08136 8.00543ZM4.10167 5.89762C3.78292 5.97731 3.79855 6.31012 3.89542 6.64762C3.9923 6.98512 4.04698 7.26012 4.04698 7.26012C4.04698 7.26012 3.82042 7.61168 3.72355 7.73512C3.62667 7.85856 3.32355 8.22418 3.64073 8.48512C3.95792 8.74606 4.2673 8.28512 4.38448 8.14762C4.49855 8.01481 4.87355 7.51481 4.87355 7.44606C4.87355 7.24606 4.6673 6.51012 4.61886 6.35074C4.57042 6.19137 4.45948 5.80856 4.10167 5.89762ZM1.81417 6.42418C1.67198 6.52106 1.60011 6.81637 1.7798 7.07106C1.92667 7.28043 2.03448 7.49762 2.03448 7.49762C2.03448 7.49762 1.8423 8.05543 1.76573 8.23512C1.68917 8.41481 1.60011 8.80699 1.9173 8.93043C2.23448 9.05387 2.4548 8.71012 2.53761 8.45543C2.62042 8.20074 2.84073 7.62887 2.84698 7.45699C2.85167 7.34293 2.55167 6.78199 2.42042 6.58981C2.28917 6.39762 2.02823 6.28043 1.81417 6.42418ZM1.29073 8.38668C1.32667 8.55074 1.23605 9.01324 1.14542 9.40543C1.11886 9.52106 1.0798 9.78043 0.753233 9.70074C0.47042 9.63199 0.587608 9.27418 0.621983 9.09449C0.642295 8.98824 0.725108 8.64762 0.725108 8.64762C0.725108 8.64762 0.575108 8.56637 0.579795 8.39293C0.586045 8.16637 0.703233 8.08981 0.88917 8.07574C1.07511 8.06168 1.26261 8.26324 1.29073 8.38668Z" fill="#ED520A"/>
</g>
<defs>
<clipPath id="clip0_7648_463623">
<rect width="20" height="20" fill="white"/>
</clipPath>
</defs>
</svg>
