<svg width="20" height="20" viewBox="0 0 20 20" fill="none" xmlns="http://www.w3.org/2000/svg">
<path d="M1.33325 10.0007C1.33325 5.21417 5.21344 1.33398 9.99992 1.33398C14.7864 1.33398 18.6666 5.21417 18.6666 10.0007C18.6666 14.7871 14.7864 18.6673 9.99992 18.6673C5.21344 18.6673 1.33325 14.7871 1.33325 10.0007ZM9.57339 2.58446C9.58049 2.68851 9.5579 2.79244 9.50826 2.88416C9.45861 2.97589 9.38396 3.05164 9.29297 3.1026L6.97587 4.3896C6.92854 4.41591 6.87797 4.43589 6.82544 4.44903L6.58587 4.50908L6.71959 5.44446L8.88316 5.87779C9.00385 5.90185 9.11462 5.96134 9.20135 6.04865L11.8571 4.72017V3.57308C11.857 3.42552 11.9097 3.28281 12.0057 3.17067C12.1016 3.05853 12.2344 2.98433 12.3802 2.96146C11.4774 2.65676 10.5245 2.52918 9.57339 2.58446ZM4.91197 4.5877C3.70617 5.7191 2.91306 7.221 2.65863 8.85479L4.61916 7.87484C4.63319 7.84141 4.65052 7.80922 4.67116 7.77827L6.05659 5.7026C6.13936 5.57837 6.26423 5.48823 6.4082 5.44879L6.2844 4.5846L5.52297 4.77465C5.41393 4.80265 5.29928 4.80007 5.19161 4.7672C5.08394 4.73433 4.9874 4.67244 4.91259 4.58832M2.6122 9.22498C2.58497 9.47921 2.57135 9.73673 2.57135 9.99756V10.0037C2.57135 10.8481 2.71311 11.6603 2.97311 12.4168L4.65073 14.2814C4.70583 14.2152 4.77415 14.1612 4.8513 14.1229L5.96435 13.5657C6.02206 13.5371 6.08388 13.5177 6.14759 13.5082L6.40016 10.4804C6.24086 10.4554 6.0976 10.3692 6.00087 10.2402L4.69159 8.49389C4.63546 8.41927 4.59695 8.33293 4.57892 8.24132L2.6122 9.22498ZM4.52135 14.6002L3.33154 13.2779C3.68597 13.9985 4.1549 14.6568 4.72006 15.2273C4.65155 15.0865 4.593 14.9411 4.54487 14.7921C4.5245 14.7303 4.5165 14.6651 4.52135 14.6002ZM9.99992 17.4292C11.5884 17.4292 13.0605 16.9303 14.2683 16.0809L14.4205 14.8657C14.3493 14.8751 14.2771 14.8719 14.207 14.8565L12.3418 14.4417C12.2126 14.4129 12.0961 14.3435 12.0093 14.2436L9.01935 15.6241L9.01625 15.6488L8.85468 16.7817C8.84168 16.8708 8.81011 16.955 8.7643 17.0293C9.03606 17.1816 9.32082 17.3104 9.6062 17.4193C9.73621 17.4255 9.86744 17.4288 9.99992 17.4292ZM14.7511 14.7166L14.6124 15.8247C15.9374 14.7759 16.8652 13.3068 17.2428 11.6597L16.3371 12.1122C16.3245 12.1446 16.3092 12.1759 16.2913 12.2057L14.8724 14.5705C14.8398 14.6251 14.7988 14.6744 14.7511 14.7166ZM16.3643 11.7526L17.3195 11.2753C17.3922 10.8605 17.4285 10.4356 17.4285 10.0007C17.4285 8.37441 16.906 6.87013 16.0195 5.64689C16.0039 5.78647 15.9412 5.91657 15.8419 6.01584L15.294 6.5637C15.2337 6.62403 15.1615 6.67124 15.082 6.70235C15.0025 6.73345 14.9175 6.74779 14.8322 6.74446L15.0718 9.92946C15.1352 9.97142 15.1904 10.0247 15.2346 10.0867L16.2641 11.5278C16.3136 11.5959 16.347 11.6733 16.3643 11.7526ZM6.7134 10.4488L6.45587 13.5391C6.50121 13.5559 6.54442 13.5779 6.58463 13.6047L8.74697 15.0459C8.8434 15.1104 8.91976 15.2007 8.96735 15.3065L11.8707 13.9669C11.8616 13.9242 11.857 13.8806 11.8571 13.8369V11.3483C11.857 11.259 11.8762 11.1707 11.9134 11.0896L9.1252 9.46332C9.08388 9.49351 9.03896 9.51847 8.99149 9.5376L6.72578 10.4433L6.7134 10.4488ZM9.32454 9.22127L12.1121 10.8475C12.1536 10.8173 12.1988 10.7923 12.2464 10.7732L14.501 9.87189C14.5814 9.83969 14.6677 9.82472 14.7542 9.82794L14.5146 6.64294L12.1573 5.22841C12.0719 5.17713 12.0001 5.10599 11.9481 5.02103L9.35797 6.31608C9.37324 6.36973 9.38087 6.42586 9.38087 6.48446V8.96251C9.38098 9.05182 9.36176 9.14009 9.32454 9.22127Z" fill="#51555E"/>
</svg>
