<svg width="50" height="50" viewBox="0 0 50 50" fill="none" xmlns="http://www.w3.org/2000/svg">
<path d="M25.0003 45.8307C36.5107 45.8307 45.8337 36.5078 45.8337 24.9974C45.8337 13.487 36.5107 4.16406 25.0003 4.16406C13.4899 4.16406 4.16699 13.487 4.16699 24.9974C4.16699 36.5078 13.4899 45.8307 25.0003 45.8307Z" stroke="#51555E" stroke-width="4.16667" stroke-miterlimit="2" stroke-linejoin="round"/>
<path d="M10.417 39.5807C14.2712 35.7995 16.667 30.8203 16.667 24.9974C16.667 19.2474 14.1878 14.1849 10.417 10.4141" stroke="#51555E" stroke-width="4.16667" stroke-miterlimit="2" stroke-linecap="round" stroke-linejoin="round"/>
<path d="M39.583 39.5807C35.7288 35.7995 33.333 30.8203 33.333 24.9974C33.333 19.2474 35.8122 14.1849 39.583 10.4141" stroke="#51555E" stroke-width="4.16667" stroke-miterlimit="2" stroke-linecap="round" stroke-linejoin="round"/>
<path d="M29.167 25H37.5003" stroke="#51555E" stroke-width="4.16667" stroke-miterlimit="2" stroke-linecap="round" stroke-linejoin="round"/>
<path d="M12.5 25H20.8333" stroke="#51555E" stroke-width="4.16667" stroke-miterlimit="2" stroke-linecap="round" stroke-linejoin="round"/>
<path d="M31.25 35.4141L37.5 32.2891" stroke="#51555E" stroke-width="4.16667" stroke-miterlimit="2" stroke-linecap="round" stroke-linejoin="round"/>
<path d="M37.5 17.7109L31.25 14.5859" stroke="#51555E" stroke-width="4.16667" stroke-miterlimit="2" stroke-linecap="round" stroke-linejoin="round"/>
<path d="M18.75 35.4141L12.5 32.2891" stroke="#51555E" stroke-width="4.16667" stroke-miterlimit="2" stroke-linecap="round" stroke-linejoin="round"/>
<path d="M12.5 17.7109L18.75 14.5859" stroke="#51555E" stroke-width="4.16667" stroke-miterlimit="2" stroke-linecap="round" stroke-linejoin="round"/>
</svg>
