<svg width="50" height="50" viewBox="0 0 50 50" fill="none" xmlns="http://www.w3.org/2000/svg">
<path d="M13.5417 27.0807H15.625C18.5 27.0807 20.8333 24.7474 20.8333 21.8724C20.8333 18.9974 18.5 16.6641 15.625 16.6641H11.4583C8.58333 16.6641 6.25 18.9974 6.25 21.8724V31.2474C6.25 34.6992 9.04822 37.4974 12.5 37.4974H37.5C40.9518 37.4974 43.75 34.6992 43.75 31.2474V27.0807C43.75 24.7796 41.8845 22.9141 39.5833 22.9141H25" stroke="#51555E" stroke-width="4.16667" stroke-miterlimit="2" stroke-linecap="round" stroke-linejoin="round"/>
<path d="M35.4167 45.8333H14.5833C13.4271 45.8333 12.5 44.8958 12.5 43.75V37.5H37.5V43.75C37.5 44.8958 36.5625 45.8333 35.4167 45.8333Z" stroke="#51555E" stroke-width="4.16667" stroke-miterlimit="2" stroke-linecap="round" stroke-linejoin="round"/>
<path d="M6.25033 20.8307C5.20866 20.8307 4.16699 18.7474 4.16699 16.6641V12.4974C4.16699 7.89323 7.89616 4.16406 12.5003 4.16406H37.5003C42.1045 4.16406 45.8337 7.89323 45.8337 12.4974V16.6641C45.8337 20.112 43.0316 22.9141 39.5837 22.9141H20.7295" stroke="#51555E" stroke-width="4.16667" stroke-miterlimit="2" stroke-linecap="round" stroke-linejoin="round"/>
</svg>
