<svg width="20" height="20" viewBox="0 0 20 20" fill="none" xmlns="http://www.w3.org/2000/svg">
<path d="M17.3334 2.5C18.3417 2.5 19.1664 3.34375 19.1664 4.375V8.125C18.1582 8.12518 17.3334 8.96886 17.3334 10C17.3334 11.0311 18.1582 11.8748 19.1664 11.875V15.625C19.1664 16.6562 18.3417 17.5 17.3334 17.5H2.66638C1.6582 17.4998 0.833374 16.6561 0.833374 15.625V11.875C1.07398 11.875 1.31223 11.8265 1.53455 11.7324C1.7568 11.6383 1.95912 11.5001 2.12927 11.3262C2.29942 11.1522 2.4346 10.9451 2.52673 10.7178C2.61887 10.4903 2.66638 10.2462 2.66638 10C2.66638 8.96875 1.8505 8.125 0.842163 8.125V4.375C0.842163 3.34386 1.6582 2.50018 2.66638 2.5H17.3334ZM12.5394 5.82031C12.3823 5.71333 12.172 5.74836 12.0697 5.89844L6.88416 13.5088C6.78187 13.6589 6.82663 13.8675 6.98376 13.9746L7.83728 14.5557C7.99437 14.6627 8.2047 14.6285 8.30701 14.4785L13.4926 6.86816C13.5948 6.71809 13.55 6.50943 13.3929 6.40234L12.5394 5.82031ZM12.4603 10.626C12.3393 10.6146 12.2238 10.6677 12.1576 10.7646L11.4457 11.8096C11.3795 11.9067 11.3722 12.034 11.4271 12.1426L12.0189 13.3105C12.0739 13.419 12.1821 13.4925 12.3031 13.5039L13.6068 13.627C13.7278 13.6383 13.8434 13.5862 13.9095 13.4893L14.6215 12.4434C14.6875 12.3463 14.6939 12.2198 14.639 12.1113L14.0482 10.9434C13.9933 10.8349 13.885 10.7606 13.764 10.749L12.4603 10.626ZM6.7699 6.74902C6.64881 6.73762 6.53332 6.79061 6.46716 6.8877L5.75525 7.93262C5.68908 8.02972 5.68175 8.15709 5.73669 8.26562L6.32849 9.43359C6.38342 9.54195 6.49173 9.61545 6.61267 9.62695L7.91638 9.75C8.03749 9.76143 8.15295 9.70843 8.21912 9.61133L8.93103 8.56641C8.99712 8.46936 9.00443 8.34285 8.94958 8.23438L8.35779 7.06641C8.30286 6.95792 8.19466 6.88354 8.07361 6.87207L6.7699 6.74902Z" fill="#495266"/>
</svg>
