<svg width="20" height="20" viewBox="0 0 20 20" fill="none" xmlns="http://www.w3.org/2000/svg">
<g clip-path="url(#clip0_10705_181872)">
<path d="M16.3141 8.78985L11.1782 3.66954C11.1141 3.60548 11.1141 3.50235 11.1782 3.43829C11.2422 3.37423 11.3454 3.37423 11.4094 3.43829L16.5829 8.57423C16.5829 8.57423 16.5282 8.6211 16.4376 8.69454C16.3782 8.73985 16.3141 8.78985 16.3141 8.78985ZM17.361 7.76016L12.1266 2.58673C12.0626 2.52266 12.0626 2.41954 12.1251 2.35548C12.1891 2.29141 12.2922 2.29141 12.3563 2.35391L17.5626 7.49298C17.5626 7.49298 17.5344 7.54454 17.4657 7.63048C17.436 7.66798 17.361 7.76016 17.361 7.76016ZM14.9844 9.56485L10.4266 4.8586C10.3641 4.79454 10.3657 4.68985 10.4297 4.62735C10.4938 4.56485 10.5969 4.56641 10.661 4.63048L15.3063 9.41954C15.3063 9.41954 15.2282 9.45704 15.1485 9.4961C15.0735 9.53204 14.9844 9.56485 14.9844 9.56485ZM13.2797 9.92735L10.0454 6.50548C9.98287 6.43985 9.98443 6.33673 10.0501 6.27423C10.1157 6.21173 10.2188 6.21329 10.2813 6.27891C10.2813 6.27891 13.6672 9.81954 13.6579 9.83204C13.6516 9.83985 13.6157 9.91016 13.4829 9.91329C13.4204 9.91485 13.2797 9.92735 13.2797 9.92735ZM18.1532 6.51485L13.4829 1.9461C13.4188 1.8836 13.4172 1.77891 13.4797 1.71485C13.5438 1.65079 13.6469 1.64923 13.711 1.71173L18.2922 6.1961C18.2922 6.1961 18.2641 6.26329 18.2329 6.33516C18.2032 6.40704 18.1532 6.51485 18.1532 6.51485ZM18.6282 5.00079L15.1501 1.4836C15.086 1.41954 15.0876 1.31641 15.1516 1.25235C15.2157 1.18829 15.3188 1.18985 15.3829 1.25391L18.6782 4.55391C18.6782 4.55391 18.6579 4.81798 18.6282 5.00079Z" fill="#B9CED4"/>
<path d="M10.1531 5.91211C10.1125 5.91211 10.0703 5.89648 10.039 5.86523C9.97497 5.80273 9.97341 5.69961 10.0359 5.63398L14.3531 1.36367C14.4156 1.29961 14.5187 1.29805 14.5843 1.36055C14.6484 1.42305 14.65 1.52617 14.5875 1.5918L10.2703 5.86211C10.239 5.89648 10.1968 5.91211 10.1531 5.91211ZM10.2 7.67148C10.1578 7.67148 10.1172 7.65586 10.0843 7.62305C10.0203 7.55898 10.0203 7.45586 10.0843 7.3918L16.1953 1.29023C16.2593 1.22617 16.3625 1.22617 16.4265 1.29023C16.4906 1.3543 16.4906 1.45742 16.4265 1.52148L10.314 7.62305C10.2828 7.6543 10.2406 7.67148 10.2 7.67148ZM10.8593 8.98711C10.8271 8.9871 10.7956 8.97754 10.7688 8.95966C10.742 8.94177 10.7212 8.91635 10.7088 8.8866C10.6964 8.85686 10.6931 8.82411 10.6994 8.7925C10.7056 8.76089 10.721 8.73183 10.7437 8.70898L17.4109 1.93086C17.4734 1.8668 17.5765 1.86523 17.6422 1.9293C17.7062 1.99336 17.7078 2.09648 17.6437 2.16055L10.9765 8.93867C10.9437 8.97148 10.9015 8.98711 10.8593 8.98711ZM11.7547 9.56524L18.3765 2.91992C18.3765 2.91992 18.4015 2.92305 18.45 3.01211C18.4937 3.0918 18.5265 3.23711 18.5265 3.23711L12.0672 9.71367C12.0672 9.71367 11.9922 9.69023 11.9078 9.64805C11.814 9.60117 11.7547 9.56524 11.7547 9.56524ZM13.275 9.92773L18.6843 4.29648C18.689 4.44648 18.6578 4.81055 18.6578 4.81055L13.8 9.89023C13.8 9.89023 13.5734 9.92773 13.275 9.92773Z" fill="#B9CED4"/>
<path d="M17.8563 1.36434C14.55 -0.629409 10.825 2.63622 9.84224 5.16747C8.85942 7.69715 10.4375 9.37997 10.4375 9.37997C10.4375 9.37997 5.51255 14.5284 5.17036 14.6612L5.29692 15.2409L10.7 9.8909C10.7 9.8909 11.6079 10.7597 13.1407 10.7097C15.8641 10.6206 17.1438 9.17997 17.7391 8.52215C18.3516 7.84559 19.1532 6.72059 19.3313 4.97997C19.4641 3.67997 19.2485 2.2034 17.8563 1.36434ZM16.7266 8.70965C14.7766 10.4362 12.7829 10.1831 12.0688 9.81122C11.3547 9.43934 11.1907 9.18622 10.9235 8.88778C10.7625 8.70809 9.9563 7.79403 10.2391 5.9784C10.4391 4.69715 11.111 3.83153 11.9954 2.95028C12.9954 1.9534 15.836 0.409653 17.8313 2.25184C19.5438 3.83622 18.675 6.98309 16.7266 8.70965Z" fill="#55ACEE"/>
<path d="M17.5141 7.56278C15.886 9.77528 12.8563 10.7175 11.1891 9.15497L10.9219 8.88778C10.9219 8.88778 10.8172 8.97684 10.5641 8.9034C10.311 8.8284 9.82036 8.13622 9.76099 7.23622C9.63286 5.2909 10.2797 4.03465 11.6657 2.75653C13.7641 0.820591 16.6407 0.547153 18.0657 2.22059C18.661 2.91903 19.3 5.13778 17.5141 7.56278ZM19.1672 3.25497C19.1172 2.78934 18.8344 2.1659 18.3938 1.74403C16.1313 -0.421596 12.9141 1.02215 11.4125 2.40653C9.77505 3.91747 9.4188 5.21122 9.31724 6.59247C9.19067 8.32528 10.0844 9.2409 10.0844 9.2409L4.86255 14.4597L4.95161 15.1815L10.6813 9.48153C10.6813 9.48153 11.4516 10.3018 13.1516 10.3737C14.536 10.4331 15.9344 9.73934 16.9313 8.85497C18.1688 7.76434 19.4344 5.79247 19.1672 3.25497Z" fill="#55ACEE"/>
<path d="M9.15936 9.76652C9.14374 9.86809 10.0578 10.7556 10.1859 10.7556C10.314 10.7556 10.875 10.1665 10.875 10.1025C10.875 10.0384 9.97967 9.06184 9.83905 9.07434C9.69842 9.08528 9.18592 9.59934 9.15936 9.76652ZM4.36405 14.4743C4.36405 14.4743 4.3328 14.3118 4.49842 14.1509C4.6953 13.9587 4.89217 14.0525 5.36717 14.5634C5.85155 15.0837 5.9953 15.2478 5.81249 15.4775C5.63436 15.7009 5.42655 15.6478 5.42655 15.6478L2.22655 18.8196C2.22655 18.8196 2.27186 19.1197 2.05936 19.265C1.90311 19.3728 1.6578 19.3322 1.6578 19.3322L0.621861 18.2634C0.621861 18.2634 0.554673 18.0181 0.721861 17.84C0.889048 17.6618 1.13436 17.729 1.13436 17.729L4.36405 14.4743Z" fill="#292F33"/>
<path d="M4.82348 14.7742C4.72661 14.7195 4.53755 14.7663 4.42661 14.9085C4.31567 15.0507 4.37036 15.2507 4.25942 15.3367C4.14848 15.4242 3.90942 15.4085 3.67192 15.646C3.43442 15.8835 3.46567 16.2492 3.29067 16.4085C3.11567 16.5679 2.78598 16.5788 2.60786 16.7585C2.34536 17.021 2.32192 17.3945 2.17973 17.5132C2.03755 17.632 1.75942 17.5851 1.61567 17.7195C1.47192 17.8538 1.37817 18.2273 1.65473 18.3226C1.9313 18.4179 1.92505 18.132 2.11567 18.0757C2.3063 18.0195 2.48911 17.9804 2.64848 17.7585C2.80786 17.5367 2.79067 17.321 2.96567 17.1554C3.14067 16.9882 3.42661 16.996 3.63286 16.8132C3.83911 16.6304 3.81567 16.2335 4.05317 16.0273C4.29067 15.821 4.41098 15.9398 4.5938 15.7179C4.77661 15.496 4.72817 15.2804 4.87973 15.2101C5.02973 15.1398 5.02192 14.8851 4.82348 14.7742Z" fill="#858485"/>
<path d="M9.46169 2.05589C9.34831 1.78395 9.13156 1.56818 8.85912 1.45602C8.58668 1.34386 8.28084 1.3445 8.00887 1.4578L7.49614 1.67148L7.70982 2.18421L8.13719 3.20966L8.35045 3.72342L8.8636 3.50871C9.13553 3.39533 9.35131 3.17858 9.46346 2.90614C9.57562 2.6337 9.57498 2.32786 9.46169 2.05589Z" fill="#BE1931"/>
<path d="M7.49481 1.67339L8.34912 3.72533L7.83639 3.93901L6.98157 1.88686L7.49481 1.67339Z" fill="#99AAB5"/>
<path d="M6.98236 1.88433L7.83667 3.93627C7.27445 4.58978 3.30275 7.55198 3.22245 7.36031C2.99284 6.81039 3.52356 6.33556 3.52356 6.33556C3.52356 6.33556 2.931 6.59868 2.71178 6.07166C2.49257 5.54464 3.09619 5.31011 3.09619 5.31011C3.09619 5.31011 2.51059 5.65119 2.26121 5.05588C2.01157 4.45686 2.6681 4.28495 2.6681 4.28495C2.6681 4.28495 2.00996 4.45199 1.81874 3.99417C1.62845 3.53553 2.24116 3.25847 2.24116 3.25847C2.24116 3.25847 1.64006 3.26214 1.41139 2.7114C1.30095 2.44845 6.15175 1.89385 6.98236 1.88433Z" fill="#D9E1E6"/>
<path d="M5.97204 3.48612C6.19451 3.9173 2.98227 5.44678 2.73184 4.8431C2.48142 4.23943 5.70516 2.96791 5.97204 3.48612ZM1.8898 2.8073C1.97099 3.24025 5.43753 2.46292 5.3385 2.15012C5.33189 2.12919 5.31175 2.11267 5.28636 2.09752C4.28952 2.20593 3.07177 2.36441 2.26513 2.51294C2.02439 2.61124 1.87233 2.71315 1.8898 2.8073ZM6.45699 4.84731C6.30651 4.55564 3.31602 6.48251 3.56441 6.84504C3.62976 6.93951 3.87048 6.87116 4.18582 6.71544C4.92501 6.19454 5.64984 5.65343 6.35948 5.09271C6.44167 4.98554 6.48299 4.89797 6.45699 4.84731ZM5.64353 2.7563C5.77025 3.05875 2.38572 4.14187 2.2655 3.71694C2.14707 3.29335 5.49074 2.39199 5.64353 2.7563ZM6.24344 4.20242C6.11864 3.89958 2.97064 5.55186 3.1863 5.93558C3.40245 6.31951 6.3937 4.56862 6.24344 4.20242Z" fill="#B6C5CF"/>
</g>
<defs>
<clipPath id="clip0_10705_181872">
<rect width="20" height="20" fill="white"/>
</clipPath>
</defs>
</svg>
