<svg width="20" height="20" viewBox="0 0 20 20" fill="none" xmlns="http://www.w3.org/2000/svg">
<path d="M12.6859 5.94043C12.8908 6.21614 13.1761 6.42179 13.5023 6.5293L17.8265 7.9541L15.1625 11.6572C14.9595 11.9394 14.85 12.2784 14.849 12.626L14.8353 17.1904L10.5121 15.7949C10.1793 15.6875 9.8205 15.6875 9.48767 15.7949L5.16443 17.1904L5.15076 12.626C5.14971 12.2784 5.04021 11.9394 4.83728 11.6572L2.17322 7.9541L6.48962 6.53223C6.82586 6.42135 7.11781 6.20606 7.32361 5.91797L9.94275 2.24902L12.6859 5.94043Z" stroke="#FFC31D" stroke-width="1.66667"/>
<path d="M9.33609 6.29118C9.66955 5.85161 10.3304 5.85161 10.6639 6.29118L11.7559 7.73058C11.86 7.86785 12.0041 7.96947 12.1684 8.02145L13.8804 8.56314C14.4277 8.73628 14.6401 9.39785 14.296 9.85723L13.2655 11.2331C13.158 11.3766 13.0997 11.5509 13.0991 11.7301L13.0937 13.4557C13.092 14.016 12.5488 14.4149 12.0137 14.249L10.2467 13.7014C10.086 13.6516 9.91399 13.6516 9.75329 13.7014L7.98633 14.249C7.45115 14.4149 6.90805 14.016 6.90629 13.4557L6.90087 11.7301C6.9003 11.5509 6.84197 11.3766 6.73452 11.2331L5.70396 9.85723C5.35988 9.39785 5.57235 8.73628 6.11956 8.56314L7.83162 8.02145C7.99589 7.96947 8.14001 7.86785 8.24414 7.73058L9.33609 6.29118Z" fill="#FFC31D"/>
</svg>
