<svg width="14" height="14" viewBox="0 0 14 14" fill="none" xmlns="http://www.w3.org/2000/svg">
<g clip-path="url(#clip0_8183_165969)">
<path d="M1.94846 9.91914C3.55846 12.7092 7.12613 13.6641 9.91679 12.0541C11.0108 11.4245 11.87 10.4558 12.3645 9.29439C12.7208 8.46154 12.8781 7.5571 12.8238 6.65285C12.7695 5.7486 12.5052 4.86946 12.0518 4.08522C11.5993 3.30061 10.9701 2.63228 10.2142 2.13328C9.45832 1.63428 8.59652 1.31835 7.69721 1.21055C6.44426 1.05803 5.17572 1.31767 4.08346 1.95022C1.29338 3.56139 0.337294 7.12905 1.94846 9.91914Z" stroke="currentColor" stroke-width="1.05"/>
<path d="M9.88755 12.0018C9.88755 12.0018 9.33922 8.15708 8.16672 6.12592C6.99422 4.09475 4.11255 2 4.11255 2" stroke="currentColor" stroke-width="1.05" stroke-linecap="round"/>
<path d="M12.754 7.33751C9.59754 6.64509 5.28437 9.53551 4.41987 12.143M9.57479 1.87109C8.70679 4.44943 4.47646 7.29784 1.33521 6.67951" stroke="currentColor" stroke-width="1.05" stroke-linecap="round"/>
</g>
<defs>
<clipPath id="clip0_8183_165969">
<rect width="14" height="14" fill="white"/>
</clipPath>
</defs>
</svg>
