<svg width="60" height="60" viewBox="0 0 60 60" fill="none" xmlns="http://www.w3.org/2000/svg">
<path d="M38.4 33.4008C47.0157 33.4008 54 31.2517 54 28.6008C54 25.9498 47.0157 23.8008 38.4 23.8008C29.7844 23.8008 22.8 25.9498 22.8 28.6008C22.8 31.2517 29.7844 33.4008 38.4 33.4008Z" stroke="#E2E5EA" stroke-width="3.6"/>
<path d="M54.0001 39.3984C54.0001 42.0504 47.016 44.1984 38.4 44.1984C29.784 44.1984 22.8 42.0504 22.8 39.3984" stroke="#E2E5EA" stroke-width="3.6"/>
<path d="M54.0001 28.6016V49.7216C54.0001 52.6376 47.016 55.0016 38.4 55.0016C29.784 55.0016 22.8 52.6376 22.8 49.7216V28.6016" stroke="#E2E5EA" stroke-width="3.6"/>
<path d="M21.6 16.6C30.2156 16.6 37.2 14.451 37.2 11.8C37.2 9.14903 30.2156 7 21.6 7C12.9844 7 6 9.14903 6 11.8C6 14.451 12.9844 16.6 21.6 16.6Z" stroke="#E2E5EA" stroke-width="3.6"/>
<path d="M15.6 28.6008C11.0592 28.0488 6.888 26.6208 6 23.8008M15.6 40.6008C11.0592 40.0488 6.888 38.6208 6 35.8008" stroke="#E2E5EA" stroke-width="3.6" stroke-linecap="round"/>
<path d="M15.6 52.6008C11.0592 52.0488 6.888 50.6184 6 47.8008V11.8008M37.2 16.6008V11.8008" stroke="#E2E5EA" stroke-width="3.6" stroke-linecap="round"/>
</svg>
