<svg width="14" height="14" viewBox="0 0 14 14" fill="none" xmlns="http://www.w3.org/2000/svg">
<path d="M14 7C14 10.866 10.866 14 7 14C3.13401 14 0 10.866 0 7C0 3.13401 3.13401 0 7 0C10.866 0 14 3.13401 14 7ZM1.4 7C1.4 10.0928 3.90721 12.6 7 12.6C10.0928 12.6 12.6 10.0928 12.6 7C12.6 3.90721 10.0928 1.4 7 1.4C3.90721 1.4 1.4 3.90721 1.4 7Z" fill="#1A7F1E"/>
<line x1="3.605" y1="7.735" x2="5.985" y2="9.52" stroke="#1A7F1E" stroke-width="1.4" stroke-linecap="round"/>
<line x1="6.04907" y1="9.51297" x2="10.388" y2="4.45093" stroke="#1A7F1E" stroke-width="1.4" stroke-linecap="round"/>
</svg>
