<svg width="20" height="20" viewBox="0 0 20 20" fill="none" xmlns="http://www.w3.org/2000/svg">
<g clip-path="url(#clip0_480_87351)">
<path d="M4.00049 8.87988C4.06929 8.8802 4.12549 8.93607 4.12549 9.00488V14.0029C4.12533 14.072 4.06859 14.1281 3.99951 14.1279L3.09326 14.125H3.09033C1.98049 14.125 0.894112 13.0626 0.894043 11.5029C0.894043 9.89262 1.90164 8.87587 2.96729 8.875L4.00049 8.87988ZM17.0474 8.87891C18.1161 8.87891 19.1254 9.89319 19.1255 11.501C19.1255 13.0609 18.0402 14.1229 16.9292 14.123H16.9263L16.0005 14.126C15.9314 14.1261 15.8755 14.0701 15.8755 14.001V9.00684C15.8755 8.93806 15.9308 8.88223 15.9995 8.88184L17.0474 8.87891Z" stroke="#51555E" stroke-width="1.75"/>
<path d="M3.00799 9.22913C2.96017 8.28521 3.104 7.34138 3.43081 6.45455C3.75762 5.56772 4.26063 4.75625 4.90952 4.06907C5.55841 3.3819 6.33973 2.83324 7.20639 2.45618C8.07305 2.07913 9.0071 1.88148 9.95221 1.87516C10.8973 1.86884 11.8339 2.05397 12.7055 2.4194C13.5772 2.78483 14.3658 3.32299 15.0238 4.00143C15.6818 4.67986 16.1956 5.48453 16.5343 6.36691C16.8729 7.24929 17.0294 8.19111 16.9942 9.13558" stroke="#51555E" stroke-width="2"/>
<path d="M6.875 12C8.70198 13.4616 11.298 13.4616 13.125 12" stroke="#51555E" stroke-width="1.4" stroke-linecap="round"/>
<path d="M8 18C8 17.4477 8.44772 17 9 17H11C11.5523 17 12 17.4477 12 18C12 18.5523 11.5523 19 11 19H9C8.44772 19 8 18.5523 8 18Z" fill="#51555E"/>
<path d="M3.49976 14.5L3.70101 14.9696C4.48891 16.808 6.2966 18 8.29674 18H8.99976" stroke="#51555E" stroke-width="1.4" stroke-linecap="round"/>
</g>
<defs>
<clipPath id="clip0_480_87351">
<rect width="20" height="20" fill="white"/>
</clipPath>
</defs>
</svg>
