<svg width="16" height="16" viewBox="0 0 16 16" fill="none" xmlns="http://www.w3.org/2000/svg">
<path d="M10.6666 12.5175V13.8995C10.6666 13.926 10.656 13.9514 10.6373 13.9702C10.6185 13.9889 10.5931 13.9995 10.5666 13.9995H5.43325C5.40673 13.9995 5.38129 13.9889 5.36254 13.9702C5.34379 13.9514 5.33325 13.926 5.33325 13.8995V12.5175C5.33325 12.4609 5.34763 12.4053 5.37504 12.3559C5.40244 12.3064 5.44198 12.2648 5.48992 12.2348L7.71725 10.8428C7.80202 10.7898 7.89996 10.7617 7.99992 10.7617C8.09988 10.7617 8.19782 10.7898 8.28259 10.8428L10.5099 12.2348C10.5579 12.2648 10.5974 12.3064 10.6248 12.3559C10.6522 12.4053 10.6666 12.4609 10.6666 12.5175Z" fill="#FFC31D"/>
<path d="M7.99992 8L12.0833 10.78C12.2628 10.9022 12.4099 11.0664 12.5115 11.2583C12.6132 11.4503 12.6664 11.6641 12.6666 11.8813V13.6667C12.6666 13.7551 12.6315 13.8399 12.569 13.9024C12.5064 13.9649 12.4217 14 12.3333 14H3.66659C3.57818 14 3.4934 13.9649 3.43088 13.9024C3.36837 13.8399 3.33325 13.7551 3.33325 13.6667V11.882C3.33321 11.6646 3.38634 11.4504 3.48801 11.2582C3.58968 11.066 3.73682 10.9016 3.91659 10.7793L7.99992 8ZM7.99992 8L12.0833 5.22C12.2628 5.09782 12.4099 4.93362 12.5115 4.74168C12.6132 4.54974 12.6664 4.33587 12.6666 4.11867V2.33333C12.6666 2.24493 12.6315 2.16014 12.569 2.09763C12.5064 2.03512 12.4217 2 12.3333 2H3.66659C3.57818 2 3.4934 2.03512 3.43088 2.09763C3.36837 2.16014 3.33325 2.24493 3.33325 2.33333V4.118C3.33321 4.33543 3.38634 4.54957 3.48801 4.74176C3.58968 4.93395 3.73682 5.09836 3.91659 5.22067L7.99992 8Z" stroke="#A0A8B4" stroke-width="1.33333" stroke-linecap="round" stroke-linejoin="round"/>
</svg>
