<svg width="20" height="20" viewBox="0 0 20 20" fill="none" xmlns="http://www.w3.org/2000/svg">
<path d="M1.75 9.15332C1.75001 7.84746 2.73252 6.71874 4.06152 6.48731C5.72264 6.19802 7.799 5.76437 9.26855 5.2002C11.2315 4.44656 13.3348 3.01361 14.7383 1.96192C14.8315 1.89203 14.9566 1.87984 15.0771 1.9375C15.1952 1.99404 15.25 2.0869 15.25 2.18848L15.25 15.7295C15.25 15.8303 15.1951 15.9277 15.0674 15.9873C14.9366 16.0483 14.803 16.0329 14.708 15.96C13.3144 14.8891 11.2323 13.4609 9.23926 12.7891C7.83512 12.3158 5.89513 12.034 4.29004 11.8662C2.8555 11.7162 1.75 10.539 1.75 9.15332Z" stroke="#495266" stroke-width="1.5"/>
<path d="M2.5 11C3.85929 14.1717 3.9868 13.648 4.68975 16.8705C4.83302 17.5273 5.41081 18 6.08302 18C6.86559 18 7.5 17.3656 7.5 16.583V5.5" stroke="#495266" stroke-width="1.5"/>
<path d="M15.5 6.5C18.5389 6.78138 18.5389 11.2186 15.5 11.5" stroke="#495266" stroke-width="1.2"/>
</svg>
