<svg width="20" height="20" viewBox="0 0 20 20" fill="none" xmlns="http://www.w3.org/2000/svg">
<mask id="path-1-outside-1_7901_354946" maskUnits="userSpaceOnUse" x="0" y="3" width="20" height="14" fill="black">
<rect fill="white" y="3" width="20" height="14"/>
<path d="M9.8425 4.91419L9.8344 4.90896L9.1207 4.44476C8.6308 4.1259 8.0464 3.97122 7.457 4.00441C6.86759 4.0376 6.30568 4.25683 5.8573 4.62852L4.105 6.0821C3.98261 6.18338 3.82684 6.23899 3.6658 6.23887H1.675C1.49598 6.23887 1.32429 6.30769 1.1977 6.43019C1.07112 6.55268 1 6.71883 1 6.89207V12.1438C1 12.5043 1.3024 12.797 1.675 12.797H3.5542C3.65005 12.7969 3.74481 12.8166 3.83217 12.8548C3.91954 12.8929 3.99751 12.9486 4.0609 13.0182L6.166 15.3348C6.49371 15.6953 6.94674 15.9267 7.43913 15.9853C7.93152 16.0439 8.42901 15.9256 8.8372 15.6527L9.4528 15.2408L10.1134 15.4585C10.5216 15.5925 10.9634 15.5969 11.3743 15.4711C11.7853 15.3453 12.1441 15.0959 12.3985 14.7592L12.8215 14.2L13.1149 14.2383C13.5212 14.2913 13.9346 14.2237 14.3004 14.0444C14.6662 13.8651 14.9671 13.5825 15.1633 13.2342L15.2074 13.1558H18.325C18.504 13.1558 18.6757 13.087 18.8023 12.9645C18.9289 12.842 19 12.6758 19 12.5026V6.89294C19 6.7197 18.9289 6.55356 18.8023 6.43106C18.6757 6.30856 18.504 6.23974 18.325 6.23974H16.3351C16.1732 6.23979 16.0167 6.18353 15.8941 6.08123L14.374 4.81055C13.7399 4.28035 12.9247 3.99738 12.087 4.0167C11.2492 4.03602 10.4488 4.35624 9.8416 4.91506M8.3656 5.52906L8.8714 5.85827L7.1074 7.57487C6.91729 7.75989 6.76727 7.97978 6.66615 8.22165C6.56503 8.46352 6.51485 8.7225 6.51854 8.98339C6.52222 9.24427 6.57971 9.50182 6.68763 9.74093C6.79555 9.98003 6.95173 10.1959 7.147 10.3758L7.2082 10.4315C7.9372 11.103 9.064 11.1553 9.8551 10.5535L11.7262 9.13209L14.1175 11.3573C14.2243 11.4566 14.2945 11.5871 14.3171 11.7288C14.3397 11.8704 14.3135 12.0153 14.2426 12.1412L14.2201 12.1795L14.2075 12.2021L13.978 12.6088C13.9126 12.7248 13.8124 12.8189 13.6906 12.8786C13.5688 12.9383 13.4311 12.9608 13.2958 12.9433L12.6037 12.8536C12.4834 12.8379 12.361 12.8539 12.2494 12.8999C12.1377 12.9459 12.0409 13.0201 11.9692 13.1149L11.3086 13.9875C11.2239 14.0998 11.1043 14.1829 10.9674 14.2249C10.8305 14.2669 10.6833 14.2655 10.5472 14.2209L9.5662 13.8987C9.46641 13.8658 9.36006 13.856 9.25566 13.8701C9.15126 13.8842 9.05172 13.9217 8.965 13.9797L8.0704 14.578C7.93425 14.6691 7.76827 14.7086 7.604 14.689C7.43973 14.6694 7.28862 14.5921 7.1794 14.4718L5.0743 12.1551C4.88412 11.9461 4.6501 11.7787 4.38783 11.6642C4.12556 11.5496 3.84106 11.4904 3.5533 11.4906H2.35V7.54526H3.6649C4.14813 7.54537 4.61546 7.37825 4.9825 7.07409L6.7357 5.62051C6.95984 5.4346 7.24077 5.32491 7.53547 5.30823C7.83017 5.29156 8.1224 5.36882 8.3674 5.52819M15.6754 11.8503C15.6787 11.5827 15.6252 11.3173 15.5184 11.0704C15.4116 10.8236 15.2537 10.6005 15.0544 10.415L12.7855 8.30384C12.8873 8.17821 12.9381 8.02084 12.9282 7.86146C12.9183 7.70208 12.8484 7.55173 12.7317 7.43883C12.615 7.32593 12.4597 7.25829 12.295 7.24869C12.1303 7.2391 11.9676 7.28821 11.8378 7.38675L11.3824 7.73251L11.3284 7.77345L9.0226 9.52663C8.89495 9.62369 8.73542 9.67297 8.57326 9.66546C8.41111 9.65794 8.25718 9.59412 8.1397 9.48569L8.0785 9.42908C8.01339 9.36913 7.96131 9.2972 7.92531 9.21751C7.88931 9.13782 7.87012 9.05197 7.86886 8.96501C7.8676 8.87805 7.88431 8.79172 7.91799 8.71108C7.95167 8.63045 8.00165 8.55714 8.065 8.49545L10.7335 5.90008C11.0949 5.5485 11.5806 5.34258 12.0926 5.32383C12.6047 5.30508 13.1051 5.4749 13.4929 5.79905L15.0112 7.06886C15.3793 7.37648 15.8496 7.54558 16.336 7.54526H17.65V11.8503H15.6754Z"/>
</mask>
<path d="M9.8425 4.91419L9.8344 4.90896L9.1207 4.44476C8.6308 4.1259 8.0464 3.97122 7.457 4.00441C6.86759 4.0376 6.30568 4.25683 5.8573 4.62852L4.105 6.0821C3.98261 6.18338 3.82684 6.23899 3.6658 6.23887H1.675C1.49598 6.23887 1.32429 6.30769 1.1977 6.43019C1.07112 6.55268 1 6.71883 1 6.89207V12.1438C1 12.5043 1.3024 12.797 1.675 12.797H3.5542C3.65005 12.7969 3.74481 12.8166 3.83217 12.8548C3.91954 12.8929 3.99751 12.9486 4.0609 13.0182L6.166 15.3348C6.49371 15.6953 6.94674 15.9267 7.43913 15.9853C7.93152 16.0439 8.42901 15.9256 8.8372 15.6527L9.4528 15.2408L10.1134 15.4585C10.5216 15.5925 10.9634 15.5969 11.3743 15.4711C11.7853 15.3453 12.1441 15.0959 12.3985 14.7592L12.8215 14.2L13.1149 14.2383C13.5212 14.2913 13.9346 14.2237 14.3004 14.0444C14.6662 13.8651 14.9671 13.5825 15.1633 13.2342L15.2074 13.1558H18.325C18.504 13.1558 18.6757 13.087 18.8023 12.9645C18.9289 12.842 19 12.6758 19 12.5026V6.89294C19 6.7197 18.9289 6.55356 18.8023 6.43106C18.6757 6.30856 18.504 6.23974 18.325 6.23974H16.3351C16.1732 6.23979 16.0167 6.18353 15.8941 6.08123L14.374 4.81055C13.7399 4.28035 12.9247 3.99738 12.087 4.0167C11.2492 4.03602 10.4488 4.35624 9.8416 4.91506M8.3656 5.52906L8.8714 5.85827L7.1074 7.57487C6.91729 7.75989 6.76727 7.97978 6.66615 8.22165C6.56503 8.46352 6.51485 8.7225 6.51854 8.98339C6.52222 9.24427 6.57971 9.50182 6.68763 9.74093C6.79555 9.98003 6.95173 10.1959 7.147 10.3758L7.2082 10.4315C7.9372 11.103 9.064 11.1553 9.8551 10.5535L11.7262 9.13209L14.1175 11.3573C14.2243 11.4566 14.2945 11.5871 14.3171 11.7288C14.3397 11.8704 14.3135 12.0153 14.2426 12.1412L14.2201 12.1795L14.2075 12.2021L13.978 12.6088C13.9126 12.7248 13.8124 12.8189 13.6906 12.8786C13.5688 12.9383 13.4311 12.9608 13.2958 12.9433L12.6037 12.8536C12.4834 12.8379 12.361 12.8539 12.2494 12.8999C12.1377 12.9459 12.0409 13.0201 11.9692 13.1149L11.3086 13.9875C11.2239 14.0998 11.1043 14.1829 10.9674 14.2249C10.8305 14.2669 10.6833 14.2655 10.5472 14.2209L9.5662 13.8987C9.46641 13.8658 9.36006 13.856 9.25566 13.8701C9.15126 13.8842 9.05172 13.9217 8.965 13.9797L8.0704 14.578C7.93425 14.6691 7.76827 14.7086 7.604 14.689C7.43973 14.6694 7.28862 14.5921 7.1794 14.4718L5.0743 12.1551C4.88412 11.9461 4.6501 11.7787 4.38783 11.6642C4.12556 11.5496 3.84106 11.4904 3.5533 11.4906H2.35V7.54526H3.6649C4.14813 7.54537 4.61546 7.37825 4.9825 7.07409L6.7357 5.62051C6.95984 5.4346 7.24077 5.32491 7.53547 5.30823C7.83017 5.29156 8.1224 5.36882 8.3674 5.52819M15.6754 11.8503C15.6787 11.5827 15.6252 11.3173 15.5184 11.0704C15.4116 10.8236 15.2537 10.6005 15.0544 10.415L12.7855 8.30384C12.8873 8.17821 12.9381 8.02084 12.9282 7.86146C12.9183 7.70208 12.8484 7.55173 12.7317 7.43883C12.615 7.32593 12.4597 7.25829 12.295 7.24869C12.1303 7.2391 11.9676 7.28821 11.8378 7.38675L11.3824 7.73251L11.3284 7.77345L9.0226 9.52663C8.89495 9.62369 8.73542 9.67297 8.57326 9.66546C8.41111 9.65794 8.25718 9.59412 8.1397 9.48569L8.0785 9.42908C8.01339 9.36913 7.96131 9.2972 7.92531 9.21751C7.88931 9.13782 7.87012 9.05197 7.86886 8.96501C7.8676 8.87805 7.88431 8.79172 7.91799 8.71108C7.95167 8.63045 8.00165 8.55714 8.065 8.49545L10.7335 5.90008C11.0949 5.5485 11.5806 5.34258 12.0926 5.32383C12.6047 5.30508 13.1051 5.4749 13.4929 5.79905L15.0112 7.06886C15.3793 7.37648 15.8496 7.54558 16.336 7.54526H17.65V11.8503H15.6754Z" fill="#E80104"/>
<path d="M9.8344 4.90896L9.77988 4.99279L9.78019 4.99299L9.8344 4.90896ZM9.1207 4.44476L9.06615 4.52857L9.06618 4.52858L9.1207 4.44476ZM5.8573 4.62852L5.79348 4.55154L5.79345 4.55156L5.8573 4.62852ZM4.105 6.0821L4.16875 6.15914L4.16885 6.15907L4.105 6.0821ZM3.6658 6.23887L3.66587 6.13887H3.6658V6.23887ZM1.675 6.23887V6.33887V6.23887ZM3.5542 12.797V12.897H3.55426L3.5542 12.797ZM4.0609 13.0182L4.13491 12.9509L4.13482 12.9508L4.0609 13.0182ZM6.166 15.3348L6.09199 15.4021L6.09201 15.4021L6.166 15.3348ZM8.8372 15.6527L8.89277 15.7359L8.89281 15.7358L8.8372 15.6527ZM9.4528 15.2408L9.4841 15.1458L9.43775 15.1305L9.39719 15.1577L9.4528 15.2408ZM10.1134 15.4585L10.0821 15.5535L10.0822 15.5535L10.1134 15.4585ZM12.3985 14.7592L12.3188 14.6988L12.3187 14.6989L12.3985 14.7592ZM12.8215 14.2L12.8345 14.1009L12.7768 14.0933L12.7418 14.1397L12.8215 14.2ZM13.1149 14.2383L13.1019 14.3375L13.102 14.3375L13.1149 14.2383ZM15.1633 13.2342L15.2504 13.2832L15.2505 13.2832L15.1633 13.2342ZM15.2074 13.1558V13.0558H15.1489L15.1202 13.1068L15.2074 13.1558ZM16.3351 6.23974V6.13974H16.3351L16.3351 6.23974ZM15.8941 6.08123L15.83 6.15796L15.83 6.15801L15.8941 6.08123ZM14.374 4.81055L14.3099 4.88726L14.3099 4.88727L14.374 4.81055ZM8.8714 5.85827L8.94114 5.92994L9.03079 5.8427L8.92595 5.77446L8.8714 5.85827ZM7.1074 7.57487L7.03766 7.50321L7.03766 7.50321L7.1074 7.57487ZM7.147 10.3758L7.07924 10.4493L7.07966 10.4497L7.147 10.3758ZM7.2082 10.4315L7.27595 10.358L7.27554 10.3576L7.2082 10.4315ZM9.8551 10.5535L9.79461 10.4738L9.79455 10.4739L9.8551 10.5535ZM11.7262 9.13209L11.7943 9.05889L11.7327 9.00156L11.6657 9.05246L11.7262 9.13209ZM14.1175 11.3573L14.0494 11.4305L14.0494 11.4306L14.1175 11.3573ZM14.2426 12.1412L14.3288 12.1918L14.3297 12.1902L14.2426 12.1412ZM14.2201 12.1795L14.1338 12.1288L14.1327 12.1309L14.2201 12.1795ZM14.2075 12.2021L14.2946 12.2513L14.2949 12.2507L14.2075 12.2021ZM13.978 12.6088L13.8909 12.5597L13.8909 12.5597L13.978 12.6088ZM13.2958 12.9433L13.3087 12.8441L13.3087 12.8441L13.2958 12.9433ZM12.6037 12.8536L12.5908 12.9527L12.5908 12.9527L12.6037 12.8536ZM11.9692 13.1149L11.8895 13.0545L11.8895 13.0545L11.9692 13.1149ZM11.3086 13.9875L11.2289 13.9272L11.2288 13.9273L11.3086 13.9875ZM10.5472 14.2209L10.516 14.3159L10.5161 14.316L10.5472 14.2209ZM9.5662 13.8987L9.53492 13.9937L9.53499 13.9937L9.5662 13.8987ZM8.965 13.9797L8.90941 13.8966L8.90941 13.8966L8.965 13.9797ZM8.0704 14.578L8.01481 14.4949L8.0148 14.4949L8.0704 14.578ZM7.1794 14.4718L7.25345 14.4046L7.25341 14.4045L7.1794 14.4718ZM5.0743 12.1551L5.14831 12.0878L5.14826 12.0878L5.0743 12.1551ZM3.5533 11.4906V11.5906H3.55336L3.5533 11.4906ZM2.35 11.4906H2.25V11.5906H2.35V11.4906ZM2.35 7.54526V7.44526H2.25V7.54526H2.35ZM3.6649 7.54526L3.66492 7.44526H3.6649V7.54526ZM4.9825 7.07409L5.04631 7.15109L5.04633 7.15107L4.9825 7.07409ZM6.7357 5.62051L6.79953 5.69749L6.79954 5.69748L6.7357 5.62051ZM15.6754 11.8503L15.5754 11.849L15.5742 11.9503H15.6754V11.8503ZM15.0544 10.415L15.1225 10.3418L15.1225 10.3418L15.0544 10.415ZM12.7855 8.30384L12.7078 8.24087L12.649 8.31343L12.7174 8.37705L12.7855 8.30384ZM11.8378 7.38675L11.7773 7.3071L11.7773 7.30711L11.8378 7.38675ZM11.3824 7.73251L11.4428 7.8122L11.4429 7.81216L11.3824 7.73251ZM11.3284 7.77345L11.268 7.69375L11.2679 7.69384L11.3284 7.77345ZM9.0226 9.52663L8.96207 9.44702L8.96207 9.44702L9.0226 9.52663ZM8.1397 9.48569L8.07179 9.5591L8.07188 9.55918L8.1397 9.48569ZM8.0785 9.42908L8.1464 9.35567L8.14624 9.35552L8.0785 9.42908ZM8.065 8.49545L7.99528 8.42376L7.99523 8.4238L8.065 8.49545ZM10.7335 5.90008L10.8032 5.97176L10.8032 5.97175L10.7335 5.90008ZM13.4929 5.79905L13.5571 5.72234L13.557 5.72232L13.4929 5.79905ZM15.0112 7.06886L14.947 7.14557L14.9471 7.1456L15.0112 7.06886ZM16.336 7.54526V7.44526H16.3359L16.336 7.54526ZM17.65 7.54526H17.75V7.44526H17.65V7.54526ZM17.65 11.8503V11.9503H17.75V11.8503H17.65ZM9.8425 4.91419L9.89671 4.83016L9.88861 4.82493L9.8344 4.90896L9.78019 4.99299L9.78829 4.99822L9.8425 4.91419ZM9.8344 4.90896L9.88892 4.82513L9.17522 4.36093L9.1207 4.44476L9.06618 4.52858L9.77988 4.99279L9.8344 4.90896ZM9.1207 4.44476L9.17525 4.36094C8.66732 4.03035 8.0618 3.8702 7.45137 3.90457L7.457 4.00441L7.46262 4.10426C8.031 4.07225 8.59428 4.22145 9.06615 4.52857L9.1207 4.44476ZM7.457 4.00441L7.45137 3.90457C6.84094 3.93895 6.25855 4.166 5.79348 4.55154L5.8573 4.62852L5.92112 4.70551C6.3528 4.34766 6.89424 4.13626 7.46262 4.10426L7.457 4.00441ZM5.8573 4.62852L5.79345 4.55156L4.04115 6.00514L4.105 6.0821L4.16885 6.15907L5.92114 4.70549L5.8573 4.62852ZM4.105 6.0821L4.04125 6.00506C3.93707 6.09127 3.80396 6.13897 3.66587 6.13887L3.6658 6.23887L3.66573 6.33887C3.84972 6.339 4.02815 6.2755 4.16875 6.15914L4.105 6.0821ZM3.6658 6.23887V6.13887H1.675V6.23887V6.33887H3.6658V6.23887ZM1.675 6.23887L1.675 6.13887C1.4705 6.13887 1.27374 6.21745 1.12816 6.35832L1.1977 6.43019L1.26724 6.50205C1.37484 6.39792 1.52146 6.33887 1.675 6.33887V6.23887ZM1.1977 6.43019L1.12816 6.35832C0.982477 6.4993 0.9 6.69123 0.9 6.89207H1H1.1C1.1 6.74643 1.15975 6.60606 1.26724 6.50205L1.1977 6.43019ZM1 6.89207H0.9V12.1438H1H1.1V6.89207H1ZM1 12.1438H0.9C0.9 12.5626 1.25029 12.897 1.675 12.897V12.797V12.697C1.35451 12.697 1.1 12.446 1.1 12.1438H1ZM1.675 12.797V12.897H3.5542V12.797V12.697H1.675V12.797ZM3.5542 12.797L3.55426 12.897C3.63639 12.8969 3.7175 12.9138 3.79216 12.9464L3.83217 12.8548L3.87219 12.7631C3.77211 12.7194 3.6637 12.6969 3.55414 12.697L3.5542 12.797ZM3.83217 12.8548L3.79216 12.9464C3.86682 12.979 3.93319 13.0265 3.98698 13.0855L4.0609 13.0182L4.13482 12.9508C4.06184 12.8707 3.97227 12.8068 3.87219 12.7631L3.83217 12.8548ZM4.0609 13.0182L3.98689 13.0854L6.09199 15.4021L6.166 15.3348L6.24001 15.2676L4.13491 12.9509L4.0609 13.0182ZM6.166 15.3348L6.09201 15.4021C6.43623 15.7807 6.91149 16.0233 7.42732 16.0846L7.43913 15.9853L7.45095 15.886C6.98199 15.8302 6.55119 15.6098 6.23999 15.2676L6.166 15.3348ZM7.43913 15.9853L7.42732 16.0846C7.94312 16.146 8.46455 16.0221 8.89277 15.7359L8.8372 15.6527L8.78163 15.5696C8.39347 15.8291 7.91993 15.9419 7.45095 15.886L7.43913 15.9853ZM8.8372 15.6527L8.89281 15.7358L9.50841 15.3239L9.4528 15.2408L9.39719 15.1577L8.78159 15.5696L8.8372 15.6527ZM9.4528 15.2408L9.4215 15.3358L10.0821 15.5535L10.1134 15.4585L10.1447 15.3635L9.4841 15.1458L9.4528 15.2408ZM10.1134 15.4585L10.0822 15.5535C10.5101 15.6939 10.9729 15.6985 11.4036 15.5667L11.3743 15.4711L11.3451 15.3755C10.9538 15.4952 10.5332 15.491 10.1446 15.3635L10.1134 15.4585ZM11.3743 15.4711L11.4036 15.5667C11.8343 15.4349 12.211 15.1733 12.4783 14.8194L12.3985 14.7592L12.3187 14.6989C12.0773 15.0185 11.7363 15.2557 11.3451 15.3755L11.3743 15.4711ZM12.3985 14.7592L12.4782 14.8195L12.9012 14.2604L12.8215 14.2L12.7418 14.1397L12.3188 14.6988L12.3985 14.7592ZM12.8215 14.2L12.8085 14.2992L13.1019 14.3375L13.1149 14.2383L13.1279 14.1392L12.8345 14.1009L12.8215 14.2ZM13.1149 14.2383L13.102 14.3375C13.5277 14.393 13.9609 14.3222 14.3444 14.1342L14.3004 14.0444L14.2564 13.9546C13.9084 14.1252 13.5148 14.1896 13.1278 14.1392L13.1149 14.2383ZM14.3004 14.0444L14.3444 14.1342C14.728 13.9461 15.0441 13.6496 15.2504 13.2832L15.1633 13.2342L15.0762 13.1851C14.8901 13.5155 14.6044 13.784 14.2564 13.9546L14.3004 14.0444ZM15.1633 13.2342L15.2505 13.2832L15.2946 13.2048L15.2074 13.1558L15.1202 13.1068L15.0761 13.1851L15.1633 13.2342ZM15.2074 13.1558V13.2558H18.325V13.1558V13.0558H15.2074V13.1558ZM18.325 13.1558V13.2558C18.5295 13.2558 18.7263 13.1772 18.8718 13.0363L18.8023 12.9645L18.7328 12.8926C18.6252 12.9967 18.4785 13.0558 18.325 13.0558V13.1558ZM18.8023 12.9645L18.8718 13.0363C19.0175 12.8953 19.1 12.7034 19.1 12.5026H19H18.9C18.9 12.6482 18.8402 12.7886 18.7328 12.8926L18.8023 12.9645ZM19 12.5026H19.1V6.89294H19H18.9V12.5026H19ZM19 6.89294H19.1C19.1 6.6921 19.0175 6.50017 18.8718 6.35919L18.8023 6.43106L18.7328 6.50292C18.8402 6.60694 18.9 6.7473 18.9 6.89294H19ZM18.8023 6.43106L18.8718 6.35919C18.7263 6.21832 18.5295 6.13974 18.325 6.13974V6.23974V6.33974C18.4785 6.33974 18.6252 6.39879 18.7328 6.50292L18.8023 6.43106ZM18.325 6.23974V6.13974H16.3351V6.23974V6.33974H18.325V6.23974ZM16.3351 6.23974L16.3351 6.13974C16.1963 6.13978 16.0625 6.09152 15.9582 6.00445L15.8941 6.08123L15.83 6.15801C15.9709 6.27555 16.1502 6.3398 16.3351 6.33974L16.3351 6.23974ZM15.8941 6.08123L15.9582 6.00451L14.4381 4.73382L14.374 4.81055L14.3099 4.88727L15.83 6.15796L15.8941 6.08123ZM14.374 4.81055L14.4381 4.73383C13.7852 4.18785 12.9463 3.89686 12.0847 3.91673L12.087 4.0167L12.0893 4.11668C12.9032 4.09791 13.6947 4.37285 14.3099 4.88726L14.374 4.81055ZM12.087 4.0167L12.0847 3.91673C11.223 3.9366 10.3993 4.26593 9.77388 4.84147L9.8416 4.91506L9.90932 4.98864C10.4984 4.44655 11.2754 4.13544 12.0893 4.11668L12.087 4.0167ZM8.3656 5.52906L8.31105 5.61287L8.81685 5.94208L8.8714 5.85827L8.92595 5.77446L8.42015 5.44525L8.3656 5.52906ZM8.8714 5.85827L8.80166 5.78661L7.03766 7.50321L7.1074 7.57487L7.17714 7.64654L8.94114 5.92994L8.8714 5.85827ZM7.1074 7.57487L7.03766 7.50321C6.838 7.69751 6.68027 7.92862 6.57389 8.18308L6.66615 8.22165L6.75842 8.26022C6.85427 8.03094 6.99657 7.82227 7.17714 7.64654L7.1074 7.57487ZM6.66615 8.22165L6.57389 8.18308C6.46751 8.43754 6.41466 8.71012 6.41855 8.9848L6.51854 8.98339L6.61853 8.98197C6.61503 8.73487 6.66256 8.4895 6.75842 8.26022L6.66615 8.22165ZM6.51854 8.98339L6.41855 8.9848C6.42243 9.25947 6.48296 9.53054 6.59649 9.78207L6.68763 9.74093L6.77878 9.69979C6.67647 9.47311 6.62202 9.22908 6.61853 8.98197L6.51854 8.98339ZM6.68763 9.74093L6.59649 9.78207C6.71001 10.0336 6.8742 10.2604 7.07924 10.4493L7.147 10.3758L7.21476 10.3022C7.02926 10.1313 6.88109 9.92647 6.77878 9.69979L6.68763 9.74093ZM7.147 10.3758L7.07966 10.4497L7.14086 10.5055L7.2082 10.4315L7.27554 10.3576L7.21434 10.3018L7.147 10.3758ZM7.2082 10.4315L7.14045 10.5051C7.90521 11.2095 9.08609 11.2641 9.91564 10.633L9.8551 10.5535L9.79455 10.4739C9.04191 11.0464 7.96919 10.9965 7.27595 10.358L7.2082 10.4315ZM9.8551 10.5535L9.91559 10.6331L11.7867 9.21172L11.7262 9.13209L11.6657 9.05246L9.79461 10.4738L9.8551 10.5535ZM11.7262 9.13209L11.6581 9.2053L14.0494 11.4305L14.1175 11.3573L14.1856 11.2841L11.7943 9.05889L11.7262 9.13209ZM14.1175 11.3573L14.0494 11.4306C14.1402 11.5149 14.1993 11.6253 14.2183 11.7445L14.3171 11.7288L14.4158 11.713C14.3896 11.5489 14.3085 11.3983 14.1856 11.2841L14.1175 11.3573ZM14.3171 11.7288L14.2183 11.7445C14.2373 11.8637 14.2154 11.9858 14.1555 12.0921L14.2426 12.1412L14.3297 12.1902C14.4116 12.0449 14.442 11.8771 14.4158 11.713L14.3171 11.7288ZM14.2426 12.1412L14.1564 12.0905L14.1339 12.1288L14.2201 12.1795L14.3063 12.2301L14.3288 12.1918L14.2426 12.1412ZM14.2201 12.1795L14.1327 12.1309L14.1201 12.1535L14.2075 12.2021L14.2949 12.2507L14.3075 12.2281L14.2201 12.1795ZM14.2075 12.2021L14.1204 12.153L13.8909 12.5597L13.978 12.6088L14.0651 12.658L14.2946 12.2513L14.2075 12.2021ZM13.978 12.6088L13.8909 12.5597C13.8356 12.6577 13.7506 12.7378 13.6465 12.7888L13.6906 12.8786L13.7346 12.9684C13.8742 12.8999 13.9896 12.7919 14.0651 12.658L13.978 12.6088ZM13.6906 12.8786L13.6465 12.7888C13.5425 12.8398 13.4246 12.8592 13.3087 12.8441L13.2958 12.9433L13.2829 13.0424C13.4376 13.0625 13.595 13.0368 13.7346 12.9684L13.6906 12.8786ZM13.2958 12.9433L13.3087 12.8441L12.6166 12.7544L12.6037 12.8536L12.5908 12.9527L13.2829 13.0424L13.2958 12.9433ZM12.6037 12.8536L12.6166 12.7544C12.4791 12.7365 12.3392 12.7548 12.2113 12.8074L12.2494 12.8999L12.2874 12.9924C12.3829 12.953 12.4877 12.9393 12.5908 12.9527L12.6037 12.8536ZM12.2494 12.8999L12.2113 12.8074C12.0834 12.8601 11.9722 12.9453 11.8895 13.0545L11.9692 13.1149L12.0489 13.1752C12.1097 13.095 12.192 13.0317 12.2874 12.9924L12.2494 12.8999ZM11.9692 13.1149L11.8895 13.0545L11.2289 13.9272L11.3086 13.9875L11.3883 14.0479L12.0489 13.1752L11.9692 13.1149ZM11.3086 13.9875L11.2288 13.9273C11.157 14.0224 11.0553 14.0934 10.9381 14.1293L10.9674 14.2249L10.9967 14.3205C11.1534 14.2725 11.2907 14.1772 11.3884 14.0478L11.3086 13.9875ZM10.9674 14.2249L10.9381 14.1293C10.8209 14.1652 10.6948 14.164 10.5783 14.1259L10.5472 14.2209L10.5161 14.316C10.6718 14.3669 10.8401 14.3685 10.9967 14.3205L10.9674 14.2249ZM10.5472 14.2209L10.5784 14.1259L9.59741 13.8037L9.5662 13.8987L9.53499 13.9937L10.516 14.3159L10.5472 14.2209ZM9.5662 13.8987L9.59748 13.8037C9.48328 13.7661 9.36166 13.7549 9.24231 13.771L9.25566 13.8701L9.26901 13.9692C9.35846 13.9572 9.44955 13.9656 9.53492 13.9937L9.5662 13.8987ZM9.25566 13.8701L9.24231 13.771C9.12295 13.7871 9.00893 13.83 8.90941 13.8966L8.965 13.9797L9.02059 14.0628C9.0945 14.0134 9.17957 13.9813 9.26901 13.9692L9.25566 13.8701ZM8.965 13.9797L8.90941 13.8966L8.01481 14.4949L8.0704 14.578L8.12599 14.6611L9.02059 14.0628L8.965 13.9797ZM8.0704 14.578L8.0148 14.4949C7.8987 14.5726 7.75668 14.6065 7.61584 14.5897L7.604 14.689L7.59216 14.7883C7.77986 14.8107 7.96981 14.7656 8.126 14.6611L8.0704 14.578ZM7.604 14.689L7.61584 14.5897C7.47502 14.5729 7.34616 14.5067 7.25345 14.4046L7.1794 14.4718L7.10535 14.539C7.23108 14.6775 7.40444 14.7659 7.59216 14.7883L7.604 14.689ZM7.1794 14.4718L7.25341 14.4045L5.14831 12.0878L5.0743 12.1551L5.00029 12.2223L7.10539 14.539L7.1794 14.4718ZM5.0743 12.1551L5.14826 12.0878C4.94849 11.8683 4.70286 11.6927 4.42786 11.5725L4.38783 11.6642L4.34779 11.7558C4.59734 11.8648 4.81976 12.024 5.00034 12.2224L5.0743 12.1551ZM4.38783 11.6642L4.42786 11.5725C4.15288 11.4524 3.85472 11.3904 3.55324 11.3906L3.5533 11.4906L3.55336 11.5906C3.8274 11.5904 4.09824 11.6468 4.34779 11.7558L4.38783 11.6642ZM3.5533 11.4906V11.3906H2.35V11.4906V11.5906H3.5533V11.4906ZM2.35 11.4906H2.45V7.54526H2.35H2.25V11.4906H2.35ZM2.35 7.54526V7.64526H3.6649V7.54526V7.44526H2.35V7.54526ZM3.6649 7.54526L3.66488 7.64526C4.17106 7.64537 4.66106 7.47034 5.04631 7.15109L4.9825 7.07409L4.91869 6.99709C4.56987 7.28616 4.12519 7.44536 3.66492 7.44526L3.6649 7.54526ZM4.9825 7.07409L5.04633 7.15107L6.79953 5.69749L6.7357 5.62051L6.67187 5.54353L4.91867 6.99711L4.9825 7.07409ZM6.7357 5.62051L6.79954 5.69748C7.00699 5.52541 7.26745 5.42356 7.54112 5.40807L7.53547 5.30823L7.52982 5.20839C7.21409 5.22626 6.91269 5.34378 6.67186 5.54354L6.7357 5.62051ZM7.53547 5.30823L7.54112 5.40807C7.8148 5.39259 8.08591 5.46438 8.31287 5.61202L8.3674 5.52819L8.42193 5.44437C8.1589 5.27327 7.84555 5.19053 7.52982 5.20839L7.53547 5.30823ZM15.6754 11.8503L15.7754 11.8515C15.7788 11.5697 15.7226 11.2904 15.6102 11.0307L15.5184 11.0704L15.4266 11.1101C15.5279 11.3441 15.5785 11.5956 15.5754 11.849L15.6754 11.8503ZM15.5184 11.0704L15.6102 11.0307C15.4978 10.771 15.3318 10.5366 15.1225 10.3418L15.0544 10.415L14.9863 10.4882C15.1756 10.6644 15.3254 10.8761 15.4266 11.1101L15.5184 11.0704ZM15.0544 10.415L15.1225 10.3418L12.8536 8.23063L12.7855 8.30384L12.7174 8.37705L14.9863 10.4882L15.0544 10.415ZM12.7855 8.30384L12.8632 8.36681C12.9806 8.22198 13.0395 8.03999 13.028 7.85525L12.9282 7.86146L12.8284 7.86766C12.8367 8.00168 12.7941 8.13444 12.7078 8.24087L12.7855 8.30384ZM12.9282 7.86146L13.028 7.85525C13.0165 7.67052 12.9355 7.49689 12.8012 7.36697L12.7317 7.43883L12.6621 7.51069C12.7612 7.60657 12.82 7.73363 12.8284 7.86766L12.9282 7.86146ZM12.7317 7.43883L12.8012 7.36697C12.667 7.23712 12.4889 7.15982 12.3008 7.14886L12.295 7.24869L12.2891 7.34852C12.4304 7.35675 12.563 7.41473 12.6621 7.51069L12.7317 7.43883ZM12.295 7.24869L12.3008 7.14886C12.1126 7.1379 11.9264 7.19396 11.7773 7.3071L11.8378 7.38675L11.8983 7.46641C12.0089 7.38246 12.1479 7.34029 12.2891 7.34852L12.295 7.24869ZM11.8378 7.38675L11.7773 7.30711L11.3219 7.65287L11.3824 7.73251L11.4429 7.81216L11.8983 7.4664L11.8378 7.38675ZM11.3824 7.73251L11.322 7.65282L11.268 7.69375L11.3284 7.77345L11.3888 7.85314L11.4428 7.8122L11.3824 7.73251ZM11.3284 7.77345L11.2679 7.69384L8.96207 9.44702L9.0226 9.52663L9.08312 9.60623L11.3889 7.85305L11.3284 7.77345ZM9.0226 9.52663L8.96207 9.44702C8.85334 9.5297 8.71694 9.57201 8.57789 9.56556L8.57326 9.66546L8.56863 9.76535C8.7539 9.77394 8.93655 9.71767 9.08313 9.60623L9.0226 9.52663ZM8.57326 9.66546L8.57789 9.56556C8.43885 9.55912 8.30741 9.5044 8.20752 9.41221L8.1397 9.48569L8.07188 9.55918C8.20695 9.68384 8.38336 9.75676 8.56863 9.76535L8.57326 9.66546ZM8.1397 9.48569L8.2076 9.41228L8.1464 9.35567L8.0785 9.42908L8.01059 9.50249L8.07179 9.5591L8.1397 9.48569ZM8.0785 9.42908L8.14624 9.35552C8.0909 9.30456 8.04683 9.24361 8.01644 9.17634L7.92531 9.21751L7.83418 9.25868C7.87578 9.35078 7.93588 9.43369 8.01076 9.50265L8.0785 9.42908ZM7.92531 9.21751L8.01644 9.17634C7.98605 9.10907 7.96991 9.03674 7.96885 8.96356L7.86886 8.96501L7.76887 8.96646C7.77033 9.0672 7.79256 9.16656 7.83418 9.25868L7.92531 9.21751ZM7.86886 8.96501L7.96885 8.96356C7.96779 8.89039 7.98184 8.81766 8.01026 8.74963L7.91799 8.71108L7.82571 8.67254C7.78677 8.76577 7.76741 8.86571 7.76887 8.96646L7.86886 8.96501ZM7.91799 8.71108L8.01026 8.74963C8.03868 8.68158 8.08095 8.61949 8.13477 8.56709L8.065 8.49545L7.99523 8.4238C7.92234 8.49478 7.86465 8.57932 7.82571 8.67254L7.91799 8.71108ZM8.065 8.49545L8.13472 8.56713L10.8032 5.97176L10.7335 5.90008L10.6638 5.82839L7.99528 8.42376L8.065 8.49545ZM10.7335 5.90008L10.8032 5.97175C11.1465 5.63776 11.6085 5.44162 12.0963 5.42376L12.0926 5.32383L12.089 5.2239C11.5526 5.24353 11.0432 5.45923 10.6638 5.8284L10.7335 5.90008ZM12.0926 5.32383L12.0963 5.42376C12.5841 5.4059 13.0602 5.56771 13.4288 5.87578L13.4929 5.79905L13.557 5.72232C13.15 5.38209 12.6254 5.20426 12.089 5.2239L12.0926 5.32383ZM13.4929 5.79905L13.4287 5.87576L14.947 7.14557L15.0112 7.06886L15.0754 6.99216L13.5571 5.72234L13.4929 5.79905ZM15.0112 7.06886L14.9471 7.1456C15.3335 7.46848 15.8266 7.6456 16.3361 7.64526L16.336 7.54526L16.3359 7.44526C15.8726 7.44557 15.4252 7.28447 15.0753 6.99213L15.0112 7.06886ZM16.336 7.54526V7.64526H17.65V7.54526V7.44526H16.336V7.54526ZM17.65 7.54526H17.55V11.8503H17.65H17.75V7.54526H17.65ZM17.65 11.8503V11.7503H15.6754V11.8503V11.9503H17.65V11.8503Z" fill="#E80104" mask="url(#path-1-outside-1_7901_354946)"/>
</svg>
