<svg width="20" height="20" viewBox="0 0 20 20" fill="none" xmlns="http://www.w3.org/2000/svg">
<path d="M4.30787 10.7158C4.30787 10.3205 4.62836 10 5.02369 10H15.0398C15.4352 10 15.7557 10.3205 15.7557 10.7158C15.7557 11.1112 15.4352 11.4316 15.0398 11.4316H5.02369C4.62835 11.4316 4.30787 11.1112 4.30787 10.7158ZM4.30787 14.3088C4.30787 13.9192 4.62371 13.6034 5.0133 13.6034C5.4029 13.6034 5.71873 13.9192 5.71873 14.3088C5.71873 14.6984 5.4029 15.0142 5.0133 15.0142C4.6237 15.0142 4.30787 14.6984 4.30787 14.3088ZM6.44784 14.2889C6.44784 13.8993 6.76368 13.5835 7.15327 13.5835C7.54287 13.5835 7.8587 13.8993 7.8587 14.2889C7.8587 14.6785 7.54287 14.9943 7.15327 14.9943C6.76368 14.9943 6.44784 14.6785 6.44784 14.2889Z" fill="#E80104"/>
<path d="M6.80283 9.99921C6.25269 9.38064 5.8931 8.61623 5.76736 7.79802C5.64162 6.97981 5.75509 6.14269 6.0941 5.38748C6.43312 4.63226 6.98323 3.99116 7.67818 3.54136C8.37314 3.09156 9.18331 2.85225 10.0111 2.85225C10.8389 2.85225 11.6491 3.09156 12.3441 3.54136C13.039 3.99116 13.5891 4.63226 13.9281 5.38748C14.2672 6.14269 14.3806 6.97981 14.2549 7.79802C14.1291 8.61623 13.7696 9.38064 13.2194 9.99921H14.9745C15.4741 9.13144 15.7362 8.14731 15.7344 7.14598C15.7358 3.98452 13.1725 1.42188 10.0112 1.42188C6.84998 1.42188 4.28712 3.98452 4.28712 7.146C4.28533 8.14732 4.54745 9.13144 5.04708 9.99921H6.80283Z" fill="#E80104"/>
<path d="M5.5 7H4C2.89543 7 2 7.89543 2 9V16C2 17.1046 2.89543 18 4 18H16C17.1046 18 18 17.1046 18 16V9C18 7.89543 17.1046 7 16 7H14.5" stroke="#E80104" stroke-width="1.5"/>
<path d="M11.4663 7.74892C11.4663 7.94987 11.416 8.14244 11.3156 8.32664C11.2151 8.50666 11.0665 8.65737 10.8697 8.77877C10.6771 8.90018 10.4448 8.96925 10.1727 8.986V9.49465H9.83357V8.986C9.45261 8.95251 9.14281 8.8311 8.90419 8.62178C8.66556 8.40828 8.54416 8.13825 8.53997 7.81172H9.14909C9.16584 7.98754 9.23073 8.14035 9.34376 8.27013C9.46098 8.3999 9.62425 8.48154 9.83357 8.51503V6.94513C9.55308 6.87396 9.32701 6.8007 9.15537 6.72535C8.98373 6.64999 8.83721 6.53277 8.7158 6.37369C8.59439 6.2146 8.53369 6.0011 8.53369 5.73317C8.53369 5.39407 8.65091 5.11358 8.88535 4.8917C9.12397 4.66982 9.44005 4.54632 9.83357 4.52121V4H10.1727V4.52121C10.5285 4.55051 10.8153 4.66564 11.033 4.86658C11.2507 5.06334 11.3763 5.32081 11.4097 5.63897H10.8006C10.7797 5.49245 10.7148 5.36058 10.606 5.24336C10.4971 5.12195 10.3527 5.04241 10.1727 5.00474V6.53696C10.449 6.60813 10.6729 6.68139 10.8446 6.75674C11.0204 6.82791 11.1669 6.94304 11.2842 7.10212C11.4056 7.2612 11.4663 7.4768 11.4663 7.74892ZM9.11769 5.70177C9.11769 5.9069 9.1784 6.06389 9.2998 6.17274C9.42121 6.28159 9.59913 6.37159 9.83357 6.44276V4.99218C9.61588 5.01311 9.44214 5.08428 9.31236 5.20568C9.18258 5.3229 9.11769 5.48826 9.11769 5.70177ZM10.1727 8.52131C10.3987 8.49619 10.5746 8.41456 10.7002 8.27641C10.8299 8.13825 10.8948 7.97289 10.8948 7.78032C10.8948 7.57518 10.832 7.41819 10.7064 7.30935C10.5808 7.19631 10.4029 7.10631 10.1727 7.03932V8.52131Z" fill="#E80104"/>
</svg>
