<svg width="20" height="20" viewBox="0 0 20 20" fill="none" xmlns="http://www.w3.org/2000/svg">
<path d="M17.5 9.5C16.8221 8.16123 15.5138 7.73148 14.6085 7.71446C13.9881 7.71446 13.2833 7.87692 12.6157 8.16123C13.1393 7.30338 13.457 6.28554 13.457 5.42892C13.457 4.51952 13.0928 3.64736 12.4445 3.00431C11.7962 2.36126 10.9169 2 10 2C9.08315 2 8.20385 2.36126 7.55554 3.00431C6.90722 3.64736 6.54301 4.51952 6.54301 5.42892C6.54301 6.28554 6.86066 7.30338 7.3843 8.16123C6.71672 7.87692 6.01192 7.71446 5.3915 7.71446C4.48616 7.73148 3.62368 8.10015 2.98948 8.74123C2.35529 9.38231 2 10.2446 2 11.1428C2 12.0409 2.35529 12.9032 2.98948 13.5443C3.62368 14.1854 4.48616 14.5541 5.3915 14.5711C6.29732 14.5711 7.38182 14.2265 8.2715 13.6591L7.3843 18H9H10" stroke="#E80104" stroke-width="1.4" stroke-linecap="round" stroke-linejoin="round"/>
<path d="M11 14.75C11 15.2425 11.097 15.7301 11.2855 16.1851C11.4739 16.64 11.7501 17.0534 12.0983 17.4016C12.4466 17.7499 12.86 18.0261 13.3149 18.2145C13.7699 18.403 14.2575 18.5 14.75 18.5C15.2425 18.5 15.7301 18.403 16.1851 18.2145C16.64 18.0261 17.0534 17.7499 17.4016 17.4016C17.7499 17.0534 18.0261 16.64 18.2145 16.1851C18.403 15.7301 18.5 15.2425 18.5 14.75C18.5 13.7554 18.1049 12.8016 17.4016 12.0983C16.6984 11.3951 15.7446 11 14.75 11C13.7554 11 12.8016 11.3951 12.0983 12.0983C11.3951 12.8016 11 13.7554 11 14.75Z" stroke="#E80104" stroke-width="1.25" stroke-linecap="round" stroke-linejoin="round"/>
<path d="M13 14.5714C13 14.5714 13.6854 15.2065 14.05 16C14.05 16 15.4704 13.897 16.5 13.5" stroke="#E80104" stroke-width="1.2" stroke-linecap="round" stroke-linejoin="round"/>
</svg>
