<svg width="20" height="20" viewBox="0 0 20 20" fill="none" xmlns="http://www.w3.org/2000/svg">
<path d="M2.08325 9.9987C2.08325 6.26703 2.08325 4.40036 3.24242 3.2412C4.40159 2.08203 6.26742 2.08203 9.99992 2.08203C13.7316 2.08203 15.5983 2.08203 16.7574 3.2412C17.9166 4.40036 17.9166 6.2662 17.9166 9.9987C17.9166 13.7304 17.9166 15.597 16.7574 16.7562C15.5983 17.9154 13.7324 17.9154 9.99992 17.9154C6.26825 17.9154 4.40159 17.9154 3.24242 16.7562C2.08325 15.597 2.08325 13.7312 2.08325 9.9987Z" stroke="#E80104" stroke-width="1.5"/>
<path d="M7.9165 7.91459C7.91664 7.55568 8.00949 7.2029 8.18606 6.89043C8.36263 6.57796 8.61693 6.31641 8.92431 6.13112C9.2317 5.94583 9.58173 5.8431 9.94049 5.83288C10.2993 5.82265 10.6546 5.90529 10.972 6.07277C11.2894 6.24025 11.5582 6.48689 11.7523 6.7888C11.9464 7.09071 12.0592 7.43763 12.0797 7.79595C12.1003 8.15427 12.028 8.51182 11.8697 8.83396C11.7115 9.15609 11.4727 9.43188 11.1765 9.63459C10.6065 10.0246 9.99984 10.5579 9.99984 11.2479" stroke="#E80104" stroke-width="1.5" stroke-linecap="round" stroke-linejoin="round"/>
<path d="M10 14.1641H10.0075" stroke="#E80104" stroke-width="1.5" stroke-linecap="round" stroke-linejoin="round"/>
</svg>
