<svg width="20" height="20" viewBox="0 0 20 20" fill="none" xmlns="http://www.w3.org/2000/svg">
<path d="M14.6691 7.15172L15.6791 6.47839C16.2133 6.12256 16.8616 5.95006 17.3924 5.58922C17.503 5.51422 17.6072 5.42811 17.7049 5.33089C17.916 5.11939 18.0805 4.86618 18.1881 4.58744C18.2956 4.3087 18.3438 4.01057 18.3296 3.71214C18.3153 3.41371 18.2389 3.12154 18.1052 2.85433C17.9716 2.58712 17.7836 2.35076 17.5534 2.16035C17.3231 1.96995 17.0557 1.82971 16.7681 1.74859C16.4806 1.66748 16.1793 1.64729 15.8835 1.6893C15.5877 1.73132 15.3039 1.83462 15.0503 1.99259C14.7967 2.15057 14.5789 2.35974 14.4108 2.60672C14.0499 3.13756 13.8774 3.78589 13.5216 4.32006L12.8483 5.33006M14.6691 7.15172L12.8483 5.33006M14.6691 7.15172L16.0841 9.37589C16.285 9.69233 16.3722 10.0678 16.3313 10.4404C16.2904 10.813 16.1239 11.1606 15.8591 11.4259C15.7045 11.5801 15.495 11.6667 15.2766 11.6667C15.0582 11.6667 14.8487 11.5801 14.6941 11.4259L8.57493 5.30672C8.42049 5.15204 8.33374 4.94239 8.33374 4.72381C8.33374 4.50522 8.42049 4.29557 8.57493 4.14089C8.84026 3.8761 9.18784 3.70955 9.56045 3.66866C9.93306 3.62776 10.3085 3.71496 10.6249 3.91589L12.8483 5.33006" stroke="#495266" stroke-width="1.25"/>
<path d="M13.3334 14.0757C13.0384 15.064 12.4918 15.9587 11.7473 16.6723C11.0027 17.3859 10.0856 17.894 9.08574 18.1468C8.08588 18.3996 7.03751 18.3884 6.04324 18.1145C5.04897 17.8405 4.14287 17.3131 3.41361 16.5838C2.68436 15.8546 2.15693 14.9485 1.88297 13.9542C1.609 12.9599 1.59787 11.9116 1.85067 10.9117C2.10348 9.91184 2.61155 8.99475 3.32516 8.25018C4.03878 7.50561 4.93348 6.95907 5.92171 6.66406" stroke="#495266" stroke-width="1.5" stroke-linecap="round"/>
<path d="M5.5 12.5C5.5 12.5 6.47917 13.3892 7 14.5C7 14.5 9.02917 11.5558 10.5 11" stroke="#495266" stroke-width="1.5" stroke-linecap="round" stroke-linejoin="round"/>
</svg>
