<svg width="20" height="20" viewBox="0 0 20 20" fill="none" xmlns="http://www.w3.org/2000/svg">
<path d="M11.1667 3.6667H9.48583C7.90083 3.6667 7.10833 3.6667 6.61667 4.15503C6.34167 4.4267 6.22 4.7917 6.16667 5.33336M11.1667 17H9.48583C7.90083 17 7.10833 17 6.61667 16.5117C6.34167 16.24 6.22 15.875 6.16667 15.3334M2.83333 10.3334H8.66667M4.08333 8.25003C4.08333 8.25003 2 9.78336 2 10.3334C2 10.8834 4.08333 12.4167 4.08333 12.4167M16.6725 3.6667C17 4.18086 17 4.8442 17 6.17003V14.4984C17 15.8242 17 16.4875 16.6725 17C16.6142 17.0917 16.5489 17.1784 16.4767 17.26C16.0742 17.715 15.4358 17.8975 14.16 18.2617C12.8825 18.6267 12.2433 18.8092 11.78 18.5359C11.6998 18.4882 11.6252 18.4318 11.5575 18.3675C11.1667 17.9967 11.1667 17.3334 11.1667 16.0025V4.6642C11.1667 3.3342 11.1667 2.67003 11.5575 2.30003C11.6252 2.23579 11.6998 2.17933 11.78 2.1317C12.2425 1.85836 12.8825 2.04003 14.1608 2.40586C15.4358 2.77003 16.0742 2.95253 16.4775 3.40753C16.5492 3.48899 16.6144 3.57509 16.6725 3.6667Z" stroke="#E80104" stroke-width="1.5" stroke-linecap="round" stroke-linejoin="round"/>
</svg>
