<svg width="20" height="20" viewBox="0 0 20 20" fill="none" xmlns="http://www.w3.org/2000/svg">
<path d="M4.58691 9.17578C4.66995 9.17617 4.7373 9.24411 4.7373 9.32715V13.8291C4.7373 13.9126 4.66942 13.9807 4.58594 13.9805L3.76855 13.9775H3.7666C2.7412 13.9774 1.75 12.9985 1.75 11.5771C1.75009 10.1124 2.66866 9.17245 3.65625 9.17188L4.58691 9.17578ZM16.3398 9.17578C17.33 9.17578 18.25 10.1135 18.25 11.5762C18.2499 12.9976 17.2598 13.9765 16.2334 13.9766H16.2314L15.3975 13.9785C15.3141 13.9788 15.2462 13.9115 15.2461 13.8281V9.3291C15.2461 9.24595 15.3133 9.17796 15.3965 9.17773L16.3398 9.17578Z" stroke="#495266" stroke-width="1.5"/>
<path d="M3.54196 9.53344C3.49786 8.66277 3.63053 7.79219 3.93197 6.97417C4.23342 6.15616 4.69739 5.40766 5.29593 4.77381C5.89446 4.13996 6.61516 3.63388 7.41457 3.28608C8.21397 2.93828 9.07553 2.75598 9.9473 2.75014C10.8191 2.74431 11.683 2.91508 12.487 3.25216C13.291 3.58923 14.0184 4.08562 14.6253 4.71141C15.2323 5.3372 15.7062 6.07943 16.0186 6.89333C16.331 7.70724 16.4753 8.57597 16.4428 9.44716" stroke="#495266" stroke-width="1.5"/>
<path d="M7.17627 12.0234C8.82211 13.3401 11.1607 13.3401 12.8066 12.0234" stroke="#495266" stroke-width="1.21" stroke-linecap="round"/>
<path d="M8.1897 17.4243C8.1897 16.9268 8.59302 16.5234 9.09055 16.5234H10.8922C11.3898 16.5234 11.7931 16.9268 11.7931 17.4243C11.7931 17.9218 11.3898 18.3251 10.8922 18.3251H9.09055C8.59302 18.3251 8.1897 17.9218 8.1897 17.4243Z" fill="#495266"/>
<path d="M4.13574 14.2734L4.31704 14.6965C5.02682 16.3526 6.65527 17.4264 8.4571 17.4264H9.09041" stroke="#495266" stroke-linecap="round"/>
</svg>
