<svg width="20" height="20" viewBox="0 0 20 20" fill="none" xmlns="http://www.w3.org/2000/svg">
<path d="M9.75098 1.75879C9.88817 1.63817 10.1118 1.63817 10.249 1.75879C10.9836 2.40499 12.2284 3.40047 13.4336 3.84277C14.4523 4.21654 15.8504 4.34318 16.7881 4.38965C16.9889 4.3996 17.1089 4.57604 17.0879 4.72168L15.4863 15.7158C15.4747 15.7957 15.4243 15.8654 15.3525 15.9023L10.1143 18.5977C10.0425 18.6345 9.95747 18.6345 9.88574 18.5977L4.64746 15.9023C4.57565 15.8654 4.52532 15.7957 4.51367 15.7158L2.91211 4.72168C2.89109 4.57605 3.01111 4.3996 3.21191 4.38965C4.14962 4.34318 5.54766 4.21654 6.56641 3.84277C7.77164 3.40047 9.01641 2.40499 9.75098 1.75879Z" stroke="#E80104" stroke-width="1.5"/>
<path d="M10 11.5V11.1429" stroke="#E80104" stroke-width="0.999999" stroke-linecap="round"/>
<path d="M7.5 9.35938H12.5C13.0523 9.35938 13.5 9.80709 13.5 10.3594V12.502C13.5 13.0542 13.0523 13.502 12.5 13.502H7.5C6.94772 13.502 6.5 13.0542 6.5 12.502V10.3594C6.5 9.80709 6.94772 9.35938 7.5 9.35938Z" stroke="#E80104"/>
<path d="M8 9.25L8 8.24999C8.00001 7.14543 8.89543 6.25 10 6.25C11.1046 6.25 12 7.14543 12 8.25L12 9.25" stroke="#E80104"/>
</svg>
