<svg width="20" height="20" viewBox="0 0 20 20" fill="none" xmlns="http://www.w3.org/2000/svg">
<path d="M16 8.8V8.4C16 5.3832 16 3.8744 15.0477 2.9376C14.0955 2.0008 12.5639 2 9.5 2C6.43606 2 4.90369 2 3.95225 2.9376C3.00081 3.8752 3 5.3832 3 8.4V12C3 14.6296 3 15.9448 3.73775 16.8304C3.87317 16.9925 4.02321 17.1403 4.18787 17.2736C5.08812 18 6.42225 18 9.09375 18M6.25 6H12.75M6.25 9.2H9.5" stroke="#E80104" stroke-width="1.5" stroke-linecap="round" stroke-linejoin="round"/>
<path d="M15 15.4154L13.75 14.957V12.9154M10 14.582C10 15.0745 10.097 15.5621 10.2855 16.0171C10.4739 16.4721 10.7501 16.8855 11.0983 17.2337C11.4466 17.5819 11.86 17.8581 12.3149 18.0466C12.7699 18.235 13.2575 18.332 13.75 18.332C14.2425 18.332 14.7301 18.235 15.1851 18.0466C15.64 17.8581 16.0534 17.5819 16.4016 17.2337C16.7499 16.8855 17.0261 16.4721 17.2145 16.0171C17.403 15.5621 17.5 15.0745 17.5 14.582C17.5 13.5875 17.1049 12.6336 16.4016 11.9304C15.6984 11.2271 14.7446 10.832 13.75 10.832C12.7554 10.832 11.8016 11.2271 11.0983 11.9304C10.3951 12.6336 10 13.5875 10 14.582Z" stroke="#E80104" stroke-width="1.25" stroke-linecap="round" stroke-linejoin="round"/>
</svg>
