<svg width="20" height="20" viewBox="0 0 20 20" fill="none" xmlns="http://www.w3.org/2000/svg">
<path d="M17.5001 9.16667C17.6289 9.10243 17.7456 9.01645 17.8451 8.9125C18.3334 8.4075 18.3334 7.59167 18.3334 5.96C18.3334 4.32833 18.3334 3.51333 17.8451 3.00667C17.3567 2.5 16.5717 2.5 15.0001 2.5H5.00008C3.42841 2.5 2.64341 2.5 2.15508 3.00667C1.66675 3.51333 1.66675 4.32917 1.66675 5.96C1.66675 7.59083 1.66675 8.40667 2.15508 8.9125C2.25508 9.01694 2.37008 9.10167 2.50008 9.16667" stroke="#495266" stroke-width="1.5" stroke-linecap="round"/>
<path d="M15.7792 11.6195L15.2209 8.57953C14.9792 7.2662 14.8584 6.60953 14.3809 6.2212C13.9034 5.83286 13.2167 5.83203 11.8442 5.83203H8.15591C6.78341 5.83203 6.09758 5.83203 5.61925 6.2212C5.14175 6.60953 5.02091 7.2662 4.77925 8.57953L4.22091 11.6195C3.72091 14.3454 3.47008 15.7087 4.24091 16.6029C5.01175 17.4987 6.43675 17.4987 9.28508 17.4987H10.7151C13.5634 17.4987 14.9884 17.4987 15.7592 16.6037C16.5301 15.7087 16.2801 14.3454 15.7792 11.6204V11.6195Z" stroke="#495266" stroke-width="1.5" stroke-linecap="round"/>
<path d="M12 13.1135C12 13.3876 11.9315 13.6503 11.7944 13.9015C11.6574 14.147 11.4547 14.3526 11.1863 14.5182C10.9236 14.6838 10.6067 14.778 10.2355 14.8009V15.4946H9.77302V14.8009C9.25339 14.7552 8.83084 14.5896 8.50535 14.3041C8.17987 14.0128 8.01428 13.6445 8.00857 13.1991H8.8394C8.86224 13.439 8.95075 13.6474 9.10493 13.8244C9.26481 14.0014 9.48751 14.1128 9.77302 14.1585V12.0171C9.39044 11.9201 9.08208 11.8201 8.84797 11.7173C8.61385 11.6146 8.41399 11.4547 8.24839 11.2377C8.0828 11.0207 8 10.7295 8 10.364C8 9.9015 8.15989 9.51892 8.47966 9.21627C8.80514 8.91363 9.23626 8.74518 9.77302 8.71092V8H10.2355V8.71092C10.7209 8.75089 11.1121 8.90792 11.409 9.18201C11.7059 9.45039 11.8772 9.80157 11.9229 10.2355H11.0921C11.0635 10.0357 10.975 9.85582 10.8266 9.69593C10.6781 9.53034 10.4811 9.42184 10.2355 9.37045V11.4604C10.6124 11.5575 10.9179 11.6574 11.152 11.7602C11.3919 11.8572 11.5917 12.0143 11.7516 12.2313C11.9172 12.4483 12 12.7423 12 13.1135ZM8.79657 10.3212C8.79657 10.601 8.87937 10.8151 9.04497 10.9636C9.21056 11.1121 9.45325 11.2348 9.77302 11.3319V9.35332C9.47609 9.38187 9.23911 9.47894 9.0621 9.64454C8.88508 9.80443 8.79657 10.03 8.79657 10.3212ZM10.2355 14.167C10.5439 14.1328 10.7837 14.0214 10.955 13.833C11.132 13.6445 11.2206 13.419 11.2206 13.1563C11.2206 12.8765 11.1349 12.6624 10.9636 12.5139C10.7923 12.3597 10.5496 12.237 10.2355 12.1456V14.167Z" fill="#495266"/>
<path d="M12 13.1135C12 13.3876 11.9315 13.6503 11.7944 13.9015C11.6574 14.147 11.4547 14.3526 11.1863 14.5182C10.9236 14.6838 10.6067 14.778 10.2355 14.8009V15.4946H9.77302V14.8009C9.25339 14.7552 8.83084 14.5896 8.50535 14.3041C8.17987 14.0128 8.01428 13.6445 8.00857 13.1991H8.8394C8.86224 13.439 8.95075 13.6474 9.10493 13.8244C9.26481 14.0014 9.48751 14.1128 9.77302 14.1585V12.0171C9.39044 11.9201 9.08208 11.8201 8.84797 11.7173C8.61385 11.6146 8.41399 11.4547 8.24839 11.2377C8.0828 11.0207 8 10.7295 8 10.364C8 9.9015 8.15989 9.51892 8.47966 9.21627C8.80514 8.91363 9.23626 8.74518 9.77302 8.71092V8H10.2355V8.71092C10.7209 8.75089 11.1121 8.90792 11.409 9.18201C11.7059 9.45039 11.8772 9.80157 11.9229 10.2355H11.0921C11.0635 10.0357 10.975 9.85582 10.8266 9.69593C10.6781 9.53034 10.4811 9.42184 10.2355 9.37045V11.4604C10.6124 11.5575 10.9179 11.6574 11.152 11.7602C11.3919 11.8572 11.5917 12.0143 11.7516 12.2313C11.9172 12.4483 12 12.7423 12 13.1135ZM8.79657 10.3212C8.79657 10.601 8.87937 10.8151 9.04497 10.9636C9.21056 11.1121 9.45325 11.2348 9.77302 11.3319V9.35332C9.47609 9.38187 9.23911 9.47894 9.0621 9.64454C8.88508 9.80443 8.79657 10.03 8.79657 10.3212ZM10.2355 14.167C10.5439 14.1328 10.7837 14.0214 10.955 13.833C11.132 13.6445 11.2206 13.419 11.2206 13.1563C11.2206 12.8765 11.1349 12.6624 10.9636 12.5139C10.7923 12.3597 10.5496 12.237 10.2355 12.1456V14.167Z" fill="#495266"/>
</svg>
