<svg width="22" height="22" viewBox="0 0 22 22" fill="none" xmlns="http://www.w3.org/2000/svg">
<path d="M19.9844 7.33203C20.1041 8.53802 20.1654 9.7612 20.1654 10.9987C20.1654 12.2362 20.1041 13.4594 19.9844 14.6654" stroke="white" stroke-width="1.375" stroke-linecap="round"/>
<path d="M16.3867 8.25C16.4615 9.15677 16.4997 10.0739 16.4997 11C16.4997 11.9261 16.4615 12.8432 16.3867 13.75" stroke="white" stroke-width="1.375" stroke-linecap="round"/>
<path d="M11.918 11C11.918 8.66996 11.7208 6.38926 11.3432 4.17604C11.23 3.51195 10.4538 3.22045 9.91734 3.62791L6.90955 5.91236C6.59062 6.15458 6.20116 6.28571 5.80068 6.28571H2.7513C1.73878 6.28571 0.917969 7.10653 0.917969 8.11905V13.881C0.917969 14.8935 1.73878 15.7143 2.7513 15.7143H5.80068C6.20116 15.7143 6.59062 15.8454 6.90955 16.0876L9.91734 18.3721C10.4538 18.7796 11.23 18.488 11.3432 17.824C11.7208 15.6107 11.918 13.33 11.918 11Z" fill="white" stroke="white" stroke-width="0.916667" stroke-linejoin="round"/>
</svg>
