<svg width="201" height="200" viewBox="0 0 201 200" fill="none" xmlns="http://www.w3.org/2000/svg">
<g opacity="0.05" clip-path="url(#clip0_9228_18920)">
<path fill-rule="evenodd" clip-rule="evenodd" d="M174.391 73.8736L154.875 79.1031C144.559 81.8673 138.957 91.5909 141.269 100.219C143.581 108.847 153.294 114.467 163.603 111.705L183.293 106.429C184.76 105.935 185.135 104.755 185.023 104.133L177.204 74.9524C176.99 74.3575 176.075 73.5233 174.56 73.8362L174.391 73.8736ZM170.943 63.1506C171.425 63.0164 171.886 62.9031 172.328 62.8108C178.733 61.5059 185.594 64.7689 187.847 71.2931C187.992 71.72 188.118 72.1909 188.235 72.6256L195.739 100.633C195.856 101.067 195.982 101.538 196.07 101.981C197.381 108.757 193.07 115.013 186.865 117.095C186.441 117.23 185.984 117.36 185.495 117.486L166.529 122.568C150.989 126.732 134.528 118.502 130.409 103.129C126.29 87.7561 136.431 72.3982 151.963 68.2364L170.943 63.1506Z" fill="white"/>
<path d="M164.82 93.909C165.335 95.8304 165.066 97.8775 164.071 99.6002C163.077 101.323 161.438 102.58 159.517 103.095C157.596 103.609 155.549 103.34 153.826 102.345C152.103 101.351 150.846 99.7127 150.332 97.7913C149.817 95.87 150.086 93.8228 151.081 92.1002C152.075 90.3775 153.713 89.1206 155.635 88.6057C157.556 88.0909 159.603 88.3604 161.326 89.355C163.049 90.3495 164.306 91.9877 164.82 93.909Z" fill="white"/>
<path fill-rule="evenodd" clip-rule="evenodd" d="M170.943 63.148C171.425 63.0137 171.886 62.9005 172.328 62.8081C173.983 62.4656 175.667 62.4336 177.303 62.6862C173.41 51.2594 168.87 42.8634 160.381 37.9559C153.503 33.991 145.983 33.4279 137.186 34.5583L136.872 34.6037L136.596 34.4991L104.722 23.8068C99.2063 22.0038 93.285 21.8435 87.6796 23.3455C82.0742 24.8474 77.0264 27.9468 73.1509 32.2663L50.9012 57.4609L50.7067 57.6916L50.4122 57.8094C42.2284 61.229 35.9979 65.4763 32.0238 72.3491C28.0588 79.2271 27.4958 86.7466 28.6262 95.5437C29.7307 104.099 32.5551 114.64 36.1229 127.955L36.3403 128.767C39.9081 142.082 42.7344 152.63 46.0538 160.584C49.4734 168.768 53.7207 174.999 60.5935 178.973C67.4716 182.938 74.991 183.501 83.7882 182.37C92.3438 181.266 102.885 178.441 116.2 174.874L138.745 168.833C152.06 165.265 162.608 162.439 170.562 159.119C178.746 155.7 184.976 151.452 188.951 144.58C193.849 136.085 193.583 126.544 191.239 114.694C189.942 115.746 188.484 116.545 186.865 117.093C186.441 117.227 185.984 117.357 185.495 117.483L180.561 118.805C182.34 128.749 181.853 134.376 179.205 138.953C176.961 142.838 173.253 145.804 166.227 148.735C159.055 151.728 149.242 154.373 135.427 158.075L113.694 163.898C99.8786 167.6 90.0658 170.214 82.3433 171.212C74.8006 172.184 70.1058 171.47 66.2203 169.227C62.3348 166.984 59.3688 163.275 56.438 156.249C53.4448 149.077 50.8 139.264 47.0983 125.449C43.3965 111.634 40.7827 101.821 39.785 94.0989C38.8121 86.5562 39.5264 81.8614 41.7697 77.9759C44.013 74.0904 47.7217 71.1244 54.7475 68.1936C61.927 65.1984 71.732 62.5556 85.5472 58.8538L107.281 53.0304C121.096 49.3286 130.916 46.7129 138.631 45.7171C146.174 44.7443 150.869 45.4585 154.754 47.7018C159.336 50.3409 162.574 54.9783 166.003 64.4718L170.943 63.148ZM82.2298 48.0959L104.775 42.055C108.517 41.0521 112.045 40.1147 115.357 39.2427L101.143 34.4715C94.3187 32.1849 86.3498 34.3201 81.583 39.7126L71.6515 50.9536C74.9594 50.0465 78.4831 49.0946 82.2226 48.0978" fill="white"/>
<path d="M61.4222 84.7316C59.9812 85.1178 58.7526 86.0605 58.0067 87.3525C57.2608 88.6445 57.0586 90.1798 57.4447 91.6208C57.8309 93.0618 58.7736 94.2904 60.0656 95.0364C61.3576 95.7823 62.8929 95.9844 64.3339 95.5983L93.3117 87.8337C94.7527 87.4476 95.9813 86.5049 96.7272 85.2129C97.4732 83.9209 97.6753 82.3856 97.2892 80.9445C96.9031 79.5035 95.9603 78.2749 94.6684 77.529C93.3764 76.7831 91.841 76.581 90.4 76.9671L61.4222 84.7316Z" fill="white"/>
<path d="M164.82 93.909C165.335 95.8304 165.066 97.8775 164.071 99.6002C163.077 101.323 161.438 102.58 159.517 103.095C157.596 103.609 155.549 103.34 153.826 102.345C152.103 101.351 150.846 99.7127 150.332 97.7913C149.817 95.87 150.086 93.8228 151.081 92.1002C152.075 90.3775 153.713 89.1206 155.635 88.6057C157.556 88.0909 159.603 88.3604 161.326 89.355C163.049 90.3495 164.306 91.9877 164.82 93.909Z" fill="white"/>
</g>
<defs>
<clipPath id="clip0_9228_18920">
<rect width="180" height="180" fill="white" transform="translate(0 29.3672) rotate(-15)"/>
</clipPath>
</defs>
</svg>
