<svg width="14" height="14" viewBox="0 0 14 14" fill="none" xmlns="http://www.w3.org/2000/svg">
<path d="M13.948 6.974C13.948 10.8256 10.8256 13.948 6.974 13.948C3.12237 13.948 0 10.8256 0 6.974C0 3.12237 3.12237 0 6.974 0C10.8256 0 13.948 3.12237 13.948 6.974ZM1.3948 6.974C1.3948 10.0553 3.89269 12.5532 6.974 12.5532C10.0553 12.5532 12.5532 10.0553 12.5532 6.974C12.5532 3.89269 10.0553 1.3948 6.974 1.3948C3.89269 1.3948 1.3948 3.89269 1.3948 6.974Z" fill="#AF0507"/>
<circle cx="6.97411" cy="10.0327" r="0.774889" fill="#AF0507"/>
<path d="M5.89434 4.25899C5.84959 3.6325 6.34577 3.09961 6.97386 3.09961C7.60194 3.09961 8.09813 3.6325 8.05338 4.25899L7.80395 7.75091C7.77285 8.18641 7.41047 8.52383 6.97386 8.52383C6.53725 8.52383 6.17487 8.18641 6.14376 7.75091L5.89434 4.25899Z" fill="#AF0507"/>
</svg>
