<svg width="80" height="80" viewBox="0 0 80 80" fill="none" xmlns="http://www.w3.org/2000/svg">
  <rect width="80" height="80" rx="16" fill="#E80104"/>
  <path d="M33.3805 15.9766C33.1642 15.1747 32.8233 14.4712 32.3576 13.866C31.8919 13.2457 31.3098 12.7238 30.6112 12.3002C29.9293 11.8614 29.131 11.5361 28.2162 11.3243C27.3181 11.0974 26.3285 10.9839 25.2474 10.9839C22.9189 10.9839 20.9314 11.4907 19.2848 12.5044C17.6549 13.5181 16.4075 14.9781 15.5426 16.8844C14.6944 18.7906 14.2703 21.0903 14.2703 23.7833C14.2703 26.5066 14.6778 28.8365 15.4927 30.7731C16.3077 32.7096 17.5218 34.1923 19.1351 35.2211C20.7484 36.2499 22.7526 36.7643 25.1476 36.7643C27.2599 36.7643 29.0146 36.4844 30.4116 35.9246C31.8254 35.3648 32.8815 34.5706 33.58 33.5418C34.2786 32.513 34.6279 31.3026 34.6279 29.9107L37.0229 30.1377H25.3472V21.1508H48V27.5959C48 31.8321 47.0104 35.4556 45.0312 38.4664C43.0686 41.462 40.3576 43.7616 36.8981 45.3653C33.4553 46.9539 29.5052 47.7482 25.0478 47.7482C20.0748 47.7482 15.7089 46.7875 11.9501 44.8661C8.19127 42.9447 5.25572 40.2062 3.14345 36.6508C1.04782 33.0954 0 28.8668 0 23.9649C0 20.122 0.640333 16.7179 1.921 13.7526C3.2183 10.7872 5.01455 8.28332 7.30977 6.24086C9.60499 4.18326 12.2578 2.63251 15.2682 1.58858C18.2786 0.529527 21.5052 0 24.948 0C27.975 0 30.7859 0.393364 33.3805 1.18009C35.9917 1.95169 38.2952 3.05613 40.2911 4.49342C42.3035 5.91557 43.9252 7.6025 45.1559 9.55418C46.3867 11.5059 47.1351 13.6467 47.4012 15.9766H33.3805Z" fill="white" transform="translate(16, 16.126)"/>
</svg>
