<svg width="80" height="27" viewBox="0 0 80 27" fill="none" xmlns="http://www.w3.org/2000/svg">
<path d="M34.6646 23C32.7813 22.9339 31.3582 22.4824 30.3952 21.6454C29.4322 20.7863 28.7366 19.8282 28.3086 18.7709C27.8806 17.6916 27.6666 16.6013 27.6666 15.5C27.6666 14.3546 27.8699 13.2533 28.2765 12.196C28.7045 11.1167 29.4001 10.1586 30.3631 9.32159C31.3475 8.46256 32.5887 8.02203 34.0868 8H37.9132C39.4112 8.02203 40.6417 8.46256 41.6047 9.32159C42.5892 10.1586 43.2847 11.1167 43.6913 12.196C44.1193 13.2533 44.3333 14.3546 44.3333 15.5C44.3333 16.6013 44.1193 17.6916 43.6913 18.7709C43.2633 19.8282 42.5678 20.7863 41.6047 21.6454C40.6417 22.4824 39.2186 22.9339 37.3353 23H34.6646ZM33.9584 12.4273C33.5517 12.4273 33.1986 12.6035 32.899 12.9559C32.5994 13.2863 32.3747 13.6828 32.2249 14.1454C32.0965 14.5859 32.0323 15.0264 32.0323 15.467C32.0323 15.9295 32.0965 16.3921 32.2249 16.8546C32.3747 17.2952 32.5994 17.6916 32.899 18.0441C33.1986 18.3744 33.5517 18.5507 33.9584 18.5727H38.0416C38.4482 18.5507 38.8013 18.3744 39.1009 18.0441C39.4005 17.6916 39.6145 17.2952 39.7429 16.8546C39.8927 16.3921 39.9676 15.9295 39.9676 15.467C39.9676 15.0264 39.8927 14.5859 39.7429 14.1454C39.6145 13.6828 39.4005 13.2863 39.1009 12.9559C38.8013 12.6035 38.4482 12.4273 38.0416 12.4273H33.9584Z" fill="#E80104"/>
<path d="M64.6646 23C62.7813 22.9339 61.3582 22.4824 60.3952 21.6454C59.4322 20.7863 58.7366 19.8282 58.3086 18.7709C57.8806 17.6916 57.6666 16.6013 57.6666 15.5C57.6666 14.3546 57.8699 13.2533 58.2765 12.196C58.7045 11.1167 59.4001 10.1586 60.3631 9.32159C61.3475 8.46256 62.5887 8.02203 64.0868 8H67.9132C69.4112 8.02203 70.6417 8.46256 71.6047 9.32159C72.5892 10.1586 73.2847 11.1167 73.6913 12.196C74.1193 13.2533 74.3333 14.3546 74.3333 15.5C74.3333 16.6013 74.1193 17.6916 73.6913 18.7709C73.2633 19.8282 72.5678 20.7863 71.6047 21.6454C70.6417 22.4824 69.2186 22.9339 67.3353 23H64.6646ZM63.9584 12.4273C63.5517 12.4273 63.1986 12.6035 62.899 12.9559C62.5994 13.2863 62.3747 13.6828 62.2249 14.1454C62.0965 14.5859 62.0323 15.0264 62.0323 15.467C62.0323 15.9295 62.0965 16.3921 62.2249 16.8546C62.3747 17.2952 62.5994 17.6916 62.899 18.0441C63.1986 18.3744 63.5517 18.5507 63.9584 18.5727H68.0416C68.4482 18.5507 68.8013 18.3744 69.1009 18.0441C69.4005 17.6916 69.6145 17.2952 69.7429 16.8546C69.8927 16.3921 69.9676 15.9295 69.9676 15.467C69.9676 15.0264 69.8927 14.5859 69.7429 14.1454C69.6145 13.6828 69.4005 13.2863 69.1009 12.9559C68.8013 12.6035 68.4482 12.4273 68.0416 12.4273H63.9584Z" fill="#E80104"/>
<path d="M12.7958 3H23.6555C24.2897 3.0226 24.8107 3.25989 25.2185 3.71186C25.6489 4.16384 25.8641 4.70621 25.8641 5.33898C25.7508 6.69492 25.0146 7.42938 23.6555 7.54237H13.9511C13.0903 7.58757 12.3767 7.91525 11.8104 8.52542C11.2441 9.13559 10.825 9.83616 10.5532 10.6271C10.304 11.3955 10.1794 12.1864 10.1794 13C10.1794 13.8136 10.304 14.6158 10.5532 15.4068C10.825 16.1751 11.2441 16.8644 11.8104 17.4746C12.3767 18.0847 13.0903 18.4124 13.9511 18.4576H20.8012C21.209 18.435 21.4242 18.209 21.4468 17.7797V15.8136C21.4242 15.3616 21.209 15.1356 20.8012 15.1356H15.5821C14.9478 15.1356 14.4041 14.9209 13.9511 14.4915C13.5207 14.0395 13.3055 13.4972 13.3055 12.8644C13.3055 12.2316 13.5207 11.6893 13.9511 11.2373C14.4041 10.8079 14.9478 10.5932 15.5821 10.5932H23.7234C24.3577 10.5932 24.9013 10.8079 25.3544 11.2373C25.7621 11.6667 25.9773 12.1864 26 12.7966V20.7966C25.9773 21.4068 25.7621 21.9153 25.3544 22.322C24.924 22.7514 24.403 22.9774 23.7914 23H12.7958C11.2101 22.9096 9.89625 22.3107 8.85423 21.2034C7.83486 20.0734 7.09865 18.7966 6.6456 17.3729C6.2152 15.9492 6 14.4915 6 13C6 11.5085 6.22653 10.0508 6.67958 8.62712C7.13263 7.20339 7.86884 5.93785 8.88821 4.83051C9.90758 3.70056 11.2101 3.0904 12.7958 3Z" fill="#E80104"/>
<path d="M46.8333 10.9167H55.1666M50.1666 8V18C50.1666 20.4747 52.6666 21.3333 54.3332 20.5" stroke="#E80104" stroke-width="4.16667" stroke-linecap="round"/>
</svg>
