<?xml version="1.0" encoding="UTF-8"?>
<svg width="128" height="128" viewBox="0 0 128 128" fill="none" xmlns="http://www.w3.org/2000/svg">
  <title>Hamburg Anchor crest</title>
  <defs>
    <linearGradient id="g" x1="18" y1="8" x2="112" y2="122" gradientUnits="userSpaceOnUse">
      <stop stop-color="#0F766E"/>
      <stop offset="1" stop-color="#083344"/>
    </linearGradient>
    <filter id="s" x="0" y="0" width="128" height="128" color-interpolation-filters="sRGB">
      <feDropShadow dx="0" dy="5" stdDeviation="5" flood-color="#05070A" flood-opacity="0.28"/>
    </filter>
  </defs>
  <path filter="url(#s)" d="M64 7L108 22V57C108 86 91 109 64 121C37 109 20 86 20 57V22L64 7Z" fill="url(#g)"/>
  <path d="M64 15L99 27V58C99 82 86 101 64 112C42 101 29 82 29 58V27L64 15Z" stroke="rgba(255,255,255,0.48)" stroke-width="3"/>
  <path d="M59 34H69V47H83V56H69V88C78 85 84 78 86 69L97 72C93 91 80 103 64 103C48 103 35 91 31 72L42 69C44 78 50 85 59 88V56H45V47H59V34Z" fill="#CFFAFE" opacity="0.96"/>
  <circle cx="64" cy="66" r="25" fill="rgba(3,7,18,0.24)"/>
  <text x="64" y="75" text-anchor="middle" font-family="Inter, Arial, sans-serif" font-size="24" font-weight="800" letter-spacing="0" fill="#FFFFFF">HA</text>
</svg>
