<svg width="48" height="48" viewBox="0 0 48 48" fill="none" xmlns="http://www.w3.org/2000/svg">
<path d="M8 0.25H40C44.2802 0.25 47.75 3.71979 47.75 8V40C47.75 44.2802 44.2802 47.75 40 47.75H8C3.71979 47.75 0.25 44.2802 0.25 40V8C0.250001 3.71979 3.71979 0.25 8 0.25Z" fill="url(#paint0_linear_9213_108206)"/>
<path d="M8 0.25H40C44.2802 0.25 47.75 3.71979 47.75 8V40C47.75 44.2802 44.2802 47.75 40 47.75H8C3.71979 47.75 0.25 44.2802 0.25 40V8C0.250001 3.71979 3.71979 0.25 8 0.25Z" stroke="#FFC31D" stroke-width="0.5"/>
<path d="M31.9771 33.0956H15.9647C15.4541 33.0956 15.0409 33.4766 15.0409 33.9474C15.0409 34.4182 15.4541 34.7992 15.9647 34.7992H31.977C32.4877 34.7992 32.9015 34.4182 32.9015 33.9474C32.9015 33.4766 32.4877 33.0956 31.9771 33.0956ZM34.2096 26.194C35.5437 22.6348 34.5404 19.0855 31.9686 18.2664C31.1302 17.9996 30.2292 18.0551 29.3487 18.3751L29.8275 19.9922C30.3574 19.7743 30.8848 19.7244 31.3678 19.878C32.9755 20.3898 33.4668 22.968 32.4654 25.6372C31.7108 27.6474 30.325 29.1359 29 29.5297C29.9078 28.275 30.4374 26.7687 30.4374 25.1453C30.4374 21.7585 28.1368 18.8741 24.9001 17.7299L26.5845 16.1767C26.8245 15.9549 26.8245 15.5955 26.5845 15.3737L24.4067 13.3656C24.1661 13.1438 23.7758 13.1438 23.5352 13.3656L21.358 15.3737C21.1174 15.5955 21.1174 15.9549 21.358 16.1767L23.0417 17.7297C19.8052 18.8739 17.5045 21.7584 17.5045 25.1453C17.5045 26.7113 17.9975 28.1681 18.8472 29.3955C17.5522 29.0382 16.185 27.5535 15.4469 25.5363C14.4828 22.9026 14.9555 20.3588 16.503 19.8541C16.9673 19.7027 17.475 19.7521 17.9856 19.9661L18.4457 18.3712C17.5989 18.0557 16.7316 18.0008 15.9245 18.2636C13.4495 19.0722 12.4842 22.5737 13.7683 26.0853C14.436 27.9114 15.5809 29.3802 16.8741 30.2562H15.9647C15.4541 30.2562 15.0409 30.6372 15.0409 31.108C15.0409 31.5789 15.4541 31.9599 15.9647 31.9599H31.977C32.4877 31.9599 32.9015 31.5789 32.9015 31.108C32.9015 30.6372 32.4877 30.2562 31.977 30.2562H31.2216C32.4665 29.3547 33.5571 27.9345 34.2096 26.194ZM25.7025 30.2562H22.2391C20.4939 29.1274 19.3521 27.2609 19.3521 25.1453C19.3521 22.3907 21.2876 20.0582 23.9706 19.2269C26.6543 20.0582 28.5904 22.3907 28.5904 25.1453C28.5903 27.2609 27.4482 29.1274 25.7025 30.2562Z" fill="#FFC31D"/>
<defs>
<linearGradient id="paint0_linear_9213_108206" x1="46" y1="46.5" x2="3.5" y2="2" gradientUnits="userSpaceOnUse">
<stop stop-color="#2A303C"/>
<stop offset="0.5" stop-color="#20190A"/>
<stop offset="1" stop-color="#B18118"/>
</linearGradient>
</defs>
</svg>
