<svg width="20" height="20" viewBox="0 0 20 20" fill="none" xmlns="http://www.w3.org/2000/svg">
<path fill-rule="evenodd" clip-rule="evenodd" d="M16.3 2.97432V6.18646C16.6546 6.18646 17.0057 6.26295 17.3333 6.41154C17.6609 6.56014 17.9586 6.77794 18.2093 7.05251C18.46 7.32708 18.6589 7.65304 18.7946 8.01179C18.9303 8.37053 19.0001 8.75503 19.0001 9.14333C19.0001 9.53163 18.9303 9.91613 18.7946 10.2749C18.6589 10.6336 18.46 10.9596 18.2093 11.2342C17.9586 11.5087 17.6609 11.7265 17.3333 11.8751C17.0057 12.0237 16.6546 12.1002 16.3 12.1002V15.0571C16.3 16.6814 14.607 17.6088 13.4199 16.6341L11.5658 15.1103C10.5747 14.2966 9.42079 13.7533 8.19969 13.5254V16.3285C8.19979 16.9729 7.98719 17.5955 7.60107 18.0817C7.21496 18.5679 6.68137 18.8849 6.09866 18.9742C5.51595 19.0635 4.92339 18.9191 4.43023 18.5677C3.93707 18.2163 3.57654 17.6814 3.4151 17.0618L2.00204 11.6448C1.49354 10.9872 1.16261 10.1873 1.04646 9.33504C0.930311 8.48277 1.03354 7.61191 1.34455 6.82036C1.65556 6.0288 2.16201 5.34794 2.80699 4.85429C3.45196 4.36065 4.20988 4.0738 4.99556 4.02598L7.71187 3.8604C9.0409 3.77956 10.3334 3.35426 11.483 2.6195L13.5927 1.27117C14.7934 0.505341 16.3 1.45252 16.3 2.97432ZM4.27013 13.1627L5.14587 16.5207C5.18801 16.6833 5.28244 16.8236 5.41171 16.9159C5.54099 17.0081 5.69637 17.046 5.84918 17.0226C6.00199 16.9992 6.1419 16.916 6.24307 16.7884C6.34424 16.6608 6.39985 16.4975 6.39962 16.3285V13.3618L4.99556 13.276C4.75134 13.2599 4.50873 13.222 4.27013 13.1627ZM14.4999 2.97432L12.3894 4.32364C11.1077 5.1434 9.67763 5.646 8.19969 5.79616V11.5315C9.80805 11.774 11.339 12.4609 12.6459 13.5333L14.4999 15.0571V2.97432ZM6.39962 5.91443L5.09456 5.99328C4.48744 6.02999 3.91495 6.31462 3.49008 6.79097C3.06522 7.26732 2.81887 7.90078 2.79966 8.56632C2.78044 9.23186 2.98976 9.8811 3.3863 10.3859C3.78283 10.8907 4.33777 11.2143 4.94156 11.293L5.09456 11.3078L6.39962 11.3866V5.91443ZM16.3 8.15771V10.129C16.5294 10.1287 16.7501 10.0325 16.9169 9.86003C17.0837 9.68757 17.1841 9.45188 17.1975 9.20109C17.2109 8.95031 17.1364 8.70337 16.9892 8.51073C16.842 8.31808 16.6331 8.19428 16.4053 8.16461L16.3 8.15771Z" fill="#2A303C"/>
</svg>
