<svg width="20" height="20" viewBox="0 0 20 20" fill="none" xmlns="http://www.w3.org/2000/svg">
<path d="M10 19C8.75733 19 7.58867 18.7633 6.494 18.29C5.39933 17.816 4.447 17.174 3.637 16.364C2.82633 15.5533 2.18433 14.6007 1.711 13.506C1.237 12.4113 1 11.2427 1 10C1 8.75733 1.23667 7.58867 1.71 6.494C2.18333 5.39933 2.82567 4.447 3.637 3.637C4.44833 2.827 5.40067 2.18467 6.494 1.71C7.58933 1.23667 8.758 1 10 1C11.242 1 12.4107 1.23667 13.506 1.71C14.6007 2.184 15.553 2.82633 16.363 3.637C17.1737 4.447 17.8157 5.39933 18.289 6.494C18.763 7.58933 19 8.758 19 10C19 11.242 18.7633 12.4107 18.29 13.506C17.816 14.6007 17.174 15.553 16.364 16.363C15.5533 17.1737 14.6007 17.8157 13.506 18.289C12.4113 18.763 11.2427 19 10 19ZM9.5 17.983V16.136C8.82667 16.0913 8.19667 15.9427 7.61 15.69C7.02333 15.4373 6.49067 15.106 6.012 14.696L4.696 15.998C5.34867 16.572 6.081 17.0353 6.893 17.388C7.705 17.7407 8.574 17.939 9.5 17.983ZM10.5 17.983C11.426 17.9377 12.2917 17.739 13.097 17.387C13.903 17.035 14.6323 16.572 15.285 15.998L13.989 14.696C13.509 15.106 12.9757 15.4373 12.389 15.69C11.8023 15.9433 11.1727 16.092 10.5 16.136V17.983ZM10 15.173C11.4347 15.173 12.6557 14.6697 13.663 13.663C14.6703 12.6563 15.1737 11.4353 15.173 10C15.1723 8.56467 14.669 7.344 13.663 6.338C12.657 5.332 11.436 4.82833 10 4.827C8.564 4.82567 7.34333 5.329 6.338 6.337C5.33267 7.345 4.829 8.566 4.827 10C4.825 11.434 5.32833 12.655 6.337 13.663C7.34567 14.671 8.56667 15.1743 10 15.173ZM15.998 15.303C16.5727 14.651 17.036 13.919 17.388 13.107C17.74 12.295 17.9383 11.426 17.983 10.5H16.136C16.0913 11.1733 15.9427 11.8033 15.69 12.39C15.4373 12.9767 15.106 13.5093 14.696 13.988L15.998 15.303ZM4.002 15.303L5.304 13.983C4.894 13.503 4.56267 12.9707 4.31 12.386C4.05667 11.8013 3.908 11.1727 3.864 10.5H2.017C2.06233 11.4253 2.261 12.2943 2.613 13.107C2.965 13.9197 3.428 14.652 4.002 15.304M10 13.423L7.423 10L10 6.577L12.558 10L10 13.423ZM2.017 9.5H3.863C3.90833 8.82667 4.057 8.198 4.309 7.614C4.56233 7.02867 4.894 6.49633 5.304 6.017L4.002 4.716C3.428 5.368 2.96467 6.097 2.612 6.903C2.25933 7.709 2.06033 8.57467 2.017 9.5ZM16.138 9.5H17.984C17.9393 8.57467 17.74 7.709 17.386 6.903C17.032 6.097 16.5677 5.368 15.993 4.716L14.697 6.012C15.1077 6.49133 15.4393 7.02433 15.692 7.611C15.944 8.19767 16.0927 8.82733 16.138 9.5ZM6.017 5.304C6.497 4.89333 7.02933 4.56167 7.614 4.309C8.198 4.057 8.82667 3.90833 9.5 3.863V2.018C8.57467 2.06333 7.70567 2.262 6.893 2.614C6.08033 2.966 5.348 3.42867 4.696 4.002L6.017 5.304ZM13.989 5.304L15.285 4.008C14.6317 3.43333 13.9023 2.969 13.097 2.615C12.2917 2.26167 11.426 2.06233 10.5 2.017V3.863C11.1733 3.90833 11.8033 4.057 12.39 4.309C12.9767 4.56233 13.5097 4.894 13.989 5.304Z" fill="#495266"/>
</svg>
