<svg width="20" height="20" viewBox="0 0 20 20" fill="none" xmlns="http://www.w3.org/2000/svg">
<path fill-rule="evenodd" clip-rule="evenodd" d="M7.03097 13.7688L6.66697 18.6271C6.64139 18.9685 6.94489 19.2036 7.21634 19.0515C9.13834 17.9749 15.1589 14.0206 18.2103 5.32976C18.3503 4.93109 17.9743 4.57134 17.6532 4.79622C15.8508 6.05851 10.769 10.4298 8.33464 10.9267C8.33464 10.9267 11.0361 8.08172 11.9693 6.41951C12.0607 6.25655 12.0531 6.04797 11.9511 5.90088L8.54826 0.996142C8.34659 0.705396 7.93272 0.825859 7.85989 1.19646L6.80051 6.58697L1.82812 10.9267C1.57881 11.1442 1.62967 11.5838 1.91751 11.7002L7.03097 13.7688Z" fill="#495266"/>
<path fill-rule="evenodd" clip-rule="evenodd" d="M15.8208 11.854C15.506 12.2934 14.8276 13.1972 14.2013 13.7496C14.0761 13.86 14.093 14.0452 14.2366 14.1354L17.5458 16.2128C17.745 16.3378 18.0141 16.1894 17.9805 15.9725C17.8265 14.9797 17.383 12.9098 16.2618 11.8233C16.1365 11.702 15.9207 11.7147 15.8208 11.854Z" fill="#495266"/>
<path d="M13.4848 1.49833C13.475 1.31293 13.7011 1.21533 13.8292 1.34965L14.6905 2.2523C14.7308 2.29453 14.7875 2.31706 14.8458 2.31396L16.0916 2.24773C16.277 2.23787 16.3747 2.46398 16.2403 2.59214L15.3377 3.45339C15.2954 3.49369 15.2729 3.55042 15.276 3.60871L15.3423 4.85456C15.3521 5.03996 15.126 5.13756 14.9978 5.00324L14.1366 4.10059C14.0963 4.05835 14.0396 4.03583 13.9813 4.03893L12.7354 4.10516C12.55 4.11502 12.4524 3.88891 12.5867 3.76074L13.4894 2.8995C13.5316 2.8592 13.5541 2.80247 13.551 2.74418L13.4848 1.49833Z" fill="#495266"/>
</svg>
