<svg width="20" height="20" viewBox="0 0 20 20" fill="none" xmlns="http://www.w3.org/2000/svg">
<path d="M10.4167 3.5H9.58333C9.2625 3.5 9 3.36875 9 3.20833V2.79167C9 2.63125 9.2625 2.5 9.58333 2.5H10.4167C10.7375 2.5 11 2.63125 11 2.79167V3.20833C11 3.36875 10.7375 3.5 10.4167 3.5Z" fill="#495266"/>
<path d="M8.59928 3.3V2.7C8.59928 2.4725 8.75632 2.27 9 2.1425C8.88809 1.8 7.15523 1 6.57762 1C6.25993 1 6 1.18 6 1.4V4.6C6 4.82 6.25812 5 6.57762 5C7.15523 5 8.88809 4.2 9 3.8575C8.75632 3.73 8.59928 3.5275 8.59928 3.3Z" fill="#495266"/>
<path d="M13.4224 1C12.8448 1 11.1119 1.8 11 2.1425C11.2437 2.27 11.4007 2.4725 11.4007 2.7V3.3C11.4007 3.5275 11.2437 3.73 11 3.8575C11.1119 4.2 12.8448 5 13.4224 5C13.7419 5 14 4.82 14 4.6V1.4C14 1.18 13.7401 1 13.4224 1Z" fill="#495266"/>
<path d="M17.4504 4.00054C17.9874 4.00065 18.4284 4.42481 18.4494 4.96135L18.9592 17.9608C18.9815 18.528 18.5277 19 17.96 19H9.55906C8.83024 19 8.34623 18.2454 8.65016 17.583L14.6148 4.58311C14.7778 4.22779 15.133 4.00005 15.5239 4.00013L17.4504 4.00054Z" fill="#495266"/>
<path d="M2.54958 4.00054C2.01263 4.00065 1.5716 4.42481 1.55056 4.96135L1.04075 17.9608C1.01851 18.528 1.47233 19 2.03999 19H10.4409C11.1698 19 11.6538 18.2454 11.3498 17.583L5.38519 4.58311C5.22216 4.22779 4.86702 4.00005 4.47609 4.00013L2.54958 4.00054Z" fill="#495266"/>
</svg>
