<svg width="20" height="20" viewBox="0 0 20 20" fill="none" xmlns="http://www.w3.org/2000/svg">
<path d="M4.00037 8.87988C4.06917 8.8802 4.12537 8.93607 4.12537 9.00488V14.0029C4.12521 14.072 4.06847 14.1281 3.99939 14.1279L3.09314 14.125H3.09021C1.98037 14.125 0.89399 13.0626 0.893921 11.5029C0.893921 9.89262 1.90152 8.87587 2.96716 8.875L4.00037 8.87988ZM17.0472 8.87891C18.1159 8.87891 19.1253 9.89319 19.1254 11.501C19.1254 13.0609 18.04 14.1229 16.9291 14.123H16.9261L16.0004 14.126C15.9312 14.1261 15.8754 14.0701 15.8754 14.001V9.00684C15.8754 8.93806 15.9307 8.88223 15.9994 8.88184L17.0472 8.87891Z" stroke="#2A303C" stroke-width="1.75"/>
<path d="M3.00786 9.22913C2.96005 8.28521 3.10388 7.34138 3.43069 6.45455C3.75749 5.56772 4.2605 4.75625 4.90939 4.06907C5.55828 3.3819 6.33961 2.83324 7.20627 2.45618C8.07293 2.07913 9.00697 1.88148 9.95208 1.87516C10.8972 1.86884 11.8338 2.05397 12.7054 2.4194C13.577 2.78483 14.3656 3.32299 15.0237 4.00143C15.6817 4.67986 16.1955 5.48453 16.5342 6.36691C16.8728 7.24929 17.0292 8.19111 16.994 9.13558" stroke="#2A303C" stroke-width="2"/>
<path d="M6.875 12C8.70198 13.4616 11.298 13.4616 13.125 12" stroke="#2A303C" stroke-width="1.4" stroke-linecap="round"/>
<path d="M7.99988 18C7.99988 17.4477 8.44759 17 8.99988 17H10.9999C11.5522 17 11.9999 17.4477 11.9999 18C11.9999 18.5523 11.5522 19 10.9999 19H8.99988C8.44759 19 7.99988 18.5523 7.99988 18Z" fill="#2A303C"/>
<path d="M3.49976 14.5L3.70101 14.9696C4.48891 16.808 6.2966 18 8.29674 18H8.99976" stroke="#2A303C" stroke-width="1.4" stroke-linecap="round"/>
</svg>
