<svg width="20" height="20" viewBox="0 0 20 20" fill="none" xmlns="http://www.w3.org/2000/svg">
<path d="M4.3086 10.7178C4.30861 10.3224 4.62909 10.002 5.02442 10.002H15.0406C15.4359 10.002 15.7564 10.3224 15.7564 10.7178C15.7564 11.1131 15.4359 11.4336 15.0406 11.4336H5.02442C4.62908 11.4336 4.3086 11.1131 4.3086 10.7178ZM4.3086 14.3107C4.30861 13.9211 4.62444 13.6053 5.01403 13.6053C5.40363 13.6053 5.71946 13.9211 5.71946 14.3107C5.71946 14.7003 5.40363 15.0162 5.01403 15.0162C4.62443 15.0162 4.3086 14.7003 4.3086 14.3107ZM6.44858 14.2908C6.44858 13.9013 6.76441 13.5854 7.154 13.5854C7.5436 13.5854 7.85943 13.9013 7.85943 14.2908C7.85943 14.6804 7.5436 14.9963 7.154 14.9963C6.76441 14.9963 6.44858 14.6804 6.44858 14.2908Z" fill="#2A303C"/>
<path d="M6.80283 10.0012C6.25269 9.3826 5.8931 8.61818 5.76736 7.79997C5.64162 6.98176 5.75509 6.14464 6.0941 5.38943C6.43312 4.63422 6.98323 3.99311 7.67818 3.54331C8.37314 3.09352 9.18331 2.85421 10.0111 2.85421C10.8389 2.85421 11.6491 3.09352 12.3441 3.54331C13.039 3.99311 13.5891 4.63422 13.9281 5.38943C14.2672 6.14464 14.3806 6.98176 14.2549 7.79997C14.1291 8.61818 13.7696 9.3826 13.2194 10.0012H14.9745C15.4741 9.13339 15.7362 8.14927 15.7344 7.14793C15.7358 3.98647 13.1725 1.42383 10.0112 1.42383C6.84998 1.42383 4.28712 3.98647 4.28712 7.14795C4.28533 8.14928 4.54745 9.1334 5.04708 10.0012H6.80283Z" fill="#2A303C"/>
<path d="M5.5 7H4C2.89543 7 2 7.89543 2 9V16C2 17.1046 2.89543 18 4 18H16C17.1046 18 18 17.1046 18 16V9C18 7.89543 17.1046 7 16 7H14.5" stroke="#2A303C" stroke-width="1.5"/>
<path d="M11.4658 7.74892C11.4658 7.94987 11.4155 8.14244 11.3151 8.32664C11.2146 8.50666 11.066 8.65737 10.8692 8.77877C10.6766 8.90018 10.4443 8.96925 10.1722 8.986V9.49465H9.83308V8.986C9.45212 8.95251 9.14232 8.8311 8.9037 8.62178C8.66507 8.40828 8.54367 8.13825 8.53948 7.81172H9.1486C9.16535 7.98754 9.23024 8.14035 9.34327 8.27013C9.46049 8.3999 9.62376 8.48154 9.83308 8.51503V6.94513C9.55259 6.87396 9.32653 6.8007 9.15488 6.72535C8.98324 6.64999 8.83672 6.53277 8.71531 6.37369C8.59391 6.2146 8.5332 6.0011 8.5332 5.73317C8.5332 5.39407 8.65042 5.11358 8.88486 4.8917C9.12349 4.66982 9.43956 4.54632 9.83308 4.52121V4H10.1722V4.52121C10.528 4.55051 10.8148 4.66564 11.0325 4.86658C11.2502 5.06334 11.3758 5.32081 11.4093 5.63897H10.8001C10.7792 5.49245 10.7143 5.36058 10.6055 5.24336C10.4966 5.12195 10.3522 5.04241 10.1722 5.00474V6.53696C10.4485 6.60813 10.6725 6.68139 10.8441 6.75674C11.0199 6.82791 11.1664 6.94304 11.2837 7.10212C11.4051 7.2612 11.4658 7.4768 11.4658 7.74892ZM9.11721 5.70177C9.11721 5.9069 9.17791 6.06389 9.29931 6.17274C9.42072 6.28159 9.59864 6.37159 9.83308 6.44276V4.99218C9.61539 5.01311 9.44165 5.08428 9.31187 5.20568C9.18209 5.3229 9.11721 5.48826 9.11721 5.70177ZM10.1722 8.52131C10.3982 8.49619 10.5741 8.41456 10.6997 8.27641C10.8294 8.13825 10.8943 7.97289 10.8943 7.78032C10.8943 7.57518 10.8315 7.41819 10.7059 7.30935C10.5804 7.19631 10.4024 7.10631 10.1722 7.03932V8.52131Z" fill="#2A303C"/>
</svg>
