<svg width="20" height="20" viewBox="0 0 20 20" fill="none" xmlns="http://www.w3.org/2000/svg">
<g clip-path="url(#clip0_20708_47864)">
<path d="M3.02979 4.76953H16.9598V16.5395H3.02979V4.76953Z" fill="white"/>
<path d="M18.9 0H1.1C0.5 0 0 0.5 0 1.1V18.9C0 19.51 0.5 20 1.1 20H18.9C19.51 20 20 19.5 20 18.9V1.1C20 0.5 19.5 0 18.9 0ZM15.85 12.83C15.85 13.64 15.19 14.29 14.39 14.29H5.61C4.8 14.29 4.15 13.64 4.15 12.83V7.17C4.15 6.36 4.8 5.71 5.61 5.71H14.38C15.19 5.71 15.84 6.36 15.84 7.17L15.85 12.83Z" fill="#068547"/>
<path d="M13.9102 8.33977L10.0002 10.8598L6.09022 8.33977C5.91022 8.21977 5.67022 8.27978 5.55022 8.45978C5.43022 8.63978 5.49022 8.87977 5.67022 8.99977L9.79022 11.6498C9.85022 11.6898 9.93022 11.7098 10.0002 11.7098C10.0702 11.7098 10.1502 11.6898 10.2102 11.6498L14.3302 8.99977C14.4159 8.94256 14.4763 8.85446 14.4986 8.75386C14.521 8.65326 14.5036 8.54791 14.4502 8.45978C14.393 8.37406 14.3049 8.31374 14.2043 8.29138C14.1037 8.26903 13.9984 8.28636 13.9102 8.33977Z" fill="#068547"/>
</g>
<defs>
<clipPath id="clip0_20708_47864">
<path d="M0 9.99997C0 4.47714 4.47717 0 10 0C15.5228 0 20 4.47714 20 9.99997C20 15.5228 15.5228 19.9999 10 19.9999C4.47717 19.9999 0 15.5228 0 9.99997Z" fill="white"/>
</clipPath>
</defs>
</svg>
