<svg width="30" height="30" viewBox="0 0 30 30" fill="none" xmlns="http://www.w3.org/2000/svg">
<path d="M11.6641 10.2108C11.2051 10.2108 10.7754 10.118 10.375 9.93248C9.97461 9.74694 9.61816 9.48815 9.30566 9.15611C8.99316 8.82408 8.75879 8.45299 8.60254 8.04283C8.44629 7.63268 8.3584 7.19811 8.33887 6.73912C8.33887 6.16295 8.45605 5.62584 8.69043 5.12779C8.9248 4.62975 9.24707 4.19029 9.65723 3.80943C10.0674 3.42857 10.5264 3.13072 11.0342 2.91587C11.542 2.70103 12.0889 2.58873 12.6748 2.57896C13.4951 2.57896 14.2227 2.74986 14.8574 3.09166C15.4922 3.43345 16.0342 3.89244 16.4834 4.46861C16.9326 5.04478 17.2646 5.68932 17.4795 6.40221C17.6943 7.1151 17.8115 7.8524 17.8311 8.61412C17.8311 9.63951 17.665 10.5965 17.333 11.4852C17.001 12.3739 16.5469 13.1893 15.9707 13.9315C15.3945 14.6737 14.7061 15.3182 13.9053 15.8651C13.1045 16.412 12.2549 16.8856 11.3564 17.286C11.2686 17.325 11.1562 17.3446 11.0195 17.3446C10.7949 17.3446 10.6045 17.2664 10.4482 17.1102C10.292 16.9539 10.2139 16.7586 10.2139 16.5243C10.2139 16.1727 10.3799 15.9188 10.7119 15.7626C11.4541 15.411 12.1377 15.035 12.7627 14.6346C13.3877 14.2342 13.9395 13.7704 14.418 13.243C14.8965 12.7157 15.2822 12.12 15.5752 11.4559C15.8682 10.7919 16.0635 10.0204 16.1611 9.14147C16.1709 9.04381 16.1758 8.95104 16.1758 8.86315C16.1758 8.77526 16.1807 8.6776 16.1904 8.57018C16.1904 8.06237 16.1172 7.54967 15.9707 7.03209C15.8242 6.51451 15.6045 6.04576 15.3115 5.62584C15.0186 5.20592 14.6523 4.869 14.2129 4.61509C13.7734 4.36119 13.2607 4.22935 12.6748 4.21959C12.3428 4.21959 12.0156 4.28306 11.6934 4.41002C11.3711 4.53697 11.083 4.71763 10.8291 4.95201C10.5752 5.18638 10.3701 5.45006 10.2139 5.74303C10.0576 6.036 9.97949 6.36803 9.97949 6.73912C9.97949 6.96373 10.0234 7.18346 10.1113 7.3983C10.1992 7.61315 10.3164 7.80846 10.4629 7.98424C10.6094 8.16002 10.79 8.30162 11.0049 8.40905C11.2197 8.51647 11.4443 8.57018 11.6787 8.57018C11.9131 8.57018 12.0986 8.536 12.2354 8.46764C12.3721 8.39928 12.4844 8.30162 12.5723 8.17467C12.6602 8.04772 12.7285 7.92565 12.7773 7.80846C12.8262 7.69127 12.8848 7.5692 12.9531 7.44225C13.0215 7.3153 13.1045 7.22252 13.2021 7.16393C13.2998 7.10533 13.4414 7.06627 13.627 7.04674C13.8516 7.04674 14.0469 7.12975 14.2129 7.29576C14.3789 7.46178 14.4619 7.65709 14.4619 7.8817C14.4619 7.93053 14.4521 7.99401 14.4326 8.07213C14.3545 8.38463 14.2275 8.67272 14.0518 8.93639C13.876 9.20006 13.6611 9.42467 13.4072 9.61022C13.1533 9.79576 12.8848 9.94225 12.6016 10.0497C12.3184 10.1571 12.0059 10.2108 11.6641 10.2108ZM24.4716 11.8368C24.5248 11.8368 24.5758 11.858 24.6133 11.8956L27.9099 15.2042C28.2737 15.5694 28.2732 16.1603 27.9086 16.5248C27.5445 16.8889 26.9545 16.8899 26.5891 16.527L25.4376 15.3834C25.3114 15.2581 25.0967 15.3475 25.0967 15.5253V27.7117C25.0967 28.264 24.649 28.7117 24.0967 28.7117H5.47168C4.9194 28.7117 4.47168 28.264 4.47168 27.7117V15.5253C4.47168 15.3475 4.25693 15.2581 4.13074 15.3834L2.97925 16.527C2.61388 16.8899 2.02384 16.8889 1.65971 16.5248C1.29517 16.1603 1.29463 15.5694 1.6585 15.2042L4.95505 11.8956C4.99258 11.858 5.04356 11.8368 5.09673 11.8368H12.7099C12.8805 11.8368 12.9707 12.0351 12.8521 12.1578C12.5911 12.4279 12.3123 12.6725 12.0156 12.8915C11.6177 13.1852 11.1876 13.4513 10.7254 13.6898C10.6973 13.7043 10.6661 13.7118 10.6345 13.7118H6.54668C6.43622 13.7118 6.34668 13.8013 6.34668 13.9118V26.4367C6.34668 26.6577 6.52577 26.8367 6.74668 26.8367H22.8217C23.0426 26.8367 23.2217 26.6577 23.2217 26.4367V13.9118C23.2217 13.8013 23.1321 13.7118 23.0217 13.7118H18.7108C18.5588 13.7118 18.462 13.5487 18.5312 13.4133C18.6365 13.2074 18.7351 12.9993 18.8271 12.7889C18.9445 12.5206 19.0511 12.2487 19.1469 11.9732C19.1752 11.8919 19.2514 11.8368 19.3375 11.8368H24.4716Z" fill="#6D7D98"/>
<path d="M23.9632 5.73247C23.7132 5.68587 23.4805 5.58592 23.265 5.43261C23.1045 5.31845 22.9757 5.18886 22.8786 5.04383C22.7815 4.89879 22.7043 4.74031 22.647 4.56838C22.5898 4.39645 22.5639 4.21922 22.5694 4.0367C22.575 3.85418 22.6116 3.67651 22.6793 3.50367C22.6962 3.46046 22.7128 3.4274 22.7291 3.40447C22.8041 3.299 22.9083 3.23501 23.0417 3.21251C23.1752 3.19 23.2946 3.21626 23.4001 3.29128C23.4807 3.36242 23.5341 3.42806 23.5604 3.48819C23.5867 3.54832 23.5947 3.61961 23.5844 3.70205C23.5741 3.7845 23.5608 3.86139 23.5446 3.93272C23.5284 4.00406 23.5197 4.08421 23.5186 4.17318C23.5174 4.26215 23.5376 4.34551 23.5789 4.42328C23.6203 4.50104 23.696 4.57906 23.806 4.65734C23.9161 4.73562 24.0395 4.78542 24.1763 4.80674C24.313 4.82806 24.4452 4.82191 24.5727 4.78829C24.7002 4.75468 24.8204 4.70211 24.9334 4.63058C25.0465 4.55905 25.1405 4.47056 25.2155 4.36509C25.3395 4.19084 25.4137 4.00883 25.4382 3.81908C25.4626 3.62932 25.4544 3.43701 25.4135 3.24216C25.3725 3.0473 25.2976 2.86624 25.1887 2.69899C25.0797 2.53174 24.9473 2.39267 24.7914 2.28177C24.513 2.09065 24.2282 1.98132 23.9371 1.95377C23.6459 1.92621 23.3614 1.9621 23.0836 2.06143C22.8058 2.16076 22.5461 2.30748 22.3044 2.50159C22.0628 2.6957 21.8571 2.91198 21.6875 3.15043C21.6562 3.20413 21.6259 3.25162 21.5965 3.29289C21.5672 3.33416 21.5385 3.37935 21.5105 3.42847C21.2628 3.87379 21.0968 4.30128 21.0126 4.71095C20.9283 5.12063 20.9105 5.52918 20.9591 5.93663C21.0076 6.34408 21.1118 6.74618 21.2715 7.14294C21.4313 7.5397 21.6267 7.94456 21.8578 8.35753C21.9615 8.5418 21.9546 8.71648 21.8372 8.88156C21.7589 8.99161 21.657 9.05723 21.5315 9.07841C21.4059 9.09959 21.2904 9.07267 21.1849 8.99765C21.1207 8.95199 21.0745 8.90531 21.0463 8.85761C20.7581 8.36952 20.5174 7.86335 20.324 7.3391C20.1307 6.81485 20.0227 6.28225 20 5.7413C19.9773 5.20035 20.0365 4.66579 20.1774 4.1376C20.3183 3.60941 20.56 3.10458 20.9025 2.62309C21.166 2.27194 21.4673 1.96487 21.8063 1.70188C22.1453 1.43889 22.5165 1.24714 22.9199 1.12663C23.3232 1.00612 23.731 0.971625 24.1433 1.02314C24.5555 1.07466 24.9542 1.23741 25.3394 1.51139C25.6113 1.71168 25.8305 1.94707 25.9972 2.21756C26.1639 2.48806 26.28 2.78122 26.3454 3.09705C26.4107 3.41288 26.4153 3.72687 26.359 4.03901C26.3027 4.35116 26.1783 4.64251 25.9859 4.91306C25.8234 5.12206 25.637 5.29676 25.4266 5.43717C25.2163 5.57757 24.9823 5.67354 24.7246 5.72508C24.467 5.77661 24.2132 5.77908 23.9632 5.73247Z" fill="#6D7D98"/>
<path d="M7 10C5.5 8.5 4.83252 11.1738 3 9.55469" stroke="#6D7D98" stroke-linecap="round"/>
</svg>
