<svg width="14" height="14" viewBox="0 0 14 14" fill="none" xmlns="http://www.w3.org/2000/svg">
<path d="M11.0827 2.33203C11.5291 2.33201 11.9586 2.50255 12.2833 2.80878C12.6081 3.11501 12.8036 3.53376 12.8298 3.97936L12.8327 4.08203V5.14195C12.8314 5.2995 12.7889 5.45397 12.7095 5.59005C12.6301 5.72614 12.5165 5.83911 12.38 5.91778L12.3176 5.95161C12.1289 6.04425 11.9687 6.18616 11.854 6.36234C11.7393 6.53852 11.6743 6.74242 11.6659 6.95249C11.6575 7.16256 11.7061 7.37099 11.8064 7.55573C11.9068 7.74048 12.0552 7.89468 12.2359 8.00203L12.3176 8.04578C12.5702 8.17061 12.7959 8.42845 12.8286 8.76911L12.8327 8.85545V9.91536C12.8327 10.3617 12.6622 10.7912 12.3559 11.116C12.0497 11.4408 11.631 11.6363 11.1854 11.6624L11.0827 11.6654H2.91602C2.46964 11.6654 2.04013 11.4948 1.71536 11.1886C1.39059 10.8824 1.19512 10.4636 1.16893 10.018L1.16602 9.91536V8.85545C1.16602 8.50195 1.37135 8.22661 1.61868 8.07961L1.6811 8.04578C1.86983 7.95315 2.03001 7.81124 2.14473 7.63506C2.25944 7.45888 2.32442 7.25497 2.33278 7.0449C2.34115 6.83483 2.2926 6.62641 2.19226 6.44166C2.09192 6.25692 1.94353 6.10271 1.76277 5.99536L1.6811 5.95161C1.42852 5.82678 1.20277 5.56895 1.1701 5.22828L1.16602 5.14253V4.08203C1.16599 3.63566 1.33654 3.20615 1.64276 2.88138C1.94899 2.55661 2.36774 2.36114 2.81335 2.33495L2.91602 2.33203H11.0827ZM11.0827 3.4987H2.91602C2.77314 3.49872 2.63524 3.55117 2.52847 3.64612C2.42169 3.74106 2.35348 3.87188 2.33677 4.01378L2.33268 4.08203V4.97745C2.67828 5.17683 2.96698 5.46149 3.1712 5.80425C3.37542 6.14701 3.48833 6.53641 3.49916 6.93525C3.50998 7.33409 3.41836 7.72904 3.23303 8.08238C3.04771 8.43571 2.77487 8.73562 2.4406 8.95345L2.33268 9.01995V9.91536C2.3327 10.0582 2.38516 10.1961 2.4801 10.3029C2.57504 10.4097 2.70587 10.4779 2.84777 10.4946L2.91602 10.4987H11.0827C11.2256 10.4987 11.3635 10.4462 11.4702 10.3513C11.577 10.2563 11.6452 10.1255 11.6619 9.98361L11.666 9.91536V9.01995C11.3204 8.82057 11.0317 8.5359 10.8275 8.19314C10.6233 7.85038 10.5104 7.46098 10.4995 7.06214C10.4887 6.66331 10.5803 6.26835 10.7657 5.91502C10.951 5.56169 11.2238 5.26178 11.5581 5.04395L11.666 4.97745V4.08203C11.666 3.93915 11.6135 3.80125 11.5186 3.69448C11.4237 3.58771 11.2928 3.5195 11.1509 3.50278L11.0827 3.4987ZM5.83268 5.2487C5.97556 5.24872 6.11346 5.30117 6.22023 5.39612C6.327 5.49106 6.39522 5.62188 6.41193 5.76378L6.41602 5.83203V8.16536C6.41585 8.31404 6.35892 8.45705 6.25685 8.56516C6.15479 8.67328 6.01529 8.73834 5.86687 8.74705C5.71844 8.75576 5.57229 8.70747 5.45828 8.61204C5.34427 8.51662 5.27099 8.38125 5.25343 8.23361L5.24935 8.16536V5.83203C5.24935 5.67732 5.31081 5.52895 5.4202 5.41955C5.5296 5.31016 5.67797 5.2487 5.83268 5.2487Z" fill="#99A4B7"/>
</svg>
