<svg width="14" height="14" viewBox="0 0 14 14" fill="none" xmlns="http://www.w3.org/2000/svg">
<path d="M6.99935 5.83203H2.33268C1.68835 5.83203 1.16602 6.35437 1.16602 6.9987V11.6654C1.16602 12.3097 1.68835 12.832 2.33268 12.832H6.99935C7.64368 12.832 8.16602 12.3097 8.16602 11.6654V6.9987C8.16602 6.35437 7.64368 5.83203 6.99935 5.83203Z" stroke="#99A4B7" stroke-width="1.05" stroke-linecap="round" stroke-linejoin="round"/>
<path d="M10.4533 8.16586L12.495 6.1242C12.7114 5.88415 12.8312 5.57241 12.8312 5.2492C12.8312 4.92598 12.7114 4.61424 12.495 4.3742L9.57833 1.5042C9.33829 1.28776 9.02655 1.16797 8.70333 1.16797C8.38012 1.16797 8.06838 1.28776 7.82833 1.5042L5.83333 3.4992M3.5 10.4992H3.50583M5.83333 8.16586H5.83917M8.75 3.4992H8.75583M10.5 5.2492H10.5058" stroke="#99A4B7" stroke-width="1.05" stroke-linecap="round" stroke-linejoin="round"/>
</svg>
