<svg width="28" height="28" viewBox="0 0 28 28" fill="none" xmlns="http://www.w3.org/2000/svg">
<path d="M22.2449 20.0461C21.8612 19.6399 21.8678 19.0076 22.2154 18.5701C23.168 17.3713 23.8364 16.0039 24.2203 14.468C24.687 12.6013 24.687 10.7346 24.2203 8.86797C23.8364 7.33208 23.168 5.96469 22.2154 4.76579C21.8678 4.32832 21.8612 3.69606 22.2449 3.28983L22.391 3.13509C22.8026 2.69929 23.4986 2.6935 23.8779 3.15765C25.0974 4.64976 25.9426 6.35097 26.4137 8.2613C26.9737 10.5324 26.9737 12.8035 26.4137 15.0746C25.9426 16.985 25.0974 18.6862 23.8779 20.1783C23.4986 20.6424 22.8026 20.6366 22.391 20.2008L22.2449 20.0461ZM19.3402 16.9541C18.9611 16.5528 18.9665 15.9312 19.2747 15.4732C19.7 14.8412 20.0108 14.1328 20.207 13.348C20.487 12.228 20.487 11.108 20.207 9.98797C20.0108 9.20318 19.7 8.49477 19.2747 7.86273C18.9665 7.40478 18.9611 6.78318 19.3402 6.38188L19.4903 6.2229C19.9046 5.78418 20.6084 5.78117 20.9668 6.26673C21.6474 7.18902 22.1408 8.22721 22.447 9.3813C22.8514 10.9057 22.8514 12.4302 22.447 13.9546C22.1408 15.1087 21.6474 16.1469 20.9668 17.0692C20.6084 17.5548 19.9046 17.5518 19.4903 17.113L19.3402 16.9541ZM5.75579 3.28983C6.13945 3.69606 6.13288 4.32832 5.78526 4.76579C4.83261 5.96469 4.1643 7.33208 3.78033 8.86797C3.31366 10.7346 3.31366 12.6013 3.78033 14.468C4.1643 16.0039 4.83261 17.3713 5.78526 18.5701C6.13287 19.0076 6.13945 19.6399 5.75579 20.0461L5.60965 20.2008C5.19805 20.6366 4.50204 20.6424 4.12271 20.1783C2.90327 18.6862 2.05803 16.985 1.58699 15.0746C1.02699 12.8035 1.02699 10.5324 1.58699 8.2613C2.05803 6.35098 2.90327 4.64976 4.12271 3.15765C4.50204 2.6935 5.19805 2.69929 5.60965 3.13509L5.75579 3.28983ZM8.6605 6.38188C9.03951 6.78318 9.03411 7.40478 8.72594 7.86274C8.30062 8.49477 7.98986 9.20318 7.79366 9.98797C7.51366 11.108 7.51366 12.228 7.79366 13.348C7.98986 14.1328 8.30062 14.8412 8.72594 15.4732C9.03411 15.9312 9.03951 16.5528 8.6605 16.9541L8.51036 17.113C8.096 17.5518 7.39223 17.5548 7.0339 17.0692C6.35326 16.1469 5.85985 15.1087 5.55366 13.9546C5.14921 12.4302 5.14921 10.9057 5.55366 9.3813C5.85985 8.22721 6.35326 7.18902 7.0339 6.26673C7.39223 5.78117 8.096 5.78417 8.51036 6.2229L8.6605 6.38188ZM15.2137 16.148C16.3337 15.8991 17.2203 15.2769 17.8737 14.2813C18.527 13.2857 18.7759 12.2124 18.6203 11.0613C18.4648 9.91019 17.9514 8.94574 17.0803 8.16797C16.2092 7.39019 15.1825 7.0013 14.0003 7.0013C12.8181 7.0013 11.7914 7.39019 10.9203 8.16797C10.0492 8.94574 9.53588 9.91019 9.38033 11.0613C9.22477 12.2124 9.47366 13.2857 10.127 14.2813C10.7803 15.2769 11.6981 15.8991 12.8803 16.148V24.618C12.8803 25.1979 13.3504 25.668 13.9303 25.668H14.1637C14.7436 25.668 15.2137 25.1979 15.2137 24.618V16.148ZM16.3337 11.668C16.3337 12.2902 16.1003 12.8346 15.6337 13.3013C15.167 13.768 14.6225 14.0013 14.0003 14.0013C13.3781 14.0013 12.8337 13.768 12.367 13.3013C11.9003 12.8346 11.667 12.2902 11.667 11.668C11.667 11.0457 11.9003 10.5013 12.367 10.0346C12.8337 9.56797 13.3781 9.33463 14.0003 9.33463C14.6225 9.33463 15.167 9.56797 15.6337 10.0346C16.1003 10.5013 16.3337 11.0457 16.3337 11.668Z" fill="#D70103"/>
</svg>
