<svg width="124" height="18" viewBox="0 0 124 18" fill="none" xmlns="http://www.w3.org/2000/svg">
<path d="M12.0547 5.76964C11.9766 5.48006 11.8535 5.226 11.6853 5.00746C11.5171 4.78345 11.3069 4.59495 11.0547 4.44197C10.8084 4.28352 10.5201 4.16605 10.1897 4.08956C9.8654 4.0076 9.50803 3.96663 9.11761 3.96663C8.27673 3.96663 7.55897 4.14966 6.96434 4.51573C6.37572 4.88179 5.92525 5.40904 5.61292 6.09746C5.3066 6.78588 5.15343 7.61636 5.15343 8.58889C5.15343 9.57236 5.30059 10.4138 5.5949 11.1131C5.88921 11.8125 6.32767 12.3479 6.91029 12.7194C7.4929 13.091 8.21666 13.2767 9.08158 13.2767C9.84438 13.2767 10.478 13.1756 10.9826 12.9735C11.4931 12.7713 11.8745 12.4845 12.1268 12.113C12.3791 11.7414 12.5052 11.3043 12.5052 10.8017L13.3701 10.8836H9.15365V7.63822H17.3343V9.96574C17.3343 11.4956 16.9769 12.8041 16.2621 13.8914C15.5534 14.9732 14.5744 15.8037 13.3251 16.3828C12.0817 16.9565 10.6552 17.2434 9.04554 17.2434C7.24964 17.2434 5.67298 16.8964 4.31555 16.2025C2.95812 15.5086 1.898 14.5197 1.1352 13.2357C0.378399 11.9518 0 10.4247 0 8.65446C0 7.26669 0.231244 6.03736 0.693732 4.96648C1.16223 3.8956 1.81091 2.99136 2.63978 2.25377C3.46866 1.51071 4.42667 0.950679 5.51381 0.573685C6.60096 0.191228 7.76619 0 9.0095 0C10.1027 0 11.1177 0.142056 12.0547 0.426167C12.9977 0.704814 13.8296 1.10366 14.5503 1.62271C15.2771 2.1363 15.8627 2.7455 16.3072 3.45031C16.7517 4.15512 17.0219 4.92823 17.118 5.76964H12.0547Z" fill="#E80104"/>
<path d="M37.5448 8.62168C37.5448 10.4903 37.1454 12.0665 36.3466 13.3505C35.5477 14.629 34.4696 15.5988 33.1122 16.2599C31.7547 16.9155 30.2411 17.2434 28.5714 17.2434C26.8896 17.2434 25.37 16.9128 24.0126 16.2517C22.6611 15.5851 21.586 14.6126 20.7872 13.3341C19.9943 12.0501 19.5979 10.4793 19.5979 8.62168C19.5979 6.7531 19.9943 5.17956 20.7872 3.90106C21.586 2.6171 22.6611 1.6473 24.0126 0.991657C25.37 0.330552 26.8896 0 28.5714 0C30.2411 0 31.7547 0.330552 33.1122 0.991657C34.4696 1.6473 35.5477 2.6171 36.3466 3.90106C37.1454 5.17956 37.5448 6.7531 37.5448 8.62168ZM32.3914 8.62168C32.3914 7.61636 32.2443 6.76949 31.9499 6.08107C31.6616 5.38718 31.2322 4.86267 30.6616 4.50753C30.097 4.14693 29.4003 3.96663 28.5714 3.96663C27.7425 3.96663 27.0428 4.14693 26.4722 4.50753C25.9076 4.86267 25.4781 5.38718 25.1838 6.08107C24.8955 6.76949 24.7514 7.61636 24.7514 8.62168C24.7514 9.62699 24.8955 10.4766 25.1838 11.1705C25.4781 11.8589 25.9076 12.3834 26.4722 12.744C27.0428 13.0992 27.7425 13.2767 28.5714 13.2767C29.4003 13.2767 30.097 13.0992 30.6616 12.744C31.2322 12.3834 31.6616 11.8589 31.9499 11.1705C32.2443 10.4766 32.3914 9.62699 32.3914 8.62168Z" fill="#E80104"/>
<path d="M38.4908 3.90106V0.229474H54.5278V3.90106H48.9779V17.0139H44.0407V3.90106H38.4908Z" fill="#E80104"/>
<path d="M73.4207 8.62168C73.4207 10.4903 73.0212 12.0665 72.2224 13.3505C71.4236 14.629 70.3454 15.5988 68.988 16.2599C67.6306 16.9155 66.117 17.2434 64.4472 17.2434C62.7654 17.2434 61.2458 16.9128 59.8884 16.2517C58.537 15.5851 57.4618 14.6126 56.663 13.3341C55.8702 12.0501 55.4737 10.4793 55.4737 8.62168C55.4737 6.7531 55.8702 5.17956 56.663 3.90106C57.4618 2.6171 58.537 1.6473 59.8884 0.991657C61.2458 0.330552 62.7654 0 64.4472 0C66.117 0 67.6306 0.330552 68.988 0.991657C70.3454 1.6473 71.4236 2.6171 72.2224 3.90106C73.0212 5.17956 73.4207 6.7531 73.4207 8.62168ZM68.2672 8.62168C68.2672 7.61636 68.1201 6.76949 67.8258 6.08107C67.5375 5.38718 67.108 4.86267 66.5374 4.50753C65.9728 4.14693 65.2761 3.96663 64.4472 3.96663C63.6183 3.96663 62.9186 4.14693 62.348 4.50753C61.7834 4.86267 61.3539 5.38718 61.0596 6.08107C60.7713 6.76949 60.6272 7.61636 60.6272 8.62168C60.6272 9.62699 60.7713 10.4766 61.0596 11.1705C61.3539 11.8589 61.7834 12.3834 62.348 12.744C62.9186 13.0992 63.6183 13.2767 64.4472 13.2767C65.2761 13.2767 65.9728 13.0992 66.5374 12.744C67.108 12.3834 67.5375 11.8589 67.8258 11.1705C68.1201 10.4766 68.2672 9.62699 68.2672 8.62168Z" fill="#E80104"/>
<path d="M75.7384 17.0139V0.229474H83.7388C85.1443 0.229474 86.3245 0.40158 87.2795 0.745792C88.2405 1.09 88.9643 1.57627 89.4508 2.20459C89.9433 2.83291 90.1896 3.57324 90.1896 4.42558C90.1896 5.04297 90.0394 5.60573 89.7391 6.11385C89.4448 6.62197 89.0304 7.04814 88.4958 7.39235C87.9613 7.7311 87.3366 7.96604 86.6218 8.09716V8.26107C87.4147 8.28839 88.1354 8.47143 88.7841 8.81017C89.4328 9.14346 89.9493 9.60514 90.3338 10.1952C90.7182 10.7798 90.9104 11.4682 90.9104 12.2605C90.9104 13.1784 90.6461 13.9952 90.1175 14.7109C89.595 15.4267 88.8502 15.9894 87.8832 16.3992C86.9162 16.809 85.7629 17.0139 84.4235 17.0139H75.7384ZM80.7477 13.3751H83.0901C83.931 13.3751 84.5617 13.233 84.9821 12.9489C85.4026 12.6593 85.6128 12.2332 85.6128 11.6704C85.6128 11.277 85.5137 10.9437 85.3155 10.6706C85.1173 10.3974 84.835 10.1898 84.4686 10.0477C84.1082 9.90564 83.6727 9.83461 83.1622 9.83461H80.7477V13.3751ZM80.7477 7.01536H82.8018C83.2403 7.01536 83.6277 6.95252 83.964 6.82686C84.3004 6.7012 84.5617 6.52089 84.7479 6.28596C84.9401 6.04556 85.0362 5.75325 85.0362 5.40904C85.0362 4.88999 84.832 4.49387 84.4235 4.22069C84.0151 3.94204 83.4986 3.80272 82.8739 3.80272H80.7477V7.01536Z" fill="#E80104"/>
<path d="M92.6852 17.0139V0.229474H105.983V3.90106H97.6945V6.78588H105.299V10.4575H97.6945V13.3423H105.947V17.0139H92.6852Z" fill="#E80104"/>
<path d="M107.963 3.90106V0.229474H124V3.90106H118.45V17.0139H113.513V3.90106H107.963Z" fill="#E80104"/>
</svg>
