<svg width="130" height="37" viewBox="0 0 130 37" fill="none" xmlns="http://www.w3.org/2000/svg">
<path d="M13.0666 9.52513C14.1417 9.66581 15.1139 9.93092 15.9966 10.3232C16.8767 10.7098 17.6592 11.2004 18.2956 11.7914C18.9539 12.3795 19.4585 13.0427 19.814 13.7828C20.1705 14.523 20.357 15.311 20.3589 16.1459C18.6876 15.958 17.017 15.759 15.3451 15.5506C15.3034 15.2578 15.2128 14.9944 15.0735 14.7599C14.9348 14.5199 14.7504 14.3088 14.5188 14.1274C14.293 13.9413 14.0224 13.7902 13.7091 13.6739C13.4012 13.5528 13.0539 13.4677 12.6665 13.417C11.8271 13.3074 11.1122 13.3936 10.4687 13.6711C9.82811 13.949 9.32827 14.4059 8.9242 15.0357C8.5292 15.6666 8.26438 16.4563 8.13379 17.406C8.00159 18.3666 8.03593 19.209 8.23601 19.9323C8.4389 20.6559 8.7916 21.2368 9.3356 21.6797C9.87817 22.1222 10.5647 22.3984 11.4411 22.5131C12.2137 22.614 12.8474 22.5948 13.3874 22.4626C13.9288 22.3304 14.3462 22.0978 14.6434 21.7658C14.9242 21.452 15.097 21.066 15.1667 20.6095C14.0571 20.4723 12.9348 20.3294 11.8192 20.1837C11.9573 19.1261 12.0954 18.0686 12.2335 17.011C14.943 17.3648 17.6549 17.6978 20.3685 18.0012C20.2835 18.7612 20.1985 19.5212 20.1135 20.2812C19.9469 21.7802 19.4406 23.0226 18.5971 24.005C17.7657 24.9829 16.6691 25.6793 15.3383 26.0923C14.0047 26.4997 12.5266 26.5993 10.8975 26.3862C9.08368 26.1489 7.54444 25.5938 6.26309 24.7253C5.00672 23.8602 4.06513 22.7411 3.49063 21.3801C2.91349 20.0187 2.74508 18.473 2.99534 16.746C3.19101 15.3919 3.59822 14.2258 4.20856 13.247C4.82808 12.2695 5.57986 11.4768 6.50597 10.8733C7.43432 10.2645 8.43677 9.84728 9.56486 9.62667C10.6734 9.39794 11.8533 9.36638 13.0666 9.52513ZM32.143 11.5585C33.7664 11.6839 35.2144 12.109 36.5001 12.8416C37.7864 13.5687 38.7893 14.58 39.5161 15.8848C40.2378 17.1837 40.5651 18.7517 40.478 20.592C40.3913 22.4319 39.9149 23.9658 39.0398 25.1887C38.16 26.4056 37.0052 27.3017 35.5699 27.8659C34.136 28.4247 32.552 28.6407 30.8339 28.508C29.1007 28.3741 27.5691 27.9145 26.237 27.1372C24.9176 26.3555 23.9146 25.2916 23.2344 23.9552C22.5546 22.6133 22.3284 21.0314 22.5192 19.2101C22.7143 17.3781 23.2646 15.8768 24.1791 14.7033C25.0946 13.5243 26.2432 12.6782 27.6184 12.1559C29.0062 11.6293 30.5055 11.432 32.143 11.5585ZM67.412 12.4793C69.077 12.4647 70.5737 12.7718 71.9291 13.4024C73.2854 14.0276 74.3745 14.9623 75.1922 16.2107C76.0068 17.4538 76.4549 18.9945 76.4969 20.8363C76.5437 22.6778 76.1683 24.2416 75.3931 25.5245C74.6155 26.8021 73.5354 27.7804 72.1645 28.4537C70.7947 29.1216 69.2642 29.4637 67.5612 29.4786C66.6809 29.4863 65.8527 29.4053 65.0468 29.2364C64.293 29.0779 63.5878 28.8418 62.9284 28.5285C61.5427 27.8756 60.4726 26.9164 59.6552 25.6548C58.8542 24.3877 58.4682 22.8374 58.4741 21.006C58.481 19.1638 58.8762 17.6139 59.6692 16.3547C60.4789 15.0902 61.5271 14.1343 62.8817 13.4837C63.5263 13.1663 64.2154 12.9243 64.9532 12.7573C65.7419 12.5793 66.5514 12.4868 67.412 12.4793ZM57.5417 16.3479C55.7096 16.3387 53.8545 16.3205 52.0242 16.2912C51.9553 20.6 51.8863 24.9089 51.8174 29.2177C50.1344 29.1908 48.4527 29.1546 46.7616 29.107C46.8829 24.7993 47.0043 20.4917 47.1256 16.184C45.2888 16.1322 43.4666 16.0672 41.6336 15.9859C41.687 14.7805 41.7405 13.5751 41.794 12.3697C47.0145 12.6017 52.2706 12.7017 57.5599 12.7281C57.5538 13.9347 57.5478 15.1413 57.5417 16.3479ZM86.4284 12.1958C87.8043 12.1263 88.9642 12.2295 89.9177 12.5109C90.8765 12.7918 91.618 13.2221 92.1359 13.8075C92.662 14.3921 92.9562 15.1026 93.016 15.9408C93.0592 16.5479 92.9505 17.1121 92.6866 17.6327C92.4279 18.1528 92.046 18.6003 91.5346 18.9739C91.0222 19.3421 90.4127 19.6126 89.7056 19.7842C89.7087 19.8379 89.7119 19.8917 89.7151 19.9454C90.5096 19.9252 91.2424 20.0595 91.9147 20.3495C92.5852 20.6343 93.1364 21.0521 93.5647 21.6047C93.9927 22.1517 94.237 22.8138 94.2944 23.5926C94.3608 24.4951 94.1522 25.3185 93.6621 26.0608C93.1769 26.8025 92.4545 27.409 91.4851 27.8754C90.5194 28.3415 89.3434 28.614 87.9666 28.6864C84.9867 28.843 82.0238 28.9589 79.0633 29.0451C78.9028 23.5315 78.7423 18.0178 78.5818 12.5042C81.2066 12.4278 83.8218 12.3274 86.4284 12.1958ZM108.525 13.9128C105.809 14.2434 103.089 14.5434 100.37 14.8054C100.461 15.7492 100.552 16.6931 100.643 17.6369C103.161 17.3942 105.677 17.1197 108.191 16.8185C108.334 18.0163 108.478 19.2141 108.621 20.4119C106.082 20.7162 103.538 20.9938 100.99 21.2393C101.081 22.1832 101.172 23.127 101.263 24.0708C104.054 23.8019 106.841 23.4947 109.614 23.1574C109.759 24.3552 109.905 25.5529 110.051 26.7507C105.545 27.2991 101.011 27.7658 96.464 28.127C96.0264 22.6284 95.5889 17.1298 95.1514 11.6312C99.464 11.2886 103.767 10.8459 108.088 10.3195C108.234 11.5173 108.38 12.715 108.525 13.9128ZM126.281 11.4017C124.437 11.69 122.637 11.9657 120.801 12.2387C121.435 16.5012 122.068 20.7638 122.702 25.0263C121.057 25.2709 119.383 25.5132 117.728 25.7443C117.132 21.4764 116.536 17.2084 115.94 12.9405C114.108 13.1964 112.303 13.4383 110.473 13.6706C110.321 12.4736 110.169 11.2766 110.017 10.0796C115.23 9.41777 120.461 8.64788 125.721 7.82542C125.908 9.01752 126.094 10.2096 126.281 11.4017ZM84.0425 25.2794C84.8394 25.2461 85.6262 25.2106 86.4238 25.1719C87.2765 25.1305 87.9128 24.9564 88.3246 24.6535C88.7359 24.3453 88.924 23.9136 88.8928 23.3598C88.871 22.9726 88.7526 22.65 88.5382 22.3921C88.3239 22.1345 88.0288 21.9458 87.6519 21.8255C87.279 21.7049 86.8409 21.6573 86.3271 21.6823C85.5139 21.722 84.7099 21.7583 83.8967 21.7923C83.9453 22.9547 83.9939 24.1171 84.0425 25.2794ZM31.8418 15.4579C31.0248 15.3947 30.3217 15.5153 29.7289 15.8221C29.1418 16.124 28.6714 16.6016 28.3203 17.2573C27.975 17.9081 27.7565 18.7268 27.6678 19.7139C27.5791 20.701 27.6484 21.5482 27.8782 22.2553C28.1139 22.9574 28.5044 23.5111 29.0473 23.9136C29.596 24.3111 30.2926 24.5436 31.1351 24.6087C31.9761 24.6737 32.6993 24.5508 33.2964 24.2417C33.9004 23.9277 34.3704 23.4405 34.7062 22.7824C35.0485 22.1194 35.2501 21.293 35.3137 20.3041C35.3773 19.315 35.2836 18.4722 35.0358 17.7758C34.7943 17.0743 34.4037 16.5304 33.8648 16.1416C33.3324 15.7478 32.6575 15.5208 31.8418 15.4579ZM67.4463 16.3901C66.6195 16.3973 65.9304 16.5797 65.3553 16.9388C65.2225 17.0216 65.0969 17.1135 64.9785 17.2145C64.5916 17.5447 64.2878 17.972 64.0641 18.4967C63.778 19.1767 63.6371 20.0123 63.6411 21.0035C63.6451 21.9945 63.793 22.8314 64.0871 23.5141C64.3169 24.0328 64.6275 24.4564 65.0215 24.7845C65.1421 24.8849 65.2699 24.9763 65.405 25.0587C65.99 25.4052 66.6898 25.5752 67.5268 25.5678C68.3737 25.5604 69.066 25.3782 69.6317 25.0214C70.2099 24.6591 70.6356 24.1359 70.9156 23.4534C71.2015 22.7653 71.3356 21.9258 71.3214 20.9348C71.307 19.9438 71.149 19.111 70.8468 18.4363C70.5503 17.7564 70.1158 17.2452 69.5365 16.9019C68.9693 16.553 68.2829 16.3827 67.4463 16.3901ZM83.7805 19.0153C84.4687 18.9865 85.1425 18.9564 85.8319 18.9235C86.2703 18.9026 86.6528 18.8215 86.9801 18.6807C87.3092 18.5399 87.562 18.3484 87.7348 18.1073C87.9137 17.8604 87.9938 17.5673 87.9754 17.2285C87.9474 16.7175 87.7239 16.3387 87.3046 16.091C86.8823 15.8382 86.3717 15.7263 85.7524 15.756C85.0461 15.7898 84.3539 15.8208 83.6481 15.8503C83.6923 16.9053 83.7364 17.9603 83.7805 19.0153Z" fill="#E80104"/>
</svg>
