<svg width="16" height="16" viewBox="0 0 16 16" fill="none" xmlns="http://www.w3.org/2000/svg">
<path d="M10.3586 12.3947C9.62059 13 8.52525 13 6.33325 13C4.14192 13 3.04592 13 2.30792 12.3947C2.17302 12.2839 2.04931 12.1602 1.93859 12.0253C1.33325 11.2867 1.33325 10.192 1.33325 8C1.33325 5.80867 1.33325 4.71267 1.93859 3.97467C2.04931 3.83977 2.17302 3.71606 2.30792 3.60533C3.04659 3 4.14125 3 6.33325 3C8.52459 3 9.62059 3 10.3586 3.60533C10.4935 3.71606 10.6172 3.83977 10.7279 3.97467C11.3333 4.71333 11.3333 5.808 11.3333 8C11.3333 10.1913 11.3333 11.2873 10.7279 12.0253C10.6172 12.1602 10.4935 12.2839 10.3586 12.3947ZM11.3333 8.66667V7.33333L13.0666 5.022C13.1785 4.87261 13.3345 4.76223 13.5126 4.70652C13.6907 4.65081 13.8819 4.65259 14.0589 4.7116C14.236 4.77062 14.39 4.88388 14.499 5.03532C14.6081 5.18677 14.6667 5.3687 14.6666 5.55533V10.4447C14.6667 10.6313 14.6081 10.8132 14.499 10.9647C14.39 11.1161 14.236 11.2294 14.0589 11.2884C13.8819 11.3474 13.6907 11.3492 13.5126 11.2935C13.3345 11.2378 13.1785 11.1274 13.0666 10.978L11.3333 8.66667Z" fill="currentColor" stroke="currentColor" stroke-linejoin="round"/>
<path d="M7.47713 7.16228C7.45461 7.07875 7.41909 7.00547 7.37058 6.94243C7.32207 6.87781 7.26143 6.82344 7.18867 6.77931C7.11764 6.73361 7.03448 6.69973 6.93919 6.67766C6.84563 6.65402 6.74255 6.6422 6.62994 6.6422C6.38739 6.6422 6.18035 6.695 6.00884 6.80059C5.83905 6.90618 5.70911 7.05826 5.61902 7.25683C5.53067 7.45541 5.48649 7.69495 5.48649 7.97548C5.48649 8.25915 5.52893 8.50185 5.61383 8.70358C5.69872 8.9053 5.82519 9.05975 5.99324 9.16691C6.1613 9.27408 6.37006 9.32766 6.61954 9.32766C6.83957 9.32766 7.02235 9.29851 7.16788 9.2402C7.31514 9.18189 7.42516 9.09915 7.49792 8.99198C7.57069 8.88481 7.60707 8.75874 7.60707 8.61375L7.85655 8.63739H6.64033V7.70126H9V8.37262C9 8.8139 8.89692 9.19134 8.69075 9.50496C8.48631 9.817 8.20392 10.0566 7.84355 10.2236C7.48493 10.3891 7.07346 10.4718 6.60915 10.4718C6.09113 10.4718 5.63635 10.3717 5.2448 10.1716C4.85326 9.97145 4.54747 9.6862 4.32744 9.31584C4.10915 8.94549 4 8.505 4 7.99439C4 7.59409 4.0667 7.2395 4.2001 6.93061C4.33524 6.62172 4.52235 6.36089 4.76143 6.14814C5.00052 5.9338 5.27685 5.77227 5.59044 5.66352C5.90402 5.55321 6.24012 5.49805 6.59875 5.49805C6.91407 5.49805 7.20686 5.53902 7.47713 5.62097C7.74913 5.70135 7.98908 5.81639 8.19699 5.96611C8.40662 6.11425 8.57554 6.28997 8.70374 6.49327C8.83195 6.69657 8.90991 6.91958 8.93763 7.16228H7.47713Z" fill="white"/>
</svg>
