<svg width="20" height="20" viewBox="0 0 20 20" fill="none" xmlns="http://www.w3.org/2000/svg">
<path d="M14.3751 1.25H5.6251C5.25392 1.25041 4.89807 1.39805 4.6356 1.66051C4.37314 1.92297 4.22551 2.27882 4.2251 2.65V17.35C4.22551 17.7212 4.37314 18.077 4.6356 18.3395C4.89807 18.602 5.25392 18.7496 5.6251 18.75H14.3751C14.7463 18.7496 15.1021 18.602 15.3646 18.3395C15.6271 18.077 15.7747 17.7212 15.7751 17.35V2.65C15.7747 2.27882 15.6271 1.92297 15.3646 1.66051C15.1021 1.39805 14.7463 1.25041 14.3751 1.25ZM10.0001 17.175C9.86165 17.175 9.72631 17.1339 9.6112 17.057C9.49608 16.9801 9.40636 16.8708 9.35338 16.7429C9.3004 16.615 9.28654 16.4742 9.31355 16.3384C9.34056 16.2027 9.40723 16.0779 9.50512 15.98C9.60302 15.8821 9.72775 15.8155 9.86353 15.7885C9.99932 15.7614 10.1401 15.7753 10.268 15.8283C10.3959 15.8813 10.5052 15.971 10.5821 16.0861C10.659 16.2012 10.7001 16.3366 10.7001 16.475C10.7001 16.6607 10.6263 16.8387 10.4951 16.97C10.3638 17.1013 10.1857 17.175 10.0001 17.175ZM14.5509 14.9H5.44932V3.7H14.5509V14.9Z" fill="#E80104"/>
</svg>
