<svg width="20" height="20" viewBox="0 0 20 20" fill="none" xmlns="http://www.w3.org/2000/svg">
<path d="M12.21 1.4707C13.8271 1.4707 15.1426 2.34663 15.1426 4.00098C15.1425 4.59215 14.9725 5.14425 14.6836 5.60938H17.8203C18.1962 5.60955 18.4998 5.92015 18.5 6.30469V10.6523C18.5 10.748 18.4235 10.8271 18.3301 10.8271H17.4805V18.3047C17.4805 18.6895 17.1759 19.001 16.7998 19.001H3.2002C2.82407 19.001 2.51953 18.6895 2.51953 18.3047V10.8271H1.66992C1.57646 10.8271 1.5 10.748 1.5 10.6523V6.30469C1.50016 5.92015 1.80381 5.60955 2.17969 5.60938H5.31641C5.02534 5.14425 4.85748 4.59215 4.85742 4.00098C4.85742 2.34663 6.17291 1.4707 7.79004 1.4707C8.66973 1.47071 9.46238 1.8706 10 2.50098C10.5376 1.8706 11.3303 1.47071 12.21 1.4707ZM3.96484 10.8271V17.5225H9.27734V10.8271H3.96484ZM10.7227 10.8271V17.5225H16.0352V10.8271H10.7227ZM2.94531 7.08789V9.34863H9.27734V7.08789H2.94531ZM10.7227 7.08789V9.34863H17.0547V7.08789H10.7227ZM7.79004 2.94922C6.96979 2.94922 6.30273 3.16185 6.30273 4.00098C6.30291 4.83996 6.9699 5.52246 7.79004 5.52246H9.27734V4.00098C9.27734 3.16186 8.61027 2.94923 7.79004 2.94922ZM12.21 2.94922C11.3897 2.94923 10.7227 3.16186 10.7227 4.00098V5.52246H12.21C13.0301 5.52246 13.6971 4.83996 13.6973 4.00098C13.6973 3.16185 13.0302 2.94922 12.21 2.94922Z" fill="#495266"/>
</svg>
