<svg width="14" height="14" viewBox="0 0 14 14" fill="none" xmlns="http://www.w3.org/2000/svg">
<path d="M14 7C14 10.866 10.866 14 7 14C3.13401 14 0 10.866 0 7C0 3.13401 3.13401 0 7 0C10.866 0 14 3.13401 14 7ZM1.4 7C1.4 10.0928 3.90721 12.6 7 12.6C10.0928 12.6 12.6 10.0928 12.6 7C12.6 3.90721 10.0928 1.4 7 1.4C3.90721 1.4 1.4 3.90721 1.4 7Z" fill="#495266"/>
<path d="M6.91992 9.66309C6.98436 9.66309 7.04848 9.67554 7.1084 9.69922C7.16836 9.72293 7.22386 9.75723 7.27051 9.80176C7.31713 9.84626 7.35419 9.89982 7.37988 9.95898C7.40556 10.0182 7.41892 10.0819 7.41895 10.1465C7.41895 10.2438 7.38867 10.3383 7.33301 10.418C7.27729 10.4976 7.19865 10.559 7.1084 10.5947C7.01828 10.6303 6.91941 10.6392 6.82422 10.6211C6.72897 10.603 6.64049 10.5582 6.57031 10.4912C6.50005 10.4241 6.4515 10.3375 6.43164 10.2422C6.41185 10.1469 6.42128 10.0482 6.45996 9.95898C6.49868 9.86975 6.56461 9.79441 6.64648 9.74219C6.72808 9.69028 6.82323 9.66315 6.91992 9.66309ZM6.91992 3.2998C7.58017 3.2998 8.21543 3.54933 8.68457 3.99707C9.15399 4.44515 9.41895 5.05522 9.41895 5.69238C9.41888 6.1611 9.23191 6.58364 8.86914 6.97852C8.5805 7.29245 8.22142 7.54642 7.8916 7.78125L7.89258 7.78223C7.71759 7.90689 7.55642 8.02312 7.41895 8.13574V8.55566C7.41895 8.62022 7.40554 8.68397 7.37988 8.74316C7.35422 8.80231 7.31708 8.85589 7.27051 8.90039C7.22386 8.94492 7.16835 8.9802 7.1084 9.00391C7.04854 9.02753 6.98428 9.03906 6.91992 9.03906C6.85556 9.03902 6.79129 9.02757 6.73145 9.00391C6.67159 8.9802 6.6169 8.94486 6.57031 8.90039C6.52367 8.85586 6.48566 8.80238 6.45996 8.74316C6.43437 8.68403 6.42188 8.62013 6.42188 8.55566V7.91895C6.42193 7.8545 6.43433 7.79054 6.45996 7.73145C6.48565 7.67226 6.52368 7.61874 6.57031 7.57422C6.78515 7.3693 7.0425 7.18701 7.30176 7.00293C7.59756 6.79224 7.88055 6.58912 8.0918 6.36816C8.30168 6.14862 8.4218 5.93085 8.42188 5.69238C8.42188 4.91378 7.75481 4.2666 6.91992 4.2666C6.08519 4.26677 5.41895 4.91388 5.41895 5.69238C5.41888 5.82312 5.36478 5.94711 5.27051 6.03711C5.17643 6.12691 5.04981 6.17578 4.91992 6.17578C4.79022 6.1757 4.6643 6.12675 4.57031 6.03711C4.47602 5.94711 4.42194 5.82313 4.42188 5.69238C4.42187 5.05522 4.68683 4.44515 5.15625 3.99707C5.6253 3.54951 6.25987 3.29989 6.91992 3.2998Z" fill="#495266" stroke="#495266" stroke-width="0.331044"/>
</svg>
