<svg width="20" height="20" viewBox="0 0 20 20" fill="none" xmlns="http://www.w3.org/2000/svg">
<path d="M5.48406 17.7884C6.92392 18.6174 8.44015 19.021 10.0327 18.9992C11.6253 18.9773 13.1088 18.5737 14.4832 17.7884C15.8576 17.003 16.9594 15.9013 17.7884 14.4832C18.6174 13.0652 19.021 11.5599 18.9992 9.96728C18.9773 8.3747 18.5737 6.8912 17.7884 5.51678C17.003 4.14236 15.9013 3.04065 14.4832 2.21163C13.0652 1.38262 11.5599 0.979021 9.96728 1.00084C8.3747 1.02265 6.8912 1.42625 5.51678 2.21163C4.14236 2.99701 3.04065 4.09873 2.21164 5.51678C1.38262 6.93483 0.979023 8.44014 1.00084 10.0327C1.02266 11.6253 1.42625 13.1088 2.21164 14.4832C2.99702 15.8576 4.08782 16.9594 5.48406 17.7884ZM12.2252 17.003C12.2252 15.2141 12.6616 13.556 13.5342 12.0289C14.4069 10.5018 15.6286 9.30188 17.1993 8.42924C17.3739 9.30188 17.3957 10.1963 17.2648 11.1126C17.1339 12.0289 16.8394 12.8906 16.3812 13.6978C15.9231 14.505 15.334 15.1922 14.6141 15.7595C13.8942 16.3267 13.0979 16.7412 12.2252 17.003ZM10.589 17.3302C9.06191 17.4611 7.63295 17.1448 6.30216 16.3812C4.97138 15.6177 3.97874 14.5378 3.32426 13.1415C5.24408 12.138 6.7603 10.6872 7.87293 8.7892C8.98555 6.8912 9.49823 4.85139 9.41096 2.66977C10.9381 2.53888 12.3671 2.85521 13.6978 3.61878C15.0286 4.38234 16.0213 5.46224 16.6757 6.85847C14.7123 7.86202 13.1852 9.31279 12.0944 11.2108C11.0035 13.1088 10.5018 15.1486 10.589 17.3302ZM3.6515 6.33489C4.08782 5.50587 4.66595 4.80776 5.38588 4.24054C6.10582 3.67332 6.90211 3.25881 7.77475 2.99701C7.77475 4.74231 7.33843 6.38943 6.46578 7.93837C5.59314 9.48732 4.37143 10.6981 2.80067 11.5708C2.62614 10.6981 2.60433 9.80365 2.73522 8.88738C2.86612 7.9711 3.17155 7.12027 3.6515 6.33489Z" fill="#495266"/>
</svg>
