<svg width="20" height="20" viewBox="0 0 20 20" fill="none" xmlns="http://www.w3.org/2000/svg">
<path d="M17.2727 18.0839C17.2727 18.5899 16.8657 19 16.3636 19H3.63636C3.13429 19 2.72727 18.5899 2.72727 18.0839V9.83902H0.857324C0.553271 9.83902 0.40796 9.46529 0.632157 9.2599L9.38845 1.23824C9.73518 0.920586 10.2648 0.920586 10.6115 1.23824L19.3678 9.2599C19.592 9.46529 19.4467 9.83902 19.1427 9.83902H17.2727V18.0839ZM10 15.3356L13.0535 12.2586C13.8522 11.4536 13.8522 10.1486 13.0535 9.3436C12.2546 8.53868 10.9595 8.53868 10.1607 9.3436L10 9.50556L9.83927 9.3436C9.04045 8.53868 7.74538 8.53868 6.94658 9.3436C6.14778 10.1486 6.14778 11.4536 6.94658 12.2586L10 15.3356Z" fill="#495266"/>
</svg>
