<svg width="20" height="20" viewBox="0 0 20 20" fill="none" xmlns="http://www.w3.org/2000/svg">
<g transform="translate(-131 -57)">
<path d="M147.314 65.7899L142.178 60.6695C142.114 60.6055 142.114 60.5024 142.178 60.4383C142.242 60.3742 142.345 60.3742 142.409 60.4383L147.583 65.5742C147.583 65.5742 147.528 65.6211 147.438 65.6945C147.378 65.7399 147.314 65.7899 147.314 65.7899ZM148.361 64.7602L143.127 59.5867C143.063 59.5227 143.063 59.4195 143.125 59.3555C143.189 59.2914 143.292 59.2914 143.356 59.3539L148.563 64.493C148.563 64.493 148.534 64.5445 148.466 64.6305C148.436 64.668 148.361 64.7602 148.361 64.7602ZM145.984 66.5649L141.427 61.8586C141.364 61.7945 141.366 61.6899 141.43 61.6274C141.494 61.5649 141.597 61.5664 141.661 61.6305L146.306 66.4195C146.306 66.4195 146.228 66.457 146.148 66.4961C146.073 66.532 145.984 66.5649 145.984 66.5649ZM144.28 66.9274L141.045 63.5055C140.983 63.4399 140.984 63.3367 141.05 63.2742C141.116 63.2117 141.219 63.2133 141.281 63.2789C141.281 63.2789 144.667 66.8195 144.658 66.832C144.652 66.8399 144.616 66.9102 144.483 66.9133C144.42 66.9149 144.28 66.9274 144.28 66.9274ZM149.153 63.5149L144.483 58.9461C144.419 58.8836 144.417 58.7789 144.48 58.7149C144.544 58.6508 144.647 58.6492 144.711 58.7117L149.292 63.1961C149.292 63.1961 149.264 63.2633 149.233 63.3352C149.203 63.407 149.153 63.5149 149.153 63.5149ZM149.628 62.0008L146.15 58.4836C146.086 58.4195 146.088 58.3164 146.152 58.2524C146.216 58.1883 146.319 58.1899 146.383 58.2539L149.678 61.5539C149.678 61.5539 149.658 61.818 149.628 62.0008Z" fill="#B9CED4"/>
<path d="M141.153 62.9121C141.112 62.9121 141.07 62.8965 141.039 62.8652C140.975 62.8027 140.973 62.6996 141.036 62.634L145.353 58.3637C145.416 58.2996 145.519 58.298 145.584 58.3605C145.648 58.423 145.65 58.5262 145.587 58.5918L141.27 62.8621C141.239 62.8965 141.197 62.9121 141.153 62.9121ZM141.2 64.6715C141.158 64.6715 141.117 64.6559 141.084 64.623C141.02 64.559 141.02 64.4559 141.084 64.3918L147.195 58.2902C147.259 58.2262 147.362 58.2262 147.427 58.2902C147.491 58.3543 147.491 58.4574 147.427 58.5215L141.314 64.623C141.283 64.6543 141.241 64.6715 141.2 64.6715ZM141.859 65.9871C141.827 65.9871 141.796 65.9775 141.769 65.9597C141.742 65.9418 141.721 65.9164 141.709 65.8866C141.696 65.8569 141.693 65.8241 141.699 65.7925C141.706 65.7609 141.721 65.7318 141.744 65.709L148.411 58.9309C148.473 58.8668 148.577 58.8652 148.642 58.9293C148.706 58.9934 148.708 59.0965 148.644 59.1605L141.977 65.9387C141.944 65.9715 141.902 65.9871 141.859 65.9871ZM142.755 66.5652L149.377 59.9199C149.377 59.9199 149.402 59.923 149.45 60.0121C149.494 60.0918 149.527 60.2371 149.527 60.2371L143.067 66.7137C143.067 66.7137 142.992 66.6902 142.908 66.648C142.814 66.6012 142.755 66.5652 142.755 66.5652ZM144.275 66.9277L149.684 61.2965C149.689 61.4465 149.658 61.8105 149.658 61.8105L144.8 66.8902C144.8 66.8902 144.573 66.9277 144.275 66.9277Z" fill="#B9CED4"/>
<path d="M148.856 58.3643C145.55 56.3706 141.825 59.6362 140.842 62.1675C139.859 64.6972 141.437 66.38 141.437 66.38C141.437 66.38 136.512 71.5284 136.17 71.6612L136.297 72.2409L141.7 66.8909C141.7 66.8909 142.608 67.7597 144.141 67.7097C146.864 67.6206 148.144 66.18 148.739 65.5222C149.352 64.8456 150.153 63.7206 150.331 61.98C150.464 60.68 150.248 59.2034 148.856 58.3643ZM147.727 65.7097C145.777 67.4362 143.783 67.1831 143.069 66.8112C142.355 66.4393 142.191 66.1862 141.923 65.8878C141.762 65.7081 140.956 64.794 141.239 62.9784C141.439 61.6972 142.111 60.8315 142.995 59.9503C143.995 58.9534 146.836 57.4097 148.831 59.2518C150.544 60.8362 149.675 63.9831 147.727 65.7097Z" fill="#55ACEE"/>
<path d="M148.514 64.5628C146.886 66.7753 143.856 67.7175 142.189 66.155L141.922 65.8878C141.922 65.8878 141.817 65.9768 141.564 65.9034C141.311 65.8284 140.82 65.1362 140.761 64.2362C140.633 62.2909 141.28 61.0347 142.666 59.7565C144.764 57.8206 147.641 57.5472 149.066 59.2206C149.661 59.919 150.3 62.1378 148.514 64.5628ZM150.167 60.255C150.117 59.7893 149.834 59.1659 149.394 58.744C147.131 56.5784 143.914 58.0222 142.412 59.4065C140.775 60.9175 140.419 62.2112 140.317 63.5925C140.191 65.3253 141.084 66.2409 141.084 66.2409L135.862 71.4597L135.952 72.1815L141.681 66.4815C141.681 66.4815 142.452 67.3018 144.152 67.3737C145.536 67.4331 146.934 66.7393 147.931 65.855C149.169 64.7643 150.434 62.7925 150.167 60.255Z" fill="#55ACEE"/>
<path d="M140.159 66.7665C140.144 66.8681 141.058 67.7556 141.186 67.7556C141.314 67.7556 141.875 67.1665 141.875 67.1025C141.875 67.0384 140.98 66.0618 140.839 66.0743C140.698 66.0853 140.186 66.5993 140.159 66.7665ZM135.364 71.4743C135.364 71.4743 135.333 71.3118 135.498 71.1509C135.695 70.9587 135.892 71.0525 136.367 71.5634C136.852 72.0837 136.995 72.2478 136.812 72.4775C136.634 72.7009 136.427 72.6478 136.427 72.6478L133.227 75.8196C133.227 75.8196 133.272 76.1197 133.059 76.265C132.903 76.3728 132.658 76.3322 132.658 76.3322L131.622 75.2634C131.622 75.2634 131.555 75.0181 131.722 74.84C131.889 74.6618 132.134 74.729 132.134 74.729L135.364 71.4743Z" fill="#292F33"/>
<path d="M135.823 71.7742C135.727 71.7195 135.537 71.7663 135.427 71.9085C135.316 72.0507 135.37 72.2507 135.259 72.3367C135.148 72.4242 134.909 72.4085 134.672 72.646C134.434 72.8835 134.466 73.2492 134.291 73.4085C134.116 73.5679 133.786 73.5788 133.608 73.7585C133.345 74.021 133.322 74.3945 133.18 74.5132C133.037 74.632 132.759 74.5851 132.616 74.7195C132.472 74.8538 132.378 75.2273 132.655 75.3226C132.931 75.4179 132.925 75.132 133.116 75.0757C133.306 75.0195 133.489 74.9804 133.648 74.7585C133.808 74.5367 133.791 74.321 133.966 74.1554C134.141 73.9882 134.427 73.996 134.633 73.8132C134.839 73.6304 134.816 73.2335 135.053 73.0273C135.291 72.821 135.411 72.9398 135.594 72.7179C135.777 72.496 135.728 72.2804 135.88 72.2101C136.03 72.1398 136.022 71.8851 135.823 71.7742Z" fill="#858485"/>
<path d="M140.462 59.0559C140.348 58.784 140.132 58.5682 139.859 58.456C139.587 58.3439 139.281 58.3445 139.009 58.4578L138.496 58.6715L138.71 59.1842L139.137 60.2097L139.35 60.7234L139.864 60.5087C140.136 60.3953 140.351 60.1786 140.463 59.9061C140.576 59.6337 140.575 59.3279 140.462 59.0559Z" fill="#BE1931"/>
<path d="M138.495 58.6734L139.349 60.7253L138.836 60.939L137.982 58.8869L138.495 58.6734Z" fill="#99AAB5"/>
<path d="M137.982 58.8843L138.837 60.9363C138.274 61.5898 134.303 64.552 134.222 64.3603C133.993 63.8104 134.524 63.3356 134.524 63.3356C134.524 63.3356 133.931 63.5987 133.712 63.0717C133.493 62.5446 134.096 62.3101 134.096 62.3101C134.096 62.3101 133.511 62.6512 133.261 62.0559C133.012 61.4569 133.668 61.285 133.668 61.285C133.668 61.285 133.01 61.452 132.819 60.9942C132.628 60.5355 133.241 60.2585 133.241 60.2585C133.241 60.2585 132.64 60.2621 132.411 59.7114C132.301 59.4485 137.152 58.8939 137.982 58.8843Z" fill="#D9E1E6"/>
<path d="M136.972 60.4861C137.195 60.9173 133.982 62.4468 133.732 61.8431C133.481 61.2394 136.705 59.9679 136.972 60.4861ZM132.89 59.8073C132.971 60.2402 136.438 59.4629 136.338 59.1501C136.332 59.1292 136.312 59.1127 136.286 59.0975C135.29 59.2059 134.072 59.3644 133.265 59.5129C133.024 59.6112 132.872 59.7132 132.89 59.8073ZM137.457 61.8473C137.307 61.5556 134.316 63.4825 134.564 63.845C134.63 63.9395 134.87 63.8712 135.186 63.7154C135.925 63.1945 136.65 62.6534 137.359 62.0927C137.442 61.9855 137.483 61.898 137.457 61.8473ZM136.644 59.7563C136.77 60.0588 133.386 61.1419 133.265 60.7169C133.147 60.2933 136.491 59.392 136.644 59.7563ZM137.243 61.2024C137.119 60.8996 133.971 62.5519 134.186 62.9356C134.402 63.3195 137.394 61.5686 137.243 61.2024Z" fill="#B6C5CF"/>
</g>
</svg>
