<svg width="20" height="20" viewBox="0 0 20 20" fill="none" xmlns="http://www.w3.org/2000/svg">
<path d="M12.1844 13.2421L11.1082 13.6533L10.4625 13.859C10.7017 14.4074 10.8212 14.9786 10.8212 15.5727C11.156 15.4813 11.4908 15.367 11.8256 15.2299L14.3367 17.6976C14.7193 18.0632 15.1498 18.246 15.6281 18.246C16.1063 18.246 16.5368 18.0632 16.9194 17.6976L18.4978 16.1896C18.8326 15.8697 19 15.4698 19 14.99C19 14.5102 18.8326 14.1103 18.4978 13.7904L15.915 11.3227C16.6325 9.72331 16.752 8.10104 16.2737 6.45591C15.7955 4.81078 14.8269 3.47412 13.3681 2.44591C11.9093 1.41771 10.2832 0.937878 8.48957 1.00643C6.69598 1.07497 5.11762 1.65762 3.75449 2.75437C2.39137 3.85112 1.53044 5.24491 1.17173 6.93574C0.813009 8.62656 1.01628 10.226 1.78155 11.734C2.25984 11.3684 2.78596 11.0714 3.35991 10.8429C2.88161 9.88326 2.6903 8.90075 2.78596 7.89539C2.88161 6.89004 3.22838 5.97608 3.82624 5.15352C4.4241 4.33095 5.21328 3.69118 6.19378 3.2342C7.17427 2.77722 8.19064 2.60585 9.24288 2.7201C10.2951 2.83434 11.2637 3.17708 12.1485 3.7483C13.0333 4.31953 13.7149 5.06212 14.1932 5.97608L8.52544 11.3913C9.00373 11.7112 9.43419 12.1225 9.81682 12.6251L14.6954 7.89539C14.791 8.85505 14.6476 9.76901 14.2649 10.6373L13.7627 11.734L17.2064 14.9557L15.6281 16.5323L12.1844 13.2421ZM9.02765 15.5727C9.02765 16.5323 8.66893 17.3434 7.95149 18.0061C7.23406 18.6687 6.38509 19 5.4046 19C4.4241 19 3.58709 18.6687 2.89357 18.0061C2.20005 17.3434 1.84133 16.5323 1.81742 15.5727C1.7935 14.613 2.14026 13.8019 2.8577 13.1392C3.57514 12.4766 4.4241 12.1453 5.4046 12.1453C6.38509 12.1453 7.23406 12.4766 7.95149 13.1392C8.66893 13.8019 9.00373 14.613 8.9559 15.5727H9.02765ZM7.23406 15.5727C7.23406 15.1157 7.0547 14.7158 6.69598 14.3731C6.33726 14.0303 5.9068 13.859 5.4046 13.859C4.90239 13.859 4.48389 14.0303 4.14908 14.3731C3.81428 14.7158 3.64688 15.1157 3.64688 15.5727C3.64688 16.0296 3.81428 16.4295 4.14908 16.7722C4.48389 17.115 4.90239 17.2863 5.4046 17.2863C5.9068 17.2863 6.32531 17.115 6.66011 16.7722C6.99491 16.4295 7.16231 16.0296 7.16231 15.5727H7.23406Z" fill="#495266"/>
</svg>
