<svg width="20" height="20" viewBox="0 0 20 20" fill="none" xmlns="http://www.w3.org/2000/svg">
<g transform="translate(-58 -61)">
<path d="M67 79C71.9706 79 76 74.9706 76 70C76 65.0294 71.9706 61 67 61C62.0294 61 58 65.0294 58 70C58 74.9706 62.0294 79 67 79Z" fill="#DD2E44"/>
<path d="M67 76.75C70.7279 76.75 73.75 73.7279 73.75 70C73.75 66.2721 70.7279 63.25 67 63.25C63.2721 63.25 60.25 66.2721 60.25 70C60.25 73.7279 63.2721 76.75 67 76.75Z" fill="white"/>
<path d="M67 75C69.7614 75 72 72.7614 72 70C72 67.2386 69.7614 65 67 65C64.2386 65 62 67.2386 62 70C62 72.7614 64.2386 75 67 75Z" fill="#DD2E44"/>
<path d="M66.9999 73C68.6568 73 69.9999 71.6569 69.9999 70C69.9999 68.3431 68.6568 67 66.9999 67C65.3431 67 63.9999 68.3431 63.9999 70C63.9999 71.6569 65.3431 73 66.9999 73Z" fill="white"/>
<path d="M67.0001 71.5C67.8285 71.5 68.5001 70.8284 68.5001 70C68.5001 69.1716 67.8285 68.5 67.0001 68.5C66.1716 68.5 65.5001 69.1716 65.5001 70C65.5001 70.8284 66.1716 71.5 67.0001 71.5Z" fill="#DD2E44"/>
<path opacity="0.2" d="M67.12 70.1406L73.692 76.0176C73.692 76.0176 72.3685 77.7056 69.747 78.5721L66.7895 70.2096L67.12 70.1406Z" fill="black"/>
<path d="M67.147 70.4995C67.0484 70.4999 66.952 70.4709 66.8699 70.4162C66.7879 70.3616 66.7239 70.2838 66.6862 70.1928C66.6484 70.1017 66.6386 70.0015 66.658 69.9049C66.6774 69.8082 66.725 69.7195 66.795 69.65L67.0765 69.3685C67.1697 69.2752 67.2963 69.2227 67.4283 69.2227C67.5603 69.2226 67.6869 69.275 67.7802 69.3683C67.8736 69.4616 67.926 69.5881 67.9261 69.7201C67.9261 69.8521 67.8737 69.9787 67.7805 70.072L67.4985 70.3535C67.4051 70.4466 67.2788 70.4991 67.147 70.4995Z" fill="#FFAC33"/>
<path d="M70.008 64.4904C69.8065 65.5299 70.008 66.8359 70.008 66.8359L73.535 63.1419C73.6805 62.4149 73.271 61.1759 72.676 61.0229C72.081 60.8699 70.6365 61.4244 70.008 64.4904ZM72.5095 66.9919C71.47 67.1934 70.164 66.9919 70.164 66.9919L73.858 63.4649C74.585 63.3194 75.824 63.7289 75.977 64.3239C76.13 64.9189 75.5755 66.3634 72.5095 66.9919Z" fill="#55ACEE"/>
<path d="M74.399 63.2426L68.588 69.7936C68.407 69.9746 67.7515 70.2346 67.333 69.8166C66.9145 69.3986 67.1235 68.7766 67.3045 68.5951L73.9075 62.7506C73.9075 62.7506 74.2455 62.4331 74.487 62.6746C74.7285 62.9161 74.399 63.2426 74.399 63.2426Z" fill="#3A87C2"/>
</g>
</svg>
