<svg width="20" height="20" viewBox="0 0 20 20" fill="none" xmlns="http://www.w3.org/2000/svg">
<path d="M8.41332 9.13241L11.7467 0.79908H16.7467L13.68 9.99908C13.0578 10.0435 12.4578 10.1102 11.88 10.1991L14.4133 2.46575H12.88L9.54666 10.7991H5.94666V14.1324H7.61332V15.7991H0.946655V9.13241H8.41332ZM4.27999 14.1324V10.7991H2.61332V14.1324H4.27999ZM14.28 11.6657C12.9911 11.6657 11.9022 11.8435 11.0133 12.1991C10.5244 12.4213 10.1244 12.6657 9.81332 12.9324C9.45777 13.288 9.27999 13.688 9.27999 14.1324V16.9324C9.27999 17.3769 9.47999 17.7769 9.87999 18.1324C10.1911 18.3546 10.5689 18.5546 11.0133 18.7324C11.9467 19.0435 13.0244 19.188 14.2467 19.1657C15.4689 19.1435 16.5467 18.9991 17.48 18.7324C17.9244 18.5546 18.3022 18.3546 18.6133 18.1324C19.0133 17.7769 19.2133 17.3769 19.2133 16.9324V14.1324C19.2133 13.688 19.0355 13.288 18.68 12.9324C18.3689 12.6657 17.9689 12.4213 17.48 12.1991C16.5911 11.8435 15.5244 11.6657 14.28 11.6657ZM11.0133 14.1324C11.1467 13.9991 11.3467 13.8657 11.6133 13.7324C12.3244 13.4657 13.2022 13.3324 14.2467 13.3324C15.2911 13.3324 16.1689 13.4657 16.88 13.7324C17.1911 13.8657 17.3911 13.9991 17.48 14.1324H17.5467L17.48 14.1991C17.3467 14.3324 17.1467 14.4657 16.88 14.5991C16.1689 14.8657 15.2911 14.9991 14.2467 14.9991C13.2022 14.9991 12.3244 14.8657 11.6133 14.5991C11.3022 14.4657 11.1022 14.3324 11.0133 14.1991L10.9467 14.1324H11.0133ZM17.5467 16.0657V16.7991C17.4133 16.9324 17.2133 17.0435 16.9467 17.1324C16.1911 17.3991 15.2911 17.5324 14.2467 17.5324C13.2022 17.5324 12.3022 17.3991 11.5467 17.1324C11.28 17.0435 11.08 16.9324 10.9467 16.7991V16.0657L11.0133 16.1324C11.9022 16.488 12.98 16.6657 14.2467 16.6657C15.5133 16.6657 16.5911 16.488 17.48 16.1324L17.5467 16.0657Z" fill="#495266"/>
</svg>
