<svg width="20" height="20" viewBox="0 0 18.3333 16.6667" fill="none" xmlns="http://www.w3.org/2000/svg">
<path d="M8.33333 1.66667C9.31111 1.66667 10.2556 1.88889 11.1667 2.33333C12.0778 2.77778 12.8667 3.4 13.5333 4.2L15.5333 4.13333C14.7778 2.84445 13.7556 1.83333 12.4667 1.1C11.1778 0.366667 9.78889 0 8.3 0C6.81111 0 5.42222 0.377779 4.13333 1.13333C2.84444 1.88889 1.83333 2.9 1.1 4.16667C0.366667 5.43333 0 6.82222 0 8.33333C0 9.84445 0.366667 11.2333 1.1 12.5C1.83333 13.7667 2.84444 14.7778 4.13333 15.5333C5.42222 16.2889 6.81111 16.6667 8.3 16.6667C9.78889 16.6667 11.1778 16.3 12.4667 15.5667C13.7556 14.8333 14.7778 13.8222 15.5333 12.5333L13.5333 12.4667C12.5556 13.7111 11.3111 14.5 9.8 14.8333C8.28889 15.1667 6.83333 15 5.43333 14.3333C4.03333 13.6667 2.98889 12.6333 2.3 11.2333C1.61111 9.83333 1.44444 8.37778 1.8 6.86667C2.15556 5.35556 2.94444 4.11111 4.16667 3.13333C5.38889 2.15556 6.75556 1.66667 8.26667 1.66667H8.33333ZM8.33333 13.3333C9.22222 13.3333 10.0556 13.1111 10.8333 12.6667C11.6111 12.2222 12.2 11.6 12.6 10.8H10.5333C9.82222 11.4222 9.02222 11.7111 8.13333 11.6667C7.24444 11.6222 6.5 11.2778 5.9 10.6333C5.3 9.98889 5 9.22222 5 8.33333C5 7.44445 5.3 6.67778 5.9 6.03333C6.5 5.38889 7.24444 5.04445 8.13333 5C9.02222 4.95556 9.82222 5.22222 10.5333 5.8H12.6C12.0222 4.77778 11.1667 4.05556 10.0333 3.63333C8.9 3.21111 7.75556 3.21111 6.6 3.63333C5.44444 4.05556 4.56667 4.78889 3.96667 5.83333C3.36667 6.87778 3.16667 8 3.36667 9.2C3.56667 10.4 4.13333 11.3889 5.06667 12.1667C6 12.9444 7.08889 13.3333 8.33333 13.3333ZM13.8667 7.46667L15 5.8H18.3333L16.8667 8.33333L18.3333 10.8H15L13.8667 9.13333H9.73333C9.55556 9.48889 9.28889 9.73333 8.93333 9.86667C8.57778 10 8.22222 10.0222 7.86667 9.93333C7.51111 9.84445 7.22222 9.64444 7 9.33333C6.77778 9.02222 6.66667 8.68889 6.66667 8.33333C6.66667 7.97778 6.77778 7.64445 7 7.33333C7.22222 7.02222 7.51111 6.82222 7.86667 6.73333C8.22222 6.64445 8.57778 6.66667 8.93333 6.8C9.28889 6.93333 9.55556 7.15556 9.73333 7.46667H13.8667Z" fill="#495266"/>
</svg>
