<svg width="20" height="20" viewBox="0 0 20 20" fill="none" xmlns="http://www.w3.org/2000/svg">
<g transform="translate(0 -114)">
<path d="M13.6297 124.684C13.6297 124.684 15.0734 125.29 15.0328 125.46C14.9922 125.632 14.7406 126.035 14.589 126.379C14.4812 126.624 14.2765 127.045 14.3172 127.409C14.3578 127.773 14.5594 128.418 14.5594 128.418L12.3984 130.245C12.3984 130.245 12.0031 129.82 11.3812 129.629C10.7765 129.443 10.3187 129.56 10.0875 129.579C9.69373 129.609 9.11873 129.66 9.03748 129.62C8.86716 129.535 11.289 126.41 11.289 126.41L13.6297 124.684Z" fill="#FDD083"/>
<path d="M13.4313 126.408C13.4313 126.408 14.7188 128.499 15.5578 129.68C16.3969 130.861 17.1125 131.73 17.2141 131.841C17.3157 131.952 17.85 132.386 17.8203 132.629C17.7907 132.871 17.1938 133.264 16.5985 133.688C16.0032 134.111 15.5078 134.557 15.286 134.475C15.0641 134.394 14.4532 133.285 14.075 132.739C13.3719 131.727 10.7735 128.069 10.7735 128.069L13.4313 126.408Z" fill="#F3A25A"/>
<path d="M13.5922 127.871C13.5313 127.871 13.5688 128.387 13.0953 128.679C12.6203 128.971 12.25 128.901 12.1985 128.962C12.1766 128.987 12.7235 129.78 13.3594 130.688C14.1735 131.851 15.0766 133.077 15.1563 133.202C15.2672 133.374 15.6 133.657 15.9547 133.435C16.3031 133.216 16.6781 132.929 16.8094 132.716C16.9406 132.504 16.8031 132.304 16.6016 132.041C16.4906 131.898 15.6938 130.802 14.9156 129.709C14.275 128.812 13.6422 127.871 13.5922 127.871Z" fill="#FDD083"/>
<path d="M15.0328 125.462L9.30157 129.648C9.30157 129.648 7.70157 129.843 6.63595 129.301C5.57032 128.759 4.37032 127.946 3.21251 125.802C2.01564 123.585 0.91251 119.518 4.85782 117.001C8.80313 114.484 12.3219 117.618 13.35 118.834C14.3781 120.049 15.325 121.49 15.4078 123.21C15.4844 124.763 15.0328 125.462 15.0328 125.462Z" fill="#FF4F28"/>
<path d="M11.6062 122.452C9.86094 122.451 8.79219 120.912 8.99531 119.166C9.19844 117.421 11.3641 117.23 11.3641 117.23L14.1656 119.891L14.3563 120.184C14.3578 120.185 14.2109 122.455 11.6062 122.452Z" fill="#EE3E23"/>
<path d="M13.7203 116.096C14.7157 116.829 15.1719 118.401 14.3438 119.649C13.611 120.754 11.7282 121.279 10.4078 120.146C9.0219 118.957 9.50471 117.076 10.2297 116.351C11.1985 115.384 12.7532 115.384 13.7203 116.096Z" fill="#D8CDC9"/>
<path d="M13.4906 116.554C14.1406 117.19 14.3063 118.439 13.4781 119.062C12.7094 119.642 11.6563 119.571 11.0578 118.859C10.4344 118.117 10.7141 116.846 11.3 116.451C11.775 116.132 12.7766 115.853 13.4906 116.554Z" fill="#EAEBEB"/>
<path d="M13.6453 118.652C13.3547 118.622 13.3172 118.365 13.2531 117.868C13.1938 117.408 12.7453 116.866 12.3531 116.779C11.9297 116.685 11.6813 116.68 11.6828 116.413C11.6859 116.096 12.3094 115.849 13.0203 116.169C13.7422 116.494 14.1094 117.36 14.1094 117.925C14.1094 118.502 13.9234 118.68 13.6453 118.652Z" fill="#FEFFFF"/>
</g>
</svg>
