<svg width="20" height="20" viewBox="0 0 20 20" fill="none" xmlns="http://www.w3.org/2000/svg">
<path d="M12.7 12.2184L10.18 14.7931C10 14.977 9.79 15.069 9.55 15.069C9.31 15.069 9.1 14.977 8.92 14.7931L1.27 6.97701C1.09 6.7931 1 6.58621 1 6.35632C1 6.12644 1.09 5.91954 1.27 5.73563L3.79 3.16092C3.97 2.97701 4.1875 2.88506 4.4425 2.88506C4.6975 2.88506 4.915 2.97701 5.095 3.16092L12.7 10.931C12.88 11.1149 12.97 11.3295 12.97 11.5747C12.97 11.8199 12.88 12.0345 12.7 12.2184ZM9.55 12.8621L10.81 11.5747L4.42 5.04598L3.16 6.33333L9.55 12.8621ZM15.31 18.7471L12.115 15.4828L13.375 14.1954L16.57 17.4598C16.735 17.6284 16.8175 17.8429 16.8175 18.1034C16.8175 18.364 16.735 18.5785 16.57 18.7471C16.405 18.9157 16.195 19 15.94 19C15.685 19 15.475 18.9157 15.31 18.7471ZM13.6225 6.49425C13.0075 5.8659 12.7 5.10728 12.7 4.21839C12.7 3.3295 13.0075 2.57088 13.6225 1.94253C14.2375 1.31418 14.98 1 15.85 1C16.72 1 17.4625 1.31418 18.0775 1.94253C18.6925 2.57088 19 3.3295 19 4.21839C19 5.10728 18.6925 5.8659 18.0775 6.49425C17.4625 7.1226 16.72 7.43678 15.85 7.43678C14.98 7.43678 14.2375 7.1226 13.6225 6.49425ZM16.8067 5.19586C17.0689 4.92736 17.2 4.60153 17.2 4.21839C17.2 3.83525 17.0689 3.50973 16.8067 3.24184C16.5445 2.97395 16.2256 2.83969 15.85 2.83908C15.4744 2.83847 15.1558 2.97272 14.8942 3.24184C14.6326 3.51096 14.5012 3.83647 14.5 4.21839C14.4988 4.60031 14.6302 4.92613 14.8942 5.19586C15.1582 5.46559 15.4768 5.59954 15.85 5.5977C16.2232 5.59586 16.5421 5.46192 16.8067 5.19586Z" fill="#495266"/>
</svg>
