<svg width="21" height="20" viewBox="0 0 21 20" fill="none" xmlns="http://www.w3.org/2000/svg">
<path d="M8.41331 12.8676L7.74664 13.5343L6.54664 12.3343L7.21331 11.6676L6.54664 11.001L7.74664 9.80095L8.41331 10.4676L8.87998 10.001L8.21331 9.33429L9.41331 8.13429L10.08 8.80095L10.5466 8.33429L9.87998 7.66762L11.08 6.46762L11.7466 7.13429L12.4133 6.46762L13.6133 7.66762L12.9466 8.33429L13.6133 9.00095L12.4133 10.201L11.7466 9.53429L11.28 10.001L11.9466 10.6676L10.7466 11.8676L10.08 11.201L9.61331 11.6676L10.28 12.3343L9.07998 13.5343L8.41331 12.8676ZM17.6133 2.46762C17.9244 3.53429 18.1022 4.71207 18.1466 6.00095C18.2355 7.6454 18.0578 9.17873 17.6133 10.601C17.1244 12.3343 16.28 13.801 15.08 15.001C13.88 16.201 12.4133 17.0454 10.68 17.5343C9.25776 17.9787 7.72442 18.1565 6.07998 18.0676C4.79109 18.0232 3.63553 17.8232 2.61331 17.4676C2.25776 16.4454 2.05776 15.2898 2.01331 14.001C1.92442 12.3565 2.1022 10.8232 2.54664 9.40096C3.03553 7.66762 3.87998 6.20095 5.07998 5.00095C6.27998 3.80095 7.74664 2.95651 9.47998 2.46762C10.9022 2.02318 12.4355 1.8454 14.08 1.93429C15.3689 1.97873 16.5466 2.15651 17.6133 2.46762ZM3.94664 16.1343C4.79109 16.3121 5.65776 16.401 6.54664 16.401L3.67998 13.5343C3.67998 14.4232 3.76887 15.2898 3.94664 16.1343ZM13.88 13.801C15.2133 12.5121 16.0355 10.801 16.3466 8.66762L11.4133 3.73429C9.27998 4.0454 7.55776 4.85651 6.24664 6.16762C4.93553 7.47873 4.12442 9.17873 3.81331 11.2676L8.81331 16.2676C10.9022 15.9565 12.5911 15.1343 13.88 13.801ZM16.48 6.46762C16.48 5.57873 16.3911 4.71207 16.2133 3.86762C15.3689 3.68984 14.5022 3.60095 13.6133 3.60095L16.48 6.46762Z" fill="#495266"/>
</svg>
