<svg width="20" height="20" viewBox="0 0 20 20" fill="none" xmlns="http://www.w3.org/2000/svg">
<path d="M1.07324 9.99745C1.07324 12.3646 2.01357 14.6347 3.68737 16.3085C5.36117 17.9823 7.63132 18.9226 9.99843 18.9226C12.3655 18.9226 14.6357 17.9823 16.3095 16.3085C17.9833 14.6347 18.9236 12.3646 18.9236 9.99745C18.9236 8.82538 18.6928 7.66479 18.2442 6.58193C17.7957 5.49908 17.1383 4.51517 16.3095 3.68639C15.4807 2.85761 14.4968 2.20019 13.414 1.75166C12.3311 1.30312 11.1705 1.07227 9.99843 1.07227C8.82636 1.07227 7.66576 1.30312 6.58291 1.75166C5.50006 2.20019 4.51615 2.85761 3.68737 3.68639C2.85859 4.51517 2.20116 5.49908 1.75263 6.58193C1.3041 7.66479 1.07324 8.82538 1.07324 9.99745Z" fill="#F4CD33"/>
<path d="M14.0868 2.0625C15.9171 3.69617 17.0689 6.07449 17.0689 8.72073C17.0689 13.6496 13.0725 17.6459 8.14368 17.6459C6.67007 17.6459 5.28171 17.2893 4.05688 16.6577C5.63489 18.0669 7.71743 18.9247 10.0018 18.9247C14.9307 18.9247 18.927 14.9283 18.927 9.99948C18.9252 6.54249 16.961 3.54481 14.0868 2.0625Z" fill="#DB740E"/>
<path d="M5.86259 3.64217C5.56509 3.07499 4.58558 3.04019 4.57514 3.04019L4.60993 2.7914C4.65691 2.79314 5.72689 2.81924 6.09399 3.52038L5.86259 3.64217ZM1.95152 9.23389L1.72534 9.10341C1.74274 9.07209 2.16899 8.33789 2.85969 7.57238C3.26681 7.12003 3.68088 6.75293 4.08973 6.47978C4.60819 6.13356 5.12144 5.93871 5.61728 5.90043L5.63816 6.1614C4.61515 6.23969 3.67044 7.0661 3.05977 7.74288C2.38473 8.48926 1.955 9.22519 1.95152 9.23389ZM8.01821 13.3033C7.37448 11.3547 7.20572 9.79585 7.17614 8.832C7.15701 8.20567 7.19528 7.7655 7.23008 7.50801C7.29967 6.99129 7.39188 6.91299 7.42146 6.8869L7.59196 7.08524L7.59892 7.07828C7.54324 7.15483 7.39884 7.74984 7.44059 8.89985C7.47539 9.83412 7.64589 11.3408 8.267 13.2215L8.01821 13.3033ZM14.6904 8.0717C14.1858 7.33403 13.1454 6.65376 11.6805 6.10747C10.5635 5.68991 9.58577 5.49506 9.57707 5.49332L9.62753 5.23583C9.63796 5.23756 10.6314 5.4359 11.7692 5.86041C12.439 6.11095 13.0271 6.38931 13.5177 6.68856C14.1388 7.06784 14.6051 7.48365 14.9061 7.92208L14.6904 8.0717ZM15.9795 7.40884L15.736 7.31141C16.1587 6.25187 15.9308 5.07228 15.6664 4.26849C15.3758 3.38815 14.9757 2.75487 14.9722 2.74965L15.1497 2.63656C15.1671 2.66266 15.6124 3.27159 15.9134 4.17976C16.0909 4.71562 16.197 5.23409 16.2266 5.72123C16.2631 6.33712 16.1814 6.9043 15.9795 7.40884ZM18.7598 9.01468C18.2796 8.72587 17.3244 8.90855 17.314 8.91203L17.2635 8.65454C17.307 8.64584 18.3265 8.44924 18.8937 8.79024L18.7598 9.01468ZM9.84152 13.3903L9.78585 13.1345C10.6801 12.9432 11.8127 12.3725 13.0654 11.4869C14.0153 10.8154 14.7025 10.1943 14.7095 10.1873L14.8852 10.3804C14.8783 10.3874 14.1789 11.0189 13.215 11.6992C11.9171 12.6195 10.7828 13.1885 9.84152 13.3903ZM6.24361 13.8861C5.77734 13.8861 5.29716 13.8061 4.81349 13.6478C4.33157 13.4895 3.84616 13.2546 3.36772 12.9466C2.55349 12.4247 2.05068 11.8836 2.02981 11.861L2.22119 11.6835C2.22814 11.6905 2.72921 12.2264 3.51386 12.7292C4.2324 13.1902 5.34761 13.7156 6.56721 13.6095L6.58983 13.8705C6.475 13.8826 6.36018 13.8861 6.24361 13.8861ZM6.27493 18.1817L6.12008 17.9694C6.57243 17.6389 7.18658 16.2296 7.38492 15.7147L7.62849 15.8086C7.59892 15.8886 6.88212 17.7398 6.27493 18.1817ZM13.7021 17.324C12.66 17.0334 9.8711 15.5685 9.75279 15.5059L9.87458 15.2745C9.90415 15.2901 12.7574 16.7899 13.7735 17.0717L13.7021 17.324Z" fill="#342C12"/>
<path d="M16.0015 15.8791L16.2416 15.9833C16.6278 15.1016 16.8289 13.8486 16.8404 12.2575C16.8515 11.0778 16.7476 10.1412 16.746 10.1315L16.4867 10.1613C16.4882 10.171 16.5907 11.0916 16.5807 12.2549C16.5674 13.7889 16.3687 15.0415 16.0015 15.8791Z" fill="#342C12"/>
<path d="M9.39523 3.26168C10.6939 2.39111 11.8535 1.94343 12.747 1.96436L12.7514 1.70185C12.2198 1.69032 11.61 1.82619 10.9395 2.10912C10.4101 2.33281 9.84083 2.6478 9.24643 3.04543C8.23757 3.72151 7.49665 4.41236 7.48914 4.41982L7.66884 4.61102C7.67924 4.60132 8.40692 3.92306 9.39523 3.26168Z" fill="#342C12"/>
<path d="M4.77533 6.24455L6.04887 3.42607L9.38929 3.05375L10.2383 5.44598L7.50682 7.67988L4.77533 6.24455ZM7.50682 11.4553L5.4121 13.583L7.50682 16.4554L10.8733 15.8169V12.7862L7.50682 11.4553ZM13.7371 6.98918L14.426 10.6323L16.7069 11.7754L17.9787 8.78292L16.1241 6.03229L13.7371 6.98918ZM1.38271 8.00001L2.23174 8.78466C2.23174 8.78466 1.96729 11.7754 2.60232 12.1477L1.99338 13.7431C1.99165 13.7431 0.427563 10.7106 1.38271 8.00001ZM12.8759 18.4232C12.8759 18.4232 13.4726 17.5185 13.3125 16.9878C13.3125 16.9878 16.1763 15.8187 16.4407 14.7539C16.4407 14.7539 16.9174 15.2863 17.2897 15.0723C17.2897 15.0723 15.7256 17.4663 12.8759 18.4232ZM11.2979 1.24609C11.2979 1.24609 11.6684 1.72454 11.7224 1.99073C11.7224 1.99073 13.4587 1.77847 15.0837 3.37387C15.0837 3.37387 15.329 3.10768 15.8596 3.37387C15.8579 3.37213 14.2677 1.51054 11.2979 1.24609Z" fill="#342C12"/>
<path d="M10 19C8.78562 19 7.60603 18.7616 6.49778 18.2919C5.42606 17.8378 4.46395 17.1889 3.63754 16.3625C2.81114 15.5361 2.16219 14.5739 1.7081 13.5022C1.23835 12.3922 1 11.2144 1 10C1 8.78562 1.23835 7.60603 1.7081 6.49778C2.15976 5.42831 2.81507 4.45687 3.63754 3.63754C4.45733 2.81563 5.42866 2.1604 6.49778 1.7081C7.60777 1.23835 8.78562 1 10 1C11.2144 1 12.394 1.23835 13.5022 1.7081C14.5717 2.15976 15.5431 2.81507 16.3625 3.63754C17.1844 4.45733 17.8396 5.42866 18.2919 6.49778C18.7616 7.60777 19 8.78562 19 10C19 11.2144 18.7616 12.394 18.2919 13.5022C17.8378 14.5739 17.1889 15.5361 16.3625 16.3625C15.5361 17.1889 14.5739 17.8378 13.5022 18.2919C12.394 18.7616 11.2161 19 10 19ZM10 1.14788C5.11985 1.14788 1.14788 5.11811 1.14788 10C1.14788 14.8801 5.11811 18.8521 10 18.8521C14.8819 18.8521 18.8521 14.8819 18.8521 10C18.8521 5.11985 14.8819 1.14788 10 1.14788Z" fill="#342C12"/>
</svg>
