<svg width="20" height="20" viewBox="0 0 20 20" fill="none" xmlns="http://www.w3.org/2000/svg">
<path d="M10.08 2.06693C9.50219 2.06693 8.96886 2.20026 8.47997 2.46693C7.99108 2.73359 7.59108 3.10026 7.27997 3.56693C6.96886 4.03359 6.79108 4.5447 6.74664 5.10026C6.70219 5.65582 6.79108 6.20026 7.0133 6.73359C6.52442 6.82248 6.06886 7.01137 5.64664 7.30026C5.22442 7.58915 4.89108 7.95582 4.64664 8.40026C4.40219 8.8447 4.26886 9.32248 4.24664 9.83359C4.22442 10.3447 4.30219 10.8225 4.47997 11.2669C3.76886 11.4003 3.15775 11.7336 2.64664 12.2669C2.13553 12.8003 1.83553 13.4336 1.74664 14.1669C1.65775 14.9003 1.79108 15.5891 2.14664 16.2336C2.50219 16.878 3.0133 17.3447 3.67997 17.6336C4.34664 17.9225 5.04664 17.9891 5.77997 17.8336C6.5133 17.678 7.12442 17.3336 7.6133 16.8003C7.92442 17.1558 8.29108 17.4336 8.7133 17.6336C9.13553 17.8336 9.59108 17.9336 10.08 17.9336C10.5689 17.9336 11.0244 17.8336 11.4466 17.6336C11.8689 17.4336 12.2577 17.1558 12.6133 16.8003C13.0577 17.3336 13.6466 17.678 14.38 17.8336C15.1133 17.9891 15.8133 17.9225 16.48 17.6336C17.1466 17.3447 17.6577 16.878 18.0133 16.2336C18.3689 15.5891 18.5022 14.9003 18.4133 14.1669C18.3244 13.4336 18.0244 12.8003 17.5133 12.2669C17.0022 11.7336 16.3911 11.4003 15.68 11.2669C15.8577 10.8225 15.9355 10.3447 15.9133 9.83359C15.8911 9.32248 15.7577 8.8447 15.5133 8.40026C15.2689 7.95582 14.9355 7.58915 14.5133 7.30026C14.0911 7.01137 13.6355 6.82248 13.1466 6.73359C13.3689 6.20026 13.4577 5.65582 13.4133 5.10026C13.3689 4.5447 13.1911 4.03359 12.88 3.56693C12.5689 3.10026 12.1689 2.73359 11.68 2.46693C11.1911 2.20026 10.6577 2.06693 10.08 2.06693ZM8.4133 5.40026C8.4133 4.95582 8.57997 4.56693 8.9133 4.23359C9.24664 3.90026 9.63553 3.73359 10.08 3.73359C10.5244 3.73359 10.9133 3.90026 11.2466 4.23359C11.58 4.56693 11.7466 4.96693 11.7466 5.43359C11.7466 5.90026 11.58 6.28915 11.2466 6.60026C10.9133 6.91137 10.5244 7.06693 10.08 7.06693C9.63553 7.06693 9.24664 6.91137 8.9133 6.60026C8.57997 6.28915 8.4133 5.88915 8.4133 5.40026ZM9.27997 10.0003C9.27997 10.4447 9.1133 10.8336 8.77997 11.1669C8.44664 11.5003 8.04664 11.6669 7.57997 11.6669C7.1133 11.6669 6.72442 11.5003 6.4133 11.1669C6.10219 10.8336 5.93553 10.4447 5.9133 10.0003C5.89108 9.55582 6.04664 9.16693 6.37997 8.83359C6.7133 8.50026 7.1133 8.33359 7.57997 8.33359C8.04664 8.33359 8.44664 8.50026 8.77997 8.83359C9.1133 9.16693 9.27997 9.55582 9.27997 10.0003ZM10.9466 10.0003C10.9466 9.55582 11.1022 9.16693 11.4133 8.83359C11.7244 8.50026 12.1133 8.33359 12.58 8.33359C13.0466 8.33359 13.4355 8.50026 13.7466 8.83359C14.0577 9.16693 14.2244 9.55582 14.2466 10.0003C14.2689 10.4447 14.1133 10.8336 13.78 11.1669C13.4466 11.5003 13.0466 11.6669 12.58 11.6669C12.1133 11.6669 11.7244 11.5003 11.4133 11.1669C11.1022 10.8336 10.9466 10.4447 10.9466 10.0003ZM10.08 12.9336C10.5244 12.9336 10.9133 13.0891 11.2466 13.4003C11.58 13.7114 11.7466 14.1003 11.7466 14.5669C11.7466 15.0336 11.58 15.4336 11.2466 15.7669C10.9133 16.1003 10.5244 16.2669 10.08 16.2669C9.63553 16.2669 9.24664 16.1003 8.9133 15.7669C8.57997 15.4336 8.4133 15.0336 8.4133 14.5669C8.4133 14.1003 8.57997 13.7114 8.9133 13.4003C9.24664 13.0891 9.63553 12.9336 10.08 12.9336ZM15.08 16.2669C14.6355 16.2669 14.2466 16.1003 13.9133 15.7669C13.58 15.4336 13.4133 15.0336 13.4133 14.5669C13.4133 14.1003 13.58 13.7114 13.9133 13.4003C14.2466 13.0891 14.6355 12.9336 15.08 12.9336C15.5244 12.9336 15.9133 13.0891 16.2466 13.4003C16.58 13.7114 16.7466 14.1003 16.7466 14.5669C16.7466 15.0336 16.58 15.4336 16.2466 15.7669C15.9133 16.1003 15.5244 16.2669 15.08 16.2669ZM6.74664 14.6003C6.74664 15.0447 6.57997 15.4336 6.24664 15.7669C5.9133 16.1003 5.52442 16.2669 5.07997 16.2669C4.63553 16.2669 4.24664 16.1003 3.9133 15.7669C3.57997 15.4336 3.4133 15.0336 3.4133 14.5669C3.4133 14.1003 3.57997 13.7114 3.9133 13.4003C4.24664 13.0891 4.63553 12.9336 5.07997 12.9336C5.52442 12.9336 5.9133 13.0891 6.24664 13.4003C6.57997 13.7114 6.74664 14.1114 6.74664 14.6003Z" fill="#495266"/>
</svg>
