<svg width="20" height="20" viewBox="0 0 20 20" fill="none" xmlns="http://www.w3.org/2000/svg">
<path d="M13.9307 4.00499L15.4213 3.97516C15.7946 3.96767 16.1654 4.03614 16.5114 4.17643C16.8574 4.31672 17.1712 4.5259 17.4339 4.79125C17.6965 5.05659 17.9024 5.37257 18.0392 5.71997C18.1759 6.06738 18.2405 6.43895 18.2292 6.81212V6.81221C18.2292 6.81221 18.2207 8.75963 17.4397 10.6721C16.6586 12.5846 14.9594 16.1111 13.2288 16.1111H4.80719C4.80719 16.1111 2.4386 14.8016 2.4386 10.9353V4.96997L13.9307 4.00499Z" fill="#B10D3B"/>
<path d="M15.422 4.73579C15.422 2.67398 13.748 1 11.6862 1H6.78104C4.14226 1 2 3.14235 2 5.78104C2 8.41974 4.14226 10.5621 6.78104 10.5621H10.641C13.2797 10.5621 15.422 8.41974 15.422 5.78104V4.73579Z" fill="#B00D3B"/>
<path d="M13.4838 3.56234C13.4838 2.94258 12.7879 2.43945 11.9309 2.43945H6.05366C5.19654 2.43945 4.50073 2.94258 4.50073 3.56234C4.50073 4.18211 5.19654 4.68523 6.05366 4.68523H11.9309C12.7879 4.68523 13.4838 4.18211 13.4838 3.56234Z" fill="#D9426C"/>
<path d="M14.8956 16.549C14.8956 16.1016 14.5324 15.7383 14.0849 15.7383H4.74095C4.29329 15.7383 3.92993 16.1016 3.92993 16.5493V17.3998C3.92993 18.6131 4.915 19.5982 6.12834 19.5982H12.6955C13.9098 19.5982 14.8956 18.6123 14.8956 17.398V16.549Z" fill="#C94747"/>
<path d="M11.4743 10.043C11.4743 10.043 11.2618 10.8314 11.4743 11.3521C11.4743 11.3521 11.8347 10.3484 12.527 10.043H11.4743Z" fill="#760029"/>
<path d="M2.01991 5.34292C2.2416 7.77643 4.29016 9.68534 6.78104 9.68534H10.641C13.2797 9.68534 15.422 7.543 15.422 4.9043V5.78155C15.422 8.42025 13.2797 10.5626 10.641 10.5626H6.78104C4.14226 10.5626 2 8.42025 2 5.78155C2 5.63365 2.00667 5.48741 2.01991 5.34292Z" fill="#760029"/>
<path d="M7.60245 13.5546C7.53614 13.5282 7.46215 13.5287 7.39621 13.556C7.33027 13.5833 7.27757 13.6352 7.24929 13.7007C7.22102 13.7663 7.2194 13.8402 7.24478 13.9069C7.27017 13.9736 7.32055 14.0278 7.38524 14.0579L10.9079 15.5775C10.945 15.5935 10.9768 15.6197 10.9996 15.6531C11.0223 15.6865 11.0351 15.7257 11.0364 15.7661C11.0377 15.8065 11.0275 15.8464 11.0069 15.8812C10.9863 15.916 10.9563 15.9442 10.9202 15.9626L7.36936 17.7729C7.30648 17.807 7.2594 17.8643 7.23818 17.9326C7.21696 18.0009 7.22326 18.0748 7.25575 18.1385C7.28825 18.2022 7.34435 18.2507 7.4121 18.2737C7.47985 18.2966 7.55389 18.2922 7.61841 18.2613L11.1693 16.4511C11.298 16.3855 11.4054 16.2845 11.4789 16.1601C11.5524 16.0357 11.5889 15.893 11.5843 15.7486C11.5797 15.6041 11.534 15.464 11.4527 15.3446C11.3714 15.2251 11.2577 15.1313 11.1251 15.0741L7.60245 13.5546Z" fill="#DECEE6"/>
<path d="M11.2019 13.5556C11.2686 13.5268 11.3441 13.5257 11.4117 13.5526C11.4792 13.5794 11.5334 13.6319 11.5622 13.6987C11.591 13.7654 11.5921 13.8409 11.5652 13.9085C11.5384 13.976 11.4858 14.0302 11.4191 14.059L7.89644 15.5786C7.85937 15.5946 7.82762 15.6208 7.8049 15.6542C7.78218 15.6876 7.76943 15.7268 7.76813 15.7671C7.76684 15.8075 7.77705 15.8474 7.79758 15.8822C7.81811 15.917 7.84811 15.9452 7.88407 15.9636L11.4349 17.7739C11.4988 17.8074 11.5469 17.8648 11.5688 17.9335C11.5906 18.0023 11.5845 18.0768 11.5518 18.1411C11.519 18.2054 11.4622 18.2542 11.3938 18.2768C11.3253 18.2995 11.2506 18.2943 11.186 18.2623L7.63502 16.4521C7.50635 16.3864 7.39903 16.2855 7.32559 16.1611C7.25214 16.0367 7.2156 15.894 7.22024 15.7496C7.22488 15.6052 7.2705 15.4651 7.35177 15.3457C7.43304 15.2262 7.54662 15.1324 7.67923 15.0751L11.2019 13.5556Z" fill="#DECEE6"/>
</svg>
