<svg width="20" height="20" viewBox="0 0 20 20" fill="none" xmlns="http://www.w3.org/2000/svg">
<path d="M13.1201 9.04941L9.9841 6.75893L6.84813 9.04941L8.08945 12.6487H11.8787L13.1201 9.04941ZM9.9841 18.9966C11.5956 18.9966 13.0983 18.604 14.492 17.8187C15.8858 17.0334 16.9856 15.9427 17.7913 14.5466C18.5971 13.1505 19 11.6453 19 10.031C19 8.4168 18.5971 6.91162 17.7913 5.51552C16.9856 4.11942 15.8858 3.01781 14.492 2.21068C13.0983 1.40356 11.5956 1 9.9841 1C8.37256 1 6.86991 1.40356 5.47615 2.21068C4.08238 3.01781 2.98262 4.11942 2.17685 5.51552C1.37108 6.91162 0.979082 8.4168 1.00086 10.031C1.02264 11.6453 1.42552 13.1505 2.20951 14.5466C2.99351 15.9427 4.08238 17.0443 5.47615 17.8514C6.86991 18.6585 8.37256 19.0403 9.9841 18.9966ZM16.1907 13.9576H12.9894L11.9441 17.1643C11.2907 17.3388 10.6374 17.4151 9.9841 17.3933C9.33077 17.3715 8.67744 17.2951 8.02412 17.1643L6.9788 13.9576H3.7775C2.94995 12.6924 2.57973 11.3181 2.66684 9.83471L5.60681 8.06777L4.88815 4.73021C5.58503 4.03216 6.3908 3.50862 7.30546 3.1596L9.9841 5.12287L12.6627 3.1596C13.5338 3.50862 14.3178 4.01035 15.0147 4.66477L14.2961 8.06777L17.3014 9.83471L17.3667 10.031C17.3231 11.4271 16.9311 12.736 16.1907 13.9576Z" fill="#495266"/>
</svg>
