<svg width="20" height="20" viewBox="0 0 18.3333 18.3011" fill="none" xmlns="http://www.w3.org/2000/svg">
<g transform="rotate(180 9.16665 9.15055)">
<path d="M12.4667 15C12.4667 14.0667 12.1444 13.2778 11.5 12.6333C10.8556 11.9889 10.0667 11.6667 9.13333 11.6667C8.2 11.6667 7.41111 11.9889 6.76667 12.6333C6.12222 13.2778 5.8 14.0556 5.8 14.9667C5.8 15.8778 6.12222 16.6556 6.76667 17.3C7.41111 17.9444 8.2 18.2778 9.13333 18.3C10.0667 18.3222 10.8556 18 11.5 17.3333C12.1444 16.6667 12.4667 15.8667 12.4667 14.9333V15ZM10.8 15C10.8 15.4444 10.6333 15.8222 10.3 16.1333C9.96667 16.4444 9.57778 16.6111 9.13333 16.6333C8.68889 16.6556 8.3 16.5 7.96667 16.1667C7.63333 15.8333 7.46667 15.4333 7.46667 14.9667C7.46667 14.5 7.63333 14.1111 7.96667 13.8C8.3 13.4889 8.68889 13.3333 9.13333 13.3333C9.57778 13.3333 9.96667 13.4889 10.3 13.8C10.6333 14.1111 10.8 14.5111 10.8 15ZM0 11.6667V0H1.66667V1.66667H16.6667V0H18.3333V11.6667H16.6667V10H1.66667V11.6667H0ZM16.6667 3.33333H15V5H16.6667V3.33333ZM13.3333 3.33333H11.6667V5H13.3333V3.33333ZM15 6.66667V8.33333H16.6667V6.66667H15ZM13.3333 8.33333V6.66667H11.6667V8.33333H13.3333ZM10 3.33333H8.33333V5H10V3.33333ZM10 6.66667H8.33333V8.33333H10V6.66667ZM6.66667 3.33333H5V5H6.66667V3.33333ZM6.66667 8.33333V6.66667H5V8.33333H6.66667ZM3.33333 3.33333H1.66667V5H3.33333V3.33333ZM3.33333 6.66667H1.66667V8.33333H3.33333V6.66667Z" fill="#495266"/>
</g>
</svg>
