<svg width="20" height="20" viewBox="0 0 20 20" fill="none" xmlns="http://www.w3.org/2000/svg">
<g clip-path="url(#clip0_21461_265323)">
<path d="M15.286 14.7379L11.586 17.4083L6.44065 17.6036L4.62659 17.8739C4.62659 17.8739 5.63127 18.4864 6.61096 18.8536C7.59065 19.2208 8.47346 19.0989 8.47346 19.0989C8.47346 19.0989 9.1344 19.4426 11.0953 19.2942C13.0563 19.1473 13.9141 18.3879 13.9141 18.3879L14.1594 18.5098C14.1594 18.5098 14.8453 18.3629 15.6547 17.7989C16.4641 17.2348 18.1141 15.6458 18.7672 13.8536C19.4797 11.8942 19.4781 10.0067 19.2813 8.68326C19.2656 8.58013 19.2766 8.2317 19.2219 8.22701C18.5719 8.16451 15.3531 14.6926 15.286 14.7379Z" fill="#C5B3AF"/>
<path d="M5.2875 2.48507L3.00781 3.71007L2.34687 4.44444L0.924996 7.50694C0.924996 7.50694 0.826558 7.70226 0.826558 7.92413V8.48819C0.826558 8.48819 0.668746 10.3085 0.607808 10.5726C0.534371 10.8913 0.534371 11.2335 0.681246 11.5038C0.828121 11.7741 1.83281 14.1507 1.83281 14.1507L2.78906 16.0382C2.78906 16.0382 3.15625 16.6257 3.62187 17.0913C4.0875 17.5569 4.92031 17.8757 4.92031 17.8757C4.92031 17.8757 5.39687 18.2116 6.17031 18.2194C6.82343 18.2257 7.3375 18.0382 7.3375 18.0382C7.3375 18.0382 8.10312 18.5835 9.64375 18.5632C11.5531 18.5382 11.6594 17.9491 11.6594 17.9491C11.6594 17.9491 12.7812 18.1476 14.3984 17.0929C16.0156 16.0398 16.8547 13.9788 16.8547 13.9788C16.8547 13.9788 17.5656 13.7335 18.0312 12.7788C18.4969 11.8241 19.2812 9.47101 19.2812 8.68663C19.2812 8.13507 19.125 7.03507 18.5672 5.85226C18.3562 5.40538 18.0953 5.05538 17.7859 4.69288C17.5562 4.42413 17.1766 3.99132 17.1766 3.99132C17.1766 3.99132 16.8547 3.44288 16.6828 3.24601C16.5109 3.04913 15.9719 2.63351 15.9719 2.63351L13.35 1.21163C13.35 1.21163 12.6891 0.844443 12.3203 0.746006C11.9531 0.647568 5.2875 2.48507 5.2875 2.48507Z" fill="#F1EDEC"/>
<path d="M15.5312 4.91161C14.9359 5.16317 13.5171 5.91473 13.5671 7.01786C13.6171 8.12098 14.1109 8.4163 14.3062 10.6944C14.5015 12.9741 14.0859 14.3944 14.2328 14.5913C14.3796 14.7866 15.4375 14.385 16.0921 13.4835C16.7046 12.6382 17.15 10.8429 17.15 10.8429C17.15 10.8429 17.8843 10.5975 18.5 9.44755C18.975 8.55848 19.0953 7.91942 19.0671 7.31473C19.0484 6.89911 18.589 5.46786 17.9015 4.87567C17.3156 4.37255 16.2281 4.61786 15.5312 4.91161Z" fill="#F2EEEC"/>
<path d="M0.92656 7.50977C0.92656 7.50977 2.76406 8.34258 5.28906 8.95508C7.81406 9.56758 10.4109 10.0332 10.95 10.1316C11.4891 10.2301 11.8812 10.0332 12.0031 9.76445C12.125 9.49414 12.1453 7.98789 11.7344 7.44727C11.45 7.07227 10.8375 6.58789 10.8375 6.58789L6.41406 5.79414L2.56718 4.66758L2.34687 4.44727C2.34687 4.44727 1.75937 5.01133 1.39062 5.7707C1.02187 6.53008 0.92656 7.50977 0.92656 7.50977ZM0.821872 8.48789C0.956247 8.58789 6.23906 10.0723 6.23906 10.0723C6.23906 10.0723 12.2578 11.116 12.2578 11.2363C12.2578 11.3566 11.9969 12.802 11.3141 13.2223C10.6312 13.6441 7.25469 13.3066 6.07812 13.0613C2.70781 12.3613 0.60156 10.716 0.60156 10.716C0.60156 10.716 0.460935 10.1738 0.540622 9.43164C0.58281 9.04727 0.821872 8.48789 0.821872 8.48789Z" fill="#F1EDEC"/>
<path d="M0.942221 11.9184L3.00941 13.1825L7.24222 14.2856L11.8172 14.3262C11.8172 14.3262 12.0985 14.7074 12.0375 14.9887C11.9766 15.2699 11.636 16.2121 10.6735 16.6137C9.80003 16.9778 6.76253 17.359 4.27347 16.4528C2.06722 15.6496 1.64535 14.5059 1.24378 13.6043C0.831283 12.6762 0.942221 11.9184 0.942221 11.9184ZM8.32035 4.64651L10.3141 2.62932L13.1297 1.40901C13.1297 1.40901 13.8563 1.43245 14.0453 1.47932C14.2344 1.5262 14.725 1.66682 15.4532 2.11214C16.1813 2.55745 16.6828 3.24339 16.6828 3.24339C16.6828 3.24339 15.9219 2.55745 13.811 3.63714C11.7 4.71683 11.675 5.30276 11.2766 5.39651C10.8782 5.49026 10.0391 5.41995 9.44691 5.27933C8.46097 5.04495 8.32035 4.64651 8.32035 4.64651ZM3.23441 3.6762C3.23441 3.6762 3.4891 3.99964 4.20472 4.16995C4.91878 4.34026 5.61722 4.20432 5.61722 4.20432C5.61722 4.20432 5.82191 4.45901 6.46878 4.59495C7.11566 4.73089 7.37035 4.57776 7.50628 4.40745C7.64222 4.23714 8.61253 2.72307 10.0078 1.87151C11.4032 1.01995 12.6703 0.865262 12.6703 0.865262C12.6703 0.865262 11.8485 0.455887 10.675 0.523075C9.5016 0.590262 8.50941 0.971512 8.50941 0.971512L7.94847 1.02307C7.94847 1.02307 7.08128 0.921512 6.00785 1.38089C4.93441 1.84026 3.77816 2.89495 3.77816 2.89495L3.23441 3.6762Z" fill="#F1EDEC"/>
<path d="M10.4454 6.45469C10.4454 6.45469 11.4891 6.15937 11.9079 5.94062C12.3266 5.72187 13.7016 5.02344 13.7016 5.02344C13.7016 5.02344 13.1641 5.98125 13.1235 6.55781C13.0797 7.18281 13.2282 8.45156 13.2282 8.45156L12.9297 8.28281C12.9297 8.28281 12.2001 7.5875 11.9219 7.36719C11.6438 7.14687 10.4454 6.45469 10.4454 6.45469Z" fill="#F1EDEC"/>
<path d="M13.514 11.6406C13.4812 11.6375 10.2312 11.3516 4.79684 10.0188C1.61403 9.2375 0.793713 8.71562 0.742151 8.68281C0.742151 8.68281 0.782776 8.59062 0.804651 8.39219C0.824963 8.19375 0.828088 7.99219 0.828088 7.99219C0.840588 8 1.88903 8.64687 4.94996 9.39687C10.3312 10.7172 13.5375 11 13.5687 11.0031L13.514 11.6406ZM9.64528 14.7312C8.05621 14.7312 6.10309 14.5375 4.05778 13.8781C2.06871 13.2375 1.01559 12.4609 0.937463 12.4062C0.937463 12.4062 0.954651 12.2594 0.898401 12.0328C0.842151 11.8063 0.704651 11.5391 0.704651 11.5391C0.723401 11.5516 2.35778 12.6563 4.25465 13.2672C8.92653 14.7734 13.2328 13.7266 13.275 13.7156L13.4312 14.3375C13.325 14.3656 11.8281 14.7312 9.64528 14.7312ZM12.4609 18.0594C11.95 17.7672 11.5547 17.3391 11.55 17.3344L11.4531 17.2297L11.3109 17.2484C11.2875 17.2516 8.90778 17.5578 5.56246 16.6375C3.96715 16.1984 2.57496 15.4812 2.30621 15.2969C2.30621 15.2969 2.41871 15.9156 2.86715 16.1516C3.26989 16.3617 3.68291 16.5515 4.10465 16.7203C4.14059 16.8531 4.25934 17.2766 4.48903 17.6766C4.84528 18.2953 5.75153 18.4812 5.75153 18.4812C5.74684 18.475 5.21403 17.8063 4.99371 17.3297C4.93746 17.2063 4.89684 17.0969 4.86559 17C5.04684 17.0594 5.22965 17.1156 5.41403 17.1672C5.78278 17.2688 6.13903 17.3547 6.48121 17.4297C6.60621 17.6719 6.86559 18.1109 7.2984 18.5391C7.47653 18.7156 7.72184 18.9422 8.00621 19.0656C8.64215 19.3406 9.21559 19.2781 9.21559 19.2781C9.20621 19.2703 8.34215 18.7188 7.88121 18.2609C7.70778 18.0891 7.42496 17.7469 7.31246 17.5891C9.35778 17.9422 10.8 17.8484 11.2422 17.8047C11.4047 17.9656 11.7547 18.2859 12.1859 18.5328C12.4375 18.6766 12.664 18.8062 12.914 18.8609C13.4109 18.9688 13.7406 18.6141 13.7406 18.6141C13.7375 18.6109 13.025 18.3797 12.4609 18.0594Z" fill="#9B8D8B"/>
<path d="M11.5313 17.7727L11.1672 17.2648L11.3485 17.5195L11.1656 17.2664C11.1844 17.2523 13.0781 15.8305 13.2485 12.0852C13.4172 8.33828 11.9844 6.89922 11.9688 6.88516L12.4 6.43359C12.4672 6.49766 14.0563 8.05234 13.8719 12.1148C13.6891 16.182 11.6203 17.7086 11.5313 17.7727Z" fill="#9B8D8B"/>
<path d="M13.1594 18.8797L12.9469 18.3438C13.0703 18.3234 16.1156 17.7438 16.786 12.175C17.3 7.90469 14.85 4.36406 14.825 4.32969L15.336 3.96875C15.4422 4.12031 17.9516 7.73281 17.4063 12.25C16.675 18.3203 13.3156 18.8844 13.1594 18.8797Z" fill="#9B8D8B"/>
<path d="M14.761 3.96955C13.2922 4.54142 12.3281 5.85236 12.0172 6.3258C11.4844 6.28517 9.87814 6.14142 7.99064 5.76955C8.34689 5.13517 9.23282 3.74611 10.6063 2.8383C12.4313 1.63361 13.961 1.47424 13.9969 1.46486C14.0328 1.45549 13.5438 0.986735 13.0969 1.07892C12.2969 1.24455 11.2672 1.65549 10.2625 2.31799C8.62501 3.4008 7.65626 5.05705 7.35157 5.6383C6.89376 5.5383 6.42501 5.42423 5.9547 5.29611C5.80626 5.25549 5.66251 5.21486 5.52189 5.1758C5.7422 4.63049 6.23282 3.52267 6.83907 2.77736C8.0297 1.31799 9.4422 0.70861 9.45782 0.70236C9.45782 0.70236 8.55314 0.447673 7.76251 1.0258C7.30626 1.36017 6.8172 1.81642 6.35626 2.38205C5.66876 3.2258 5.13751 4.44923 4.91876 5.00236C4.23751 4.80392 3.68439 4.63361 3.24689 4.48986C3.36407 4.22424 3.5297 3.86955 3.70782 3.56017C4.03751 2.98361 4.39845 2.4133 4.40157 2.40861C4.40157 2.40861 3.59689 2.69142 3.13439 3.45392C2.92345 3.79924 2.85001 4.03517 2.72657 4.31799C2.65157 4.29298 2.59064 4.2633 2.52189 4.26799C2.15157 4.2883 2.01251 4.82892 2.01251 4.82892C2.05782 4.84924 2.76095 5.08205 5.78751 5.91486C8.97189 6.78986 12.1391 6.98049 12.1703 6.98205L12.3672 6.99299L12.4656 6.82267C12.475 6.80705 13.4375 5.1758 14.9953 4.56955C16.3078 4.05861 17.4016 4.25861 17.4125 4.26017C17.4125 4.26017 17.3719 4.10549 17.2688 3.93517C17.1922 3.81017 16.975 3.68361 16.975 3.68361C16.9235 3.66955 16.2735 3.38205 14.761 3.96955Z" fill="#9B8D8B"/>
</g>
<defs>
<clipPath id="clip0_21461_265323">
<rect width="20" height="20" fill="white"/>
</clipPath>
</defs>
</svg>
