<svg width="16" height="16" viewBox="0 0 16 16" fill="none" xmlns="http://www.w3.org/2000/svg">
<path d="M5.66602 2.0625C6.08981 2.06254 6.47983 2.29259 6.68555 2.66309L7.50098 4.13184C7.68781 4.4684 7.69663 4.87535 7.52441 5.21973L6.82129 6.625L6.82227 6.62598C6.85372 6.73414 6.90552 6.89073 6.98438 7.0752C7.14311 7.44648 7.40709 7.9178 7.82617 8.33691C8.24525 8.75599 8.71593 9.01908 9.08594 9.17676C9.26963 9.25501 9.42559 9.30584 9.5332 9.33691L10.9395 8.63477C11.284 8.4625 11.6917 8.47104 12.0283 8.6582L13.501 9.47754C13.8711 9.68335 14.1006 10.0735 14.1006 10.4971V12.1885C14.1004 13.3621 12.9926 14.2638 11.8252 13.8701C10.1389 13.3011 7.4412 12.1949 5.70508 10.459C3.96893 8.72287 2.86201 6.02431 2.29297 4.33789C1.89952 3.17067 2.80121 2.06278 3.97461 2.0625H5.66602Z" fill="white" stroke="white" stroke-linejoin="round"/>
</svg>
