<svg width="16" height="16" viewBox="0 0 16 16" fill="none" xmlns="http://www.w3.org/2000/svg">
<path d="M4.76672 0.800781V0.000781178C4.37984 0.000781178 4.04839 0.27763 3.9795 0.658326L4.76672 0.800781ZM10.8334 0.800781L11.6206 0.658325C11.5517 0.277629 11.2203 0.000781178 10.8334 0.000781178V0.800781ZM0.800049 2.58032C0.358221 2.58032 4.87566e-05 2.93849 4.87566e-05 3.38032C4.87566e-05 3.82214 0.358221 4.18032 0.800049 4.18032V3.38032V2.58032ZM14.8 4.18032C15.2419 4.18032 15.6 3.82214 15.6 3.38032C15.6 2.93849 15.2419 2.58032 14.8 2.58032V3.38032V4.18032ZM12.8556 3.38032L13.6537 3.43467C13.6688 3.21357 13.5914 2.99613 13.4401 2.83419C13.2889 2.67224 13.0772 2.58032 12.8556 2.58032V3.38032ZM12.0778 14.8008V15.6008C12.4985 15.6008 12.8473 15.2749 12.8759 14.8551L12.0778 14.8008ZM3.52222 14.8008L2.72407 14.8551C2.75266 15.2749 3.10149 15.6008 3.52222 15.6008V14.8008ZM2.74445 3.38032V2.58032C2.52283 2.58032 2.31115 2.67224 2.15986 2.83419C2.00857 2.99613 1.93124 3.21357 1.94629 3.43467L2.74445 3.38032ZM5.85565 11.0528C5.41382 11.0528 5.05565 11.411 5.05565 11.8528C5.05565 12.2947 5.41382 12.6528 5.85565 12.6528V11.8528V11.0528ZM9.74454 12.6528C10.1864 12.6528 10.5445 12.2947 10.5445 11.8528C10.5445 11.411 10.1864 11.0528 9.74454 11.0528V11.8528V12.6528ZM4.30005 3.3796L5.08726 3.52205L5.55393 0.943237L4.76672 0.800781L3.9795 0.658326L3.51283 3.23714L4.30005 3.3796ZM4.76672 0.800781V1.60078H10.8334V0.800781V0.000781178H4.76672V0.800781ZM10.8334 0.800781L10.0462 0.943237L10.5128 3.52205L11.3 3.3796L12.0873 3.23714L11.6206 0.658325L10.8334 0.800781ZM0.800049 3.38032V4.18032H14.8V3.38032V2.58032H0.800049V3.38032ZM12.8556 3.38032L12.0574 3.32596L11.2796 14.7464L12.0778 14.8008L12.8759 14.8551L13.6537 3.43467L12.8556 3.38032ZM12.0778 14.8008V14.0008H3.52222V14.8008V15.6008H12.0778V14.8008ZM3.52222 14.8008L4.32038 14.7464L3.5426 3.32596L2.74445 3.38032L1.94629 3.43467L2.72407 14.8551L3.52222 14.8008ZM2.74445 3.38032V4.18032H12.8556V3.38032V2.58032H2.74445V3.38032ZM5.85565 11.8528V12.6528H9.74454V11.8528V11.0528H5.85565V11.8528Z" fill="#99A4B7"/>
</svg>
