<svg width="24" height="24" viewBox="0 0 24 24" fill="none" xmlns="http://www.w3.org/2000/svg">
<path d="M12 8.24875V6.74875M12 8.24875C10.6447 8.24875 9.30333 8.30408 7.976 8.41475C6.845 8.50875 6 9.47175 6 10.6067V13.1198C7.96667 12.8738 9.96667 12.7501 12 12.7487C14.0057 12.7495 16.0095 12.8734 18 13.1198M12 8.24875C13.3553 8.24875 14.6967 8.30408 16.024 8.41475C17.155 8.50875 18 9.47175 18 10.6067V13.1198M18 13.1198C18.39 13.1684 18.7777 13.2217 19.163 13.2797C20.233 13.4397 21 14.3738 21 15.4548V20.6238C21 21.2448 20.496 21.7488 19.875 21.7488H4.125C3.82663 21.7488 3.54048 21.6302 3.3295 21.4192C3.11853 21.2083 3 20.9221 3 20.6238V15.4537C3 14.3737 3.768 13.4397 4.837 13.2797C5.224 13.2213 5.61169 13.1677 6 13.1187M15 8.24875V6.74875M9 8.24875V6.74875M21 16.4987L19.5 17.2487C19.0344 17.4819 18.5208 17.6033 18 17.6033C17.4792 17.6033 16.9656 17.4819 16.5 17.2487C16.0344 17.0156 15.5208 16.8942 15 16.8942C14.4792 16.8942 13.9656 17.0156 13.5 17.2487C13.0344 17.4819 12.5208 17.6033 12 17.6033C11.4792 17.6033 10.9656 17.4819 10.5 17.2487C10.0344 17.0156 9.52076 16.8942 9 16.8942C8.47924 16.8942 7.96564 17.0156 7.5 17.2487C7.03436 17.4819 6.52076 17.6033 6 17.6033C5.47924 17.6033 4.96564 17.4819 4.5 17.2487L3 16.4987M12.265 3.10875C12.3175 3.16118 12.3533 3.22799 12.3678 3.30075C12.3823 3.37351 12.3749 3.44893 12.3465 3.51748C12.3181 3.58603 12.2701 3.64462 12.2084 3.68585C12.1467 3.72707 12.0742 3.74908 12 3.74908C11.9258 3.74908 11.8533 3.72707 11.7916 3.68585C11.7299 3.64462 11.6819 3.58603 11.6535 3.51748C11.6251 3.44893 11.6177 3.37351 11.6322 3.30075C11.6467 3.22799 11.6825 3.16118 11.735 3.10875L12 2.84375L12.265 3.10875ZM9.265 3.10875C9.31749 3.16118 9.35325 3.22799 9.36776 3.30075C9.38227 3.37351 9.37487 3.44893 9.3465 3.51748C9.31813 3.58603 9.27007 3.64462 9.20839 3.68585C9.14671 3.72707 9.07419 3.74908 9 3.74908C8.92581 3.74908 8.85329 3.72707 8.79161 3.68585C8.72993 3.64462 8.68187 3.58603 8.6535 3.51748C8.62513 3.44893 8.61773 3.37351 8.63224 3.30075C8.64675 3.22799 8.68251 3.16118 8.735 3.10875L9 2.84375L9.265 3.10875ZM15.265 3.10875C15.3175 3.16118 15.3533 3.22799 15.3678 3.30075C15.3823 3.37351 15.3749 3.44893 15.3465 3.51748C15.3181 3.58603 15.2701 3.64462 15.2084 3.68585C15.1467 3.72707 15.0742 3.74908 15 3.74908C14.9258 3.74908 14.8533 3.72707 14.7916 3.68585C14.7299 3.64462 14.6819 3.58603 14.6535 3.51748C14.6251 3.44893 14.6177 3.37351 14.6322 3.30075C14.6467 3.22799 14.6825 3.16118 14.735 3.10875L15 2.84375L15.265 3.10875Z" stroke="#6D7D98" stroke-width="1.5" stroke-linecap="round" stroke-linejoin="round"/>
</svg>
