<svg width="24" height="24" viewBox="0 0 24 24" fill="none" xmlns="http://www.w3.org/2000/svg">
<path d="M5.00036 21H18.9996M8.00021 12.0582C7.68559 12.0584 7.37536 11.9756 7.09475 11.8165C6.81414 11.6575 6.57106 11.4267 6.38526 11.1429C6.19946 10.8591 6.07619 10.5303 6.02546 10.1832C5.97473 9.83611 5.99798 9.48055 6.09331 9.1454L3.54044 6.71993C3.36131 6.55143 3.13282 6.4628 2.89882 6.47105C2.66481 6.4793 2.44178 6.58385 2.27251 6.76464C2.15238 6.89276 2.06713 7.05626 2.02661 7.23625C1.98609 7.41623 1.99195 7.60536 2.04352 7.78177L4.54339 16.1211C4.67648 16.5655 4.93112 16.9518 5.27132 17.2256C5.61153 17.4993 6.02009 17.6467 6.43929 17.6468H17.5607C17.9799 17.6467 18.3885 17.4993 18.7287 17.2256C19.0689 16.9518 19.3235 16.5655 19.4566 16.1211L21.9565 7.78177C22.0081 7.60536 22.0139 7.41623 21.9734 7.23625C21.9329 7.05626 21.8476 6.89276 21.7275 6.76464C21.5582 6.58385 21.3352 6.4793 21.1012 6.47105C20.8672 6.4628 20.6387 6.55143 20.4596 6.71993L17.9067 9.1454C17.9674 9.36075 17.9984 9.58653 17.9997 9.82274C17.9997 10.2015 17.9135 10.5741 17.7494 10.9054C17.5852 11.2368 17.3484 11.5161 17.0612 11.7171C16.774 11.9181 16.4459 12.0343 16.1075 12.0547C15.7691 12.0751 15.4317 11.9991 15.1268 11.8337C14.8219 11.6684 14.5597 11.4192 14.3646 11.1095C14.1695 10.7998 14.048 10.4397 14.0115 10.0632C13.975 9.68661 14.0248 9.30586 14.156 8.95666C14.2872 8.60745 14.4957 8.30125 14.7619 8.06679L12.692 2.51505C12.6349 2.36249 12.5388 2.23219 12.4157 2.14054C12.2925 2.0489 12.1479 2 12 2C11.8521 2 11.7075 2.0489 11.5843 2.14054C11.4612 2.23219 11.3651 2.36249 11.308 2.51505L9.23814 8.06679C9.56468 8.35436 9.80293 8.74852 9.91977 9.19445C10.0366 9.64039 10.0262 10.1159 9.89005 10.555C9.75388 10.994 9.49871 11.3747 9.16 11.6441C8.8213 11.9135 8.41591 12.0583 8.00021 12.0582Z" stroke="#6D7D98" stroke-width="1.5" stroke-linecap="round" stroke-linejoin="round"/>
</svg>
