<svg width="24" height="24" viewBox="0 0 24 24" fill="none" xmlns="http://www.w3.org/2000/svg">
<path d="M19.7453 13.0014C20.4476 11.992 20.8715 10.8154 20.9744 9.59C21.0774 8.36463 20.8558 7.13376 20.3318 6.02128C19.8078 4.90881 19.0001 3.95398 17.9898 3.25293C16.9795 2.55187 15.8024 2.12932 14.5769 2.0278C13.3514 1.92629 12.1208 2.14939 11.0089 2.67466C9.89708 3.19993 8.94321 4.00882 8.24335 5.01992C7.54348 6.03102 7.12232 7.20864 7.02224 8.43425C6.92217 9.65986 7.14673 10.8902 7.6733 12.0014" stroke="#6D7D98" stroke-width="1.5" stroke-linecap="round" stroke-linejoin="round"/>
<path d="M14 6C12.895 6 12 6.672 12 7.5C12 8.328 12.895 9 14 9C15.105 9 16 9.672 16 10.5C16 11.328 15.105 12 14 12M14 6C14.87 6 15.612 6.417 15.886 7M14 6V5M14 12C13.13 12 12.388 11.583 12.114 11M14 12V13" stroke="#6D7D98" stroke-width="1.5" stroke-linecap="round"/>
<path d="M3 14H5.39499C5.68899 14 5.97898 14.066 6.24198 14.194L8.28397 15.182C8.54697 15.309 8.83697 15.375 9.13197 15.375H10.174C11.182 15.375 12 16.166 12 17.142C12 17.182 11.973 17.216 11.934 17.227L9.39297 17.9301C8.93702 18.056 8.45084 18.0119 8.02497 17.8061L5.84198 16.75M12 16.5L16.5929 15.089C16.9928 14.9663 17.4212 14.9731 17.817 15.1083C18.2128 15.2435 18.5557 15.5003 18.7969 15.842C19.1659 16.352 19.0159 17.084 18.4779 17.3941L10.963 21.7311C10.728 21.8671 10.4678 21.9538 10.1982 21.9859C9.92863 22.0181 9.65533 21.995 9.39497 21.9181L3 20.0201" stroke="#6D7D98" stroke-width="1.5" stroke-linecap="round" stroke-linejoin="round"/>
</svg>
