<svg width="22" height="20" viewBox="0 0 22 20" fill="none" xmlns="http://www.w3.org/2000/svg">
<path d="M4.06689 8.29182C2.91196 8.0526 1.88031 7.46149 1.1413 6.61553C0.402285 5.76957 -0.000170437 4.71902 5.41462e-08 3.63636V2.5C5.41462e-08 1.62182 0.779571 0.909091 1.74011 0.909091H4.09076C4.32542 0.376364 4.89618 0 5.5624 0H16.3133C16.9795 0 17.5503 0.376364 17.7849 0.909091H20.2599C21.2204 0.909091 22 1.62182 22 2.5V3.63636C22.0003 4.73967 21.5825 5.809 20.8176 6.66241C20.0528 7.51582 18.9881 8.1006 17.8048 8.31727C17.5979 9.45092 17.0594 10.5123 16.2465 11.389C15.4336 12.2657 14.3764 12.925 13.1871 13.2973L13.4168 16.0273L13.4506 16.0555C13.5291 16.1145 13.7519 16.24 14.2819 16.3118C15.1151 16.4245 15.9096 17.0482 15.9096 17.9545V18.6364H18.1469C18.3447 18.6364 18.5344 18.7082 18.6742 18.8361C18.8141 18.9639 18.8927 19.1374 18.8927 19.3182C18.8927 19.499 18.8141 19.6724 18.6742 19.8003C18.5344 19.9282 18.3447 20 18.1469 20H3.72881C3.53102 20 3.34134 19.9282 3.20148 19.8003C3.06162 19.6724 2.98305 19.499 2.98305 19.3182C2.98305 19.1374 3.06162 18.9639 3.20148 18.8361C3.34134 18.7082 3.53102 18.6364 3.72881 18.6364H5.9661V17.9545C5.9661 17.0491 6.76158 16.4245 7.59385 16.3118C8.12384 16.2391 8.34658 16.1145 8.42513 16.0555L8.45894 16.0273L8.68863 13.2973C7.49472 12.9235 6.43421 12.2603 5.62024 11.3786C4.80628 10.4969 4.2694 9.42973 4.06689 8.29091V8.29182ZM5.46893 1.44909V7.27273C5.46893 8.59881 6.04511 9.87058 7.07074 10.8083C8.09636 11.7459 9.4874 12.2727 10.9379 12.2727C12.3883 12.2727 13.7793 11.7459 14.805 10.8083C15.8306 9.87058 16.4068 8.59881 16.4068 7.27273V1.44909C16.4068 1.42643 16.3969 1.40469 16.3794 1.38867C16.3619 1.37264 16.3381 1.36364 16.3133 1.36364H5.5624C5.53761 1.36364 5.51383 1.37264 5.4963 1.38867C5.47877 1.40469 5.46893 1.42643 5.46893 1.44909ZM10.1593 13.5973L9.94549 16.1364L9.9445 16.1555L9.94151 16.1945C9.93786 16.2395 9.93055 16.2842 9.91964 16.3282C9.86992 16.5436 9.72673 16.8436 9.36976 17.11C9.02373 17.37 8.52158 17.5645 7.81261 17.66C7.70948 17.6729 7.6138 17.7164 7.54016 17.7836C7.51442 17.8055 7.49383 17.8319 7.47964 17.8613C7.46545 17.8907 7.45796 17.9224 7.45763 17.9545V18.6364H14.4181V17.9545C14.4177 17.9224 14.4103 17.8907 14.3961 17.8613C14.3819 17.8319 14.3613 17.8055 14.3355 17.7836C14.2619 17.7164 14.1662 17.6729 14.0631 17.66C13.3541 17.5645 12.852 17.3691 12.5049 17.1109C12.149 16.8436 12.0058 16.5436 11.9561 16.3291C11.9418 16.2724 11.9334 16.2145 11.9312 16.1564L11.9302 16.1364L11.7164 13.5973C11.199 13.6505 10.6767 13.6505 10.1593 13.5973ZM17.8983 6.88909C18.6554 6.67142 19.3167 6.23861 19.7861 5.6536C20.2556 5.0686 20.5086 4.36192 20.5085 3.63636V2.5C20.5085 2.43972 20.4823 2.38192 20.4357 2.33929C20.389 2.29667 20.3258 2.27273 20.2599 2.27273H17.8983V6.88909ZM3.9774 2.27273H1.74011C1.67418 2.27273 1.61095 2.29667 1.56433 2.33929C1.51772 2.38192 1.49153 2.43972 1.49153 2.5V3.63636C1.49122 4.34157 1.73014 5.02951 2.17535 5.60539C2.62057 6.18127 3.25017 6.61675 3.9774 6.85182V2.27273Z" fill="#6D7D98"/>
</svg>
