<svg width="24" height="24" viewBox="0 0 24 24" fill="none" xmlns="http://www.w3.org/2000/svg">
<path d="M12 17.9981C11.476 17.9982 10.9685 17.8154 10.5648 17.4814C10.1612 17.1473 9.88681 16.6828 9.789 16.1681C8.31769 15.7133 7.02202 14.8167 6.078 13.6001C5.36533 12.6823 4.87564 11.6116 4.64755 10.4722C4.41947 9.33286 4.45923 8.1561 4.7637 7.03475C5.06817 5.9134 5.62902 4.87812 6.40202 4.01059C7.17501 3.14306 8.139 2.46699 9.21796 2.03573C10.2969 1.60446 11.4613 1.42978 12.6193 1.52548C13.7773 1.62118 14.8973 1.98462 15.8908 2.58716C16.8843 3.18969 17.7242 4.01483 18.3443 4.99748C18.9644 5.98014 19.3477 7.09343 19.464 8.24956C19.5045 8.66206 19.164 8.99806 18.75 8.99806C18.336 8.99806 18.0045 8.66056 17.955 8.24956C17.8211 7.1888 17.4062 6.18309 16.7533 5.33648C16.1003 4.48986 15.233 3.83311 14.241 3.43417C13.2491 3.03522 12.1685 2.90858 11.1112 3.06735C10.0539 3.22612 9.05824 3.66453 8.22721 4.33721C7.39618 5.0099 6.75999 5.89243 6.38447 6.89348C6.00895 7.89453 5.90775 8.97774 6.09133 10.031C6.2749 11.0843 6.73659 12.0694 7.42863 12.8844C8.12066 13.6994 9.0179 14.3147 10.0275 14.6666C10.2184 14.3183 10.498 14.0268 10.838 13.8217C11.178 13.6165 11.5662 13.5049 11.9632 13.4984C12.3603 13.4918 12.752 13.5904 13.0986 13.7842C13.4452 13.978 13.7343 14.26 13.9366 14.6017C14.1389 14.9434 14.2472 15.3326 14.2505 15.7297C14.2537 16.1268 14.1518 16.5176 13.9551 16.8626C13.7584 17.2075 13.4739 17.4943 13.1305 17.6937C12.7871 17.8932 12.3971 17.9981 12 17.9981ZM6 15.7481V15.7076C5.58985 15.3402 5.21428 14.936 4.878 14.5001C4.63157 14.8696 4.50005 15.3039 4.5 15.7481V16.4981C4.5 19.4546 7.29 22.4981 12 22.4981C16.71 22.4981 19.5 19.4546 19.5 16.4981V15.7481C19.5 15.1513 19.2629 14.579 18.841 14.1571C18.419 13.7351 17.8467 13.4981 17.25 13.4981H15C15.3285 13.9331 15.5625 14.4431 15.675 14.9981H17.25C17.4489 14.9981 17.6397 15.0771 17.7803 15.2177C17.921 15.3584 18 15.5491 18 15.7481V16.4981C18 18.6551 15.852 20.9981 12 20.9981C8.148 20.9981 6 18.6551 6 16.4981V15.7481ZM12 11.9981C11.1417 11.998 10.3094 12.2924 9.642 12.8321C8.98619 12.4303 8.44472 11.8666 8.06961 11.1952C7.6945 10.5238 7.49834 9.76715 7.5 8.99806C7.50022 8.21352 7.70554 7.44268 8.0956 6.76199C8.48566 6.08129 9.0469 5.5144 9.72365 5.11754C10.4004 4.72068 11.1692 4.50764 11.9536 4.49956C12.7381 4.49148 13.5111 4.68863 14.1959 5.07147C14.8807 5.4543 15.4535 6.00951 15.8575 6.68202C16.2615 7.35453 16.4826 8.12098 16.499 8.90534C16.5154 9.6897 16.3264 10.4647 15.9509 11.1535C15.5753 11.8423 15.0262 12.421 14.358 12.8321C13.6906 12.2924 12.8583 11.998 12 11.9981ZM9 8.99806C9 9.7937 9.31607 10.5568 9.87868 11.1194C10.4413 11.682 11.2044 11.9981 12 11.9981C12.7956 11.9981 13.5587 11.682 14.1213 11.1194C14.6839 10.5568 15 9.7937 15 8.99806C15 8.20241 14.6839 7.43934 14.1213 6.87674C13.5587 6.31413 12.7956 5.99806 12 5.99806C11.2044 5.99806 10.4413 6.31413 9.87868 6.87674C9.31607 7.43934 9 8.20241 9 8.99806Z" fill="#6D7D98"/>
</svg>
