<svg width="24" height="24" viewBox="0 0 24 24" fill="none" xmlns="http://www.w3.org/2000/svg">
<path d="M18.999 11.9971C18.999 12.2623 18.8937 12.5166 18.7061 12.7042C18.5186 12.8917 18.2642 12.9971 17.999 12.9971C17.7338 12.9971 17.4795 12.8917 17.2919 12.7042C17.1044 12.5166 16.999 12.2623 16.999 11.9971C16.999 11.7319 17.1044 11.4775 17.2919 11.29C17.4795 11.1024 17.7338 10.9971 17.999 10.9971C18.2642 10.9971 18.5186 11.1024 18.7061 11.29C18.8937 11.4775 18.999 11.7319 18.999 11.9971Z" fill="#2A303C"/>
<path fill-rule="evenodd" clip-rule="evenodd" d="M9.94302 3.25293H13.055C14.893 3.25293 16.349 3.25293 17.488 3.40593C18.66 3.56393 19.609 3.89593 20.358 4.64393C21.282 5.56893 21.577 6.80693 21.684 8.41393C22.261 8.66693 22.697 9.20393 22.744 9.88393C22.749 9.94493 22.749 10.0099 22.749 10.0699V13.9359C22.749 13.9959 22.749 14.0609 22.745 14.1209C22.697 14.8009 22.261 15.3389 21.684 15.5929C21.577 17.1989 21.282 18.4369 20.358 19.3619C19.609 20.1099 18.66 20.4419 17.488 20.5999C16.348 20.7529 14.893 20.7529 13.055 20.7529H9.94302C8.10502 20.7529 6.64902 20.7529 5.51002 20.5999C4.33802 20.4419 3.38902 20.1099 2.64002 19.3619C1.89202 18.6129 1.56002 17.6639 1.40202 16.4919C1.24902 15.3519 1.24902 13.8969 1.24902 12.0589V11.9469C1.24902 10.1089 1.24902 8.65293 1.40202 7.51393C1.56002 6.34193 1.89202 5.39293 2.64002 4.64393C3.38902 3.89593 4.33802 3.56393 5.51002 3.40593C6.65002 3.25293 8.10502 3.25293 9.94302 3.25293ZM20.167 15.7529H18.229C16.084 15.7529 14.248 14.1249 14.248 12.0029C14.248 9.88093 16.084 8.25293 18.228 8.25293H20.166C20.052 6.91193 19.795 6.20293 19.296 5.70493C18.873 5.28193 18.293 5.02793 17.287 4.89293C16.26 4.75493 14.905 4.75293 12.998 4.75293H9.99802C8.09102 4.75293 6.73702 4.75493 5.70802 4.89293C4.70302 5.02793 4.12302 5.28193 3.70002 5.70493C3.27702 6.12793 3.02402 6.70793 2.88902 7.71293C2.75102 8.74093 2.74902 10.0949 2.74902 12.0019C2.74902 13.9089 2.75102 15.2639 2.88902 16.2919C3.02402 17.2969 3.27802 17.8769 3.70102 18.2999C4.12402 18.7229 4.70402 18.9769 5.71002 19.1119C6.73802 19.2499 8.09202 19.2519 9.99902 19.2519H12.999C14.906 19.2519 16.261 19.2499 17.289 19.1119C18.294 18.9769 18.874 18.7229 19.297 18.2999C19.796 17.8019 20.053 17.0939 20.167 15.7519M20.923 9.75193H18.229C16.805 9.75193 15.748 10.8109 15.748 12.0019C15.748 13.1929 16.805 14.2519 18.228 14.2519H20.946C21.152 14.2389 21.241 14.0999 21.248 14.0159V9.98893C21.241 9.90493 21.152 9.76593 20.946 9.75393L20.923 9.75193ZM6.99902 8.25293C7.19794 8.25293 7.3887 8.33195 7.52935 8.4726C7.67001 8.61325 7.74902 8.80402 7.74902 9.00293V15.0029C7.74902 15.2018 7.67001 15.3926 7.52935 15.5333C7.3887 15.6739 7.19794 15.7529 6.99902 15.7529C6.80011 15.7529 6.60935 15.6739 6.46869 15.5333C6.32804 15.3926 6.24902 15.2018 6.24902 15.0029V9.00293C6.24902 8.80402 6.32804 8.61325 6.46869 8.4726C6.60935 8.33195 6.80011 8.25293 6.99902 8.25293Z" fill="#2A303C"/>
</svg>
